<?xml version="1.0" encoding="UTF-8" standalone="no"?>
<!DOCTYPE svg PUBLIC "-//W3C//DTD SVG 1.1//EN"
 "http://www.w3.org/Graphics/SVG/1.1/DTD/svg11.dtd">
<!-- Generated by graphviz version 2.36.0 (20140111.2315)
 -->
<!-- Title: finite_state_machine Pages: 1 -->
<svg width="540pt" height="423pt"
 viewBox="0.00 0.00 540.00 422.72" xmlns="http://www.w3.org/2000/svg" xmlns:xlink="http://www.w3.org/1999/xlink">
<g id="graph0" class="graph" transform="scale(0.210938 0.210938) rotate(0) translate(4 2000)">
<title>finite_state_machine</title>
<polygon fill="white" stroke="none" points="-4,4 -4,-2000 2556,-2000 2556,4 -4,4"/>
<!-- qi -->
<g id="node1" class="node"><title>qi</title>
<ellipse fill="black" stroke="black" cx="573" cy="-1520" rx="1.8" ry="1.8"/>
</g>
<!-- S_START -->
<g id="node2" class="node"><title>S_START</title>
<ellipse fill="none" stroke="blue" cx="1220" cy="-1520" rx="79.3813" ry="79.8109"/>
<ellipse fill="none" stroke="blue" cx="1220" cy="-1520" rx="83.3552" ry="83.8062"/>
<text text-anchor="middle" x="1220" y="-1514.1" font-family="Times,serif" font-size="23.00">S_START</text>
</g>
<!-- qi&#45;&gt;S_START -->
<g id="edge68" class="edge"><title>qi&#45;&gt;S_START</title>
<path fill="none" stroke="black" d="M574.896,-1520C758.724,-1520 942.552,-1520 1126.38,-1520"/>
<polygon fill="black" stroke="black" points="1126.53,-1523.5 1136.53,-1520 1126.53,-1516.5 1126.53,-1523.5"/>
</g>
<!-- S_START&#45;&gt;S_START -->
<g id="edge1" class="edge"><title>S_START&#45;&gt;S_START</title>
<path fill="none" stroke="black" d="M1300.42,-1543.59C1312.68,-1539.99 1321,-1532.13 1321,-1520 1321,-1511.28 1316.7,-1504.77 1309.73,-1500.46"/>
<polygon fill="black" stroke="black" points="1310.99,-1497.19 1300.42,-1496.41 1308.2,-1503.6 1310.99,-1497.19"/>
<text text-anchor="middle" x="1378.5" y="-1516.2" font-family="Times,serif" font-size="16.00">&#39;WHITE_SPACE&#39;</text>
</g>
<!-- ERR -->
<g id="node3" class="node"><title>ERR</title>
<ellipse fill="none" stroke="red" cx="556" cy="-95" rx="45.4848" ry="45.927"/>
<ellipse fill="none" stroke="red" cx="556" cy="-95" rx="49.4433" ry="49.9239"/>
<text text-anchor="middle" x="556" y="-89" font-family="Times,serif" font-size="25.00">ERR</text>
</g>
<!-- S_START&#45;&gt;ERR -->
<g id="edge40" class="edge"><title>S_START&#45;&gt;ERR</title>
<path fill="none" stroke="black" d="M1137.82,-1505.24C918.859,-1467.46 338,-1359.47 338,-1277 338,-1277 338,-1277 338,-342 338,-242.398 439.337,-164.26 503.828,-124.618"/>
<polygon fill="black" stroke="black" points="505.917,-127.446 512.67,-119.281 502.3,-121.453 505.917,-127.446"/>
<text text-anchor="middle" x="360.5" y="-836.2" font-family="Times,serif" font-size="16.00">&#39;ELSE&#39;</text>
</g>
<!-- SEMICOLON_SMBL -->
<g id="node4" class="node"><title>SEMICOLON_SMBL</title>
<ellipse fill="none" stroke="green" cx="1381" cy="-1842" rx="104.411" ry="104.857"/>
<ellipse fill="none" stroke="green" cx="1381" cy="-1842" rx="108.391" ry="108.855"/>
<text text-anchor="middle" x="1381" y="-1838.5" font-family="Times,serif" font-size="15.00">SEMICOLON_SMBL</text>
</g>
<!-- S_START&#45;&gt;SEMICOLON_SMBL -->
<g id="edge52" class="edge"><title>S_START&#45;&gt;SEMICOLON_SMBL</title>
<path fill="none" stroke="black" d="M1257.3,-1595.13C1278.27,-1636.81 1304.8,-1689.54 1327.9,-1735.47"/>
<polygon fill="black" stroke="black" points="1324.86,-1737.2 1332.48,-1744.56 1331.11,-1734.05 1324.86,-1737.2"/>
<text text-anchor="middle" x="1296.5" y="-1654.3" font-family="Times,serif" font-size="19.00">&#39;;&#39;</text>
</g>
<!-- LEFT_COLUMN_SMBL -->
<g id="node5" class="node"><title>LEFT_COLUMN_SMBL</title>
<ellipse fill="none" stroke="green" cx="1631" cy="-1842" rx="118.257" ry="118.656"/>
<ellipse fill="none" stroke="green" cx="1631" cy="-1842" rx="122.238" ry="122.65"/>
<text text-anchor="middle" x="1631" y="-1838.5" font-family="Times,serif" font-size="15.00">LEFT_COLUMN_SMBL</text>
</g>
<!-- S_START&#45;&gt;LEFT_COLUMN_SMBL -->
<g id="edge49" class="edge"><title>S_START&#45;&gt;LEFT_COLUMN_SMBL</title>
<path fill="none" stroke="black" d="M1294.69,-1557.58C1353.18,-1588.12 1434.92,-1635.07 1498,-1688 1515.58,-1702.75 1532.83,-1719.9 1548.77,-1737.29"/>
<polygon fill="black" stroke="black" points="1546.22,-1739.68 1555.53,-1744.75 1551.41,-1734.98 1546.22,-1739.68"/>
<text text-anchor="middle" x="1477" y="-1654.3" font-family="Times,serif" font-size="19.00">&#39;(&#39;</text>
</g>
<!-- RIGHT_COLUMN_SMBL -->
<g id="node6" class="node"><title>RIGHT_COLUMN_SMBL</title>
<ellipse fill="none" stroke="green" cx="1902" cy="-1842" rx="125.18" ry="125.555"/>
<ellipse fill="none" stroke="green" cx="1902" cy="-1842" rx="129.162" ry="129.548"/>
<text text-anchor="middle" x="1902" y="-1838.5" font-family="Times,serif" font-size="15.00">RIGHT_COLUMN_SMBL</text>
</g>
<!-- S_START&#45;&gt;RIGHT_COLUMN_SMBL -->
<g id="edge48" class="edge"><title>S_START&#45;&gt;RIGHT_COLUMN_SMBL</title>
<path fill="none" stroke="black" d="M1297.12,-1552.76C1355.68,-1576.12 1438.55,-1607.58 1513,-1630 1621.8,-1662.76 1663.92,-1630.63 1762,-1688 1781.54,-1699.43 1799.92,-1714.47 1816.55,-1730.67"/>
<polygon fill="black" stroke="black" points="1814.51,-1733.58 1824.06,-1738.18 1819.46,-1728.63 1814.51,-1733.58"/>
<text text-anchor="middle" x="1730" y="-1654.3" font-family="Times,serif" font-size="19.00">&#39;)&#39;</text>
</g>
<!-- LEFT_VIN_COLUMN_SMBL -->
<g id="node7" class="node"><title>LEFT_VIN_COLUMN_SMBL</title>
<ellipse fill="none" stroke="green" cx="2196" cy="-1842" rx="142.184" ry="142.403"/>
<ellipse fill="none" stroke="green" cx="2196" cy="-1842" rx="146.176" ry="146.402"/>
<text text-anchor="middle" x="2196" y="-1838.5" font-family="Times,serif" font-size="15.00">LEFT_VIN_COLUMN_SMBL</text>
</g>
<!-- S_START&#45;&gt;LEFT_VIN_COLUMN_SMBL -->
<g id="edge45" class="edge"><title>S_START&#45;&gt;LEFT_VIN_COLUMN_SMBL</title>
<path fill="none" stroke="black" d="M1295.66,-1555.78C1353.81,-1580.87 1436.82,-1613.17 1513,-1630 1743.09,-1680.84 1828.27,-1584.59 2040,-1688 2058.75,-1697.16 2076.64,-1709.44 2093.18,-1723.09"/>
<polygon fill="black" stroke="black" points="2091.3,-1726.08 2101.19,-1729.89 2095.83,-1720.75 2091.3,-1726.08"/>
<text text-anchor="middle" x="1999.5" y="-1654.3" font-family="Times,serif" font-size="19.00">&#39;{&#39;</text>
</g>
<!-- RIGHT_VIN_COLUMN_SMBL -->
<g id="node8" class="node"><title>RIGHT_VIN_COLUMN_SMBL</title>
<ellipse fill="none" stroke="green" cx="153" cy="-1842" rx="149.108" ry="149.302"/>
<ellipse fill="none" stroke="green" cx="153" cy="-1842" rx="153.1" ry="153.299"/>
<text text-anchor="middle" x="153" y="-1838.5" font-family="Times,serif" font-size="15.00">RIGHT_VIN_COLUMN_SMBL</text>
</g>
<!-- S_START&#45;&gt;RIGHT_VIN_COLUMN_SMBL -->
<g id="edge46" class="edge"><title>S_START&#45;&gt;RIGHT_VIN_COLUMN_SMBL</title>
<path fill="none" stroke="black" d="M1137.66,-1534.87C921.483,-1571.48 351.816,-1669.14 315,-1688 297.247,-1697.09 280.073,-1708.73 263.965,-1721.52"/>
<polygon fill="black" stroke="black" points="261.692,-1718.86 256.146,-1727.88 266.111,-1724.29 261.692,-1718.86"/>
<text text-anchor="middle" x="495.5" y="-1654.3" font-family="Times,serif" font-size="19.00">&#39;}&#39;</text>
</g>
<!-- COMMA_SMBL -->
<g id="node9" class="node"><title>COMMA_SMBL</title>
<ellipse fill="none" stroke="green" cx="413" cy="-1842" rx="84.1925" ry="84.5619"/>
<ellipse fill="none" stroke="green" cx="413" cy="-1842" rx="88.165" ry="88.5518"/>
<text text-anchor="middle" x="413" y="-1838.5" font-family="Times,serif" font-size="15.00">COMMA_SMBL</text>
</g>
<!-- S_START&#45;&gt;COMMA_SMBL -->
<g id="edge41" class="edge"><title>S_START&#45;&gt;COMMA_SMBL</title>
<path fill="none" stroke="black" d="M1136.44,-1521.04C994.889,-1525.08 704.498,-1550.96 511,-1688 487.959,-1704.32 469.049,-1727.93 454.199,-1751.74"/>
<polygon fill="black" stroke="black" points="451.079,-1750.14 448.912,-1760.51 457.073,-1753.75 451.079,-1750.14"/>
<text text-anchor="middle" x="567.5" y="-1654.3" font-family="Times,serif" font-size="19.00">&#39;,&#39;</text>
</g>
<!-- PLUS_SMBL -->
<g id="node10" class="node"><title>PLUS_SMBL</title>
<ellipse fill="none" stroke="green" cx="594" cy="-1842" rx="70.2699" ry="70.3568"/>
<ellipse fill="none" stroke="green" cx="594" cy="-1842" rx="74.2749" ry="74.3667"/>
<text text-anchor="middle" x="594" y="-1838.5" font-family="Times,serif" font-size="15.00">PLUS_SMBL</text>
</g>
<!-- S_START&#45;&gt;PLUS_SMBL -->
<g id="edge43" class="edge"><title>S_START&#45;&gt;PLUS_SMBL</title>
<path fill="none" stroke="black" d="M1136.84,-1527.14C1021.71,-1539.6 812.648,-1576.94 677,-1688 653.157,-1707.52 635.139,-1735.77 622.089,-1762.69"/>
<polygon fill="black" stroke="black" points="618.916,-1761.21 617.853,-1771.75 625.257,-1764.18 618.916,-1761.21"/>
<text text-anchor="middle" x="736.5" y="-1654.3" font-family="Times,serif" font-size="19.00">&#39;+&#39;</text>
</g>
<!-- MINUS_SMBL -->
<g id="node11" class="node"><title>MINUS_SMBL</title>
<ellipse fill="none" stroke="green" cx="769" cy="-1842" rx="78.2941" ry="78.5424"/>
<ellipse fill="none" stroke="green" cx="769" cy="-1842" rx="82.2825" ry="82.5434"/>
<text text-anchor="middle" x="769" y="-1838.5" font-family="Times,serif" font-size="15.00">MINUS_SMBL</text>
</g>
<!-- S_START&#45;&gt;MINUS_SMBL -->
<g id="edge44" class="edge"><title>S_START&#45;&gt;MINUS_SMBL</title>
<path fill="none" stroke="black" d="M1139.44,-1543.28C1061.07,-1568.2 942.269,-1614.92 861,-1688 839.55,-1707.29 821.537,-1732.78 807.297,-1757.4"/>
<polygon fill="black" stroke="black" points="804.074,-1755.99 802.222,-1766.42 810.175,-1759.43 804.074,-1755.99"/>
<text text-anchor="middle" x="920.5" y="-1654.3" font-family="Times,serif" font-size="19.00">&#39;+&#39;</text>
</g>
<!-- MULTIPLY_SMBL -->
<g id="node12" class="node"><title>MULTIPLY_SMBL</title>
<ellipse fill="none" stroke="green" cx="971" cy="-1842" rx="96.9402" ry="97.076"/>
<ellipse fill="none" stroke="green" cx="971" cy="-1842" rx="100.926" ry="101.068"/>
<text text-anchor="middle" x="971" y="-1838.5" font-family="Times,serif" font-size="15.00">MULTIPLY_SMBL</text>
</g>
<!-- S_START&#45;&gt;MULTIPLY_SMBL -->
<g id="edge51" class="edge"><title>S_START&#45;&gt;MULTIPLY_SMBL</title>
<path fill="none" stroke="black" d="M1165.79,-1583.97C1139.64,-1614.89 1108.13,-1652.95 1081,-1688 1065.62,-1707.87 1049.57,-1729.59 1034.63,-1750.26"/>
<polygon fill="black" stroke="black" points="1031.75,-1748.27 1028.74,-1758.43 1037.43,-1752.36 1031.75,-1748.27"/>
<text text-anchor="middle" x="1117" y="-1654.3" font-family="Times,serif" font-size="19.00">&#39;*</text>
</g>
<!-- END_OF_FILE -->
<g id="node15" class="node"><title>END_OF_FILE</title>
<ellipse fill="none" stroke="green" cx="1172" cy="-1842" rx="77.2701" ry="77.6624"/>
<ellipse fill="none" stroke="green" cx="1172" cy="-1842" rx="81.2415" ry="81.654"/>
<text text-anchor="middle" x="1172" y="-1838.5" font-family="Times,serif" font-size="15.00">END_OF_FILE</text>
</g>
<!-- S_START&#45;&gt;END_OF_FILE -->
<g id="edge42" class="edge"><title>S_START&#45;&gt;END_OF_FILE</title>
<path fill="none" stroke="black" d="M1207.69,-1603.04C1200.93,-1648.17 1192.51,-1704.24 1185.56,-1750.62"/>
<polygon fill="black" stroke="black" points="1182.07,-1750.25 1184.05,-1760.66 1189,-1751.29 1182.07,-1750.25"/>
<text text-anchor="middle" x="1218.5" y="-1655.2" font-family="Times,serif" font-size="16.00">&#39;EOF&#39;</text>
</g>
<!-- NOT -->
<g id="node23" class="node"><title>NOT</title>
<ellipse fill="none" stroke="green" cx="1559" cy="-1520" rx="32.5071" ry="32.8022"/>
<ellipse fill="none" stroke="green" cx="1559" cy="-1520" rx="36.4885" ry="36.8196"/>
<text text-anchor="middle" x="1559" y="-1516.5" font-family="Times,serif" font-size="15.00">NOT</text>
</g>
<!-- S_START&#45;&gt;NOT -->
<g id="edge2" class="edge"><title>S_START&#45;&gt;NOT</title>
<path fill="none" stroke="black" d="M1303.8,-1520C1369.42,-1520 1458.3,-1520 1511.99,-1520"/>
<polygon fill="black" stroke="black" points="1512.24,-1523.5 1522.24,-1520 1512.24,-1516.5 1512.24,-1523.5"/>
<text text-anchor="middle" x="1412.67" y="-1528.8" font-family="Times,serif" font-size="19.00">&#39;!&#39;</text>
</g>
<!-- R_ARROW -->
<g id="node29" class="node"><title>R_ARROW</title>
<ellipse fill="none" stroke="black" cx="1241" cy="-343" rx="53.4184" ry="53.8905"/>
<text text-anchor="middle" x="1241" y="-339.3" font-family="Times,serif" font-size="14.00">R_ARROW</text>
</g>
<!-- S_START&#45;&gt;R_ARROW -->
<g id="edge5" class="edge"><title>S_START&#45;&gt;R_ARROW</title>
<path fill="none" stroke="black" d="M1234.21,-1437.22C1241.14,-1390.46 1248,-1330.61 1248,-1277 1248,-1277 1248,-1277 1248,-590 1248,-527.974 1245.75,-457.186 1243.8,-407.52"/>
<polygon fill="black" stroke="black" points="1247.29,-407.105 1243.39,-397.253 1240.29,-407.385 1247.29,-407.105"/>
<text text-anchor="middle" x="1257.5" y="-960.3" font-family="Times,serif" font-size="19.00">&#39;&gt;&#39;</text>
</g>
<!-- L_ARROW -->
<g id="node30" class="node"><title>L_ARROW</title>
<ellipse fill="none" stroke="black" cx="1471" cy="-591" rx="53.4184" ry="53.8905"/>
<text text-anchor="middle" x="1471" y="-587.3" font-family="Times,serif" font-size="14.00">L_ARROW</text>
</g>
<!-- S_START&#45;&gt;L_ARROW -->
<g id="edge9" class="edge"><title>S_START&#45;&gt;L_ARROW</title>
<path fill="none" stroke="black" d="M1255.48,-1443.95C1274.47,-1397.05 1294,-1334.77 1294,-1277 1294,-1277 1294,-1277 1294,-839 1294,-751.688 1367.98,-674.034 1420.28,-630.043"/>
<polygon fill="black" stroke="black" points="1422.68,-632.606 1428.15,-623.537 1418.22,-627.211 1422.68,-632.606"/>
<text text-anchor="middle" x="1303.5" y="-1063.3" font-family="Times,serif" font-size="19.00">&#39;&lt;&#39;</text>
</g>
<!-- KW_OR_ID -->
<g id="node31" class="node"><title>KW_OR_ID</title>
<ellipse fill="none" stroke="black" cx="75" cy="-840" rx="55.3436" ry="55.7903"/>
<text text-anchor="middle" x="75" y="-836.3" font-family="Times,serif" font-size="14.00">KW_OR_ID</text>
</g>
<!-- S_START&#45;&gt;KW_OR_ID -->
<g id="edge13" class="edge"><title>S_START&#45;&gt;KW_OR_ID</title>
<path fill="none" stroke="black" d="M1138.18,-1502.3C1017.3,-1478.24 783.656,-1434.08 583,-1410 554.358,-1406.56 348.177,-1407.74 324,-1392 154.945,-1281.97 99.3894,-1026.69 82.1929,-906.198"/>
<polygon fill="black" stroke="black" points="85.6214,-905.439 80.7852,-896.012 78.6873,-906.397 85.6214,-905.439"/>
<text text-anchor="middle" x="213.5" y="-1167.2" font-family="Times,serif" font-size="16.00">&#39;[A&#45;Z]&#39; &#39;[a&#45;z]&#39; &#39;[_]&#39;</text>
</g>
<!-- DIV_OR_COMM -->
<g id="node32" class="node"><title>DIV_OR_COMM</title>
<ellipse fill="none" stroke="black" cx="1569" cy="-1276" rx="76.0649" ry="76.0865"/>
<text text-anchor="middle" x="1569" y="-1272.3" font-family="Times,serif" font-size="14.00">DIV_OR_COMM</text>
</g>
<!-- S_START&#45;&gt;DIV_OR_COMM -->
<g id="edge50" class="edge"><title>S_START&#45;&gt;DIV_OR_COMM</title>
<path fill="none" stroke="black" d="M1289.06,-1472.59C1324.45,-1448.69 1368.16,-1418.97 1407,-1392 1437.43,-1370.87 1470.84,-1347.23 1499.37,-1326.9"/>
<polygon fill="black" stroke="black" points="1501.56,-1329.64 1507.67,-1320.99 1497.5,-1323.94 1501.56,-1329.64"/>
<text text-anchor="middle" x="1444.5" y="-1376.3" font-family="Times,serif" font-size="19.00">&#39;/&#39;</text>
</g>
<!-- S_STRING -->
<g id="node36" class="node"><title>S_STRING</title>
<ellipse fill="none" stroke="black" cx="581" cy="-1068" rx="51.4931" ry="51.9908"/>
<text text-anchor="middle" x="581" y="-1064.3" font-family="Times,serif" font-size="14.00">S_STRING</text>
</g>
<!-- S_START&#45;&gt;S_STRING -->
<g id="edge47" class="edge"><title>S_START&#45;&gt;S_STRING</title>
<path fill="none" stroke="black" d="M1151.68,-1471.42C1103.84,-1438.06 1038.45,-1392.4 981,-1352 854.862,-1263.31 706.81,-1158.33 631.117,-1104.6"/>
<polygon fill="black" stroke="black" points="632.873,-1101.55 622.693,-1098.62 628.821,-1107.26 632.873,-1101.55"/>
<text text-anchor="middle" x="989" y="-1271.3" font-family="Times,serif" font-size="19.00">&#39;&quot;&#39;</text>
</g>
<!-- EQ_OR_ASIGNMENT -->
<g id="node40" class="node"><title>EQ_OR_ASIGNMENT</title>
<ellipse fill="none" stroke="black" cx="2456" cy="-1842" rx="95.3122" ry="95.5831"/>
<text text-anchor="middle" x="2456" y="-1838.3" font-family="Times,serif" font-size="14.00">EQ_OR_ASIGNMENT</text>
</g>
<!-- S_START&#45;&gt;EQ_OR_ASIGNMENT -->
<g id="edge37" class="edge"><title>S_START&#45;&gt;EQ_OR_ASIGNMENT</title>
<path fill="none" stroke="black" d="M1295.16,-1556.59C1353.22,-1582.19 1436.34,-1614.77 1513,-1630 1547.69,-1636.89 2260.81,-1633.52 2351,-1688 2374.58,-1702.24 2394.12,-1724.04 2409.69,-1746.75"/>
<polygon fill="black" stroke="black" points="2406.81,-1748.74 2415.25,-1755.15 2412.65,-1744.88 2406.81,-1748.74"/>
<text text-anchor="middle" x="2289.5" y="-1654.3" font-family="Times,serif" font-size="19.00">&#39;=&#39;</text>
</g>
<!-- S_NUMBER -->
<g id="node41" class="node"><title>S_NUMBER</title>
<ellipse fill="none" stroke="black" cx="1064" cy="-1276" rx="57.2688" ry="57.6901"/>
<text text-anchor="middle" x="1064" y="-1272.3" font-family="Times,serif" font-size="14.00">S_NUMBER</text>
</g>
<!-- S_START&#45;&gt;S_NUMBER -->
<g id="edge53" class="edge"><title>S_START&#45;&gt;S_NUMBER</title>
<path fill="none" stroke="black" d="M1174.88,-1449C1151.24,-1412.33 1122.66,-1368 1100.44,-1333.53"/>
<polygon fill="black" stroke="black" points="1103.3,-1331.5 1094.94,-1324.99 1097.41,-1335.29 1103.3,-1331.5"/>
<text text-anchor="middle" x="1156.5" y="-1377.2" font-family="Times,serif" font-size="16.00">&#39;[0&#45;9]&#39;</text>
</g>
<!-- END_DOUBLE -->
<g id="node13" class="node"><title>END_DOUBLE</title>
<ellipse fill="none" stroke="green" cx="873" cy="-95" rx="78.2941" ry="78.5424"/>
<ellipse fill="none" stroke="green" cx="873" cy="-95" rx="82.2825" ry="82.5434"/>
<text text-anchor="middle" x="873" y="-91.5" font-family="Times,serif" font-size="15.00">END_DOUBLE</text>
</g>
<!-- END_NUMBER -->
<g id="node14" class="node"><title>END_NUMBER</title>
<ellipse fill="none" stroke="green" cx="1135" cy="-840" rx="80.969" ry="81.1122"/>
<ellipse fill="none" stroke="green" cx="1135" cy="-840" rx="84.9527" ry="85.1029"/>
<text text-anchor="middle" x="1135" y="-836.5" font-family="Times,serif" font-size="15.00">END_NUMBER</text>
</g>
<!-- END_KW_OR_ID -->
<g id="node16" class="node"><title>END_KW_OR_ID</title>
<ellipse fill="none" stroke="green" cx="94" cy="-591" rx="90.0167" ry="90.1767"/>
<ellipse fill="none" stroke="green" cx="94" cy="-591" rx="94.0026" ry="94.1697"/>
<text text-anchor="middle" x="94" y="-587.5" font-family="Times,serif" font-size="15.00">END_KW_OR_ID</text>
</g>
<!-- LESS_SMBL -->
<g id="node17" class="node"><title>LESS_SMBL</title>
<ellipse fill="none" stroke="green" cx="1386" cy="-343" rx="68.2248" ry="68.5986"/>
<ellipse fill="none" stroke="green" cx="1386" cy="-343" rx="72.1917" ry="72.5873"/>
<text text-anchor="middle" x="1386" y="-339.5" font-family="Times,serif" font-size="15.00">LESS_SMBL</text>
</g>
<!-- LESS_EQUAL -->
<g id="node18" class="node"><title>LESS_EQUAL</title>
<ellipse fill="none" stroke="green" cx="1556" cy="-343" rx="75.0697" ry="75.0922"/>
<ellipse fill="none" stroke="green" cx="1556" cy="-343" rx="79.0709" ry="79.0946"/>
<text text-anchor="middle" x="1556" y="-339.5" font-family="Times,serif" font-size="15.00">LESS_EQUAL</text>
</g>
<!-- DOUBLE_R_ARR -->
<g id="node19" class="node"><title>DOUBLE_R_ARR</title>
<ellipse fill="none" stroke="green" cx="1439" cy="-95" rx="91.0438" ry="91.0579"/>
<ellipse fill="none" stroke="green" cx="1439" cy="-95" rx="95.0444" ry="95.0592"/>
<text text-anchor="middle" x="1439" y="-91.5" font-family="Times,serif" font-size="15.00">DOUBLE_R_ARR</text>
</g>
<!-- DOUBLE_L_ARR -->
<g id="node20" class="node"><title>DOUBLE_L_ARR</title>
<ellipse fill="none" stroke="green" cx="1747" cy="-343" rx="90.0167" ry="90.1767"/>
<ellipse fill="none" stroke="green" cx="1747" cy="-343" rx="94.0026" ry="94.1697"/>
<text text-anchor="middle" x="1747" y="-339.5" font-family="Times,serif" font-size="15.00">DOUBLE_L_ARR</text>
</g>
<!-- MORE_SMBL -->
<g id="node21" class="node"><title>MORE_SMBL</title>
<ellipse fill="none" stroke="green" cx="1060" cy="-95" rx="74.0457" ry="74.2126"/>
<ellipse fill="none" stroke="green" cx="1060" cy="-95" rx="78.0292" ry="78.2051"/>
<text text-anchor="middle" x="1060" y="-91.5" font-family="Times,serif" font-size="15.00">MORE_SMBL</text>
</g>
<!-- MORE_EQUAL -->
<g id="node22" class="node"><title>MORE_EQUAL</title>
<ellipse fill="none" stroke="green" cx="1241" cy="-95" rx="80.4186" ry="80.7078"/>
<ellipse fill="none" stroke="green" cx="1241" cy="-95" rx="84.4093" ry="84.7128"/>
<text text-anchor="middle" x="1241" y="-91.5" font-family="Times,serif" font-size="15.00">MORE_EQUAL</text>
</g>
<!-- NOT&#45;&gt;NOT -->
<g id="edge4" class="edge"><title>NOT&#45;&gt;NOT</title>
<path fill="none" stroke="black" d="M1585.95,-1544.89C1600.14,-1548.92 1613,-1540.62 1613,-1520 1613,-1504.54 1605.77,-1496 1596.16,-1494.4"/>
<polygon fill="black" stroke="black" points="1595.68,-1490.93 1585.95,-1495.11 1596.17,-1497.91 1595.68,-1490.93"/>
<text text-anchor="middle" x="1635.5" y="-1516.2" font-family="Times,serif" font-size="16.00">&#39;ELSE&#39;</text>
</g>
<!-- NOT_EQUAL -->
<g id="node28" class="node"><title>NOT_EQUAL</title>
<ellipse fill="none" stroke="green" cx="1960" cy="-1520" rx="71.9219" ry="72.0484"/>
<ellipse fill="none" stroke="green" cx="1960" cy="-1520" rx="75.9027" ry="76.0362"/>
<text text-anchor="middle" x="1960" y="-1516.5" font-family="Times,serif" font-size="15.00">NOT_EQUAL</text>
</g>
<!-- NOT&#45;&gt;NOT_EQUAL -->
<g id="edge3" class="edge"><title>NOT&#45;&gt;NOT_EQUAL</title>
<path fill="none" stroke="black" d="M1595.65,-1520C1658.23,-1520 1787.31,-1520 1873.79,-1520"/>
<polygon fill="black" stroke="black" points="1873.85,-1523.5 1883.85,-1520 1873.85,-1516.5 1873.85,-1523.5"/>
<text text-anchor="middle" x="1739.37" y="-1528.8" font-family="Times,serif" font-size="19.00">&#39;=&#39;</text>
</g>
<!-- E_STRING -->
<g id="node24" class="node"><title>E_STRING</title>
<ellipse fill="none" stroke="green" cx="627" cy="-840" rx="59.1809" ry="59.5357"/>
<ellipse fill="none" stroke="green" cx="627" cy="-840" rx="63.1421" ry="63.5207"/>
<text text-anchor="middle" x="627" y="-836.5" font-family="Times,serif" font-size="15.00">E_STRING</text>
</g>
<!-- ASIGNMENT_SMBL -->
<g id="node25" class="node"><title>ASIGNMENT_SMBL</title>
<ellipse fill="none" stroke="green" cx="2258" cy="-1520" rx="105.44" ry="105.74"/>
<ellipse fill="none" stroke="green" cx="2258" cy="-1520" rx="109.433" ry="109.744"/>
<text text-anchor="middle" x="2258" y="-1516.5" font-family="Times,serif" font-size="15.00">ASIGNMENT_SMBL</text>
</g>
<!-- EQUAL_SMBL -->
<g id="node26" class="node"><title>EQUAL_SMBL</title>
<ellipse fill="none" stroke="green" cx="2469" cy="-1520" rx="79.3199" ry="79.4233"/>
<ellipse fill="none" stroke="green" cx="2469" cy="-1520" rx="83.3252" ry="83.4337"/>
<text text-anchor="middle" x="2469" y="-1516.5" font-family="Times,serif" font-size="15.00">EQUAL_SMBL</text>
</g>
<!-- DIVIDE_SMBL -->
<g id="node27" class="node"><title>DIVIDE_SMBL</title>
<ellipse fill="none" stroke="green" cx="1815" cy="-591" rx="80.4186" ry="80.7078"/>
<ellipse fill="none" stroke="green" cx="1815" cy="-591" rx="84.4093" ry="84.7128"/>
<text text-anchor="middle" x="1815" y="-587.5" font-family="Times,serif" font-size="15.00">DIVIDE_SMBL</text>
</g>
<!-- R_ARROW&#45;&gt;DOUBLE_R_ARR -->
<g id="edge8" class="edge"><title>R_ARROW&#45;&gt;DOUBLE_R_ARR</title>
<path fill="none" stroke="black" d="M1269.28,-297.136C1279.74,-281.282 1291.98,-263.54 1304,-248 1323.58,-222.682 1346.23,-196.228 1367.32,-172.619"/>
<polygon fill="black" stroke="black" points="1370.03,-174.839 1374.1,-165.059 1364.82,-170.163 1370.03,-174.839"/>
<text text-anchor="middle" x="1344.5" y="-214.3" font-family="Times,serif" font-size="19.00">&#39;&gt;&#39;</text>
</g>
<!-- R_ARROW&#45;&gt;MORE_SMBL -->
<g id="edge6" class="edge"><title>R_ARROW&#45;&gt;MORE_SMBL</title>
<path fill="none" stroke="black" d="M1209.47,-299.15C1182.64,-262.681 1143.56,-209.562 1112.08,-166.787"/>
<polygon fill="black" stroke="black" points="1114.84,-164.633 1106.1,-158.653 1109.21,-168.782 1114.84,-164.633"/>
<text text-anchor="middle" x="1177.5" y="-215.2" font-family="Times,serif" font-size="16.00">&#39;ELSE&#39;</text>
</g>
<!-- R_ARROW&#45;&gt;MORE_EQUAL -->
<g id="edge7" class="edge"><title>R_ARROW&#45;&gt;MORE_EQUAL</title>
<path fill="none" stroke="black" d="M1241,-288.925C1241,-260.124 1241,-223.664 1241,-190.214"/>
<polygon fill="black" stroke="black" points="1244.5,-189.941 1241,-179.941 1237.5,-189.941 1244.5,-189.941"/>
<text text-anchor="middle" x="1250.5" y="-214.3" font-family="Times,serif" font-size="19.00">&#39;=&#39;</text>
</g>
<!-- L_ARROW&#45;&gt;LESS_SMBL -->
<g id="edge10" class="edge"><title>L_ARROW&#45;&gt;LESS_SMBL</title>
<path fill="none" stroke="black" d="M1453.7,-539.922C1441.97,-505.991 1426.24,-460.473 1412.9,-421.851"/>
<polygon fill="black" stroke="black" points="1416.14,-420.5 1409.56,-412.192 1409.52,-422.786 1416.14,-420.5"/>
<text text-anchor="middle" x="1453.5" y="-463.2" font-family="Times,serif" font-size="16.00">&#39;ELSE&#39;</text>
</g>
<!-- L_ARROW&#45;&gt;LESS_EQUAL -->
<g id="edge11" class="edge"><title>L_ARROW&#45;&gt;LESS_EQUAL</title>
<path fill="none" stroke="black" d="M1488.3,-539.922C1499.4,-507.811 1514.08,-465.323 1526.93,-428.123"/>
<polygon fill="black" stroke="black" points="1530.37,-428.883 1530.33,-418.288 1523.76,-426.597 1530.37,-428.883"/>
<text text-anchor="middle" x="1525.5" y="-462.3" font-family="Times,serif" font-size="19.00">&#39;=&#39;</text>
</g>
<!-- L_ARROW&#45;&gt;DOUBLE_L_ARR -->
<g id="edge12" class="edge"><title>L_ARROW&#45;&gt;DOUBLE_L_ARR</title>
<path fill="none" stroke="black" d="M1511.04,-555.197C1546.23,-524.525 1598.73,-478.54 1644,-438 1652.59,-430.304 1661.56,-422.215 1670.46,-414.147"/>
<polygon fill="black" stroke="black" points="1672.86,-416.697 1677.91,-407.384 1668.15,-411.514 1672.86,-416.697"/>
<text text-anchor="middle" x="1629.5" y="-462.3" font-family="Times,serif" font-size="19.00">&#39;&lt;&#39;</text>
</g>
<!-- KW_OR_ID&#45;&gt;ERR -->
<g id="edge14" class="edge"><title>KW_OR_ID&#45;&gt;ERR</title>
<path fill="none" stroke="black" d="M119.187,-806.096C143.739,-785.613 172.895,-757.264 191,-726 310.115,-520.311 173.403,-391.894 324,-208 368.192,-154.037 444.637,-124.257 497.64,-109.222"/>
<polygon fill="black" stroke="black" points="498.862,-112.517 507.581,-106.497 497.011,-105.766 498.862,-112.517"/>
<text text-anchor="middle" x="268.5" y="-463.2" font-family="Times,serif" font-size="16.00">&#39;ELSE&#39;</text>
</g>
<!-- KW_OR_ID&#45;&gt;END_KW_OR_ID -->
<g id="edge16" class="edge"><title>KW_OR_ID&#45;&gt;END_KW_OR_ID</title>
<path fill="none" stroke="black" d="M79.2167,-784.183C81.2205,-758.134 83.684,-726.107 86.0214,-695.721"/>
<polygon fill="black" stroke="black" points="89.5311,-695.729 86.8085,-685.49 82.5517,-695.192 89.5311,-695.729"/>
<text text-anchor="middle" x="136.5" y="-711.2" font-family="Times,serif" font-size="16.00">&#39;POV_ZNAKY&#39;</text>
</g>
<!-- KW_OR_ID&#45;&gt;KW_OR_ID -->
<g id="edge15" class="edge"><title>KW_OR_ID&#45;&gt;KW_OR_ID</title>
<path fill="none" stroke="black" d="M125.832,-862.931C138.518,-861.327 148,-853.684 148,-840 148,-830.165 143.101,-823.45 135.636,-819.856"/>
<polygon fill="black" stroke="black" points="136.408,-816.436 125.832,-817.069 134.494,-823.17 136.408,-816.436"/>
<text text-anchor="middle" x="224.5" y="-836.2" font-family="Times,serif" font-size="16.00">&#39;[A&#45;Z]&#39; &#39;[a&#45;z]&#39; &#39;[_]&#39; &#39;[0&#45;9]&#39;</text>
</g>
<!-- DIV_OR_COMM&#45;&gt;DIVIDE_SMBL -->
<g id="edge17" class="edge"><title>DIV_OR_COMM&#45;&gt;DIVIDE_SMBL</title>
<path fill="none" stroke="black" d="M1641.71,-1253.45C1694.47,-1233.63 1762.26,-1198.59 1796,-1142 1880.63,-1000.07 1859.58,-798.864 1837.01,-683.267"/>
<polygon fill="black" stroke="black" points="1840.43,-682.502 1835.04,-673.382 1833.57,-683.873 1840.43,-682.502"/>
<text text-anchor="middle" x="1874.5" y="-961.2" font-family="Times,serif" font-size="16.00">&#39;ELSE&#39;</text>
</g>
<!-- LINE_COMM -->
<g id="node33" class="node"><title>LINE_COMM</title>
<ellipse fill="none" stroke="black" cx="1433" cy="-1068" rx="63.5411" ry="63.8893"/>
<text text-anchor="middle" x="1433" y="-1064.3" font-family="Times,serif" font-size="14.00">LINE_COMM</text>
</g>
<!-- DIV_OR_COMM&#45;&gt;LINE_COMM -->
<g id="edge18" class="edge"><title>DIV_OR_COMM&#45;&gt;LINE_COMM</title>
<path fill="none" stroke="black" d="M1527.46,-1212.07C1510.26,-1186.03 1490.39,-1155.93 1473.33,-1130.09"/>
<polygon fill="black" stroke="black" points="1476.09,-1127.91 1467.66,-1121.49 1470.25,-1131.77 1476.09,-1127.91"/>
<text text-anchor="middle" x="1511.5" y="-1166.3" font-family="Times,serif" font-size="19.00">&#39;/&#39;</text>
</g>
<!-- BLOCK_COMM -->
<g id="node34" class="node"><title>BLOCK_COMM</title>
<ellipse fill="none" stroke="black" cx="1651" cy="-1068" rx="73.1654" ry="73.387"/>
<text text-anchor="middle" x="1651" y="-1064.3" font-family="Times,serif" font-size="14.00">BLOCK_COMM</text>
</g>
<!-- DIV_OR_COMM&#45;&gt;BLOCK_COMM -->
<g id="edge21" class="edge"><title>DIV_OR_COMM&#45;&gt;BLOCK_COMM</title>
<path fill="none" stroke="black" d="M1596.88,-1204.97C1604.46,-1185.93 1612.71,-1165.2 1620.43,-1145.8"/>
<polygon fill="black" stroke="black" points="1623.73,-1146.98 1624.17,-1136.4 1617.22,-1144.39 1623.73,-1146.98"/>
<text text-anchor="middle" x="1621" y="-1166.3" font-family="Times,serif" font-size="19.00">&#39;*&#39;</text>
</g>
<!-- LINE_COMM&#45;&gt;S_START -->
<g id="edge20" class="edge"><title>LINE_COMM&#45;&gt;S_START</title>
<path fill="none" stroke="black" d="M1428.54,-1131.54C1421.35,-1199.65 1402.75,-1309.83 1355,-1392 1339.6,-1418.5 1316.98,-1442.85 1294.63,-1463"/>
<polygon fill="black" stroke="black" points="1292.26,-1460.42 1287.08,-1469.66 1296.89,-1465.67 1292.26,-1460.42"/>
<text text-anchor="middle" x="1429.5" y="-1271.3" font-family="Times,serif" font-size="19.00">&#39;\n&#39;</text>
</g>
<!-- LINE_COMM&#45;&gt;LINE_COMM -->
<g id="edge19" class="edge"><title>LINE_COMM&#45;&gt;LINE_COMM</title>
<path fill="none" stroke="black" d="M1493.76,-1086.27C1505.59,-1084.15 1514,-1078.06 1514,-1068 1514,-1061.08 1510.03,-1056.04 1503.7,-1052.88"/>
<polygon fill="black" stroke="black" points="1504.35,-1049.41 1493.76,-1049.73 1502.23,-1056.09 1504.35,-1049.41"/>
<text text-anchor="middle" x="1536.5" y="-1064.2" font-family="Times,serif" font-size="16.00">&#39;ELSE&#39;</text>
</g>
<!-- BLOCK_COMM&#45;&gt;BLOCK_COMM -->
<g id="edge23" class="edge"><title>BLOCK_COMM&#45;&gt;BLOCK_COMM</title>
<path fill="none" stroke="black" d="M1722.34,-1085.7C1733.99,-1083.16 1742,-1077.26 1742,-1068 1742,-1061.63 1738.22,-1056.85 1732.06,-1053.67"/>
<polygon fill="black" stroke="black" points="1732.94,-1050.26 1722.34,-1050.3 1730.65,-1056.88 1732.94,-1050.26"/>
<text text-anchor="middle" x="1764.5" y="-1064.2" font-family="Times,serif" font-size="16.00">&#39;ELSE&#39;</text>
</g>
<!-- END_BLOCK_COMM -->
<g id="node35" class="node"><title>END_BLOCK_COMM</title>
<ellipse fill="none" stroke="black" cx="1583" cy="-840" rx="96.2874" ry="96.3833"/>
<text text-anchor="middle" x="1583" y="-836.3" font-family="Times,serif" font-size="14.00">END_BLOCK_COMM</text>
</g>
<!-- BLOCK_COMM&#45;&gt;END_BLOCK_COMM -->
<g id="edge22" class="edge"><title>BLOCK_COMM&#45;&gt;END_BLOCK_COMM</title>
<path fill="none" stroke="black" d="M1639.23,-995.359C1636.35,-981.518 1632.94,-967.217 1629,-954 1627.45,-948.798 1625.75,-943.505 1623.95,-938.192"/>
<polygon fill="black" stroke="black" points="1627.2,-936.902 1620.59,-928.621 1620.6,-939.216 1627.2,-936.902"/>
<text text-anchor="middle" x="1643" y="-960.3" font-family="Times,serif" font-size="19.00">&#39;*&#39;</text>
</g>
<!-- END_BLOCK_COMM&#45;&gt;S_START -->
<g id="edge24" class="edge"><title>END_BLOCK_COMM&#45;&gt;S_START</title>
<path fill="none" stroke="black" d="M1495.05,-879.067C1447.15,-904.505 1391.4,-942.755 1360,-994 1266.8,-1146.11 1372.17,-1225.55 1308,-1392 1300.7,-1410.93 1290.04,-1429.76 1278.63,-1446.89"/>
<polygon fill="black" stroke="black" points="1275.73,-1444.93 1272.98,-1455.16 1281.51,-1448.88 1275.73,-1444.93"/>
<text text-anchor="middle" x="1328.5" y="-1166.3" font-family="Times,serif" font-size="19.00">&#39;/&#39;</text>
</g>
<!-- END_BLOCK_COMM&#45;&gt;BLOCK_COMM -->
<g id="edge25" class="edge"><title>END_BLOCK_COMM&#45;&gt;BLOCK_COMM</title>
<path fill="none" stroke="black" d="M1572.48,-935.636C1573.35,-949.422 1575.62,-963.253 1580,-976 1583.54,-986.3 1588.78,-996.33 1594.84,-1005.74"/>
<polygon fill="black" stroke="black" points="1592.08,-1007.9 1600.6,-1014.19 1597.86,-1003.96 1592.08,-1007.9"/>
<text text-anchor="middle" x="1602.5" y="-961.2" font-family="Times,serif" font-size="16.00">&#39;ELSE&#39;</text>
</g>
<!-- S_STRING&#45;&gt;ERR -->
<g id="edge27" class="edge"><title>S_STRING&#45;&gt;ERR</title>
<path fill="none" stroke="black" d="M621.677,-1035.84C649.304,-1011.94 683.529,-976.291 699,-936 729.589,-856.338 715.633,-827.697 699,-744 693.562,-716.638 682.286,-712.929 675,-686 623.683,-496.335 664.22,-438.22 615,-248 606.368,-214.638 592.603,-178.633 580.54,-150.043"/>
<polygon fill="black" stroke="black" points="583.672,-148.466 576.524,-140.646 577.235,-151.217 583.672,-148.466"/>
<text text-anchor="middle" x="697.5" y="-587.2" font-family="Times,serif" font-size="16.00">&#39;ELSE&#39;</text>
</g>
<!-- S_STRING&#45;&gt;E_STRING -->
<g id="edge36" class="edge"><title>S_STRING&#45;&gt;E_STRING</title>
<path fill="none" stroke="black" d="M591.209,-1016.84C597.448,-986.188 605.529,-946.486 612.433,-912.566"/>
<polygon fill="black" stroke="black" points="615.876,-913.201 614.441,-902.704 609.016,-911.805 615.876,-913.201"/>
<text text-anchor="middle" x="612" y="-960.3" font-family="Times,serif" font-size="19.00">&#39;&quot;&#39;</text>
</g>
<!-- S_STRING&#45;&gt;S_STRING -->
<g id="edge26" class="edge"><title>S_STRING&#45;&gt;S_STRING</title>
<path fill="none" stroke="black" d="M629.046,-1086.86C641.037,-1085.54 650,-1079.26 650,-1068 650,-1060.09 645.569,-1054.63 638.77,-1051.63"/>
<polygon fill="black" stroke="black" points="639.602,-1048.23 629.046,-1049.14 637.866,-1055.01 639.602,-1048.23"/>
</g>
<!-- S_ESCAPE -->
<g id="node37" class="node"><title>S_ESCAPE</title>
<ellipse fill="none" stroke="black" cx="454" cy="-840" rx="52.4675" ry="52.7911"/>
<text text-anchor="middle" x="454" y="-836.3" font-family="Times,serif" font-size="14.00">S_ESCAPE</text>
</g>
<!-- S_STRING&#45;&gt;S_ESCAPE -->
<g id="edge28" class="edge"><title>S_STRING&#45;&gt;S_ESCAPE</title>
<path fill="none" stroke="black" d="M546.328,-1028.98C533.197,-1013.33 518.822,-994.542 508,-976 494.127,-952.23 482.277,-924.221 473.242,-899.894"/>
<polygon fill="black" stroke="black" points="476.503,-898.62 469.794,-890.42 469.925,-901.014 476.503,-898.62"/>
<text text-anchor="middle" x="514.5" y="-960.3" font-family="Times,serif" font-size="19.00">&#39;\&#39;</text>
</g>
<!-- S_ESCAPE&#45;&gt;ERR -->
<g id="edge30" class="edge"><title>S_ESCAPE&#45;&gt;ERR</title>
<path fill="none" stroke="black" d="M430.874,-792.425C417.465,-762.768 401.903,-723.085 395,-686 377.189,-590.31 356.464,-337.38 395,-248 417.356,-196.149 467.064,-153.757 505.374,-127.041"/>
<polygon fill="black" stroke="black" points="507.569,-129.78 513.854,-121.251 503.622,-123.999 507.569,-129.78"/>
<text text-anchor="middle" x="397.5" y="-463.2" font-family="Times,serif" font-size="16.00">&#39;ELSE&#39;</text>
</g>
<!-- S_ESCAPE&#45;&gt;S_STRING -->
<g id="edge29" class="edge"><title>S_ESCAPE&#45;&gt;S_STRING</title>
<path fill="none" stroke="black" d="M436.4,-889.909C429.777,-916.813 426.849,-949.924 441,-976 458.543,-1008.33 493.085,-1030.96 523.467,-1045.57"/>
<polygon fill="black" stroke="black" points="522.192,-1048.84 532.739,-1049.85 525.125,-1042.48 522.192,-1048.84"/>
<text text-anchor="middle" x="467" y="-960.3" font-family="Times,serif" font-size="19.00">&#39;t&#39; &#39;n&#39; &#39;\&#39;</text>
</g>
<!-- ESCAPE_X1 -->
<g id="node38" class="node"><title>ESCAPE_X1</title>
<ellipse fill="none" stroke="black" cx="462" cy="-591" rx="58.2422" ry="58.4896"/>
<text text-anchor="middle" x="462" y="-587.3" font-family="Times,serif" font-size="14.00">ESCAPE_X1</text>
</g>
<!-- S_ESCAPE&#45;&gt;ESCAPE_X1 -->
<g id="edge31" class="edge"><title>S_ESCAPE&#45;&gt;ESCAPE_X1</title>
<path fill="none" stroke="black" d="M455.677,-787.221C456.877,-750.184 458.503,-699.979 459.805,-659.756"/>
<polygon fill="black" stroke="black" points="463.304,-659.868 460.129,-649.759 456.307,-659.641 463.304,-659.868"/>
<text text-anchor="middle" x="468" y="-710.3" font-family="Times,serif" font-size="19.00">&#39;x&#39;</text>
</g>
<!-- ESCAPE_X1&#45;&gt;ERR -->
<g id="edge33" class="edge"><title>ESCAPE_X1&#45;&gt;ERR</title>
<path fill="none" stroke="black" d="M498.784,-545.407C512.729,-525.918 527.131,-502.044 535,-478 570.86,-368.424 567.744,-231.813 562.022,-155.211"/>
<polygon fill="black" stroke="black" points="565.477,-154.503 561.201,-144.81 558.498,-155.054 565.477,-154.503"/>
<text text-anchor="middle" x="588.5" y="-339.2" font-family="Times,serif" font-size="16.00">&#39;ELSE&#39;</text>
</g>
<!-- ESCAPE_X2 -->
<g id="node39" class="node"><title>ESCAPE_X2</title>
<ellipse fill="none" stroke="black" cx="462" cy="-343" rx="58.2422" ry="58.4896"/>
<text text-anchor="middle" x="462" y="-339.3" font-family="Times,serif" font-size="14.00">ESCAPE_X2</text>
</g>
<!-- ESCAPE_X1&#45;&gt;ESCAPE_X2 -->
<g id="edge32" class="edge"><title>ESCAPE_X1&#45;&gt;ESCAPE_X2</title>
<path fill="none" stroke="black" d="M456.49,-532.5C455.054,-515.016 453.712,-495.737 453,-478 452.133,-456.377 453.077,-432.82 454.634,-411.573"/>
<polygon fill="black" stroke="black" points="458.143,-411.591 455.442,-401.346 451.165,-411.04 458.143,-411.591"/>
<text text-anchor="middle" x="494" y="-463.2" font-family="Times,serif" font-size="16.00">&#39;[A&#45;Z]&#39; &#39;[a&#45;z]&#39;</text>
</g>
<!-- ESCAPE_X2&#45;&gt;ERR -->
<g id="edge35" class="edge"><title>ESCAPE_X2&#45;&gt;ERR</title>
<path fill="none" stroke="black" d="M473.673,-285.678C479.482,-261.379 487.345,-232.882 497,-208 504.96,-187.487 515.718,-165.889 525.868,-147.191"/>
<polygon fill="black" stroke="black" points="529.027,-148.711 530.786,-138.263 522.895,-145.333 529.027,-148.711"/>
<text text-anchor="middle" x="519.5" y="-215.2" font-family="Times,serif" font-size="16.00">&#39;ELSE&#39;</text>
</g>
<!-- ESCAPE_X2&#45;&gt;S_STRING -->
<g id="edge34" class="edge"><title>ESCAPE_X2&#45;&gt;S_STRING</title>
<path fill="none" stroke="black" d="M500.273,-387.136C515.282,-406.749 530.841,-431.111 539,-456 572.242,-557.409 541.516,-830.014 554,-936 556.768,-959.499 561.61,-985.045 566.436,-1007.29"/>
<polygon fill="black" stroke="black" points="563.064,-1008.25 568.645,-1017.25 569.899,-1006.73 563.064,-1008.25"/>
<text text-anchor="middle" x="595" y="-711.2" font-family="Times,serif" font-size="16.00">&#39;[A&#45;Z]&#39; &#39;[a&#45;z]&#39;</text>
</g>
<!-- EQ_OR_ASIGNMENT&#45;&gt;ASIGNMENT_SMBL -->
<g id="edge38" class="edge"><title>EQ_OR_ASIGNMENT&#45;&gt;ASIGNMENT_SMBL</title>
<path fill="none" stroke="black" d="M2406.04,-1760.25C2380.1,-1718.33 2348.15,-1666.7 2320.58,-1622.15"/>
<polygon fill="black" stroke="black" points="2323.55,-1620.29 2315.31,-1613.62 2317.6,-1623.97 2323.55,-1620.29"/>
<text text-anchor="middle" x="2367.5" y="-1655.2" font-family="Times,serif" font-size="16.00">&#39;ELSE&#39;</text>
</g>
<!-- EQ_OR_ASIGNMENT&#45;&gt;EQUAL_SMBL -->
<g id="edge39" class="edge"><title>EQ_OR_ASIGNMENT&#45;&gt;EQUAL_SMBL</title>
<path fill="none" stroke="black" d="M2459.85,-1746.29C2461.55,-1704.32 2463.55,-1655.12 2465.25,-1613.42"/>
<polygon fill="black" stroke="black" points="2468.75,-1613.4 2465.66,-1603.26 2461.75,-1613.11 2468.75,-1613.4"/>
<text text-anchor="middle" x="2472.5" y="-1654.3" font-family="Times,serif" font-size="19.00">&#39;=&#39;</text>
</g>
<!-- S_NUMBER&#45;&gt;END_NUMBER -->
<g id="edge55" class="edge"><title>S_NUMBER&#45;&gt;END_NUMBER</title>
<path fill="none" stroke="black" d="M1073.21,-1218.71C1084.99,-1146.67 1105.57,-1020.89 1119.72,-934.406"/>
<polygon fill="black" stroke="black" points="1123.21,-934.758 1121.37,-924.324 1116.3,-933.628 1123.21,-934.758"/>
<text text-anchor="middle" x="1158.5" y="-1064.2" font-family="Times,serif" font-size="16.00">&#39;POV_ZNAKY&#39;</text>
</g>
<!-- S_NUMBER&#45;&gt;S_NUMBER -->
<g id="edge54" class="edge"><title>S_NUMBER&#45;&gt;S_NUMBER</title>
<path fill="none" stroke="black" d="M1118.27,-1294.98C1130.27,-1293.19 1139,-1286.87 1139,-1276 1139,-1268.36 1134.68,-1262.96 1127.95,-1259.81"/>
<polygon fill="black" stroke="black" points="1128.85,-1256.43 1118.27,-1257.02 1126.91,-1263.16 1128.85,-1256.43"/>
<text text-anchor="middle" x="1158.5" y="-1272.2" font-family="Times,serif" font-size="16.00">&#39;[0&#45;9]&#39;</text>
</g>
<!-- EXPONENT -->
<g id="node42" class="node"><title>EXPONENT</title>
<ellipse fill="none" stroke="black" cx="863" cy="-591" rx="57.2927" ry="57.3905"/>
<text text-anchor="middle" x="863" y="-587.3" font-family="Times,serif" font-size="14.00">EXPONENT</text>
</g>
<!-- S_NUMBER&#45;&gt;EXPONENT -->
<g id="edge56" class="edge"><title>S_NUMBER&#45;&gt;EXPONENT</title>
<path fill="none" stroke="black" d="M1059.45,-1217.87C1048.95,-1089.56 1022.41,-786.397 1003,-744 983.174,-700.696 946.264,-661.431 915.319,-633.66"/>
<polygon fill="black" stroke="black" points="917.411,-630.838 907.594,-626.851 912.782,-636.089 917.411,-630.838"/>
<text text-anchor="middle" x="1052.5" y="-961.2" font-family="Times,serif" font-size="16.00">&#39;e&#39; &#39;E&#39;</text>
</g>
<!-- D_NUMBER -->
<g id="node43" class="node"><title>D_NUMBER</title>
<ellipse fill="none" stroke="black" cx="861" cy="-1068" rx="59.1941" ry="59.5901"/>
<text text-anchor="middle" x="861" y="-1064.3" font-family="Times,serif" font-size="14.00">D_NUMBER</text>
</g>
<!-- S_NUMBER&#45;&gt;D_NUMBER -->
<g id="edge57" class="edge"><title>S_NUMBER&#45;&gt;D_NUMBER</title>
<path fill="none" stroke="black" d="M1023.89,-1234.3C991.1,-1201.02 944.61,-1153.85 909.685,-1118.4"/>
<polygon fill="black" stroke="black" points="911.929,-1115.69 902.417,-1111.03 906.943,-1120.61 911.929,-1115.69"/>
<text text-anchor="middle" x="974.5" y="-1166.3" font-family="Times,serif" font-size="19.00">&#39;.&#39;</text>
</g>
<!-- EXPONENT&#45;&gt;ERR -->
<g id="edge64" class="edge"><title>EXPONENT&#45;&gt;ERR</title>
<path fill="none" stroke="black" d="M829.097,-544.643C817.237,-529.071 803.707,-511.632 791,-496 769.532,-469.591 755.617,-468.735 741,-438 696.404,-344.231 753.659,-296.894 700,-208 678.232,-171.939 640.217,-143.118 608.711,-123.747"/>
<polygon fill="black" stroke="black" points="610.392,-120.675 600.016,-118.536 606.794,-126.679 610.392,-120.675"/>
<text text-anchor="middle" x="763.5" y="-339.2" font-family="Times,serif" font-size="16.00">&#39;ELSE&#39;</text>
</g>
<!-- FEX_NUMBER -->
<g id="node45" class="node"><title>FEX_NUMBER</title>
<ellipse fill="none" stroke="black" cx="865" cy="-343" rx="69.3156" ry="69.5877"/>
<text text-anchor="middle" x="865" y="-339.3" font-family="Times,serif" font-size="14.00">FEX_NUMBER</text>
</g>
<!-- EXPONENT&#45;&gt;FEX_NUMBER -->
<g id="edge63" class="edge"><title>EXPONENT&#45;&gt;FEX_NUMBER</title>
<path fill="none" stroke="black" d="M863.459,-533.563C863.724,-500.899 864.063,-459.273 864.355,-423.353"/>
<polygon fill="black" stroke="black" points="867.858,-422.925 864.44,-412.897 860.859,-422.868 867.858,-422.925"/>
<text text-anchor="middle" x="900.5" y="-463.2" font-family="Times,serif" font-size="16.00">&#39;+&#39; &#39;&#45;&#39; &#39;[0&#45;9]&#39;</text>
</g>
<!-- D_NUMBER&#45;&gt;ERR -->
<g id="edge59" class="edge"><title>D_NUMBER&#45;&gt;ERR</title>
<path fill="none" stroke="black" d="M823.776,-1020.93C806.403,-996.987 787.142,-966.422 776,-936 708.203,-750.892 761.83,-688.644 720,-496 695.51,-383.215 688.151,-354.215 643,-248 627.908,-212.497 606.406,-174.85 588.555,-145.905"/>
<polygon fill="black" stroke="black" points="591.4,-143.852 583.143,-137.213 585.457,-147.552 591.4,-143.852"/>
<text text-anchor="middle" x="761.5" y="-587.2" font-family="Times,serif" font-size="16.00">&#39;ELSE&#39;</text>
</g>
<!-- FRAC_NUMBER -->
<g id="node44" class="node"><title>FRAC_NUMBER</title>
<ellipse fill="none" stroke="black" cx="861" cy="-840" rx="76.0649" ry="76.0865"/>
<text text-anchor="middle" x="861" y="-836.3" font-family="Times,serif" font-size="14.00">FRAC_NUMBER</text>
</g>
<!-- D_NUMBER&#45;&gt;FRAC_NUMBER -->
<g id="edge58" class="edge"><title>D_NUMBER&#45;&gt;FRAC_NUMBER</title>
<path fill="none" stroke="black" d="M861,-1007.92C861,-983.099 861,-953.75 861,-926.637"/>
<polygon fill="black" stroke="black" points="864.5,-926.369 861,-916.369 857.5,-926.369 864.5,-926.369"/>
<text text-anchor="middle" x="880.5" y="-961.2" font-family="Times,serif" font-size="16.00">&#39;[0&#45;9]&#39;</text>
</g>
<!-- FRAC_NUMBER&#45;&gt;END_DOUBLE -->
<g id="edge61" class="edge"><title>FRAC_NUMBER&#45;&gt;END_DOUBLE</title>
<path fill="none" stroke="black" d="M898.525,-773.648C956.564,-663.998 1055.87,-436.471 1000,-248 989.726,-213.341 966.474,-181.516 942.636,-156.042"/>
<polygon fill="black" stroke="black" points="945.023,-153.474 935.572,-148.687 939.975,-158.324 945.023,-153.474"/>
<text text-anchor="middle" x="1059.5" y="-463.2" font-family="Times,serif" font-size="16.00">&#39;POV_ZNAKY&#39;</text>
</g>
<!-- FRAC_NUMBER&#45;&gt;EXPONENT -->
<g id="edge62" class="edge"><title>FRAC_NUMBER&#45;&gt;EXPONENT</title>
<path fill="none" stroke="black" d="M861.608,-763.886C861.88,-730.331 862.197,-691.116 862.461,-658.623"/>
<polygon fill="black" stroke="black" points="865.963,-658.353 862.544,-648.325 858.963,-658.296 865.963,-658.353"/>
<text text-anchor="middle" x="878.5" y="-711.2" font-family="Times,serif" font-size="16.00">&#39;e&#39; &#39;E&#39;</text>
</g>
<!-- FRAC_NUMBER&#45;&gt;FRAC_NUMBER -->
<g id="edge60" class="edge"><title>FRAC_NUMBER&#45;&gt;FRAC_NUMBER</title>
<path fill="none" stroke="black" d="M933.914,-861.705C946.37,-858.739 955,-851.504 955,-840 955,-831.732 950.542,-825.669 943.409,-821.811"/>
<polygon fill="black" stroke="black" points="944.507,-818.485 933.914,-818.295 942.077,-825.05 944.507,-818.485"/>
<text text-anchor="middle" x="974.5" y="-836.2" font-family="Times,serif" font-size="16.00">&#39;[0&#45;9]&#39;</text>
</g>
<!-- FEX_NUMBER&#45;&gt;ERR -->
<g id="edge67" class="edge"><title>FEX_NUMBER&#45;&gt;ERR</title>
<path fill="none" stroke="black" d="M823.254,-287.503C801.845,-261.624 774.347,-231.331 746,-208 703.623,-173.122 649.137,-142.19 609.386,-121.719"/>
<polygon fill="black" stroke="black" points="610.877,-118.55 600.378,-117.128 607.699,-124.787 610.877,-118.55"/>
<text text-anchor="middle" x="789.5" y="-215.2" font-family="Times,serif" font-size="16.00">&#39;ELSE&#39;</text>
</g>
<!-- FEX_NUMBER&#45;&gt;END_DOUBLE -->
<g id="edge66" class="edge"><title>FEX_NUMBER&#45;&gt;END_DOUBLE</title>
<path fill="none" stroke="black" d="M867.228,-273.475C868.089,-247.012 869.087,-216.333 870.008,-188.002"/>
<polygon fill="black" stroke="black" points="873.517,-187.791 870.344,-177.682 866.52,-187.563 873.517,-187.791"/>
<text text-anchor="middle" x="919.5" y="-215.2" font-family="Times,serif" font-size="16.00">&#39;POV_ZNAKY&#39;</text>
</g>
<!-- FEX_NUMBER&#45;&gt;FEX_NUMBER -->
<g id="edge65" class="edge"><title>FEX_NUMBER&#45;&gt;FEX_NUMBER</title>
<path fill="none" stroke="black" d="M931.01,-365.057C943.326,-362.34 952,-354.988 952,-343 952,-334.383 947.519,-328.162 940.425,-324.335"/>
<polygon fill="black" stroke="black" points="941.604,-321.04 931.01,-320.943 939.232,-327.626 941.604,-321.04"/>
<text text-anchor="middle" x="971.5" y="-339.2" font-family="Times,serif" font-size="16.00">&#39;[0&#45;9]&#39;</text>
</g>
</g>
</svg>
