<?xml version="1.0" encoding="UTF-8" standalone="no"?>
<!DOCTYPE svg PUBLIC "-//W3C//DTD SVG 1.1//EN"
 "http://www.w3.org/Graphics/SVG/1.1/DTD/svg11.dtd">
<!-- Generated by graphviz version 2.36.0 (20140111.2315)
 -->
<!-- Title: finite_state_machine Pages: 1 -->
<svg width="526pt" height="461pt"
 viewBox="0.00 0.00 526.00 461.07" xmlns="http://www.w3.org/2000/svg" xmlns:xlink="http://www.w3.org/1999/xlink">
<g id="graph0" class="graph" transform="scale(0.262869 0.262869) rotate(0) translate(4 1750)">
<title>finite_state_machine</title>
<polygon fill="white" stroke="none" points="-4,4 -4,-1750 1997,-1750 1997,4 -4,4"/>
<!-- qi -->
<g id="node1" class="node"><title>qi</title>
<ellipse fill="black" stroke="black" cx="453" cy="-1336" rx="1.8" ry="1.8"/>
</g>
<!-- S_START -->
<g id="node2" class="node"><title>S_START</title>
<ellipse fill="none" stroke="blue" cx="1063" cy="-1336" rx="107.518" ry="108"/>
<ellipse fill="none" stroke="blue" cx="1063" cy="-1336" rx="111.5" ry="112"/>
<text text-anchor="middle" x="1063" y="-1330.1" font-family="Times,serif" font-size="23.00">S_START</text>
</g>
<!-- qi&#45;&gt;S_START -->
<g id="edge68" class="edge"><title>qi&#45;&gt;S_START</title>
<path fill="none" stroke="black" d="M455.085,-1336C617.127,-1336 779.17,-1336 941.212,-1336"/>
<polygon fill="black" stroke="black" points="941.391,-1339.5 951.391,-1336 941.391,-1332.5 941.391,-1339.5"/>
</g>
<!-- S_START&#45;&gt;S_START -->
<g id="edge1" class="edge"><title>S_START&#45;&gt;S_START</title>
<path fill="none" stroke="black" d="M1172.64,-1358.54C1184.42,-1354.2 1192,-1346.69 1192,-1336 1192,-1328.49 1188.25,-1322.54 1181.93,-1318.16"/>
<polygon fill="black" stroke="black" points="1183.14,-1314.85 1172.64,-1313.46 1179.98,-1321.1 1183.14,-1314.85"/>
<text text-anchor="middle" x="1227.5" y="-1329.8" font-family="Times,serif" font-size="24.00">&#39;[\ \n\t]&#39;</text>
</g>
<!-- ERR -->
<g id="node3" class="node"><title>ERR</title>
<ellipse fill="none" stroke="red" cx="500" cy="-76" rx="72" ry="72"/>
<ellipse fill="none" stroke="red" cx="500" cy="-76" rx="76" ry="76"/>
<text text-anchor="middle" x="500" y="-69.7" font-family="Times,serif" font-size="26.00">ERR</text>
</g>
<!-- S_START&#45;&gt;ERR -->
<g id="edge40" class="edge"><title>S_START&#45;&gt;ERR</title>
<path fill="none" stroke="black" d="M953.037,-1315.97C684.48,-1268.74 17,-1146.59 17,-1099 17,-1099 17,-1099 17,-287 17,-115.95 274.91,-82.75 413.802,-77.2726"/>
<polygon fill="black" stroke="black" points="414.13,-80.7633 424,-76.9117 413.882,-73.7676 414.13,-80.7633"/>
<text text-anchor="middle" x="51" y="-703.8" font-family="Times,serif" font-size="24.00">&#39;ELSE&#39;</text>
</g>
<!-- SEMICOLON_SMBL -->
<g id="node4" class="node"><title>SEMICOLON_SMBL</title>
<ellipse fill="none" stroke="green" cx="1533" cy="-1629" rx="78.3884" ry="78.8198"/>
<ellipse fill="none" stroke="green" cx="1533" cy="-1629" rx="82.3621" ry="82.8154"/>
<text text-anchor="middle" x="1533" y="-1625.5" font-family="Times,serif" font-size="15.00">SEMICOLON_SMBL</text>
</g>
<!-- S_START&#45;&gt;SEMICOLON_SMBL -->
<g id="edge52" class="edge"><title>S_START&#45;&gt;SEMICOLON_SMBL</title>
<path fill="none" stroke="black" d="M1169.35,-1371.04C1249.42,-1400.1 1359.04,-1447.47 1441,-1512 1455.4,-1523.34 1468.91,-1537.36 1480.92,-1551.68"/>
<polygon fill="black" stroke="black" points="1478.4,-1554.13 1487.43,-1559.66 1483.82,-1549.7 1478.4,-1554.13"/>
<text text-anchor="middle" x="1429.5" y="-1474" font-family="Times,serif" font-size="25.00">&#39;[;]&#39;</text>
</g>
<!-- LEFT_COLUMN_SMBL -->
<g id="node5" class="node"><title>LEFT_COLUMN_SMBL</title>
<ellipse fill="none" stroke="green" cx="1727" cy="-1629" rx="89.0527" ry="89.2242"/>
<ellipse fill="none" stroke="green" cx="1727" cy="-1629" rx="93.0389" ry="93.2182"/>
<text text-anchor="middle" x="1727" y="-1625.5" font-family="Times,serif" font-size="15.00">LEFT_COLUMN_SMBL</text>
</g>
<!-- S_START&#45;&gt;LEFT_COLUMN_SMBL -->
<g id="edge49" class="edge"><title>S_START&#45;&gt;LEFT_COLUMN_SMBL</title>
<path fill="none" stroke="black" d="M1173.29,-1353.28C1292.17,-1374.78 1483.24,-1421.07 1624,-1512 1638.56,-1521.41 1652.31,-1533.42 1664.74,-1546.12"/>
<polygon fill="black" stroke="black" points="1662.48,-1548.83 1671.9,-1553.67 1667.56,-1544.01 1662.48,-1548.83"/>
<text text-anchor="middle" x="1600" y="-1474" font-family="Times,serif" font-size="25.00">&#39;[(]&#39;</text>
</g>
<!-- RIGHT_COLUMN_SMBL -->
<g id="node6" class="node"><title>RIGHT_COLUMN_SMBL</title>
<ellipse fill="none" stroke="green" cx="98" cy="-1629" rx="94.3852" ry="94.6659"/>
<ellipse fill="none" stroke="green" cx="98" cy="-1629" rx="98.3768" ry="98.6694"/>
<text text-anchor="middle" x="98" y="-1625.5" font-family="Times,serif" font-size="15.00">RIGHT_COLUMN_SMBL</text>
</g>
<!-- S_START&#45;&gt;RIGHT_COLUMN_SMBL -->
<g id="edge48" class="edge"><title>S_START&#45;&gt;RIGHT_COLUMN_SMBL</title>
<path fill="none" stroke="black" d="M953.47,-1357.53C729.773,-1399.7 238.654,-1493.68 206,-1512 191.256,-1520.27 177.368,-1531.26 164.774,-1543.17"/>
<polygon fill="black" stroke="black" points="162.209,-1540.79 157.512,-1550.28 167.106,-1545.79 162.209,-1540.79"/>
<text text-anchor="middle" x="406" y="-1474" font-family="Times,serif" font-size="25.00">&#39;[)]&#39;</text>
</g>
<!-- LEFT_VIN_COLUMN_SMBL -->
<g id="node7" class="node"><title>LEFT_VIN_COLUMN_SMBL</title>
<ellipse fill="none" stroke="green" cx="326" cy="-1629" rx="107.187" ry="107.248"/>
<ellipse fill="none" stroke="green" cx="326" cy="-1629" rx="111.189" ry="111.253"/>
<text text-anchor="middle" x="326" y="-1625.5" font-family="Times,serif" font-size="15.00">LEFT_VIN_COLUMN_SMBL</text>
</g>
<!-- S_START&#45;&gt;LEFT_VIN_COLUMN_SMBL -->
<g id="edge45" class="edge"><title>S_START&#45;&gt;LEFT_VIN_COLUMN_SMBL</title>
<path fill="none" stroke="black" d="M952.442,-1351.64C823.808,-1372.33 608.348,-1418.53 446,-1512 432.817,-1519.59 419.994,-1528.95 407.938,-1539.02"/>
<polygon fill="black" stroke="black" points="405.429,-1536.57 400.13,-1545.74 409.994,-1541.87 405.429,-1536.57"/>
<text text-anchor="middle" x="543" y="-1474" font-family="Times,serif" font-size="25.00">&#39;[{]&#39;</text>
</g>
<!-- RIGHT_VIN_COLUMN_SMBL -->
<g id="node8" class="node"><title>RIGHT_VIN_COLUMN_SMBL</title>
<ellipse fill="none" stroke="green" cx="571" cy="-1629" rx="112.039" ry="112.209"/>
<ellipse fill="none" stroke="green" cx="571" cy="-1629" rx="116.028" ry="116.204"/>
<text text-anchor="middle" x="571" y="-1625.5" font-family="Times,serif" font-size="15.00">RIGHT_VIN_COLUMN_SMBL</text>
</g>
<!-- S_START&#45;&gt;RIGHT_VIN_COLUMN_SMBL -->
<g id="edge46" class="edge"><title>S_START&#45;&gt;RIGHT_VIN_COLUMN_SMBL</title>
<path fill="none" stroke="black" d="M958.818,-1376.7C882.773,-1408.01 778.925,-1455.69 696,-1512 683.96,-1520.18 671.935,-1529.49 660.363,-1539.2"/>
<polygon fill="black" stroke="black" points="657.759,-1536.82 652.43,-1545.98 662.306,-1542.14 657.759,-1536.82"/>
<text text-anchor="middle" x="782" y="-1474" font-family="Times,serif" font-size="25.00">&#39;[}]&#39;</text>
</g>
<!-- COMMA_SMBL -->
<g id="node9" class="node"><title>COMMA_SMBL</title>
<ellipse fill="none" stroke="green" cx="773" cy="-1629" rx="63.1687" ry="63.5218"/>
<ellipse fill="none" stroke="green" cx="773" cy="-1629" rx="67.132" ry="67.5073"/>
<text text-anchor="middle" x="773" y="-1625.5" font-family="Times,serif" font-size="15.00">COMMA_SMBL</text>
</g>
<!-- S_START&#45;&gt;COMMA_SMBL -->
<g id="edge41" class="edge"><title>S_START&#45;&gt;COMMA_SMBL</title>
<path fill="none" stroke="black" d="M972.587,-1401.63C932.603,-1432.55 886.487,-1471.6 850,-1512 836.48,-1526.97 823.592,-1544.51 812.361,-1561.35"/>
<polygon fill="black" stroke="black" points="809.197,-1559.79 806.644,-1570.07 815.052,-1563.63 809.197,-1559.79"/>
<text text-anchor="middle" x="908" y="-1474" font-family="Times,serif" font-size="25.00">&#39;[,]&#39;</text>
</g>
<!-- PLUS_SMBL -->
<g id="node10" class="node"><title>PLUS_SMBL</title>
<ellipse fill="none" stroke="green" cx="916" cy="-1629" rx="52.2141" ry="52.5749"/>
<ellipse fill="none" stroke="green" cx="916" cy="-1629" rx="56.1713" ry="56.5594"/>
<text text-anchor="middle" x="916" y="-1625.5" font-family="Times,serif" font-size="15.00">PLUS_SMBL</text>
</g>
<!-- S_START&#45;&gt;PLUS_SMBL -->
<g id="edge43" class="edge"><title>S_START&#45;&gt;PLUS_SMBL</title>
<path fill="none" stroke="black" d="M1012.81,-1436.35C990.6,-1480.32 965.215,-1530.57 946.013,-1568.59"/>
<polygon fill="black" stroke="black" points="942.655,-1567.47 941.27,-1577.98 948.903,-1570.63 942.655,-1567.47"/>
<text text-anchor="middle" x="1013" y="-1474" font-family="Times,serif" font-size="25.00">&#39;[+]&#39;</text>
</g>
<!-- MINUS_SMBL -->
<g id="node11" class="node"><title>MINUS_SMBL</title>
<ellipse fill="none" stroke="green" cx="1054" cy="-1629" rx="59.0736" ry="59.097"/>
<ellipse fill="none" stroke="green" cx="1054" cy="-1629" rx="63.0751" ry="63.1002"/>
<text text-anchor="middle" x="1054" y="-1625.5" font-family="Times,serif" font-size="15.00">MINUS_SMBL</text>
</g>
<!-- S_START&#45;&gt;MINUS_SMBL -->
<g id="edge44" class="edge"><title>S_START&#45;&gt;MINUS_SMBL</title>
<path fill="none" stroke="black" d="M1059.57,-1448.02C1058.45,-1484.08 1057.24,-1523.14 1056.24,-1555.63"/>
<polygon fill="black" stroke="black" points="1052.73,-1555.83 1055.92,-1565.93 1059.73,-1556.04 1052.73,-1555.83"/>
<text text-anchor="middle" x="1075" y="-1474" font-family="Times,serif" font-size="25.00">&#39;[&#45;]&#39;</text>
</g>
<!-- MULTIPLY_SMBL -->
<g id="node12" class="node"><title>MULTIPLY_SMBL</title>
<ellipse fill="none" stroke="green" cx="1212" cy="-1629" rx="73.2351" ry="73.3108"/>
<ellipse fill="none" stroke="green" cx="1212" cy="-1629" rx="77.2393" ry="77.3191"/>
<text text-anchor="middle" x="1212" y="-1625.5" font-family="Times,serif" font-size="15.00">MULTIPLY_SMBL</text>
</g>
<!-- S_START&#45;&gt;MULTIPLY_SMBL -->
<g id="edge51" class="edge"><title>S_START&#45;&gt;MULTIPLY_SMBL</title>
<path fill="none" stroke="black" d="M1113.66,-1435.94C1132.82,-1473.35 1154.32,-1515.36 1172.33,-1550.52"/>
<polygon fill="black" stroke="black" points="1169.39,-1552.47 1177.07,-1559.77 1175.62,-1549.28 1169.39,-1552.47"/>
<text text-anchor="middle" x="1160.5" y="-1474" font-family="Times,serif" font-size="25.00">&#39;[*]&#39;</text>
</g>
<!-- END_OF_FILE -->
<g id="node15" class="node"><title>END_OF_FILE</title>
<ellipse fill="none" stroke="green" cx="1370" cy="-1629" rx="58.3063" ry="58.5533"/>
<ellipse fill="none" stroke="green" cx="1370" cy="-1629" rx="62.2912" ry="62.555"/>
<text text-anchor="middle" x="1370" y="-1625.5" font-family="Times,serif" font-size="15.00">END_OF_FILE</text>
</g>
<!-- S_START&#45;&gt;END_OF_FILE -->
<g id="edge42" class="edge"><title>S_START&#45;&gt;END_OF_FILE</title>
<path fill="none" stroke="black" d="M1157.68,-1395.42C1203.39,-1426.48 1257.04,-1467.42 1298,-1512 1312.33,-1527.6 1325.43,-1546.45 1336.42,-1564.37"/>
<polygon fill="black" stroke="black" points="1333.49,-1566.3 1341.63,-1573.08 1339.5,-1562.7 1333.49,-1566.3"/>
<text text-anchor="middle" x="1302.5" y="-1473.8" font-family="Times,serif" font-size="24.00">&#39;EOF&#39;</text>
</g>
<!-- NOT -->
<g id="node23" class="node"><title>NOT</title>
<ellipse fill="none" stroke="green" cx="1063" cy="-1098" rx="43" ry="43"/>
<ellipse fill="none" stroke="green" cx="1063" cy="-1098" rx="47" ry="47"/>
<text text-anchor="middle" x="1063" y="-1094.5" font-family="Times,serif" font-size="15.00">NOT</text>
</g>
<!-- S_START&#45;&gt;NOT -->
<g id="edge2" class="edge"><title>S_START&#45;&gt;NOT</title>
<path fill="none" stroke="black" d="M1063,-1223.91C1063,-1200.08 1063,-1175.87 1063,-1155.19"/>
<polygon fill="black" stroke="black" points="1066.5,-1155.03 1063,-1145.03 1059.5,-1155.03 1066.5,-1155.03"/>
<text text-anchor="middle" x="1080" y="-1186" font-family="Times,serif" font-size="25.00">&#39;[!]&#39;</text>
</g>
<!-- R_ARROW -->
<g id="node29" class="node"><title>R_ARROW</title>
<ellipse fill="none" stroke="black" cx="1186" cy="-288" rx="43.1947" ry="43.5902"/>
<text text-anchor="middle" x="1186" y="-284.3" font-family="Times,serif" font-size="14.00">R_ARROW</text>
</g>
<!-- S_START&#45;&gt;R_ARROW -->
<g id="edge5" class="edge"><title>S_START&#45;&gt;R_ARROW</title>
<path fill="none" stroke="black" d="M1143.86,-1258.6C1168.37,-1230.25 1192.18,-1196.14 1205,-1160 1258.8,-1008.31 1210.01,-506.842 1192.03,-342.018"/>
<polygon fill="black" stroke="black" points="1195.46,-341.213 1190.89,-331.655 1188.5,-341.978 1195.46,-341.213"/>
<text text-anchor="middle" x="1248" y="-814" font-family="Times,serif" font-size="25.00">&#39;[&gt;]&#39;</text>
</g>
<!-- L_ARROW -->
<g id="node30" class="node"><title>L_ARROW</title>
<ellipse fill="none" stroke="black" cx="1355" cy="-496" rx="43.1947" ry="43.5902"/>
<text text-anchor="middle" x="1355" y="-492.3" font-family="Times,serif" font-size="14.00">L_ARROW</text>
</g>
<!-- S_START&#45;&gt;L_ARROW -->
<g id="edge9" class="edge"><title>S_START&#45;&gt;L_ARROW</title>
<path fill="none" stroke="black" d="M1161.58,-1283.11C1190.76,-1262.93 1219.75,-1237.08 1238,-1206 1318.32,-1069.24 1257.22,-1008.49 1283,-852 1300.84,-743.697 1327.82,-618.055 1343.19,-549.061"/>
<polygon fill="black" stroke="black" points="1346.7,-549.416 1345.46,-538.894 1339.86,-547.89 1346.7,-549.416"/>
<text text-anchor="middle" x="1303" y="-906" font-family="Times,serif" font-size="25.00">&#39;[&lt;]&#39;</text>
</g>
<!-- KW_OR_ID -->
<g id="node31" class="node"><title>KW_OR_ID</title>
<ellipse fill="none" stroke="black" cx="148" cy="-710" rx="45.0672" ry="45.2554"/>
<text text-anchor="middle" x="148" y="-706.3" font-family="Times,serif" font-size="14.00">KW_OR_ID</text>
</g>
<!-- S_START&#45;&gt;KW_OR_ID -->
<g id="edge13" class="edge"><title>S_START&#45;&gt;KW_OR_ID</title>
<path fill="none" stroke="black" d="M956.789,-1301.25C869.987,-1271.13 746.046,-1222.21 648,-1160 453.877,-1036.83 262.354,-837.248 184.445,-751.865"/>
<polygon fill="black" stroke="black" points="187.021,-749.495 177.704,-744.451 181.842,-754.204 187.021,-749.495"/>
<text text-anchor="middle" x="493" y="-997.8" font-family="Times,serif" font-size="24.00">&#39;[A&#45;z_]&#39;</text>
</g>
<!-- DIV_OR_COMM -->
<g id="node32" class="node"><title>DIV_OR_COMM</title>
<ellipse fill="none" stroke="black" cx="1530" cy="-1098" rx="61.6014" ry="61.9701"/>
<text text-anchor="middle" x="1530" y="-1094.3" font-family="Times,serif" font-size="14.00">DIV_OR_COMM</text>
</g>
<!-- S_START&#45;&gt;DIV_OR_COMM -->
<g id="edge50" class="edge"><title>S_START&#45;&gt;DIV_OR_COMM</title>
<path fill="none" stroke="black" d="M1167.13,-1295.93C1226.58,-1272.33 1301.82,-1240.26 1366,-1206 1402.46,-1186.54 1441.28,-1161.43 1471.99,-1140.43"/>
<polygon fill="black" stroke="black" points="1474.17,-1143.17 1480.43,-1134.62 1470.2,-1137.41 1474.17,-1143.17"/>
<text text-anchor="middle" x="1428.5" y="-1186" font-family="Times,serif" font-size="25.00">&#39;[/]&#39;</text>
</g>
<!-- S_STRING -->
<g id="node36" class="node"><title>S_STRING</title>
<ellipse fill="none" stroke="black" cx="539" cy="-912" rx="42.3181" ry="42.4244"/>
<text text-anchor="middle" x="539" y="-908.3" font-family="Times,serif" font-size="14.00">S_STRING</text>
</g>
<!-- S_START&#45;&gt;S_STRING -->
<g id="edge47" class="edge"><title>S_START&#45;&gt;S_STRING</title>
<path fill="none" stroke="black" d="M965.237,-1281.8C909.395,-1249.57 839.307,-1205.9 782,-1160 700.271,-1094.54 617.341,-1003.91 572.627,-952.595"/>
<polygon fill="black" stroke="black" points="575.245,-950.272 566.048,-945.012 569.958,-954.859 575.245,-950.272"/>
<text text-anchor="middle" x="800.5" y="-1092" font-family="Times,serif" font-size="25.00">&#39;[&quot;]&#39;</text>
</g>
<!-- EQ_OR_ASIGNMENT -->
<g id="node40" class="node"><title>EQ_OR_ASIGNMENT</title>
<ellipse fill="none" stroke="black" cx="1916" cy="-1629" rx="77.3458" ry="77.628"/>
<text text-anchor="middle" x="1916" y="-1625.3" font-family="Times,serif" font-size="14.00">EQ_OR_ASIGNMENT</text>
</g>
<!-- S_START&#45;&gt;EQ_OR_ASIGNMENT -->
<g id="edge37" class="edge"><title>S_START&#45;&gt;EQ_OR_ASIGNMENT</title>
<path fill="none" stroke="black" d="M1172.78,-1357.73C1371.19,-1395.84 1774.12,-1476.36 1829,-1512 1845.36,-1522.62 1859.79,-1537.45 1871.95,-1552.95"/>
<polygon fill="black" stroke="black" points="1869.29,-1555.23 1878.11,-1561.1 1874.88,-1551.01 1869.29,-1555.23"/>
<text text-anchor="middle" x="1798" y="-1474" font-family="Times,serif" font-size="25.00">&#39;[=]&#39;</text>
</g>
<!-- S_NUMBER -->
<g id="node41" class="node"><title>S_NUMBER</title>
<ellipse fill="none" stroke="black" cx="875" cy="-1098" rx="46.4412" ry="46.921"/>
<text text-anchor="middle" x="875" y="-1094.3" font-family="Times,serif" font-size="14.00">S_NUMBER</text>
</g>
<!-- S_START&#45;&gt;S_NUMBER -->
<g id="edge53" class="edge"><title>S_START&#45;&gt;S_NUMBER</title>
<path fill="none" stroke="black" d="M993.797,-1248.13C965.374,-1212.45 933.694,-1172.68 910.201,-1143.19"/>
<polygon fill="black" stroke="black" points="912.77,-1140.8 903.801,-1135.15 907.295,-1145.16 912.77,-1140.8"/>
<text text-anchor="middle" x="986" y="-1185.8" font-family="Times,serif" font-size="24.00">&#39;[0&#45;9]&#39;</text>
</g>
<!-- END_DOUBLE -->
<g id="node13" class="node"><title>END_DOUBLE</title>
<ellipse fill="none" stroke="green" cx="879" cy="-76" rx="59.0736" ry="59.097"/>
<ellipse fill="none" stroke="green" cx="879" cy="-76" rx="63.0751" ry="63.1002"/>
<text text-anchor="middle" x="879" y="-72.5" font-family="Times,serif" font-size="15.00">END_DOUBLE</text>
</g>
<!-- END_NUMBER -->
<g id="node14" class="node"><title>END_NUMBER</title>
<ellipse fill="none" stroke="green" cx="1029" cy="-710" rx="61.2064" ry="61.2724"/>
<ellipse fill="none" stroke="green" cx="1029" cy="-710" rx="65.2107" ry="65.281"/>
<text text-anchor="middle" x="1029" y="-706.5" font-family="Times,serif" font-size="15.00">END_NUMBER</text>
</g>
<!-- END_KW_OR_ID -->
<g id="node16" class="node"><title>END_KW_OR_ID</title>
<ellipse fill="none" stroke="green" cx="123" cy="-496" rx="67.4307" ry="67.8712"/>
<ellipse fill="none" stroke="green" cx="123" cy="-496" rx="71.4011" ry="71.8675"/>
<text text-anchor="middle" x="123" y="-492.5" font-family="Times,serif" font-size="15.00">END_KW_OR_ID</text>
</g>
<!-- LESS_SMBL -->
<g id="node17" class="node"><title>LESS_SMBL</title>
<ellipse fill="none" stroke="green" cx="1304" cy="-288" rx="51.6102" ry="51.9524"/>
<ellipse fill="none" stroke="green" cx="1304" cy="-288" rx="55.6007" ry="55.9693"/>
<text text-anchor="middle" x="1304" y="-284.5" font-family="Times,serif" font-size="15.00">LESS_SMBL</text>
</g>
<!-- LESS_EQUAL -->
<g id="node18" class="node"><title>LESS_EQUAL</title>
<ellipse fill="none" stroke="green" cx="1438" cy="-288" rx="56.1748" ry="56.3787"/>
<ellipse fill="none" stroke="green" cx="1438" cy="-288" rx="60.1562" ry="60.3746"/>
<text text-anchor="middle" x="1438" y="-284.5" font-family="Times,serif" font-size="15.00">LESS_EQUAL</text>
</g>
<!-- DOUBLE_R_ARR -->
<g id="node19" class="node"><title>DOUBLE_R_ARR</title>
<ellipse fill="none" stroke="green" cx="1341" cy="-76" rx="68.1996" ry="68.415"/>
<ellipse fill="none" stroke="green" cx="1341" cy="-76" rx="72.1846" ry="72.4126"/>
<text text-anchor="middle" x="1341" y="-72.5" font-family="Times,serif" font-size="15.00">DOUBLE_R_ARR</text>
</g>
<!-- DOUBLE_L_ARR -->
<g id="node20" class="node"><title>DOUBLE_L_ARR</title>
<ellipse fill="none" stroke="green" cx="1588" cy="-288" rx="67.4307" ry="67.8712"/>
<ellipse fill="none" stroke="green" cx="1588" cy="-288" rx="71.4011" ry="71.8675"/>
<text text-anchor="middle" x="1588" y="-284.5" font-family="Times,serif" font-size="15.00">DOUBLE_L_ARR</text>
</g>
<!-- MORE_SMBL -->
<g id="node21" class="node"><title>MORE_SMBL</title>
<ellipse fill="none" stroke="green" cx="1043" cy="-76" rx="55.409" ry="55.8352"/>
<ellipse fill="none" stroke="green" cx="1043" cy="-76" rx="59.3728" ry="59.8295"/>
<text text-anchor="middle" x="1043" y="-72.5" font-family="Times,serif" font-size="15.00">MORE_SMBL</text>
</g>
<!-- MORE_EQUAL -->
<g id="node22" class="node"><title>MORE_EQUAL</title>
<ellipse fill="none" stroke="green" cx="1186" cy="-76" rx="60.4382" ry="60.7285"/>
<ellipse fill="none" stroke="green" cx="1186" cy="-76" rx="64.4263" ry="64.7358"/>
<text text-anchor="middle" x="1186" y="-72.5" font-family="Times,serif" font-size="15.00">MORE_EQUAL</text>
</g>
<!-- NOT&#45;&gt;NOT -->
<g id="edge4" class="edge"><title>NOT&#45;&gt;NOT</title>
<path fill="none" stroke="black" d="M1106.75,-1115.52C1118.79,-1114.67 1128,-1108.83 1128,-1098 1128,-1090.38 1123.45,-1085.24 1116.56,-1082.56"/>
<polygon fill="black" stroke="black" points="1117.25,-1079.13 1106.75,-1080.48 1115.81,-1085.97 1117.25,-1079.13"/>
<text text-anchor="middle" x="1162" y="-1091.8" font-family="Times,serif" font-size="24.00">&#39;ELSE&#39;</text>
</g>
<!-- NOT_EQUAL -->
<g id="node28" class="node"><title>NOT_EQUAL</title>
<ellipse fill="none" stroke="green" cx="1138" cy="-912" rx="54.0436" ry="54.2048"/>
<ellipse fill="none" stroke="green" cx="1138" cy="-912" rx="58.0213" ry="58.1944"/>
<text text-anchor="middle" x="1138" y="-908.5" font-family="Times,serif" font-size="15.00">NOT_EQUAL</text>
</g>
<!-- NOT&#45;&gt;NOT_EQUAL -->
<g id="edge3" class="edge"><title>NOT&#45;&gt;NOT_EQUAL</title>
<path fill="none" stroke="black" d="M1080.4,-1054.32C1089.91,-1030.97 1101.89,-1001.6 1112.45,-975.685"/>
<polygon fill="black" stroke="black" points="1115.74,-976.894 1116.27,-966.313 1109.25,-974.252 1115.74,-976.894"/>
<text text-anchor="middle" x="1124" y="-998" font-family="Times,serif" font-size="25.00">&#39;[=]&#39;</text>
</g>
<!-- E_STRING -->
<g id="node24" class="node"><title>E_STRING</title>
<ellipse fill="none" stroke="green" cx="488" cy="-710" rx="44.455" ry="44.8864"/>
<ellipse fill="none" stroke="green" cx="488" cy="-710" rx="48.4118" ry="48.8816"/>
<text text-anchor="middle" x="488" y="-706.5" font-family="Times,serif" font-size="15.00">E_STRING</text>
</g>
<!-- ASIGNMENT_SMBL -->
<g id="node25" class="node"><title>ASIGNMENT_SMBL</title>
<ellipse fill="none" stroke="green" cx="1765" cy="-1336" rx="79.1592" ry="79.3638"/>
<ellipse fill="none" stroke="green" cx="1765" cy="-1336" rx="83.1455" ry="83.3605"/>
<text text-anchor="middle" x="1765" y="-1332.5" font-family="Times,serif" font-size="15.00">ASIGNMENT_SMBL</text>
</g>
<!-- EQUAL_SMBL -->
<g id="node26" class="node"><title>EQUAL_SMBL</title>
<ellipse fill="none" stroke="green" cx="1930" cy="-1336" rx="59.3722" ry="59.6408"/>
<ellipse fill="none" stroke="green" cx="1930" cy="-1336" rx="63.3587" ry="63.6454"/>
<text text-anchor="middle" x="1930" y="-1332.5" font-family="Times,serif" font-size="15.00">EQUAL_SMBL</text>
</g>
<!-- DIVIDE_SMBL -->
<g id="node27" class="node"><title>DIVIDE_SMBL</title>
<ellipse fill="none" stroke="green" cx="1550" cy="-496" rx="60.4382" ry="60.7285"/>
<ellipse fill="none" stroke="green" cx="1550" cy="-496" rx="64.4263" ry="64.7358"/>
<text text-anchor="middle" x="1550" y="-492.5" font-family="Times,serif" font-size="15.00">DIVIDE_SMBL</text>
</g>
<!-- R_ARROW&#45;&gt;DOUBLE_R_ARR -->
<g id="edge8" class="edge"><title>R_ARROW&#45;&gt;DOUBLE_R_ARR</title>
<path fill="none" stroke="black" d="M1211.6,-252.323C1233.5,-222.647 1265.64,-179.102 1292.41,-142.834"/>
<polygon fill="black" stroke="black" points="1295.26,-144.864 1298.38,-134.739 1289.63,-140.707 1295.26,-144.864"/>
<text text-anchor="middle" x="1288" y="-178" font-family="Times,serif" font-size="25.00">&#39;[&gt;]&#39;</text>
</g>
<!-- R_ARROW&#45;&gt;MORE_SMBL -->
<g id="edge6" class="edge"><title>R_ARROW&#45;&gt;MORE_SMBL</title>
<path fill="none" stroke="black" d="M1157.77,-254.523C1143.96,-238.046 1127.46,-217.447 1114,-198 1100.84,-178.983 1087.67,-157.425 1076.31,-137.829"/>
<polygon fill="black" stroke="black" points="1079.25,-135.907 1071.23,-128.98 1073.18,-139.394 1079.25,-135.907"/>
<text text-anchor="middle" x="1148" y="-177.8" font-family="Times,serif" font-size="24.00">&#39;ELSE&#39;</text>
</g>
<!-- R_ARROW&#45;&gt;MORE_EQUAL -->
<g id="edge7" class="edge"><title>R_ARROW&#45;&gt;MORE_EQUAL</title>
<path fill="none" stroke="black" d="M1186,-243.997C1186,-217.26 1186,-182.168 1186,-151.056"/>
<polygon fill="black" stroke="black" points="1189.5,-150.675 1186,-140.675 1182.5,-150.675 1189.5,-150.675"/>
<text text-anchor="middle" x="1206" y="-178" font-family="Times,serif" font-size="25.00">&#39;[=]&#39;</text>
</g>
<!-- L_ARROW&#45;&gt;LESS_SMBL -->
<g id="edge10" class="edge"><title>L_ARROW&#45;&gt;LESS_SMBL</title>
<path fill="none" stroke="black" d="M1344.68,-453.313C1337.5,-424.333 1327.81,-385.171 1319.68,-352.349"/>
<polygon fill="black" stroke="black" points="1323.02,-351.251 1317.22,-342.385 1316.22,-352.933 1323.02,-351.251"/>
<text text-anchor="middle" x="1366" y="-385.8" font-family="Times,serif" font-size="24.00">&#39;ELSE&#39;</text>
</g>
<!-- L_ARROW&#45;&gt;LESS_EQUAL -->
<g id="edge11" class="edge"><title>L_ARROW&#45;&gt;LESS_EQUAL</title>
<path fill="none" stroke="black" d="M1377.63,-458.232C1386.66,-442.531 1396.64,-423.76 1404,-406 1410.44,-390.466 1416.16,-373.296 1420.98,-357.006"/>
<polygon fill="black" stroke="black" points="1424.46,-357.576 1423.87,-346.998 1417.74,-355.636 1424.46,-357.576"/>
<text text-anchor="middle" x="1433" y="-386" font-family="Times,serif" font-size="25.00">&#39;[=]&#39;</text>
</g>
<!-- L_ARROW&#45;&gt;DOUBLE_L_ARR -->
<g id="edge12" class="edge"><title>L_ARROW&#45;&gt;DOUBLE_L_ARR</title>
<path fill="none" stroke="black" d="M1387.7,-466.638C1407.75,-449.203 1433.92,-426.375 1457,-406 1480.01,-385.691 1505.17,-363.269 1527.24,-343.534"/>
<polygon fill="black" stroke="black" points="1529.78,-345.949 1534.9,-336.673 1525.12,-340.733 1529.78,-345.949"/>
<text text-anchor="middle" x="1505" y="-386" font-family="Times,serif" font-size="25.00">&#39;[&lt;]&#39;</text>
</g>
<!-- KW_OR_ID&#45;&gt;ERR -->
<g id="edge14" class="edge"><title>KW_OR_ID&#45;&gt;ERR</title>
<path fill="none" stroke="black" d="M175.53,-673.909C187.642,-656.752 200.923,-635.254 209,-614 246.715,-514.754 214.664,-479.441 246,-378 269.529,-301.832 273.222,-278.268 323,-216 352.024,-179.694 392.295,-147.114 427.093,-122.638"/>
<polygon fill="black" stroke="black" points="429.128,-125.486 435.348,-116.91 425.137,-119.735 429.128,-125.486"/>
<text text-anchor="middle" x="280" y="-385.8" font-family="Times,serif" font-size="24.00">&#39;ELSE&#39;</text>
</g>
<!-- KW_OR_ID&#45;&gt;END_KW_OR_ID -->
<g id="edge16" class="edge"><title>KW_OR_ID&#45;&gt;END_KW_OR_ID</title>
<path fill="none" stroke="black" d="M142.79,-664.816C139.833,-639.741 136.039,-607.571 132.566,-578.118"/>
<polygon fill="black" stroke="black" points="136,-577.351 131.353,-567.83 129.048,-578.171 136,-577.351"/>
<text text-anchor="middle" x="171" y="-593.8" font-family="Times,serif" font-size="24.00">&#39;ELSE&#39;</text>
</g>
<!-- KW_OR_ID&#45;&gt;KW_OR_ID -->
<g id="edge15" class="edge"><title>KW_OR_ID&#45;&gt;KW_OR_ID</title>
<path fill="none" stroke="black" d="M188.293,-730.614C200.986,-730.299 211,-723.428 211,-710 211,-700.349 205.827,-694.085 198.204,-691.208"/>
<polygon fill="black" stroke="black" points="198.761,-687.752 188.293,-689.386 197.496,-694.636 198.761,-687.752"/>
<text text-anchor="middle" x="264" y="-703.8" font-family="Times,serif" font-size="24.00">&#39;[A&#45;z_0&#45;9]&#39;</text>
</g>
<!-- DIV_OR_COMM&#45;&gt;DIVIDE_SMBL -->
<g id="edge17" class="edge"><title>DIV_OR_COMM&#45;&gt;DIVIDE_SMBL</title>
<path fill="none" stroke="black" d="M1532.03,-1036.17C1535.72,-925.293 1543.54,-690.742 1547.54,-570.884"/>
<polygon fill="black" stroke="black" points="1551.04,-570.813 1547.88,-560.702 1544.05,-570.58 1551.04,-570.813"/>
<text text-anchor="middle" x="1573" y="-813.8" font-family="Times,serif" font-size="24.00">&#39;ELSE&#39;</text>
</g>
<!-- LINE_COMM -->
<g id="node33" class="node"><title>LINE_COMM</title>
<ellipse fill="none" stroke="black" cx="1384" cy="-912" rx="51.5634" ry="51.9195"/>
<text text-anchor="middle" x="1384" y="-908.3" font-family="Times,serif" font-size="14.00">LINE_COMM</text>
</g>
<!-- DIV_OR_COMM&#45;&gt;LINE_COMM -->
<g id="edge18" class="edge"><title>DIV_OR_COMM&#45;&gt;LINE_COMM</title>
<path fill="none" stroke="black" d="M1492.02,-1049.14C1470.41,-1021.9 1443.44,-987.909 1421.85,-960.702"/>
<polygon fill="black" stroke="black" points="1424.58,-958.515 1415.63,-952.857 1419.1,-962.866 1424.58,-958.515"/>
<text text-anchor="middle" x="1481.5" y="-998" font-family="Times,serif" font-size="25.00">&#39;[/]&#39;</text>
</g>
<!-- BLOCK_COMM -->
<g id="node34" class="node"><title>BLOCK_COMM</title>
<ellipse fill="none" stroke="black" cx="1638" cy="-912" rx="59.4356" ry="59.7483"/>
<text text-anchor="middle" x="1638" y="-908.3" font-family="Times,serif" font-size="14.00">BLOCK_COMM</text>
</g>
<!-- DIV_OR_COMM&#45;&gt;BLOCK_COMM -->
<g id="edge21" class="edge"><title>DIV_OR_COMM&#45;&gt;BLOCK_COMM</title>
<path fill="none" stroke="black" d="M1560.95,-1044.27C1574.1,-1021.86 1589.5,-995.623 1603.06,-972.519"/>
<polygon fill="black" stroke="black" points="1606.12,-974.228 1608.16,-963.833 1600.08,-970.685 1606.12,-974.228"/>
<text text-anchor="middle" x="1609.5" y="-998" font-family="Times,serif" font-size="25.00">&#39;[*]&#39;</text>
</g>
<!-- LINE_COMM&#45;&gt;S_START -->
<g id="edge20" class="edge"><title>LINE_COMM&#45;&gt;S_START</title>
<path fill="none" stroke="black" d="M1378.59,-963.602C1369.56,-1026.57 1346.22,-1134.5 1288,-1206 1258.59,-1242.11 1216.22,-1270.1 1176.16,-1290.64"/>
<polygon fill="black" stroke="black" points="1174.49,-1287.56 1167.12,-1295.17 1177.63,-1293.82 1174.49,-1287.56"/>
<text text-anchor="middle" x="1386" y="-1092" font-family="Times,serif" font-size="25.00">&#39;[\n]&#39;</text>
</g>
<!-- LINE_COMM&#45;&gt;LINE_COMM -->
<g id="edge19" class="edge"><title>LINE_COMM&#45;&gt;LINE_COMM</title>
<path fill="none" stroke="black" d="M1432.68,-928.946C1444.35,-927.621 1453,-921.973 1453,-912 1453,-905.144 1448.91,-900.331 1442.56,-897.563"/>
<polygon fill="black" stroke="black" points="1443.23,-894.122 1432.68,-895.054 1441.51,-900.907 1443.23,-894.122"/>
<text text-anchor="middle" x="1487" y="-905.8" font-family="Times,serif" font-size="24.00">&#39;ELSE&#39;</text>
</g>
<!-- BLOCK_COMM&#45;&gt;BLOCK_COMM -->
<g id="edge23" class="edge"><title>BLOCK_COMM&#45;&gt;BLOCK_COMM</title>
<path fill="none" stroke="black" d="M1695.09,-928.592C1706.69,-926.785 1715,-921.254 1715,-912 1715,-905.638 1711.07,-901.036 1704.85,-898.193"/>
<polygon fill="black" stroke="black" points="1705.66,-894.786 1695.09,-895.408 1703.74,-901.518 1705.66,-894.786"/>
<text text-anchor="middle" x="1749" y="-905.8" font-family="Times,serif" font-size="24.00">&#39;ELSE&#39;</text>
</g>
<!-- END_BLOCK_COMM -->
<g id="node35" class="node"><title>END_BLOCK_COMM</title>
<ellipse fill="none" stroke="black" cx="1703" cy="-710" rx="78.1375" ry="78.1833"/>
<text text-anchor="middle" x="1703" y="-706.3" font-family="Times,serif" font-size="14.00">END_BLOCK_COMM</text>
</g>
<!-- BLOCK_COMM&#45;&gt;END_BLOCK_COMM -->
<g id="edge22" class="edge"><title>BLOCK_COMM&#45;&gt;END_BLOCK_COMM</title>
<path fill="none" stroke="black" d="M1634.77,-852.294C1635.4,-836.949 1637.41,-820.619 1642,-806 1644.53,-797.936 1647.94,-789.893 1651.87,-782.093"/>
<polygon fill="black" stroke="black" points="1655.07,-783.532 1656.68,-773.061 1648.89,-780.239 1655.07,-783.532"/>
<text text-anchor="middle" x="1661.5" y="-814" font-family="Times,serif" font-size="25.00">&#39;[*]&#39;</text>
</g>
<!-- END_BLOCK_COMM&#45;&gt;S_START -->
<g id="edge24" class="edge"><title>END_BLOCK_COMM&#45;&gt;S_START</title>
<path fill="none" stroke="black" d="M1751.49,-771.199C1767.69,-794.938 1783.72,-823.358 1792,-852 1806.82,-903.234 1812.67,-922.835 1792,-972 1745.72,-1082.1 1702.13,-1098.09 1600,-1160 1468.34,-1239.81 1296.18,-1287.55 1182.72,-1312.54"/>
<polygon fill="black" stroke="black" points="1181.64,-1309.19 1172.62,-1314.74 1183.13,-1316.03 1181.64,-1309.19"/>
<text text-anchor="middle" x="1804" y="-998" font-family="Times,serif" font-size="25.00">&#39;&#39;[/]&#39;&#39;</text>
</g>
<!-- END_BLOCK_COMM&#45;&gt;BLOCK_COMM -->
<g id="edge25" class="edge"><title>END_BLOCK_COMM&#45;&gt;BLOCK_COMM</title>
<path fill="none" stroke="black" d="M1693.32,-787.815C1690.24,-803.352 1686.22,-819.394 1681,-834 1678.9,-839.867 1676.39,-845.813 1673.64,-851.667"/>
<polygon fill="black" stroke="black" points="1670.44,-850.246 1669.15,-860.763 1676.71,-853.342 1670.44,-850.246"/>
<text text-anchor="middle" x="1722" y="-813.8" font-family="Times,serif" font-size="24.00">&#39;ELSE&#39;</text>
</g>
<!-- S_STRING&#45;&gt;ERR -->
<g id="edge27" class="edge"><title>S_STRING&#45;&gt;ERR</title>
<path fill="none" stroke="black" d="M546.533,-870.377C548.375,-858.678 550.081,-845.87 551,-834 551.961,-821.593 551.214,-818.443 551,-806 549.666,-728.632 566.766,-706.255 545,-632 535.695,-600.255 515.984,-599.837 507,-568 496.342,-530.23 497.395,-292.762 498.826,-162.42"/>
<polygon fill="black" stroke="black" points="502.329,-162.111 498.942,-152.072 495.33,-162.032 502.329,-162.111"/>
<text text-anchor="middle" x="541" y="-489.8" font-family="Times,serif" font-size="24.00">&#39;ELSE&#39;</text>
</g>
<!-- S_STRING&#45;&gt;E_STRING -->
<g id="edge36" class="edge"><title>S_STRING&#45;&gt;E_STRING</title>
<path fill="none" stroke="black" d="M525.346,-871.671C521.415,-859.658 517.302,-846.356 514,-834 508.31,-812.708 503.064,-789.076 498.796,-768.263"/>
<polygon fill="black" stroke="black" points="502.193,-767.403 496.782,-758.295 495.332,-768.79 502.193,-767.403"/>
<text text-anchor="middle" x="532.5" y="-814" font-family="Times,serif" font-size="25.00">&#39;[&quot;]&#39;</text>
</g>
<!-- S_STRING&#45;&gt;S_STRING -->
<g id="edge26" class="edge"><title>S_STRING&#45;&gt;S_STRING</title>
<path fill="none" stroke="black" d="M577.664,-929.233C589.615,-928.885 599,-923.141 599,-912 599,-904.341 594.564,-899.232 587.908,-896.674"/>
<polygon fill="black" stroke="black" points="588.136,-893.156 577.664,-894.767 586.855,-900.038 588.136,-893.156"/>
<text text-anchor="middle" x="622.5" y="-905.8" font-family="Times,serif" font-size="24.00">&#39;[^&quot;]&#39;</text>
</g>
<!-- S_ESCAPE -->
<g id="node37" class="node"><title>S_ESCAPE</title>
<ellipse fill="none" stroke="black" cx="378" cy="-710" rx="42.6083" ry="42.98"/>
<text text-anchor="middle" x="378" y="-706.3" font-family="Times,serif" font-size="14.00">S_ESCAPE</text>
</g>
<!-- S_STRING&#45;&gt;S_ESCAPE -->
<g id="edge28" class="edge"><title>S_STRING&#45;&gt;S_ESCAPE</title>
<path fill="none" stroke="black" d="M497.443,-905.094C456.849,-896.873 397.182,-877.704 369,-834 355.141,-812.508 356.173,-784.297 361.218,-760.314"/>
<polygon fill="black" stroke="black" points="364.684,-760.865 363.594,-750.327 357.874,-759.245 364.684,-760.865"/>
<text text-anchor="middle" x="389" y="-814" font-family="Times,serif" font-size="25.00">&#39;[\\]&#39;</text>
</g>
<!-- S_ESCAPE&#45;&gt;ERR -->
<g id="edge30" class="edge"><title>S_ESCAPE&#45;&gt;ERR</title>
<path fill="none" stroke="black" d="M362.114,-670.114C338.867,-608.099 300.555,-483.073 322,-378 342.473,-277.686 359.773,-252.056 421,-170 428.027,-160.582 435.718,-150.879 443.455,-141.457"/>
<polygon fill="black" stroke="black" points="446.264,-143.553 449.952,-133.621 440.875,-139.085 446.264,-143.553"/>
<text text-anchor="middle" x="356" y="-385.8" font-family="Times,serif" font-size="24.00">&#39;ELSE&#39;</text>
</g>
<!-- S_ESCAPE&#45;&gt;S_STRING -->
<g id="edge29" class="edge"><title>S_ESCAPE&#45;&gt;S_STRING</title>
<path fill="none" stroke="black" d="M394.329,-749.671C406.187,-775.163 423.83,-808.435 445,-834 459.685,-851.733 478.933,-868.341 496.186,-881.561"/>
<polygon fill="black" stroke="black" points="494.365,-884.57 504.466,-887.768 498.564,-878.969 494.365,-884.57"/>
<text text-anchor="middle" x="474.5" y="-814" font-family="Times,serif" font-size="25.00">&#39;[tn\\]&#39;</text>
</g>
<!-- ESCAPE_X1 -->
<g id="node38" class="node"><title>ESCAPE_X1</title>
<ellipse fill="none" stroke="black" cx="397" cy="-496" rx="47.2323" ry="47.4763"/>
<text text-anchor="middle" x="397" y="-492.3" font-family="Times,serif" font-size="14.00">ESCAPE_X1</text>
</g>
<!-- S_ESCAPE&#45;&gt;ESCAPE_X1 -->
<g id="edge31" class="edge"><title>S_ESCAPE&#45;&gt;ESCAPE_X1</title>
<path fill="none" stroke="black" d="M381.731,-667.369C384.643,-634.882 388.718,-589.413 391.926,-553.619"/>
<polygon fill="black" stroke="black" points="395.442,-553.596 392.848,-543.324 388.47,-552.971 395.442,-553.596"/>
<text text-anchor="middle" x="408.5" y="-594" font-family="Times,serif" font-size="25.00">&#39;[x]&#39;</text>
</g>
<!-- ESCAPE_X1&#45;&gt;ERR -->
<g id="edge33" class="edge"><title>ESCAPE_X1&#45;&gt;ERR</title>
<path fill="none" stroke="black" d="M394.147,-448.371C392.129,-391.969 393.277,-294.789 418,-216 425.483,-192.152 437.709,-168.045 450.462,-146.756"/>
<polygon fill="black" stroke="black" points="453.511,-148.48 455.753,-138.126 447.543,-144.822 453.511,-148.48"/>
<text text-anchor="middle" x="452" y="-281.8" font-family="Times,serif" font-size="24.00">&#39;ELSE&#39;</text>
</g>
<!-- ESCAPE_X2 -->
<g id="node39" class="node"><title>ESCAPE_X2</title>
<ellipse fill="none" stroke="black" cx="575" cy="-288" rx="47.2323" ry="47.4763"/>
<text text-anchor="middle" x="575" y="-284.3" font-family="Times,serif" font-size="14.00">ESCAPE_X2</text>
</g>
<!-- ESCAPE_X1&#45;&gt;ESCAPE_X2 -->
<g id="edge32" class="edge"><title>ESCAPE_X1&#45;&gt;ESCAPE_X2</title>
<path fill="none" stroke="black" d="M427.599,-459.587C458.13,-424.254 505.078,-369.922 537.757,-332.102"/>
<polygon fill="black" stroke="black" points="540.613,-334.15 544.503,-324.295 535.316,-329.573 540.613,-334.15"/>
<text text-anchor="middle" x="528" y="-385.8" font-family="Times,serif" font-size="24.00">&#39;[A&#45;z]&#39;</text>
</g>
<!-- ESCAPE_X2&#45;&gt;ERR -->
<g id="edge35" class="edge"><title>ESCAPE_X2&#45;&gt;ERR</title>
<path fill="none" stroke="black" d="M559.278,-242.977C550.44,-218.232 539.133,-186.573 528.769,-157.552"/>
<polygon fill="black" stroke="black" points="531.954,-156.066 525.295,-147.825 525.362,-158.42 531.954,-156.066"/>
<text text-anchor="middle" x="576" y="-177.8" font-family="Times,serif" font-size="24.00">&#39;ELSE&#39;</text>
</g>
<!-- ESCAPE_X2&#45;&gt;S_STRING -->
<g id="edge34" class="edge"><title>ESCAPE_X2&#45;&gt;S_STRING</title>
<path fill="none" stroke="black" d="M576.719,-335.539C577.594,-361.557 578.564,-394.576 579,-424 581.699,-606.202 622.236,-656.981 579,-834 576.263,-845.205 571.585,-856.596 566.372,-867.059"/>
<polygon fill="black" stroke="black" points="563.234,-865.506 561.688,-875.987 569.433,-868.758 563.234,-865.506"/>
<text text-anchor="middle" x="626" y="-593.8" font-family="Times,serif" font-size="24.00">&#39;[A&#45;z]&#39;</text>
</g>
<!-- EQ_OR_ASIGNMENT&#45;&gt;ASIGNMENT_SMBL -->
<g id="edge38" class="edge"><title>EQ_OR_ASIGNMENT&#45;&gt;ASIGNMENT_SMBL</title>
<path fill="none" stroke="black" d="M1880.6,-1559.77C1858.82,-1517.81 1830.78,-1463.77 1807.77,-1419.42"/>
<polygon fill="black" stroke="black" points="1810.8,-1417.66 1803.09,-1410.4 1804.59,-1420.89 1810.8,-1417.66"/>
<text text-anchor="middle" x="1879" y="-1473.8" font-family="Times,serif" font-size="24.00">&#39;ELSE&#39;</text>
</g>
<!-- EQ_OR_ASIGNMENT&#45;&gt;EQUAL_SMBL -->
<g id="edge39" class="edge"><title>EQ_OR_ASIGNMENT&#45;&gt;EQUAL_SMBL</title>
<path fill="none" stroke="black" d="M1919.7,-1551.16C1921.8,-1507.36 1924.43,-1452.78 1926.5,-1409.68"/>
<polygon fill="black" stroke="black" points="1930.01,-1409.71 1926.99,-1399.55 1923.01,-1409.37 1930.01,-1409.71"/>
<text text-anchor="middle" x="1943" y="-1474" font-family="Times,serif" font-size="25.00">&#39;[=]&#39;</text>
</g>
<!-- S_NUMBER&#45;&gt;END_NUMBER -->
<g id="edge55" class="edge"><title>S_NUMBER&#45;&gt;END_NUMBER</title>
<path fill="none" stroke="black" d="M910.526,-1066.98C924.659,-1053.34 939.924,-1036.2 950,-1018 972.036,-978.199 998.558,-861.765 1014.58,-784.279"/>
<polygon fill="black" stroke="black" points="1018.09,-784.588 1016.68,-774.088 1011.23,-783.179 1018.09,-784.588"/>
<text text-anchor="middle" x="1033" y="-905.8" font-family="Times,serif" font-size="24.00">&#39;ELSE&#39;</text>
</g>
<!-- S_NUMBER&#45;&gt;S_NUMBER -->
<g id="edge54" class="edge"><title>S_NUMBER&#45;&gt;S_NUMBER</title>
<path fill="none" stroke="black" d="M918.373,-1115.49C930.088,-1114.57 939,-1108.74 939,-1098 939,-1090.62 934.788,-1085.55 928.348,-1082.81"/>
<polygon fill="black" stroke="black" points="928.904,-1079.34 918.373,-1080.51 927.329,-1086.17 928.904,-1079.34"/>
<text text-anchor="middle" x="968" y="-1091.8" font-family="Times,serif" font-size="24.00">&#39;[0&#45;9]&#39;</text>
</g>
<!-- EXPONENT -->
<g id="node42" class="node"><title>EXPONENT</title>
<ellipse fill="none" stroke="black" cx="821" cy="-496" rx="46.1497" ry="46.3658"/>
<text text-anchor="middle" x="821" y="-492.3" font-family="Times,serif" font-size="14.00">EXPONENT</text>
</g>
<!-- S_NUMBER&#45;&gt;EXPONENT -->
<g id="edge56" class="edge"><title>S_NUMBER&#45;&gt;EXPONENT</title>
<path fill="none" stroke="black" d="M889.804,-1053.47C915.932,-969.688 963.209,-781.117 916,-632 904.839,-596.744 880.793,-562.731 859.688,-537.665"/>
<polygon fill="black" stroke="black" points="862.136,-535.145 852.958,-529.851 856.832,-539.713 862.136,-535.145"/>
<text text-anchor="middle" x="961" y="-813.8" font-family="Times,serif" font-size="24.00">&#39;[eE]&#39;</text>
</g>
<!-- D_NUMBER -->
<g id="node43" class="node"><title>D_NUMBER</title>
<ellipse fill="none" stroke="black" cx="770" cy="-912" rx="48.3149" ry="48.5869"/>
<text text-anchor="middle" x="770" y="-908.3" font-family="Times,serif" font-size="14.00">D_NUMBER</text>
</g>
<!-- S_NUMBER&#45;&gt;D_NUMBER -->
<g id="edge57" class="edge"><title>S_NUMBER&#45;&gt;D_NUMBER</title>
<path fill="none" stroke="black" d="M851.957,-1056.62C836.311,-1029.2 815.503,-992.738 798.769,-963.414"/>
<polygon fill="black" stroke="black" points="801.713,-961.511 793.716,-954.56 795.633,-964.98 801.713,-961.511"/>
<text text-anchor="middle" x="845" y="-998" font-family="Times,serif" font-size="25.00">&#39;[.]&#39;</text>
</g>
<!-- EXPONENT&#45;&gt;ERR -->
<g id="edge64" class="edge"><title>EXPONENT&#45;&gt;ERR</title>
<path fill="none" stroke="black" d="M786.813,-464.543C760.462,-439.154 725.215,-400.679 705,-360 666.556,-282.637 715.156,-239.613 664,-170 643.273,-141.794 611.245,-120.925 580.975,-106.185"/>
<polygon fill="black" stroke="black" points="582.191,-102.889 571.652,-101.806 579.215,-109.225 582.191,-102.889"/>
<text text-anchor="middle" x="739" y="-281.8" font-family="Times,serif" font-size="24.00">&#39;ELSE&#39;</text>
</g>
<!-- FEX_NUMBER -->
<g id="node45" class="node"><title>FEX_NUMBER</title>
<ellipse fill="none" stroke="black" cx="838" cy="-288" rx="56.1874" ry="56.4163"/>
<text text-anchor="middle" x="838" y="-284.3" font-family="Times,serif" font-size="14.00">FEX_NUMBER</text>
</g>
<!-- EXPONENT&#45;&gt;FEX_NUMBER -->
<g id="edge63" class="edge"><title>EXPONENT&#45;&gt;FEX_NUMBER</title>
<path fill="none" stroke="black" d="M824.752,-449.537C827.045,-421.753 830.016,-385.745 832.564,-354.874"/>
<polygon fill="black" stroke="black" points="836.076,-354.875 833.41,-344.621 829.099,-354.299 836.076,-354.875"/>
<text text-anchor="middle" x="874.5" y="-385.8" font-family="Times,serif" font-size="24.00">&#39;[\&#45;+0&#45;9]&#39;</text>
</g>
<!-- D_NUMBER&#45;&gt;ERR -->
<g id="edge59" class="edge"><title>D_NUMBER&#45;&gt;ERR</title>
<path fill="none" stroke="black" d="M742.145,-872.234C726.844,-848.939 708.994,-818.066 699,-788 658.622,-666.529 660.95,-340.453 631,-216 625.9,-194.809 626.669,-187.736 614,-170 602.243,-153.54 586.85,-138.363 571.196,-125.252"/>
<polygon fill="black" stroke="black" points="572.97,-122.183 563.004,-118.588 568.553,-127.613 572.97,-122.183"/>
<text text-anchor="middle" x="700" y="-489.8" font-family="Times,serif" font-size="24.00">&#39;ELSE&#39;</text>
</g>
<!-- FRAC_NUMBER -->
<g id="node44" class="node"><title>FRAC_NUMBER</title>
<ellipse fill="none" stroke="black" cx="770" cy="-710" rx="61.6014" ry="61.9701"/>
<text text-anchor="middle" x="770" y="-706.3" font-family="Times,serif" font-size="14.00">FRAC_NUMBER</text>
</g>
<!-- D_NUMBER&#45;&gt;FRAC_NUMBER -->
<g id="edge58" class="edge"><title>D_NUMBER&#45;&gt;FRAC_NUMBER</title>
<path fill="none" stroke="black" d="M770,-863.349C770,-839.068 770,-809.053 770,-782.102"/>
<polygon fill="black" stroke="black" points="773.5,-781.941 770,-771.941 766.5,-781.941 773.5,-781.941"/>
<text text-anchor="middle" x="799" y="-813.8" font-family="Times,serif" font-size="24.00">&#39;[0&#45;9]&#39;</text>
</g>
<!-- FRAC_NUMBER&#45;&gt;END_DOUBLE -->
<g id="edge61" class="edge"><title>FRAC_NUMBER&#45;&gt;END_DOUBLE</title>
<path fill="none" stroke="black" d="M813.337,-665.673C827.604,-650.137 842.897,-631.997 855,-614 925.103,-509.757 950.718,-482.398 979,-360 993.408,-297.643 998.635,-276.914 979,-216 968.88,-184.605 948.747,-154.313 929.182,-130.065"/>
<polygon fill="black" stroke="black" points="931.652,-127.56 922.583,-122.081 926.256,-132.019 931.652,-127.56"/>
<text text-anchor="middle" x="1008" y="-385.8" font-family="Times,serif" font-size="24.00">&#39;ELSE&#39;</text>
</g>
<!-- FRAC_NUMBER&#45;&gt;EXPONENT -->
<g id="edge62" class="edge"><title>FRAC_NUMBER&#45;&gt;EXPONENT</title>
<path fill="none" stroke="black" d="M784.274,-649.664C791.687,-618.849 800.682,-581.461 807.914,-551.397"/>
<polygon fill="black" stroke="black" points="811.358,-552.044 810.294,-541.503 804.552,-550.407 811.358,-552.044"/>
<text text-anchor="middle" x="825" y="-593.8" font-family="Times,serif" font-size="24.00">&#39;[eE]&#39;</text>
</g>
<!-- FRAC_NUMBER&#45;&gt;FRAC_NUMBER -->
<g id="edge60" class="edge"><title>FRAC_NUMBER&#45;&gt;FRAC_NUMBER</title>
<path fill="none" stroke="black" d="M828.221,-729.9C840.308,-727.805 849,-721.172 849,-710 849,-702.145 844.703,-696.533 837.95,-693.166"/>
<polygon fill="black" stroke="black" points="838.81,-689.767 828.221,-690.1 836.706,-696.444 838.81,-689.767"/>
<text text-anchor="middle" x="878" y="-703.8" font-family="Times,serif" font-size="24.00">&#39;[0&#45;9]&#39;</text>
</g>
<!-- FEX_NUMBER&#45;&gt;ERR -->
<g id="edge67" class="edge"><title>FEX_NUMBER&#45;&gt;ERR</title>
<path fill="none" stroke="black" d="M799.584,-246.328C789.541,-236.174 778.563,-225.481 768,-216 743.516,-194.022 738.156,-187.02 710,-170 669.248,-145.366 620.816,-123.476 580.738,-107.132"/>
<polygon fill="black" stroke="black" points="581.852,-103.807 571.269,-103.309 579.232,-110.298 581.852,-103.807"/>
<text text-anchor="middle" x="783" y="-177.8" font-family="Times,serif" font-size="24.00">&#39;ELSE&#39;</text>
</g>
<!-- FEX_NUMBER&#45;&gt;END_DOUBLE -->
<g id="edge66" class="edge"><title>FEX_NUMBER&#45;&gt;END_DOUBLE</title>
<path fill="none" stroke="black" d="M848.665,-232.373C853.695,-206.613 859.759,-175.552 865.139,-147.994"/>
<polygon fill="black" stroke="black" points="868.606,-148.502 867.087,-138.016 861.736,-147.16 868.606,-148.502"/>
<text text-anchor="middle" x="893" y="-177.8" font-family="Times,serif" font-size="24.00">&#39;ELSE&#39;</text>
</g>
<!-- FEX_NUMBER&#45;&gt;FEX_NUMBER -->
<g id="edge65" class="edge"><title>FEX_NUMBER&#45;&gt;FEX_NUMBER</title>
<path fill="none" stroke="black" d="M891.215,-307.024C903.22,-305.31 912,-298.969 912,-288 912,-280.288 907.659,-274.863 900.909,-271.726"/>
<polygon fill="black" stroke="black" points="901.791,-268.338 891.215,-268.976 899.881,-275.072 901.791,-268.338"/>
<text text-anchor="middle" x="941" y="-281.8" font-family="Times,serif" font-size="24.00">&#39;[0&#45;9]&#39;</text>
</g>
</g>
</svg>
