<?xml version="1.0" encoding="UTF-8" standalone="no"?>
<!DOCTYPE svg PUBLIC "-//W3C//DTD SVG 1.1//EN"
 "http://www.w3.org/Graphics/SVG/1.1/DTD/svg11.dtd">
<!-- Generated by graphviz version 2.36.0 (20140111.2315)
 -->
<!-- Title: finite_state_machine Pages: 1 -->
<svg width="600pt" height="526pt"
 viewBox="0.00 0.00 600.07 526.00" xmlns="http://www.w3.org/2000/svg" xmlns:xlink="http://www.w3.org/1999/xlink">
<g id="graph0" class="graph" transform="scale(0.299886 0.299886) rotate(0) translate(4 1750)">
<title>finite_state_machine</title>
<polygon fill="white" stroke="none" points="-4,4 -4,-1750 1997,-1750 1997,4 -4,4"/>
<!-- bod -->
<g id="node1" class="node"><title>bod</title>
<ellipse fill="black" stroke="black" cx="465" cy="-1336" rx="1.8" ry="1.8"/>
</g>
<!-- S_START -->
<g id="node2" class="node"><title>S_START</title>
<ellipse fill="none" stroke="blue" cx="1073" cy="-1336" rx="107.518" ry="108"/>
<ellipse fill="none" stroke="blue" cx="1073" cy="-1336" rx="111.5" ry="112"/>
<text text-anchor="middle" x="1073" y="-1330.1" font-family="Times,serif" font-size="23.00">S_START</text>
</g>
<!-- bod&#45;&gt;S_START -->
<g id="edge68" class="edge"><title>bod&#45;&gt;S_START</title>
<path fill="none" stroke="black" d="M466.966,-1336C493.476,-1336 781.778,-1336 951.002,-1336"/>
<polygon fill="black" stroke="black" points="951.221,-1339.5 961.221,-1336 951.221,-1332.5 951.221,-1339.5"/>
<text text-anchor="middle" x="713.5" y="-1345.8" font-family="Times,serif" font-size="24.00">&#39;Σ&#39;</text>
</g>
<!-- S_START&#45;&gt;S_START -->
<g id="edge1" class="edge"><title>S_START&#45;&gt;S_START</title>
<path fill="none" stroke="black" d="M1182.64,-1358.54C1194.42,-1354.2 1202,-1346.69 1202,-1336 1202,-1328.49 1198.25,-1322.54 1191.93,-1318.16"/>
<polygon fill="black" stroke="black" points="1193.14,-1314.85 1182.64,-1313.46 1189.98,-1321.1 1193.14,-1314.85"/>
<text text-anchor="middle" x="1237.5" y="-1329.8" font-family="Times,serif" font-size="24.00">&#39;[\ \n\t]&#39;</text>
</g>
<!-- ERR -->
<g id="node3" class="node"><title>ERR</title>
<ellipse fill="none" stroke="red" cx="527" cy="-76" rx="72" ry="72"/>
<ellipse fill="none" stroke="red" cx="527" cy="-76" rx="76" ry="76"/>
<text text-anchor="middle" x="527" y="-69.7" font-family="Times,serif" font-size="26.00">ERR</text>
</g>
<!-- S_START&#45;&gt;ERR -->
<g id="edge40" class="edge"><title>S_START&#45;&gt;ERR</title>
<path fill="none" stroke="black" d="M963.473,-1313.4C693.335,-1259.76 17,-1123.05 17,-1099 17,-1099 17,-1099 17,-287 17,-196.12 297.396,-124.555 442.37,-93.6266"/>
<polygon fill="black" stroke="black" points="443.509,-96.9633 452.569,-91.4703 442.061,-90.1147 443.509,-96.9633"/>
<text text-anchor="middle" x="51" y="-703.8" font-family="Times,serif" font-size="24.00">&#39;ELSE&#39;</text>
</g>
<!-- SEMICOLON_SMBL -->
<g id="node4" class="node"><title>SEMICOLON_SMBL</title>
<ellipse fill="none" stroke="green" cx="1533" cy="-1629" rx="78.3884" ry="78.8198"/>
<ellipse fill="none" stroke="green" cx="1533" cy="-1629" rx="82.3621" ry="82.8154"/>
<text text-anchor="middle" x="1533" y="-1625.5" font-family="Times,serif" font-size="15.00">SEMICOLON_SMBL</text>
</g>
<!-- S_START&#45;&gt;SEMICOLON_SMBL -->
<g id="edge52" class="edge"><title>S_START&#45;&gt;SEMICOLON_SMBL</title>
<path fill="none" stroke="black" d="M1178.53,-1372.37C1256.29,-1401.79 1361.84,-1449.01 1441,-1512 1455.34,-1523.41 1468.83,-1537.46 1480.83,-1551.8"/>
<polygon fill="black" stroke="black" points="1478.3,-1554.24 1487.34,-1559.78 1483.73,-1549.82 1478.3,-1554.24"/>
<text text-anchor="middle" x="1430.5" y="-1474" font-family="Times,serif" font-size="25.00">&#39;[;]&#39;</text>
</g>
<!-- LEFT_COLUMN_SMBL -->
<g id="node5" class="node"><title>LEFT_COLUMN_SMBL</title>
<ellipse fill="none" stroke="green" cx="1727" cy="-1629" rx="89.0527" ry="89.2242"/>
<ellipse fill="none" stroke="green" cx="1727" cy="-1629" rx="93.0389" ry="93.2182"/>
<text text-anchor="middle" x="1727" y="-1625.5" font-family="Times,serif" font-size="15.00">LEFT_COLUMN_SMBL</text>
</g>
<!-- S_START&#45;&gt;LEFT_COLUMN_SMBL -->
<g id="edge49" class="edge"><title>S_START&#45;&gt;LEFT_COLUMN_SMBL</title>
<path fill="none" stroke="black" d="M1183.19,-1354.07C1300.08,-1376.08 1486.49,-1422.67 1624,-1512 1638.54,-1521.44 1652.28,-1533.47 1664.7,-1546.19"/>
<polygon fill="black" stroke="black" points="1662.44,-1548.89 1671.86,-1553.74 1667.52,-1544.07 1662.44,-1548.89"/>
<text text-anchor="middle" x="1601" y="-1474" font-family="Times,serif" font-size="25.00">&#39;[(]&#39;</text>
</g>
<!-- RIGHT_COLUMN_SMBL -->
<g id="node6" class="node"><title>RIGHT_COLUMN_SMBL</title>
<ellipse fill="none" stroke="green" cx="98" cy="-1629" rx="94.3852" ry="94.6659"/>
<ellipse fill="none" stroke="green" cx="98" cy="-1629" rx="98.3768" ry="98.6694"/>
<text text-anchor="middle" x="98" y="-1625.5" font-family="Times,serif" font-size="15.00">RIGHT_COLUMN_SMBL</text>
</g>
<!-- S_START&#45;&gt;RIGHT_COLUMN_SMBL -->
<g id="edge48" class="edge"><title>S_START&#45;&gt;RIGHT_COLUMN_SMBL</title>
<path fill="none" stroke="black" d="M963.48,-1357.26C737.779,-1399.26 239.104,-1493.48 206,-1512 191.246,-1520.26 177.353,-1531.23 164.758,-1543.14"/>
<polygon fill="black" stroke="black" points="162.193,-1540.76 157.495,-1550.25 167.09,-1545.76 162.193,-1540.76"/>
<text text-anchor="middle" x="408" y="-1474" font-family="Times,serif" font-size="25.00">&#39;[)]&#39;</text>
</g>
<!-- LEFT_VIN_COLUMN_SMBL -->
<g id="node7" class="node"><title>LEFT_VIN_COLUMN_SMBL</title>
<ellipse fill="none" stroke="green" cx="326" cy="-1629" rx="107.187" ry="107.248"/>
<ellipse fill="none" stroke="green" cx="326" cy="-1629" rx="111.189" ry="111.253"/>
<text text-anchor="middle" x="326" y="-1625.5" font-family="Times,serif" font-size="15.00">LEFT_VIN_COLUMN_SMBL</text>
</g>
<!-- S_START&#45;&gt;LEFT_VIN_COLUMN_SMBL -->
<g id="edge45" class="edge"><title>S_START&#45;&gt;LEFT_VIN_COLUMN_SMBL</title>
<path fill="none" stroke="black" d="M962.394,-1351C831.888,-1371.2 611.719,-1417.05 446,-1512 432.801,-1519.56 419.969,-1528.9 407.908,-1538.97"/>
<polygon fill="black" stroke="black" points="405.401,-1536.51 400.097,-1545.68 409.963,-1541.82 405.401,-1536.51"/>
<text text-anchor="middle" x="544" y="-1474" font-family="Times,serif" font-size="25.00">&#39;[{]&#39;</text>
</g>
<!-- RIGHT_VIN_COLUMN_SMBL -->
<g id="node8" class="node"><title>RIGHT_VIN_COLUMN_SMBL</title>
<ellipse fill="none" stroke="green" cx="571" cy="-1629" rx="112.039" ry="112.209"/>
<ellipse fill="none" stroke="green" cx="571" cy="-1629" rx="116.028" ry="116.204"/>
<text text-anchor="middle" x="571" y="-1625.5" font-family="Times,serif" font-size="15.00">RIGHT_VIN_COLUMN_SMBL</text>
</g>
<!-- S_START&#45;&gt;RIGHT_VIN_COLUMN_SMBL -->
<g id="edge46" class="edge"><title>S_START&#45;&gt;RIGHT_VIN_COLUMN_SMBL</title>
<path fill="none" stroke="black" d="M968.377,-1375.24C890.014,-1406.28 781.966,-1454.28 696,-1512 683.918,-1520.11 671.867,-1529.39 660.281,-1539.08"/>
<polygon fill="black" stroke="black" points="657.681,-1536.69 652.339,-1545.84 662.221,-1542.02 657.681,-1536.69"/>
<text text-anchor="middle" x="783" y="-1474" font-family="Times,serif" font-size="25.00">&#39;[}]&#39;</text>
</g>
<!-- COMMA_SMBL -->
<g id="node9" class="node"><title>COMMA_SMBL</title>
<ellipse fill="none" stroke="green" cx="773" cy="-1629" rx="63.1687" ry="63.5218"/>
<ellipse fill="none" stroke="green" cx="773" cy="-1629" rx="67.132" ry="67.5073"/>
<text text-anchor="middle" x="773" y="-1625.5" font-family="Times,serif" font-size="15.00">COMMA_SMBL</text>
</g>
<!-- S_START&#45;&gt;COMMA_SMBL -->
<g id="edge41" class="edge"><title>S_START&#45;&gt;COMMA_SMBL</title>
<path fill="none" stroke="black" d="M980.619,-1399.14C938.152,-1430.2 888.734,-1470.06 850,-1512 836.313,-1526.82 823.367,-1544.3 812.134,-1561.14"/>
<polygon fill="black" stroke="black" points="808.969,-1559.58 806.42,-1569.87 814.825,-1563.42 808.969,-1559.58"/>
<text text-anchor="middle" x="910" y="-1474" font-family="Times,serif" font-size="25.00">&#39;[,]&#39;</text>
</g>
<!-- PLUS_SMBL -->
<g id="node10" class="node"><title>PLUS_SMBL</title>
<ellipse fill="none" stroke="green" cx="916" cy="-1629" rx="52.2141" ry="52.5749"/>
<ellipse fill="none" stroke="green" cx="916" cy="-1629" rx="56.1713" ry="56.5594"/>
<text text-anchor="middle" x="916" y="-1625.5" font-family="Times,serif" font-size="15.00">PLUS_SMBL</text>
</g>
<!-- S_START&#45;&gt;PLUS_SMBL -->
<g id="edge43" class="edge"><title>S_START&#45;&gt;PLUS_SMBL</title>
<path fill="none" stroke="black" d="M1020.14,-1434.98C996.02,-1479.68 968.276,-1531.11 947.492,-1569.63"/>
<polygon fill="black" stroke="black" points="944.301,-1568.17 942.633,-1578.64 950.461,-1571.5 944.301,-1568.17"/>
<text text-anchor="middle" x="1019" y="-1474" font-family="Times,serif" font-size="25.00">&#39;[+]&#39;</text>
</g>
<!-- MINUS_SMBL -->
<g id="node11" class="node"><title>MINUS_SMBL</title>
<ellipse fill="none" stroke="green" cx="1054" cy="-1629" rx="59.0736" ry="59.097"/>
<ellipse fill="none" stroke="green" cx="1054" cy="-1629" rx="63.0751" ry="63.1002"/>
<text text-anchor="middle" x="1054" y="-1625.5" font-family="Times,serif" font-size="15.00">MINUS_SMBL</text>
</g>
<!-- S_START&#45;&gt;MINUS_SMBL -->
<g id="edge44" class="edge"><title>S_START&#45;&gt;MINUS_SMBL</title>
<path fill="none" stroke="black" d="M1065.75,-1448.02C1063.4,-1484.08 1060.85,-1523.14 1058.73,-1555.63"/>
<polygon fill="black" stroke="black" points="1055.21,-1555.72 1058.05,-1565.93 1062.2,-1556.18 1055.21,-1555.72"/>
<text text-anchor="middle" x="1081" y="-1474" font-family="Times,serif" font-size="25.00">&#39;[&#45;]&#39;</text>
</g>
<!-- MULTIPLY_SMBL -->
<g id="node12" class="node"><title>MULTIPLY_SMBL</title>
<ellipse fill="none" stroke="green" cx="1212" cy="-1629" rx="73.2351" ry="73.3108"/>
<ellipse fill="none" stroke="green" cx="1212" cy="-1629" rx="77.2393" ry="77.3191"/>
<text text-anchor="middle" x="1212" y="-1625.5" font-family="Times,serif" font-size="15.00">MULTIPLY_SMBL</text>
</g>
<!-- S_START&#45;&gt;MULTIPLY_SMBL -->
<g id="edge51" class="edge"><title>S_START&#45;&gt;MULTIPLY_SMBL</title>
<path fill="none" stroke="black" d="M1120.97,-1437.43C1138.56,-1474.25 1158.19,-1515.35 1174.71,-1549.93"/>
<polygon fill="black" stroke="black" points="1171.59,-1551.52 1179.06,-1559.04 1177.91,-1548.51 1171.59,-1551.52"/>
<text text-anchor="middle" x="1165.5" y="-1474" font-family="Times,serif" font-size="25.00">&#39;[*]&#39;</text>
</g>
<!-- END_OF_FILE -->
<g id="node15" class="node"><title>END_OF_FILE</title>
<ellipse fill="none" stroke="green" cx="1370" cy="-1629" rx="58.3063" ry="58.5533"/>
<ellipse fill="none" stroke="green" cx="1370" cy="-1629" rx="62.2912" ry="62.555"/>
<text text-anchor="middle" x="1370" y="-1625.5" font-family="Times,serif" font-size="15.00">END_OF_FILE</text>
</g>
<!-- S_START&#45;&gt;END_OF_FILE -->
<g id="edge42" class="edge"><title>S_START&#45;&gt;END_OF_FILE</title>
<path fill="none" stroke="black" d="M1165.99,-1397.88C1209.17,-1428.88 1259.36,-1469.05 1298,-1512 1312.17,-1527.75 1325.22,-1546.64 1336.21,-1564.56"/>
<polygon fill="black" stroke="black" points="1333.28,-1566.49 1341.43,-1573.26 1339.28,-1562.89 1333.28,-1566.49"/>
<text text-anchor="middle" x="1303.5" y="-1473.8" font-family="Times,serif" font-size="24.00">&#39;EOF&#39;</text>
</g>
<!-- NOT -->
<g id="node23" class="node"><title>NOT</title>
<ellipse fill="none" stroke="green" cx="1073" cy="-1098" rx="43" ry="43"/>
<ellipse fill="none" stroke="green" cx="1073" cy="-1098" rx="47" ry="47"/>
<text text-anchor="middle" x="1073" y="-1094.5" font-family="Times,serif" font-size="15.00">NOT</text>
</g>
<!-- S_START&#45;&gt;NOT -->
<g id="edge2" class="edge"><title>S_START&#45;&gt;NOT</title>
<path fill="none" stroke="black" d="M1073,-1223.91C1073,-1200.08 1073,-1175.87 1073,-1155.19"/>
<polygon fill="black" stroke="black" points="1076.5,-1155.03 1073,-1145.03 1069.5,-1155.03 1076.5,-1155.03"/>
<text text-anchor="middle" x="1090" y="-1186" font-family="Times,serif" font-size="25.00">&#39;[!]&#39;</text>
</g>
<!-- R_ARROW -->
<g id="node29" class="node"><title>R_ARROW</title>
<ellipse fill="none" stroke="black" cx="1213" cy="-288" rx="43.1947" ry="43.5902"/>
<text text-anchor="middle" x="1213" y="-284.3" font-family="Times,serif" font-size="14.00">R_ARROW</text>
</g>
<!-- S_START&#45;&gt;R_ARROW -->
<g id="edge5" class="edge"><title>S_START&#45;&gt;R_ARROW</title>
<path fill="none" stroke="black" d="M1153.86,-1258.6C1178.37,-1230.25 1202.18,-1196.14 1215,-1160 1268.79,-1008.34 1231.76,-506.854 1217.74,-342.021"/>
<polygon fill="black" stroke="black" points="1221.19,-341.322 1216.85,-331.658 1214.22,-341.92 1221.19,-341.322"/>
<text text-anchor="middle" x="1263" y="-814" font-family="Times,serif" font-size="25.00">&#39;[&gt;]&#39;</text>
</g>
<!-- L_ARROW -->
<g id="node30" class="node"><title>L_ARROW</title>
<ellipse fill="none" stroke="black" cx="1382" cy="-496" rx="43.1947" ry="43.5902"/>
<text text-anchor="middle" x="1382" y="-492.3" font-family="Times,serif" font-size="14.00">L_ARROW</text>
</g>
<!-- S_START&#45;&gt;L_ARROW -->
<g id="edge9" class="edge"><title>S_START&#45;&gt;L_ARROW</title>
<path fill="none" stroke="black" d="M1171.58,-1283.11C1200.76,-1262.93 1229.75,-1237.08 1248,-1206 1328.32,-1069.24 1263.66,-1007.86 1293,-852 1313.61,-742.491 1347.75,-616.419 1367.21,-547.87"/>
<polygon fill="black" stroke="black" points="1370.6,-548.759 1369.97,-538.182 1363.86,-546.84 1370.6,-548.759"/>
<text text-anchor="middle" x="1313" y="-906" font-family="Times,serif" font-size="25.00">&#39;[&lt;]&#39;</text>
</g>
<!-- KW_OR_ID -->
<g id="node31" class="node"><title>KW_OR_ID</title>
<ellipse fill="none" stroke="black" cx="148" cy="-710" rx="45.0672" ry="45.2554"/>
<text text-anchor="middle" x="148" y="-706.3" font-family="Times,serif" font-size="14.00">KW_OR_ID</text>
</g>
<!-- S_START&#45;&gt;KW_OR_ID -->
<g id="edge13" class="edge"><title>S_START&#45;&gt;KW_OR_ID</title>
<path fill="none" stroke="black" d="M966.454,-1301.65C878.6,-1271.61 752.673,-1222.6 653,-1160 456.991,-1036.9 263.157,-836.856 184.566,-751.584"/>
<polygon fill="black" stroke="black" points="187.11,-749.18 177.768,-744.182 181.954,-753.915 187.11,-749.18"/>
<text text-anchor="middle" x="496" y="-997.8" font-family="Times,serif" font-size="24.00">&#39;[A&#45;z_]&#39;</text>
</g>
<!-- DIV_OR_COMM -->
<g id="node32" class="node"><title>DIV_OR_COMM</title>
<ellipse fill="none" stroke="black" cx="1540" cy="-1098" rx="61.6014" ry="61.9701"/>
<text text-anchor="middle" x="1540" y="-1094.3" font-family="Times,serif" font-size="14.00">DIV_OR_COMM</text>
</g>
<!-- S_START&#45;&gt;DIV_OR_COMM -->
<g id="edge50" class="edge"><title>S_START&#45;&gt;DIV_OR_COMM</title>
<path fill="none" stroke="black" d="M1177.13,-1295.93C1236.58,-1272.33 1311.82,-1240.26 1376,-1206 1412.46,-1186.54 1451.28,-1161.43 1481.99,-1140.43"/>
<polygon fill="black" stroke="black" points="1484.17,-1143.17 1490.43,-1134.62 1480.2,-1137.41 1484.17,-1143.17"/>
<text text-anchor="middle" x="1438.5" y="-1186" font-family="Times,serif" font-size="25.00">&#39;[/]&#39;</text>
</g>
<!-- S_STRING -->
<g id="node36" class="node"><title>S_STRING</title>
<ellipse fill="none" stroke="black" cx="539" cy="-912" rx="42.3181" ry="42.4244"/>
<text text-anchor="middle" x="539" y="-908.3" font-family="Times,serif" font-size="14.00">S_STRING</text>
</g>
<!-- S_START&#45;&gt;S_STRING -->
<g id="edge47" class="edge"><title>S_START&#45;&gt;S_STRING</title>
<path fill="none" stroke="black" d="M975.583,-1281.36C919.855,-1248.98 849.767,-1205.32 792,-1160 707.472,-1093.69 620.272,-1002.6 573.56,-951.608"/>
<polygon fill="black" stroke="black" points="576.018,-949.109 566.692,-944.081 570.847,-953.827 576.018,-949.109"/>
<text text-anchor="middle" x="810.5" y="-1092" font-family="Times,serif" font-size="25.00">&#39;[&quot;]&#39;</text>
</g>
<!-- EQ_OR_ASIGNMENT -->
<g id="node40" class="node"><title>EQ_OR_ASIGNMENT</title>
<ellipse fill="none" stroke="black" cx="1916" cy="-1629" rx="77.3458" ry="77.628"/>
<text text-anchor="middle" x="1916" y="-1625.3" font-family="Times,serif" font-size="14.00">EQ_OR_ASIGNMENT</text>
</g>
<!-- S_START&#45;&gt;EQ_OR_ASIGNMENT -->
<g id="edge37" class="edge"><title>S_START&#45;&gt;EQ_OR_ASIGNMENT</title>
<path fill="none" stroke="black" d="M1182.5,-1358.02C1378.73,-1396.33 1774.96,-1476.8 1829,-1512 1845.35,-1522.65 1859.77,-1537.48 1871.93,-1552.98"/>
<polygon fill="black" stroke="black" points="1869.27,-1555.26 1878.09,-1561.14 1874.85,-1551.05 1869.27,-1555.26"/>
<text text-anchor="middle" x="1798" y="-1474" font-family="Times,serif" font-size="25.00">&#39;[=]&#39;</text>
</g>
<!-- S_NUMBER -->
<g id="node41" class="node"><title>S_NUMBER</title>
<ellipse fill="none" stroke="black" cx="885" cy="-1098" rx="46.4412" ry="46.921"/>
<text text-anchor="middle" x="885" y="-1094.3" font-family="Times,serif" font-size="14.00">S_NUMBER</text>
</g>
<!-- S_START&#45;&gt;S_NUMBER -->
<g id="edge53" class="edge"><title>S_START&#45;&gt;S_NUMBER</title>
<path fill="none" stroke="black" d="M1003.8,-1248.13C975.374,-1212.45 943.694,-1172.68 920.201,-1143.19"/>
<polygon fill="black" stroke="black" points="922.77,-1140.8 913.801,-1135.15 917.295,-1145.16 922.77,-1140.8"/>
<text text-anchor="middle" x="996" y="-1185.8" font-family="Times,serif" font-size="24.00">&#39;[0&#45;9]&#39;</text>
</g>
<!-- END_DOUBLE -->
<g id="node13" class="node"><title>END_DOUBLE</title>
<ellipse fill="none" stroke="green" cx="906" cy="-76" rx="59.0736" ry="59.097"/>
<ellipse fill="none" stroke="green" cx="906" cy="-76" rx="63.0751" ry="63.1002"/>
<text text-anchor="middle" x="906" y="-72.5" font-family="Times,serif" font-size="15.00">END_DOUBLE</text>
</g>
<!-- END_NUMBER -->
<g id="node14" class="node"><title>END_NUMBER</title>
<ellipse fill="none" stroke="green" cx="1029" cy="-710" rx="61.2064" ry="61.2724"/>
<ellipse fill="none" stroke="green" cx="1029" cy="-710" rx="65.2107" ry="65.281"/>
<text text-anchor="middle" x="1029" y="-706.5" font-family="Times,serif" font-size="15.00">END_NUMBER</text>
</g>
<!-- END_KW_OR_ID -->
<g id="node16" class="node"><title>END_KW_OR_ID</title>
<ellipse fill="none" stroke="green" cx="117" cy="-496" rx="67.4307" ry="67.8712"/>
<ellipse fill="none" stroke="green" cx="117" cy="-496" rx="71.4011" ry="71.8675"/>
<text text-anchor="middle" x="117" y="-492.5" font-family="Times,serif" font-size="15.00">END_KW_OR_ID</text>
</g>
<!-- LESS_SMBL -->
<g id="node17" class="node"><title>LESS_SMBL</title>
<ellipse fill="none" stroke="green" cx="1331" cy="-288" rx="51.6102" ry="51.9524"/>
<ellipse fill="none" stroke="green" cx="1331" cy="-288" rx="55.6007" ry="55.9693"/>
<text text-anchor="middle" x="1331" y="-284.5" font-family="Times,serif" font-size="15.00">LESS_SMBL</text>
</g>
<!-- LESS_EQUAL -->
<g id="node18" class="node"><title>LESS_EQUAL</title>
<ellipse fill="none" stroke="green" cx="1465" cy="-288" rx="56.1748" ry="56.3787"/>
<ellipse fill="none" stroke="green" cx="1465" cy="-288" rx="60.1562" ry="60.3746"/>
<text text-anchor="middle" x="1465" y="-284.5" font-family="Times,serif" font-size="15.00">LESS_EQUAL</text>
</g>
<!-- DOUBLE_R_ARR -->
<g id="node19" class="node"><title>DOUBLE_R_ARR</title>
<ellipse fill="none" stroke="green" cx="1368" cy="-76" rx="68.1996" ry="68.415"/>
<ellipse fill="none" stroke="green" cx="1368" cy="-76" rx="72.1846" ry="72.4126"/>
<text text-anchor="middle" x="1368" y="-72.5" font-family="Times,serif" font-size="15.00">DOUBLE_R_ARR</text>
</g>
<!-- DOUBLE_L_ARR -->
<g id="node20" class="node"><title>DOUBLE_L_ARR</title>
<ellipse fill="none" stroke="green" cx="1615" cy="-288" rx="67.4307" ry="67.8712"/>
<ellipse fill="none" stroke="green" cx="1615" cy="-288" rx="71.4011" ry="71.8675"/>
<text text-anchor="middle" x="1615" y="-284.5" font-family="Times,serif" font-size="15.00">DOUBLE_L_ARR</text>
</g>
<!-- MORE_SMBL -->
<g id="node21" class="node"><title>MORE_SMBL</title>
<ellipse fill="none" stroke="green" cx="1070" cy="-76" rx="55.409" ry="55.8352"/>
<ellipse fill="none" stroke="green" cx="1070" cy="-76" rx="59.3728" ry="59.8295"/>
<text text-anchor="middle" x="1070" y="-72.5" font-family="Times,serif" font-size="15.00">MORE_SMBL</text>
</g>
<!-- MORE_EQUAL -->
<g id="node22" class="node"><title>MORE_EQUAL</title>
<ellipse fill="none" stroke="green" cx="1213" cy="-76" rx="60.4382" ry="60.7285"/>
<ellipse fill="none" stroke="green" cx="1213" cy="-76" rx="64.4263" ry="64.7358"/>
<text text-anchor="middle" x="1213" y="-72.5" font-family="Times,serif" font-size="15.00">MORE_EQUAL</text>
</g>
<!-- NOT&#45;&gt;NOT -->
<g id="edge4" class="edge"><title>NOT&#45;&gt;NOT</title>
<path fill="none" stroke="black" d="M1116.75,-1115.52C1128.79,-1114.67 1138,-1108.83 1138,-1098 1138,-1090.38 1133.45,-1085.24 1126.56,-1082.56"/>
<polygon fill="black" stroke="black" points="1127.25,-1079.13 1116.75,-1080.48 1125.81,-1085.97 1127.25,-1079.13"/>
<text text-anchor="middle" x="1172" y="-1091.8" font-family="Times,serif" font-size="24.00">&#39;ELSE&#39;</text>
</g>
<!-- NOT_EQUAL -->
<g id="node28" class="node"><title>NOT_EQUAL</title>
<ellipse fill="none" stroke="green" cx="1148" cy="-912" rx="54.0436" ry="54.2048"/>
<ellipse fill="none" stroke="green" cx="1148" cy="-912" rx="58.0213" ry="58.1944"/>
<text text-anchor="middle" x="1148" y="-908.5" font-family="Times,serif" font-size="15.00">NOT_EQUAL</text>
</g>
<!-- NOT&#45;&gt;NOT_EQUAL -->
<g id="edge3" class="edge"><title>NOT&#45;&gt;NOT_EQUAL</title>
<path fill="none" stroke="black" d="M1090.4,-1054.32C1099.91,-1030.97 1111.89,-1001.6 1122.45,-975.685"/>
<polygon fill="black" stroke="black" points="1125.74,-976.894 1126.27,-966.313 1119.25,-974.252 1125.74,-976.894"/>
<text text-anchor="middle" x="1134" y="-998" font-family="Times,serif" font-size="25.00">&#39;[=]&#39;</text>
</g>
<!-- E_STRING -->
<g id="node24" class="node"><title>E_STRING</title>
<ellipse fill="none" stroke="green" cx="488" cy="-710" rx="44.455" ry="44.8864"/>
<ellipse fill="none" stroke="green" cx="488" cy="-710" rx="48.4118" ry="48.8816"/>
<text text-anchor="middle" x="488" y="-706.5" font-family="Times,serif" font-size="15.00">E_STRING</text>
</g>
<!-- ASIGNMENT_SMBL -->
<g id="node25" class="node"><title>ASIGNMENT_SMBL</title>
<ellipse fill="none" stroke="green" cx="1765" cy="-1336" rx="79.1592" ry="79.3638"/>
<ellipse fill="none" stroke="green" cx="1765" cy="-1336" rx="83.1455" ry="83.3605"/>
<text text-anchor="middle" x="1765" y="-1332.5" font-family="Times,serif" font-size="15.00">ASIGNMENT_SMBL</text>
</g>
<!-- EQUAL_SMBL -->
<g id="node26" class="node"><title>EQUAL_SMBL</title>
<ellipse fill="none" stroke="green" cx="1930" cy="-1336" rx="59.3722" ry="59.6408"/>
<ellipse fill="none" stroke="green" cx="1930" cy="-1336" rx="63.3587" ry="63.6454"/>
<text text-anchor="middle" x="1930" y="-1332.5" font-family="Times,serif" font-size="15.00">EQUAL_SMBL</text>
</g>
<!-- DIVIDE_SMBL -->
<g id="node27" class="node"><title>DIVIDE_SMBL</title>
<ellipse fill="none" stroke="green" cx="1560" cy="-496" rx="60.4382" ry="60.7285"/>
<ellipse fill="none" stroke="green" cx="1560" cy="-496" rx="64.4263" ry="64.7358"/>
<text text-anchor="middle" x="1560" y="-492.5" font-family="Times,serif" font-size="15.00">DIVIDE_SMBL</text>
</g>
<!-- R_ARROW&#45;&gt;DOUBLE_R_ARR -->
<g id="edge8" class="edge"><title>R_ARROW&#45;&gt;DOUBLE_R_ARR</title>
<path fill="none" stroke="black" d="M1238.6,-252.323C1260.5,-222.647 1292.64,-179.102 1319.41,-142.834"/>
<polygon fill="black" stroke="black" points="1322.26,-144.864 1325.38,-134.739 1316.63,-140.707 1322.26,-144.864"/>
<text text-anchor="middle" x="1315" y="-178" font-family="Times,serif" font-size="25.00">&#39;[&gt;]&#39;</text>
</g>
<!-- R_ARROW&#45;&gt;MORE_SMBL -->
<g id="edge6" class="edge"><title>R_ARROW&#45;&gt;MORE_SMBL</title>
<path fill="none" stroke="black" d="M1184.77,-254.523C1170.96,-238.046 1154.46,-217.447 1141,-198 1127.84,-178.983 1114.67,-157.425 1103.31,-137.829"/>
<polygon fill="black" stroke="black" points="1106.25,-135.907 1098.23,-128.98 1100.18,-139.394 1106.25,-135.907"/>
<text text-anchor="middle" x="1175" y="-177.8" font-family="Times,serif" font-size="24.00">&#39;ELSE&#39;</text>
</g>
<!-- R_ARROW&#45;&gt;MORE_EQUAL -->
<g id="edge7" class="edge"><title>R_ARROW&#45;&gt;MORE_EQUAL</title>
<path fill="none" stroke="black" d="M1213,-243.997C1213,-217.26 1213,-182.168 1213,-151.056"/>
<polygon fill="black" stroke="black" points="1216.5,-150.675 1213,-140.675 1209.5,-150.675 1216.5,-150.675"/>
<text text-anchor="middle" x="1233" y="-178" font-family="Times,serif" font-size="25.00">&#39;[=]&#39;</text>
</g>
<!-- L_ARROW&#45;&gt;LESS_SMBL -->
<g id="edge10" class="edge"><title>L_ARROW&#45;&gt;LESS_SMBL</title>
<path fill="none" stroke="black" d="M1371.68,-453.313C1364.5,-424.333 1354.81,-385.171 1346.68,-352.349"/>
<polygon fill="black" stroke="black" points="1350.02,-351.251 1344.22,-342.385 1343.22,-352.933 1350.02,-351.251"/>
<text text-anchor="middle" x="1393" y="-385.8" font-family="Times,serif" font-size="24.00">&#39;ELSE&#39;</text>
</g>
<!-- L_ARROW&#45;&gt;LESS_EQUAL -->
<g id="edge11" class="edge"><title>L_ARROW&#45;&gt;LESS_EQUAL</title>
<path fill="none" stroke="black" d="M1404.63,-458.232C1413.66,-442.531 1423.64,-423.76 1431,-406 1437.44,-390.466 1443.16,-373.296 1447.98,-357.006"/>
<polygon fill="black" stroke="black" points="1451.46,-357.576 1450.87,-346.998 1444.74,-355.636 1451.46,-357.576"/>
<text text-anchor="middle" x="1460" y="-386" font-family="Times,serif" font-size="25.00">&#39;[=]&#39;</text>
</g>
<!-- L_ARROW&#45;&gt;DOUBLE_L_ARR -->
<g id="edge12" class="edge"><title>L_ARROW&#45;&gt;DOUBLE_L_ARR</title>
<path fill="none" stroke="black" d="M1414.7,-466.638C1434.75,-449.203 1460.92,-426.375 1484,-406 1507.01,-385.691 1532.17,-363.269 1554.24,-343.534"/>
<polygon fill="black" stroke="black" points="1556.78,-345.949 1561.9,-336.673 1552.12,-340.733 1556.78,-345.949"/>
<text text-anchor="middle" x="1532" y="-386" font-family="Times,serif" font-size="25.00">&#39;[&lt;]&#39;</text>
</g>
<!-- KW_OR_ID&#45;&gt;ERR -->
<g id="edge14" class="edge"><title>KW_OR_ID&#45;&gt;ERR</title>
<path fill="none" stroke="black" d="M183.786,-681.668C203.638,-664.476 226.897,-640.561 240,-614 286.912,-518.906 244.124,-479.441 275,-378 298.213,-301.735 302.394,-278.405 352,-216 380.489,-180.16 419.896,-147.828 454.103,-123.384"/>
<polygon fill="black" stroke="black" points="456.519,-125.963 462.678,-117.342 452.487,-120.241 456.519,-125.963"/>
<text text-anchor="middle" x="309" y="-385.8" font-family="Times,serif" font-size="24.00">&#39;ELSE&#39;</text>
</g>
<!-- KW_OR_ID&#45;&gt;END_KW_OR_ID -->
<g id="edge16" class="edge"><title>KW_OR_ID&#45;&gt;END_KW_OR_ID</title>
<path fill="none" stroke="black" d="M128.542,-668.832C121.534,-652.263 114.497,-632.613 111,-614 108.814,-602.365 107.933,-589.974 107.875,-577.77"/>
<polygon fill="black" stroke="black" points="111.377,-577.629 108.01,-567.584 104.378,-577.537 111.377,-577.629"/>
<text text-anchor="middle" x="175.5" y="-593.8" font-family="Times,serif" font-size="24.00">&#39;Σ&#45;[A&#45;z_0&#45;9]&#39;</text>
</g>
<!-- KW_OR_ID&#45;&gt;KW_OR_ID -->
<g id="edge15" class="edge"><title>KW_OR_ID&#45;&gt;KW_OR_ID</title>
<path fill="none" stroke="black" d="M188.293,-730.614C200.986,-730.299 211,-723.428 211,-710 211,-700.349 205.827,-694.085 198.204,-691.208"/>
<polygon fill="black" stroke="black" points="198.761,-687.752 188.293,-689.386 197.496,-694.636 198.761,-687.752"/>
<text text-anchor="middle" x="264" y="-703.8" font-family="Times,serif" font-size="24.00">&#39;[A&#45;z_0&#45;9]&#39;</text>
</g>
<!-- DIV_OR_COMM&#45;&gt;DIVIDE_SMBL -->
<g id="edge17" class="edge"><title>DIV_OR_COMM&#45;&gt;DIVIDE_SMBL</title>
<path fill="none" stroke="black" d="M1542.03,-1036.17C1545.72,-925.293 1553.54,-690.742 1557.54,-570.884"/>
<polygon fill="black" stroke="black" points="1561.04,-570.813 1557.88,-560.702 1554.05,-570.58 1561.04,-570.813"/>
<text text-anchor="middle" x="1583" y="-813.8" font-family="Times,serif" font-size="24.00">&#39;ELSE&#39;</text>
</g>
<!-- LINE_COMM -->
<g id="node33" class="node"><title>LINE_COMM</title>
<ellipse fill="none" stroke="black" cx="1394" cy="-912" rx="51.5634" ry="51.9195"/>
<text text-anchor="middle" x="1394" y="-908.3" font-family="Times,serif" font-size="14.00">LINE_COMM</text>
</g>
<!-- DIV_OR_COMM&#45;&gt;LINE_COMM -->
<g id="edge18" class="edge"><title>DIV_OR_COMM&#45;&gt;LINE_COMM</title>
<path fill="none" stroke="black" d="M1502.02,-1049.14C1480.41,-1021.9 1453.44,-987.909 1431.85,-960.702"/>
<polygon fill="black" stroke="black" points="1434.58,-958.515 1425.63,-952.857 1429.1,-962.866 1434.58,-958.515"/>
<text text-anchor="middle" x="1491.5" y="-998" font-family="Times,serif" font-size="25.00">&#39;[/]&#39;</text>
</g>
<!-- BLOCK_COMM -->
<g id="node34" class="node"><title>BLOCK_COMM</title>
<ellipse fill="none" stroke="black" cx="1648" cy="-912" rx="59.4356" ry="59.7483"/>
<text text-anchor="middle" x="1648" y="-908.3" font-family="Times,serif" font-size="14.00">BLOCK_COMM</text>
</g>
<!-- DIV_OR_COMM&#45;&gt;BLOCK_COMM -->
<g id="edge21" class="edge"><title>DIV_OR_COMM&#45;&gt;BLOCK_COMM</title>
<path fill="none" stroke="black" d="M1570.95,-1044.27C1584.1,-1021.86 1599.5,-995.623 1613.06,-972.519"/>
<polygon fill="black" stroke="black" points="1616.12,-974.228 1618.16,-963.833 1610.08,-970.685 1616.12,-974.228"/>
<text text-anchor="middle" x="1619.5" y="-998" font-family="Times,serif" font-size="25.00">&#39;[*]&#39;</text>
</g>
<!-- LINE_COMM&#45;&gt;S_START -->
<g id="edge20" class="edge"><title>LINE_COMM&#45;&gt;S_START</title>
<path fill="none" stroke="black" d="M1388.59,-963.602C1379.56,-1026.57 1356.22,-1134.5 1298,-1206 1268.59,-1242.11 1226.22,-1270.1 1186.16,-1290.64"/>
<polygon fill="black" stroke="black" points="1184.49,-1287.56 1177.12,-1295.17 1187.63,-1293.82 1184.49,-1287.56"/>
<text text-anchor="middle" x="1396" y="-1092" font-family="Times,serif" font-size="25.00">&#39;[\n]&#39;</text>
</g>
<!-- LINE_COMM&#45;&gt;LINE_COMM -->
<g id="edge19" class="edge"><title>LINE_COMM&#45;&gt;LINE_COMM</title>
<path fill="none" stroke="black" d="M1442.68,-928.946C1454.35,-927.621 1463,-921.973 1463,-912 1463,-905.144 1458.91,-900.331 1452.56,-897.563"/>
<polygon fill="black" stroke="black" points="1453.23,-894.122 1442.68,-895.054 1451.51,-900.907 1453.23,-894.122"/>
<text text-anchor="middle" x="1497" y="-905.8" font-family="Times,serif" font-size="24.00">&#39;ELSE&#39;</text>
</g>
<!-- BLOCK_COMM&#45;&gt;BLOCK_COMM -->
<g id="edge23" class="edge"><title>BLOCK_COMM&#45;&gt;BLOCK_COMM</title>
<path fill="none" stroke="black" d="M1705.09,-928.592C1716.69,-926.785 1725,-921.254 1725,-912 1725,-905.638 1721.07,-901.036 1714.85,-898.193"/>
<polygon fill="black" stroke="black" points="1715.66,-894.786 1705.09,-895.408 1713.74,-901.518 1715.66,-894.786"/>
<text text-anchor="middle" x="1759" y="-905.8" font-family="Times,serif" font-size="24.00">&#39;ELSE&#39;</text>
</g>
<!-- END_BLOCK_COMM -->
<g id="node35" class="node"><title>END_BLOCK_COMM</title>
<ellipse fill="none" stroke="black" cx="1713" cy="-710" rx="78.1375" ry="78.1833"/>
<text text-anchor="middle" x="1713" y="-706.3" font-family="Times,serif" font-size="14.00">END_BLOCK_COMM</text>
</g>
<!-- BLOCK_COMM&#45;&gt;END_BLOCK_COMM -->
<g id="edge22" class="edge"><title>BLOCK_COMM&#45;&gt;END_BLOCK_COMM</title>
<path fill="none" stroke="black" d="M1644.77,-852.294C1645.4,-836.949 1647.41,-820.619 1652,-806 1654.53,-797.936 1657.94,-789.893 1661.87,-782.093"/>
<polygon fill="black" stroke="black" points="1665.07,-783.532 1666.68,-773.061 1658.89,-780.239 1665.07,-783.532"/>
<text text-anchor="middle" x="1671.5" y="-814" font-family="Times,serif" font-size="25.00">&#39;[*]&#39;</text>
</g>
<!-- END_BLOCK_COMM&#45;&gt;S_START -->
<g id="edge24" class="edge"><title>END_BLOCK_COMM&#45;&gt;S_START</title>
<path fill="none" stroke="black" d="M1761.49,-771.199C1777.69,-794.938 1793.72,-823.358 1802,-852 1816.82,-903.234 1822.67,-922.835 1802,-972 1755.72,-1082.1 1712.13,-1098.09 1610,-1160 1478.34,-1239.81 1306.18,-1287.55 1192.72,-1312.54"/>
<polygon fill="black" stroke="black" points="1191.64,-1309.19 1182.62,-1314.74 1193.13,-1316.03 1191.64,-1309.19"/>
<text text-anchor="middle" x="1814" y="-998" font-family="Times,serif" font-size="25.00">&#39;&#39;[/]&#39;&#39;</text>
</g>
<!-- END_BLOCK_COMM&#45;&gt;BLOCK_COMM -->
<g id="edge25" class="edge"><title>END_BLOCK_COMM&#45;&gt;BLOCK_COMM</title>
<path fill="none" stroke="black" d="M1703.32,-787.815C1700.24,-803.352 1696.22,-819.394 1691,-834 1688.9,-839.867 1686.39,-845.813 1683.64,-851.667"/>
<polygon fill="black" stroke="black" points="1680.44,-850.246 1679.15,-860.763 1686.71,-853.342 1680.44,-850.246"/>
<text text-anchor="middle" x="1732" y="-813.8" font-family="Times,serif" font-size="24.00">&#39;ELSE&#39;</text>
</g>
<!-- S_STRING&#45;&gt;ERR -->
<g id="edge27" class="edge"><title>S_STRING&#45;&gt;ERR</title>
<path fill="none" stroke="black" d="M546.533,-870.377C548.375,-858.678 550.081,-845.87 551,-834 551.961,-821.593 551.214,-818.443 551,-806 549.666,-728.632 550.544,-709.18 545,-632 542.95,-603.459 539.878,-596.552 538,-568 528.664,-426.047 526.825,-260.567 526.676,-162.524"/>
<polygon fill="black" stroke="black" points="530.176,-162.369 526.667,-152.372 523.176,-162.376 530.176,-162.369"/>
<text text-anchor="middle" x="572" y="-489.8" font-family="Times,serif" font-size="24.00">&#39;ELSE&#39;</text>
</g>
<!-- S_STRING&#45;&gt;E_STRING -->
<g id="edge36" class="edge"><title>S_STRING&#45;&gt;E_STRING</title>
<path fill="none" stroke="black" d="M525.346,-871.671C521.415,-859.658 517.302,-846.356 514,-834 508.31,-812.708 503.064,-789.076 498.796,-768.263"/>
<polygon fill="black" stroke="black" points="502.193,-767.403 496.782,-758.295 495.332,-768.79 502.193,-767.403"/>
<text text-anchor="middle" x="532.5" y="-814" font-family="Times,serif" font-size="25.00">&#39;[&quot;]&#39;</text>
</g>
<!-- S_STRING&#45;&gt;S_STRING -->
<g id="edge26" class="edge"><title>S_STRING&#45;&gt;S_STRING</title>
<path fill="none" stroke="black" d="M577.664,-929.233C589.615,-928.885 599,-923.141 599,-912 599,-904.341 594.564,-899.232 587.908,-896.674"/>
<polygon fill="black" stroke="black" points="588.136,-893.156 577.664,-894.767 586.855,-900.038 588.136,-893.156"/>
<text text-anchor="middle" x="622.5" y="-905.8" font-family="Times,serif" font-size="24.00">&#39;[^&quot;]&#39;</text>
</g>
<!-- S_ESCAPE -->
<g id="node37" class="node"><title>S_ESCAPE</title>
<ellipse fill="none" stroke="black" cx="378" cy="-710" rx="42.6083" ry="42.98"/>
<text text-anchor="middle" x="378" y="-706.3" font-family="Times,serif" font-size="14.00">S_ESCAPE</text>
</g>
<!-- S_STRING&#45;&gt;S_ESCAPE -->
<g id="edge28" class="edge"><title>S_STRING&#45;&gt;S_ESCAPE</title>
<path fill="none" stroke="black" d="M497.443,-905.094C456.849,-896.873 397.182,-877.704 369,-834 355.141,-812.508 356.173,-784.297 361.218,-760.314"/>
<polygon fill="black" stroke="black" points="364.684,-760.865 363.594,-750.327 357.874,-759.245 364.684,-760.865"/>
<text text-anchor="middle" x="389" y="-814" font-family="Times,serif" font-size="25.00">&#39;[\\]&#39;</text>
</g>
<!-- S_ESCAPE&#45;&gt;ERR -->
<g id="edge30" class="edge"><title>S_ESCAPE&#45;&gt;ERR</title>
<path fill="none" stroke="black" d="M367.458,-668.566C352.702,-605.759 329.93,-481.238 351,-378 371.397,-278.058 388.278,-252.691 448,-170 454.88,-160.474 462.488,-150.71 470.184,-141.258"/>
<polygon fill="black" stroke="black" points="472.998,-143.347 476.656,-133.404 467.596,-138.895 472.998,-143.347"/>
<text text-anchor="middle" x="385" y="-385.8" font-family="Times,serif" font-size="24.00">&#39;ELSE&#39;</text>
</g>
<!-- S_ESCAPE&#45;&gt;S_STRING -->
<g id="edge29" class="edge"><title>S_ESCAPE&#45;&gt;S_STRING</title>
<path fill="none" stroke="black" d="M394.329,-749.671C406.187,-775.163 423.83,-808.435 445,-834 459.685,-851.733 478.933,-868.341 496.186,-881.561"/>
<polygon fill="black" stroke="black" points="494.365,-884.57 504.466,-887.768 498.564,-878.969 494.365,-884.57"/>
<text text-anchor="middle" x="474.5" y="-814" font-family="Times,serif" font-size="25.00">&#39;[tn\\]&#39;</text>
</g>
<!-- ESCAPE_X1 -->
<g id="node38" class="node"><title>ESCAPE_X1</title>
<ellipse fill="none" stroke="black" cx="428" cy="-496" rx="47.2323" ry="47.4763"/>
<text text-anchor="middle" x="428" y="-492.3" font-family="Times,serif" font-size="14.00">ESCAPE_X1</text>
</g>
<!-- S_ESCAPE&#45;&gt;ESCAPE_X1 -->
<g id="edge31" class="edge"><title>S_ESCAPE&#45;&gt;ESCAPE_X1</title>
<path fill="none" stroke="black" d="M387.641,-668.124C395.396,-635.24 406.372,-588.702 414.92,-552.458"/>
<polygon fill="black" stroke="black" points="418.373,-553.065 417.262,-542.528 411.56,-551.458 418.373,-553.065"/>
<text text-anchor="middle" x="425.5" y="-594" font-family="Times,serif" font-size="25.00">&#39;[x]&#39;</text>
</g>
<!-- ESCAPE_X1&#45;&gt;ERR -->
<g id="edge33" class="edge"><title>ESCAPE_X1&#45;&gt;ERR</title>
<path fill="none" stroke="black" d="M424.295,-448.404C421.287,-392.035 420.864,-294.887 445,-216 452.313,-192.099 464.487,-167.976 477.245,-146.689"/>
<polygon fill="black" stroke="black" points="480.294,-148.414 482.541,-138.06 474.327,-144.752 480.294,-148.414"/>
<text text-anchor="middle" x="479" y="-281.8" font-family="Times,serif" font-size="24.00">&#39;ELSE&#39;</text>
</g>
<!-- ESCAPE_X2 -->
<g id="node39" class="node"><title>ESCAPE_X2</title>
<ellipse fill="none" stroke="black" cx="602" cy="-288" rx="47.2323" ry="47.4763"/>
<text text-anchor="middle" x="602" y="-284.3" font-family="Times,serif" font-size="14.00">ESCAPE_X2</text>
</g>
<!-- ESCAPE_X1&#45;&gt;ESCAPE_X2 -->
<g id="edge32" class="edge"><title>ESCAPE_X1&#45;&gt;ESCAPE_X2</title>
<path fill="none" stroke="black" d="M458.308,-459.118C488.033,-423.926 533.397,-370.22 565.182,-332.59"/>
<polygon fill="black" stroke="black" points="567.968,-334.714 571.747,-324.816 562.621,-330.197 567.968,-334.714"/>
<text text-anchor="middle" x="557" y="-385.8" font-family="Times,serif" font-size="24.00">&#39;[A&#45;z]&#39;</text>
</g>
<!-- ESCAPE_X2&#45;&gt;ERR -->
<g id="edge35" class="edge"><title>ESCAPE_X2&#45;&gt;ERR</title>
<path fill="none" stroke="black" d="M586.278,-242.977C577.44,-218.232 566.133,-186.573 555.769,-157.552"/>
<polygon fill="black" stroke="black" points="558.954,-156.066 552.295,-147.825 552.362,-158.42 558.954,-156.066"/>
<text text-anchor="middle" x="603" y="-177.8" font-family="Times,serif" font-size="24.00">&#39;ELSE&#39;</text>
</g>
<!-- ESCAPE_X2&#45;&gt;S_STRING -->
<g id="edge34" class="edge"><title>ESCAPE_X2&#45;&gt;S_STRING</title>
<path fill="none" stroke="black" d="M605.437,-335.516C607.188,-361.527 609.128,-394.547 610,-424 611.894,-487.972 620.252,-504.826 610,-568 608.649,-576.324 605.767,-577.754 604,-586 580.787,-694.321 610.656,-727.838 579,-834 575.704,-845.054 570.801,-856.384 565.548,-866.836"/>
<polygon fill="black" stroke="black" points="562.41,-865.283 560.872,-875.766 568.611,-868.53 562.41,-865.283"/>
<text text-anchor="middle" x="635" y="-593.8" font-family="Times,serif" font-size="24.00">&#39;[A&#45;z]&#39;</text>
</g>
<!-- EQ_OR_ASIGNMENT&#45;&gt;ASIGNMENT_SMBL -->
<g id="edge38" class="edge"><title>EQ_OR_ASIGNMENT&#45;&gt;ASIGNMENT_SMBL</title>
<path fill="none" stroke="black" d="M1880.6,-1559.77C1858.82,-1517.81 1830.78,-1463.77 1807.77,-1419.42"/>
<polygon fill="black" stroke="black" points="1810.8,-1417.66 1803.09,-1410.4 1804.59,-1420.89 1810.8,-1417.66"/>
<text text-anchor="middle" x="1879" y="-1473.8" font-family="Times,serif" font-size="24.00">&#39;ELSE&#39;</text>
</g>
<!-- EQ_OR_ASIGNMENT&#45;&gt;EQUAL_SMBL -->
<g id="edge39" class="edge"><title>EQ_OR_ASIGNMENT&#45;&gt;EQUAL_SMBL</title>
<path fill="none" stroke="black" d="M1919.7,-1551.16C1921.8,-1507.36 1924.43,-1452.78 1926.5,-1409.68"/>
<polygon fill="black" stroke="black" points="1930.01,-1409.71 1926.99,-1399.55 1923.01,-1409.37 1930.01,-1409.71"/>
<text text-anchor="middle" x="1943" y="-1474" font-family="Times,serif" font-size="25.00">&#39;[=]&#39;</text>
</g>
<!-- S_NUMBER&#45;&gt;END_NUMBER -->
<g id="edge55" class="edge"><title>S_NUMBER&#45;&gt;END_NUMBER</title>
<path fill="none" stroke="black" d="M917.683,-1063.94C929.335,-1050.59 941.632,-1034.47 950,-1018 970.581,-977.501 997.471,-861.566 1013.97,-784.33"/>
<polygon fill="black" stroke="black" points="1017.48,-784.68 1016.13,-774.171 1010.63,-783.225 1017.48,-784.68"/>
<text text-anchor="middle" x="1038" y="-905.8" font-family="Times,serif" font-size="24.00">&#39;Σ&#45;[.eE]&#39;</text>
</g>
<!-- S_NUMBER&#45;&gt;S_NUMBER -->
<g id="edge54" class="edge"><title>S_NUMBER&#45;&gt;S_NUMBER</title>
<path fill="none" stroke="black" d="M928.373,-1115.49C940.088,-1114.57 949,-1108.74 949,-1098 949,-1090.62 944.788,-1085.55 938.348,-1082.81"/>
<polygon fill="black" stroke="black" points="938.904,-1079.34 928.373,-1080.51 937.329,-1086.17 938.904,-1079.34"/>
<text text-anchor="middle" x="978" y="-1091.8" font-family="Times,serif" font-size="24.00">&#39;[0&#45;9]&#39;</text>
</g>
<!-- EXPONENT -->
<g id="node42" class="node"><title>EXPONENT</title>
<ellipse fill="none" stroke="black" cx="826" cy="-496" rx="46.1497" ry="46.3658"/>
<text text-anchor="middle" x="826" y="-492.3" font-family="Times,serif" font-size="14.00">EXPONENT</text>
</g>
<!-- S_NUMBER&#45;&gt;EXPONENT -->
<g id="edge56" class="edge"><title>S_NUMBER&#45;&gt;EXPONENT</title>
<path fill="none" stroke="black" d="M898.107,-1052.88C920.862,-968.877 961.133,-781.066 916,-632 905.541,-597.456 883.005,-563.672 863.102,-538.54"/>
<polygon fill="black" stroke="black" points="865.763,-536.265 856.751,-530.695 860.323,-540.67 865.763,-536.265"/>
<text text-anchor="middle" x="962" y="-813.8" font-family="Times,serif" font-size="24.00">&#39;[eE]&#39;</text>
</g>
<!-- D_NUMBER -->
<g id="node43" class="node"><title>D_NUMBER</title>
<ellipse fill="none" stroke="black" cx="770" cy="-912" rx="48.3149" ry="48.5869"/>
<text text-anchor="middle" x="770" y="-908.3" font-family="Times,serif" font-size="14.00">D_NUMBER</text>
</g>
<!-- S_NUMBER&#45;&gt;D_NUMBER -->
<g id="edge57" class="edge"><title>S_NUMBER&#45;&gt;D_NUMBER</title>
<path fill="none" stroke="black" d="M860.611,-1057.98C843.149,-1030.04 819.506,-992.209 800.749,-962.199"/>
<polygon fill="black" stroke="black" points="803.616,-960.182 795.348,-953.558 797.68,-963.893 803.616,-960.182"/>
<text text-anchor="middle" x="851" y="-998" font-family="Times,serif" font-size="25.00">&#39;[.]&#39;</text>
</g>
<!-- EXPONENT&#45;&gt;ERR -->
<g id="edge64" class="edge"><title>EXPONENT&#45;&gt;ERR</title>
<path fill="none" stroke="black" d="M796.084,-460.378C775.141,-434.392 748.123,-397.056 732,-360 697.535,-280.785 742.156,-239.613 691,-170 670.273,-141.794 638.245,-120.925 607.975,-106.185"/>
<polygon fill="black" stroke="black" points="609.191,-102.889 598.652,-101.806 606.215,-109.225 609.191,-102.889"/>
<text text-anchor="middle" x="766" y="-281.8" font-family="Times,serif" font-size="24.00">&#39;ELSE&#39;</text>
</g>
<!-- FEX_NUMBER -->
<g id="node45" class="node"><title>FEX_NUMBER</title>
<ellipse fill="none" stroke="black" cx="865" cy="-288" rx="56.1874" ry="56.4163"/>
<text text-anchor="middle" x="865" y="-284.3" font-family="Times,serif" font-size="14.00">FEX_NUMBER</text>
</g>
<!-- EXPONENT&#45;&gt;FEX_NUMBER -->
<g id="edge63" class="edge"><title>EXPONENT&#45;&gt;FEX_NUMBER</title>
<path fill="none" stroke="black" d="M834.462,-450.301C839.819,-422.005 846.833,-384.957 852.788,-353.503"/>
<polygon fill="black" stroke="black" points="856.26,-353.982 854.681,-343.505 849.382,-352.68 856.26,-353.982"/>
<text text-anchor="middle" x="891.5" y="-385.8" font-family="Times,serif" font-size="24.00">&#39;[\&#45;+0&#45;9]&#39;</text>
</g>
<!-- D_NUMBER&#45;&gt;ERR -->
<g id="edge59" class="edge"><title>D_NUMBER&#45;&gt;ERR</title>
<path fill="none" stroke="black" d="M741.62,-872.402C726.141,-849.164 708.288,-818.291 699,-788 624.28,-544.324 711.823,-465.127 658,-216 653.397,-194.696 653.669,-187.736 641,-170 629.243,-153.54 613.85,-138.363 598.196,-125.252"/>
<polygon fill="black" stroke="black" points="599.97,-122.183 590.004,-118.588 595.553,-127.613 599.97,-122.183"/>
<text text-anchor="middle" x="710" y="-489.8" font-family="Times,serif" font-size="24.00">&#39;ELSE&#39;</text>
</g>
<!-- FRAC_NUMBER -->
<g id="node44" class="node"><title>FRAC_NUMBER</title>
<ellipse fill="none" stroke="black" cx="770" cy="-710" rx="61.6014" ry="61.9701"/>
<text text-anchor="middle" x="770" y="-706.3" font-family="Times,serif" font-size="14.00">FRAC_NUMBER</text>
</g>
<!-- D_NUMBER&#45;&gt;FRAC_NUMBER -->
<g id="edge58" class="edge"><title>D_NUMBER&#45;&gt;FRAC_NUMBER</title>
<path fill="none" stroke="black" d="M770,-863.349C770,-839.068 770,-809.053 770,-782.102"/>
<polygon fill="black" stroke="black" points="773.5,-781.941 770,-771.941 766.5,-781.941 773.5,-781.941"/>
<text text-anchor="middle" x="799" y="-813.8" font-family="Times,serif" font-size="24.00">&#39;[0&#45;9]&#39;</text>
</g>
<!-- FRAC_NUMBER&#45;&gt;END_DOUBLE -->
<g id="edge61" class="edge"><title>FRAC_NUMBER&#45;&gt;END_DOUBLE</title>
<path fill="none" stroke="black" d="M813.414,-666.034C871.783,-604.648 972.148,-485.338 1006,-360 1022.69,-298.214 1025.63,-276.914 1006,-216 995.88,-184.605 975.747,-154.313 956.182,-130.065"/>
<polygon fill="black" stroke="black" points="958.652,-127.56 949.583,-122.081 953.256,-132.019 958.652,-127.56"/>
<text text-anchor="middle" x="1052" y="-385.8" font-family="Times,serif" font-size="24.00">&#39;Σ&#45;[0&#45;9eE]&#39;</text>
</g>
<!-- FRAC_NUMBER&#45;&gt;EXPONENT -->
<g id="edge62" class="edge"><title>FRAC_NUMBER&#45;&gt;EXPONENT</title>
<path fill="none" stroke="black" d="M785.525,-650.228C793.726,-619.181 803.721,-581.34 811.728,-551.031"/>
<polygon fill="black" stroke="black" points="815.191,-551.625 814.361,-541.062 808.423,-549.837 815.191,-551.625"/>
<text text-anchor="middle" x="828" y="-593.8" font-family="Times,serif" font-size="24.00">&#39;[eE]&#39;</text>
</g>
<!-- FRAC_NUMBER&#45;&gt;FRAC_NUMBER -->
<g id="edge60" class="edge"><title>FRAC_NUMBER&#45;&gt;FRAC_NUMBER</title>
<path fill="none" stroke="black" d="M828.221,-729.9C840.308,-727.805 849,-721.172 849,-710 849,-702.145 844.703,-696.533 837.95,-693.166"/>
<polygon fill="black" stroke="black" points="838.81,-689.767 828.221,-690.1 836.706,-696.444 838.81,-689.767"/>
<text text-anchor="middle" x="878" y="-703.8" font-family="Times,serif" font-size="24.00">&#39;[0&#45;9]&#39;</text>
</g>
<!-- FEX_NUMBER&#45;&gt;ERR -->
<g id="edge67" class="edge"><title>FEX_NUMBER&#45;&gt;ERR</title>
<path fill="none" stroke="black" d="M826.584,-246.328C816.541,-236.174 805.563,-225.481 795,-216 770.516,-194.022 765.156,-187.02 737,-170 696.248,-145.366 647.816,-123.476 607.738,-107.132"/>
<polygon fill="black" stroke="black" points="608.852,-103.807 598.269,-103.309 606.232,-110.298 608.852,-103.807"/>
<text text-anchor="middle" x="810" y="-177.8" font-family="Times,serif" font-size="24.00">&#39;ELSE&#39;</text>
</g>
<!-- FEX_NUMBER&#45;&gt;END_DOUBLE -->
<g id="edge66" class="edge"><title>FEX_NUMBER&#45;&gt;END_DOUBLE</title>
<path fill="none" stroke="black" d="M875.665,-232.373C880.695,-206.613 886.759,-175.552 892.139,-147.994"/>
<polygon fill="black" stroke="black" points="895.606,-148.502 894.087,-138.016 888.736,-147.16 895.606,-148.502"/>
<text text-anchor="middle" x="920" y="-177.8" font-family="Times,serif" font-size="24.00">&#39;ELSE&#39;</text>
</g>
<!-- FEX_NUMBER&#45;&gt;FEX_NUMBER -->
<g id="edge65" class="edge"><title>FEX_NUMBER&#45;&gt;FEX_NUMBER</title>
<path fill="none" stroke="black" d="M918.215,-307.024C930.22,-305.31 939,-298.969 939,-288 939,-280.288 934.659,-274.863 927.909,-271.726"/>
<polygon fill="black" stroke="black" points="928.791,-268.338 918.215,-268.976 926.881,-275.072 928.791,-268.338"/>
<text text-anchor="middle" x="968" y="-281.8" font-family="Times,serif" font-size="24.00">&#39;[0&#45;9]&#39;</text>
</g>
</g>
</svg>
