<?xml version="1.0" encoding="UTF-8" standalone="no"?>
<!DOCTYPE svg PUBLIC "-//W3C//DTD SVG 1.1//EN"
 "http://www.w3.org/Graphics/SVG/1.1/DTD/svg11.dtd">
<!-- Generated by graphviz version 2.36.0 (20140111.2315)
 -->
<!-- Title: finite_state_machine Pages: 1 -->
<svg width="526pt" height="463pt"
 viewBox="0.00 0.00 526.00 462.94" xmlns="http://www.w3.org/2000/svg" xmlns:xlink="http://www.w3.org/1999/xlink">
<g id="graph0" class="graph" transform="scale(0.262737 0.262737) rotate(0) translate(4 1758)">
<title>finite_state_machine</title>
<polygon fill="white" stroke="none" points="-4,4 -4,-1758 1998,-1758 1998,4 -4,4"/>
<!-- unflatten -->
<g id="node1" class="node"><title>unflatten</title>
<ellipse fill="none" stroke="black" cx="42" cy="-1484" rx="42.3701" ry="18"/>
<text text-anchor="middle" x="42" y="-1480.3" font-family="Times,serif" font-size="14.00">unflatten</text>
</g>
<!-- qi -->
<g id="node2" class="node"><title>qi</title>
<ellipse fill="black" stroke="black" cx="466" cy="-1336" rx="1.8" ry="1.8"/>
</g>
<!-- S_START -->
<g id="node3" class="node"><title>S_START</title>
<ellipse fill="none" stroke="blue" cx="1074" cy="-1336" rx="107.518" ry="108"/>
<ellipse fill="none" stroke="blue" cx="1074" cy="-1336" rx="111.5" ry="112"/>
<text text-anchor="middle" x="1074" y="-1330.1" font-family="Times,serif" font-size="23.00">S_START</text>
</g>
<!-- qi&#45;&gt;S_START -->
<g id="edge68" class="edge"><title>qi&#45;&gt;S_START</title>
<path fill="none" stroke="black" d="M467.966,-1336C494.476,-1336 782.778,-1336 952.002,-1336"/>
<polygon fill="black" stroke="black" points="952.221,-1339.5 962.221,-1336 952.221,-1332.5 952.221,-1339.5"/>
<text text-anchor="middle" x="714.5" y="-1345.8" font-family="Times,serif" font-size="24.00">&#39;Σ&#39;</text>
</g>
<!-- S_START&#45;&gt;S_START -->
<g id="edge1" class="edge"><title>S_START&#45;&gt;S_START</title>
<path fill="none" stroke="black" d="M1183.64,-1358.54C1195.42,-1354.2 1203,-1346.69 1203,-1336 1203,-1328.49 1199.25,-1322.54 1192.93,-1318.16"/>
<polygon fill="black" stroke="black" points="1194.14,-1314.85 1183.64,-1313.46 1190.98,-1321.1 1194.14,-1314.85"/>
<text text-anchor="middle" x="1238.5" y="-1329.8" font-family="Times,serif" font-size="24.00">&#39;[\ \n\t]&#39;</text>
</g>
<!-- ERR -->
<g id="node4" class="node"><title>ERR</title>
<ellipse fill="none" stroke="red" cx="527" cy="-76" rx="72" ry="72"/>
<ellipse fill="none" stroke="red" cx="527" cy="-76" rx="76" ry="76"/>
<text text-anchor="middle" x="527" y="-69.7" font-family="Times,serif" font-size="26.00">ERR</text>
</g>
<!-- S_START&#45;&gt;ERR -->
<g id="edge40" class="edge"><title>S_START&#45;&gt;ERR</title>
<path fill="none" stroke="black" d="M964.473,-1313.4C694.335,-1259.76 18,-1123.05 18,-1099 18,-1099 18,-1099 18,-287 18,-196.331 297.486,-124.726 442.257,-93.7169"/>
<polygon fill="black" stroke="black" points="443.387,-97.0552 452.442,-91.5547 441.933,-90.2077 443.387,-97.0552"/>
<text text-anchor="middle" x="52" y="-703.8" font-family="Times,serif" font-size="24.00">&#39;ELSE&#39;</text>
</g>
<!-- SEMICOLON_SMBL -->
<g id="node5" class="node"><title>SEMICOLON_SMBL</title>
<ellipse fill="none" stroke="green" cx="1534" cy="-1637" rx="78.3884" ry="78.8198"/>
<ellipse fill="none" stroke="green" cx="1534" cy="-1637" rx="82.3621" ry="82.8154"/>
<text text-anchor="middle" x="1534" y="-1633.5" font-family="Times,serif" font-size="15.00">SEMICOLON_SMBL</text>
</g>
<!-- S_START&#45;&gt;SEMICOLON_SMBL -->
<g id="edge52" class="edge"><title>S_START&#45;&gt;SEMICOLON_SMBL</title>
<path fill="none" stroke="black" d="M1178.83,-1374.4C1256.72,-1405.51 1362.75,-1455.16 1442,-1520 1456.18,-1531.6 1469.6,-1545.74 1481.58,-1560.1"/>
<polygon fill="black" stroke="black" points="1479.06,-1562.55 1488.09,-1568.09 1484.49,-1558.13 1479.06,-1562.55"/>
<text text-anchor="middle" x="1431.5" y="-1478" font-family="Times,serif" font-size="25.00">&#39;[;]&#39;</text>
</g>
<!-- LEFT_COLUMN_SMBL -->
<g id="node6" class="node"><title>LEFT_COLUMN_SMBL</title>
<ellipse fill="none" stroke="green" cx="1728" cy="-1637" rx="89.0527" ry="89.2242"/>
<ellipse fill="none" stroke="green" cx="1728" cy="-1637" rx="93.0389" ry="93.2182"/>
<text text-anchor="middle" x="1728" y="-1633.5" font-family="Times,serif" font-size="15.00">LEFT_COLUMN_SMBL</text>
</g>
<!-- S_START&#45;&gt;LEFT_COLUMN_SMBL -->
<g id="edge49" class="edge"><title>S_START&#45;&gt;LEFT_COLUMN_SMBL</title>
<path fill="none" stroke="black" d="M1183.93,-1355.89C1300.8,-1379.82 1487.39,-1429.31 1625,-1520 1639.38,-1529.48 1653,-1541.46 1665.35,-1554.1"/>
<polygon fill="black" stroke="black" points="1663.05,-1556.76 1672.47,-1561.61 1668.13,-1551.94 1663.05,-1556.76"/>
<text text-anchor="middle" x="1602" y="-1478" font-family="Times,serif" font-size="25.00">&#39;[(]&#39;</text>
</g>
<!-- RIGHT_COLUMN_SMBL -->
<g id="node7" class="node"><title>RIGHT_COLUMN_SMBL</title>
<ellipse fill="none" stroke="green" cx="99" cy="-1637" rx="94.3852" ry="94.6659"/>
<ellipse fill="none" stroke="green" cx="99" cy="-1637" rx="98.3768" ry="98.6694"/>
<text text-anchor="middle" x="99" y="-1633.5" font-family="Times,serif" font-size="15.00">RIGHT_COLUMN_SMBL</text>
</g>
<!-- S_START&#45;&gt;RIGHT_COLUMN_SMBL -->
<g id="edge48" class="edge"><title>S_START&#45;&gt;RIGHT_COLUMN_SMBL</title>
<path fill="none" stroke="black" d="M964.244,-1356.3C745.93,-1395.25 272.516,-1482.72 207,-1520 192.306,-1528.36 178.444,-1539.39 165.862,-1551.33"/>
<polygon fill="black" stroke="black" points="163.292,-1548.94 158.604,-1558.45 168.194,-1553.94 163.292,-1548.94"/>
<text text-anchor="middle" x="406" y="-1478" font-family="Times,serif" font-size="25.00">&#39;[)]&#39;</text>
</g>
<!-- LEFT_VIN_COLUMN_SMBL -->
<g id="node8" class="node"><title>LEFT_VIN_COLUMN_SMBL</title>
<ellipse fill="none" stroke="green" cx="327" cy="-1637" rx="107.187" ry="107.248"/>
<ellipse fill="none" stroke="green" cx="327" cy="-1637" rx="111.189" ry="111.253"/>
<text text-anchor="middle" x="327" y="-1633.5" font-family="Times,serif" font-size="15.00">LEFT_VIN_COLUMN_SMBL</text>
</g>
<!-- S_START&#45;&gt;LEFT_VIN_COLUMN_SMBL -->
<g id="edge45" class="edge"><title>S_START&#45;&gt;LEFT_VIN_COLUMN_SMBL</title>
<path fill="none" stroke="black" d="M963.681,-1352.64C833.209,-1374.75 612.836,-1423.68 447,-1520 433.846,-1527.64 421.04,-1537.03 408.993,-1547.12"/>
<polygon fill="black" stroke="black" points="406.481,-1544.66 401.19,-1553.84 411.05,-1549.97 406.481,-1544.66"/>
<text text-anchor="middle" x="561" y="-1478" font-family="Times,serif" font-size="25.00">&#39;[{]&#39;</text>
</g>
<!-- RIGHT_VIN_COLUMN_SMBL -->
<g id="node9" class="node"><title>RIGHT_VIN_COLUMN_SMBL</title>
<ellipse fill="none" stroke="green" cx="572" cy="-1637" rx="112.039" ry="112.209"/>
<ellipse fill="none" stroke="green" cx="572" cy="-1637" rx="116.028" ry="116.204"/>
<text text-anchor="middle" x="572" y="-1633.5" font-family="Times,serif" font-size="15.00">RIGHT_VIN_COLUMN_SMBL</text>
</g>
<!-- S_START&#45;&gt;RIGHT_VIN_COLUMN_SMBL -->
<g id="edge46" class="edge"><title>S_START&#45;&gt;RIGHT_VIN_COLUMN_SMBL</title>
<path fill="none" stroke="black" d="M970.312,-1377.47C891.945,-1410.34 783.469,-1460.84 697,-1520 684.873,-1528.3 672.75,-1537.74 661.086,-1547.56"/>
<polygon fill="black" stroke="black" points="658.809,-1544.9 653.491,-1554.07 663.363,-1550.22 658.809,-1544.9"/>
<text text-anchor="middle" x="805" y="-1478" font-family="Times,serif" font-size="25.00">&#39;[}]&#39;</text>
</g>
<!-- COMMA_SMBL -->
<g id="node10" class="node"><title>COMMA_SMBL</title>
<ellipse fill="none" stroke="green" cx="774" cy="-1637" rx="63.1687" ry="63.5218"/>
<ellipse fill="none" stroke="green" cx="774" cy="-1637" rx="67.132" ry="67.5073"/>
<text text-anchor="middle" x="774" y="-1633.5" font-family="Times,serif" font-size="15.00">COMMA_SMBL</text>
</g>
<!-- S_START&#45;&gt;COMMA_SMBL -->
<g id="edge41" class="edge"><title>S_START&#45;&gt;COMMA_SMBL</title>
<path fill="none" stroke="black" d="M983.455,-1401.39C940.669,-1434.2 890.454,-1476.34 851,-1520 837.476,-1534.97 824.586,-1552.5 813.355,-1569.34"/>
<polygon fill="black" stroke="black" points="810.191,-1567.79 807.638,-1578.07 816.046,-1571.62 810.191,-1567.79"/>
<text text-anchor="middle" x="917" y="-1478" font-family="Times,serif" font-size="25.00">&#39;[,]&#39;</text>
</g>
<!-- PLUS_SMBL -->
<g id="node11" class="node"><title>PLUS_SMBL</title>
<ellipse fill="none" stroke="green" cx="917" cy="-1637" rx="52.2141" ry="52.5749"/>
<ellipse fill="none" stroke="green" cx="917" cy="-1637" rx="56.1713" ry="56.5594"/>
<text text-anchor="middle" x="917" y="-1633.5" font-family="Times,serif" font-size="15.00">PLUS_SMBL</text>
</g>
<!-- S_START&#45;&gt;PLUS_SMBL -->
<g id="edge43" class="edge"><title>S_START&#45;&gt;PLUS_SMBL</title>
<path fill="none" stroke="black" d="M1022.25,-1435.56C997.598,-1482.5 968.951,-1537.06 947.773,-1577.39"/>
<polygon fill="black" stroke="black" points="944.652,-1575.81 943.102,-1586.29 950.849,-1579.06 944.652,-1575.81"/>
<text text-anchor="middle" x="1024" y="-1478" font-family="Times,serif" font-size="25.00">&#39;[+]&#39;</text>
</g>
<!-- MINUS_SMBL -->
<g id="node12" class="node"><title>MINUS_SMBL</title>
<ellipse fill="none" stroke="green" cx="1055" cy="-1637" rx="59.0736" ry="59.097"/>
<ellipse fill="none" stroke="green" cx="1055" cy="-1637" rx="63.0751" ry="63.1002"/>
<text text-anchor="middle" x="1055" y="-1633.5" font-family="Times,serif" font-size="15.00">MINUS_SMBL</text>
</g>
<!-- S_START&#45;&gt;MINUS_SMBL -->
<g id="edge44" class="edge"><title>S_START&#45;&gt;MINUS_SMBL</title>
<path fill="none" stroke="black" d="M1066.96,-1447.83C1064.49,-1486.64 1061.79,-1529.18 1059.58,-1563.98"/>
<polygon fill="black" stroke="black" points="1056.08,-1563.85 1058.94,-1574.05 1063.06,-1564.29 1056.08,-1563.85"/>
<text text-anchor="middle" x="1082" y="-1478" font-family="Times,serif" font-size="25.00">&#39;[&#45;]&#39;</text>
</g>
<!-- MULTIPLY_SMBL -->
<g id="node13" class="node"><title>MULTIPLY_SMBL</title>
<ellipse fill="none" stroke="green" cx="1213" cy="-1637" rx="73.2351" ry="73.3108"/>
<ellipse fill="none" stroke="green" cx="1213" cy="-1637" rx="77.2393" ry="77.3191"/>
<text text-anchor="middle" x="1213" y="-1633.5" font-family="Times,serif" font-size="15.00">MULTIPLY_SMBL</text>
</g>
<!-- S_START&#45;&gt;MULTIPLY_SMBL -->
<g id="edge51" class="edge"><title>S_START&#45;&gt;MULTIPLY_SMBL</title>
<path fill="none" stroke="black" d="M1120.82,-1437.71C1138.98,-1476.78 1159.47,-1520.85 1176.51,-1557.5"/>
<polygon fill="black" stroke="black" points="1173.37,-1559.06 1180.76,-1566.65 1179.72,-1556.11 1173.37,-1559.06"/>
<text text-anchor="middle" x="1166.5" y="-1478" font-family="Times,serif" font-size="25.00">&#39;[*]&#39;</text>
</g>
<!-- END_OF_FILE -->
<g id="node16" class="node"><title>END_OF_FILE</title>
<ellipse fill="none" stroke="green" cx="1371" cy="-1637" rx="58.3063" ry="58.5533"/>
<ellipse fill="none" stroke="green" cx="1371" cy="-1637" rx="62.2912" ry="62.555"/>
<text text-anchor="middle" x="1371" y="-1633.5" font-family="Times,serif" font-size="15.00">END_OF_FILE</text>
</g>
<!-- S_START&#45;&gt;END_OF_FILE -->
<g id="edge42" class="edge"><title>S_START&#45;&gt;END_OF_FILE</title>
<path fill="none" stroke="black" d="M1165.44,-1400.32C1208.87,-1433.03 1259.75,-1475.4 1299,-1520 1313,-1535.9 1326,-1554.84 1336.99,-1572.75"/>
<polygon fill="black" stroke="black" points="1334.06,-1574.68 1342.22,-1581.45 1340.06,-1571.08 1334.06,-1574.68"/>
<text text-anchor="middle" x="1304.5" y="-1477.8" font-family="Times,serif" font-size="24.00">&#39;EOF&#39;</text>
</g>
<!-- NOT -->
<g id="node24" class="node"><title>NOT</title>
<ellipse fill="none" stroke="green" cx="1074" cy="-1098" rx="43" ry="43"/>
<ellipse fill="none" stroke="green" cx="1074" cy="-1098" rx="47" ry="47"/>
<text text-anchor="middle" x="1074" y="-1094.5" font-family="Times,serif" font-size="15.00">NOT</text>
</g>
<!-- S_START&#45;&gt;NOT -->
<g id="edge2" class="edge"><title>S_START&#45;&gt;NOT</title>
<path fill="none" stroke="black" d="M1074,-1223.91C1074,-1200.08 1074,-1175.87 1074,-1155.19"/>
<polygon fill="black" stroke="black" points="1077.5,-1155.03 1074,-1145.03 1070.5,-1155.03 1077.5,-1155.03"/>
<text text-anchor="middle" x="1091" y="-1186" font-family="Times,serif" font-size="25.00">&#39;[!]&#39;</text>
</g>
<!-- R_ARROW -->
<g id="node30" class="node"><title>R_ARROW</title>
<ellipse fill="none" stroke="black" cx="1213" cy="-288" rx="43.1947" ry="43.5902"/>
<text text-anchor="middle" x="1213" y="-284.3" font-family="Times,serif" font-size="14.00">R_ARROW</text>
</g>
<!-- S_START&#45;&gt;R_ARROW -->
<g id="edge5" class="edge"><title>S_START&#45;&gt;R_ARROW</title>
<path fill="none" stroke="black" d="M1154.86,-1258.6C1179.37,-1230.25 1203.18,-1196.14 1216,-1160 1269.79,-1008.34 1232.07,-506.853 1217.82,-342.021"/>
<polygon fill="black" stroke="black" points="1221.27,-341.316 1216.91,-331.658 1214.3,-341.924 1221.27,-341.316"/>
<text text-anchor="middle" x="1263" y="-814" font-family="Times,serif" font-size="25.00">&#39;[&gt;]&#39;</text>
</g>
<!-- L_ARROW -->
<g id="node31" class="node"><title>L_ARROW</title>
<ellipse fill="none" stroke="black" cx="1379" cy="-496" rx="43.1947" ry="43.5902"/>
<text text-anchor="middle" x="1379" y="-492.3" font-family="Times,serif" font-size="14.00">L_ARROW</text>
</g>
<!-- S_START&#45;&gt;L_ARROW -->
<g id="edge9" class="edge"><title>S_START&#45;&gt;L_ARROW</title>
<path fill="none" stroke="black" d="M1172.58,-1283.11C1201.76,-1262.93 1230.75,-1237.08 1249,-1206 1329.32,-1069.24 1265.49,-1008.02 1294,-852 1313.95,-742.817 1346.39,-616.873 1364.89,-548.203"/>
<polygon fill="black" stroke="black" points="1368.28,-549.062 1367.51,-538.495 1361.52,-547.235 1368.28,-549.062"/>
<text text-anchor="middle" x="1314" y="-906" font-family="Times,serif" font-size="25.00">&#39;[&lt;]&#39;</text>
</g>
<!-- KW_OR_ID -->
<g id="node32" class="node"><title>KW_OR_ID</title>
<ellipse fill="none" stroke="black" cx="149" cy="-710" rx="45.0672" ry="45.2554"/>
<text text-anchor="middle" x="149" y="-706.3" font-family="Times,serif" font-size="14.00">KW_OR_ID</text>
</g>
<!-- S_START&#45;&gt;KW_OR_ID -->
<g id="edge13" class="edge"><title>S_START&#45;&gt;KW_OR_ID</title>
<path fill="none" stroke="black" d="M967.454,-1301.65C879.6,-1271.61 753.673,-1222.6 654,-1160 457.991,-1036.9 264.157,-836.856 185.566,-751.584"/>
<polygon fill="black" stroke="black" points="188.11,-749.18 178.768,-744.182 182.954,-753.915 188.11,-749.18"/>
<text text-anchor="middle" x="497" y="-997.8" font-family="Times,serif" font-size="24.00">&#39;[A&#45;z_]&#39;</text>
</g>
<!-- DIV_OR_COMM -->
<g id="node33" class="node"><title>DIV_OR_COMM</title>
<ellipse fill="none" stroke="black" cx="1541" cy="-1098" rx="61.6014" ry="61.9701"/>
<text text-anchor="middle" x="1541" y="-1094.3" font-family="Times,serif" font-size="14.00">DIV_OR_COMM</text>
</g>
<!-- S_START&#45;&gt;DIV_OR_COMM -->
<g id="edge50" class="edge"><title>S_START&#45;&gt;DIV_OR_COMM</title>
<path fill="none" stroke="black" d="M1178.13,-1295.93C1237.58,-1272.33 1312.82,-1240.26 1377,-1206 1413.46,-1186.54 1452.28,-1161.43 1482.99,-1140.43"/>
<polygon fill="black" stroke="black" points="1485.17,-1143.17 1491.43,-1134.62 1481.2,-1137.41 1485.17,-1143.17"/>
<text text-anchor="middle" x="1439.5" y="-1186" font-family="Times,serif" font-size="25.00">&#39;[/]&#39;</text>
</g>
<!-- S_STRING -->
<g id="node37" class="node"><title>S_STRING</title>
<ellipse fill="none" stroke="black" cx="540" cy="-912" rx="42.3181" ry="42.4244"/>
<text text-anchor="middle" x="540" y="-908.3" font-family="Times,serif" font-size="14.00">S_STRING</text>
</g>
<!-- S_START&#45;&gt;S_STRING -->
<g id="edge47" class="edge"><title>S_START&#45;&gt;S_STRING</title>
<path fill="none" stroke="black" d="M976.583,-1281.36C920.855,-1248.98 850.767,-1205.32 793,-1160 708.472,-1093.69 621.272,-1002.6 574.56,-951.608"/>
<polygon fill="black" stroke="black" points="577.018,-949.109 567.692,-944.081 571.847,-953.827 577.018,-949.109"/>
<text text-anchor="middle" x="811.5" y="-1092" font-family="Times,serif" font-size="25.00">&#39;[&quot;]&#39;</text>
</g>
<!-- EQ_OR_ASIGNMENT -->
<g id="node41" class="node"><title>EQ_OR_ASIGNMENT</title>
<ellipse fill="none" stroke="black" cx="1917" cy="-1637" rx="77.3458" ry="77.628"/>
<text text-anchor="middle" x="1917" y="-1633.3" font-family="Times,serif" font-size="14.00">EQ_OR_ASIGNMENT</text>
</g>
<!-- S_START&#45;&gt;EQ_OR_ASIGNMENT -->
<g id="edge37" class="edge"><title>S_START&#45;&gt;EQ_OR_ASIGNMENT</title>
<path fill="none" stroke="black" d="M1183.18,-1359.06C1379.4,-1399.33 1776.29,-1483.94 1830,-1520 1846.2,-1530.87 1860.56,-1545.79 1872.71,-1561.31"/>
<polygon fill="black" stroke="black" points="1870.05,-1563.59 1878.87,-1569.47 1875.64,-1559.37 1870.05,-1563.59"/>
<text text-anchor="middle" x="1799" y="-1478" font-family="Times,serif" font-size="25.00">&#39;[=]&#39;</text>
</g>
<!-- S_NUMBER -->
<g id="node42" class="node"><title>S_NUMBER</title>
<ellipse fill="none" stroke="black" cx="886" cy="-1098" rx="46.4412" ry="46.921"/>
<text text-anchor="middle" x="886" y="-1094.3" font-family="Times,serif" font-size="14.00">S_NUMBER</text>
</g>
<!-- S_START&#45;&gt;S_NUMBER -->
<g id="edge53" class="edge"><title>S_START&#45;&gt;S_NUMBER</title>
<path fill="none" stroke="black" d="M1004.8,-1248.13C976.374,-1212.45 944.694,-1172.68 921.201,-1143.19"/>
<polygon fill="black" stroke="black" points="923.77,-1140.8 914.801,-1135.15 918.295,-1145.16 923.77,-1140.8"/>
<text text-anchor="middle" x="997" y="-1185.8" font-family="Times,serif" font-size="24.00">&#39;[0&#45;9]&#39;</text>
</g>
<!-- END_DOUBLE -->
<g id="node14" class="node"><title>END_DOUBLE</title>
<ellipse fill="none" stroke="green" cx="906" cy="-76" rx="59.0736" ry="59.097"/>
<ellipse fill="none" stroke="green" cx="906" cy="-76" rx="63.0751" ry="63.1002"/>
<text text-anchor="middle" x="906" y="-72.5" font-family="Times,serif" font-size="15.00">END_DOUBLE</text>
</g>
<!-- END_NUMBER -->
<g id="node15" class="node"><title>END_NUMBER</title>
<ellipse fill="none" stroke="green" cx="1030" cy="-710" rx="61.2064" ry="61.2724"/>
<ellipse fill="none" stroke="green" cx="1030" cy="-710" rx="65.2107" ry="65.281"/>
<text text-anchor="middle" x="1030" y="-706.5" font-family="Times,serif" font-size="15.00">END_NUMBER</text>
</g>
<!-- END_KW_OR_ID -->
<g id="node17" class="node"><title>END_KW_OR_ID</title>
<ellipse fill="none" stroke="green" cx="118" cy="-496" rx="67.4307" ry="67.8712"/>
<ellipse fill="none" stroke="green" cx="118" cy="-496" rx="71.4011" ry="71.8675"/>
<text text-anchor="middle" x="118" y="-492.5" font-family="Times,serif" font-size="15.00">END_KW_OR_ID</text>
</g>
<!-- LESS_SMBL -->
<g id="node18" class="node"><title>LESS_SMBL</title>
<ellipse fill="none" stroke="green" cx="1331" cy="-288" rx="51.6102" ry="51.9524"/>
<ellipse fill="none" stroke="green" cx="1331" cy="-288" rx="55.6007" ry="55.9693"/>
<text text-anchor="middle" x="1331" y="-284.5" font-family="Times,serif" font-size="15.00">LESS_SMBL</text>
</g>
<!-- LESS_EQUAL -->
<g id="node19" class="node"><title>LESS_EQUAL</title>
<ellipse fill="none" stroke="green" cx="1465" cy="-288" rx="56.1748" ry="56.3787"/>
<ellipse fill="none" stroke="green" cx="1465" cy="-288" rx="60.1562" ry="60.3746"/>
<text text-anchor="middle" x="1465" y="-284.5" font-family="Times,serif" font-size="15.00">LESS_EQUAL</text>
</g>
<!-- DOUBLE_R_ARR -->
<g id="node20" class="node"><title>DOUBLE_R_ARR</title>
<ellipse fill="none" stroke="green" cx="1368" cy="-76" rx="68.1996" ry="68.415"/>
<ellipse fill="none" stroke="green" cx="1368" cy="-76" rx="72.1846" ry="72.4126"/>
<text text-anchor="middle" x="1368" y="-72.5" font-family="Times,serif" font-size="15.00">DOUBLE_R_ARR</text>
</g>
<!-- DOUBLE_L_ARR -->
<g id="node21" class="node"><title>DOUBLE_L_ARR</title>
<ellipse fill="none" stroke="green" cx="1615" cy="-288" rx="67.4307" ry="67.8712"/>
<ellipse fill="none" stroke="green" cx="1615" cy="-288" rx="71.4011" ry="71.8675"/>
<text text-anchor="middle" x="1615" y="-284.5" font-family="Times,serif" font-size="15.00">DOUBLE_L_ARR</text>
</g>
<!-- MORE_SMBL -->
<g id="node22" class="node"><title>MORE_SMBL</title>
<ellipse fill="none" stroke="green" cx="1070" cy="-76" rx="55.409" ry="55.8352"/>
<ellipse fill="none" stroke="green" cx="1070" cy="-76" rx="59.3728" ry="59.8295"/>
<text text-anchor="middle" x="1070" y="-72.5" font-family="Times,serif" font-size="15.00">MORE_SMBL</text>
</g>
<!-- MORE_EQUAL -->
<g id="node23" class="node"><title>MORE_EQUAL</title>
<ellipse fill="none" stroke="green" cx="1213" cy="-76" rx="60.4382" ry="60.7285"/>
<ellipse fill="none" stroke="green" cx="1213" cy="-76" rx="64.4263" ry="64.7358"/>
<text text-anchor="middle" x="1213" y="-72.5" font-family="Times,serif" font-size="15.00">MORE_EQUAL</text>
</g>
<!-- NOT&#45;&gt;NOT -->
<g id="edge4" class="edge"><title>NOT&#45;&gt;NOT</title>
<path fill="none" stroke="black" d="M1117.75,-1115.52C1129.79,-1114.67 1139,-1108.83 1139,-1098 1139,-1090.38 1134.45,-1085.24 1127.56,-1082.56"/>
<polygon fill="black" stroke="black" points="1128.25,-1079.13 1117.75,-1080.48 1126.81,-1085.97 1128.25,-1079.13"/>
<text text-anchor="middle" x="1173" y="-1091.8" font-family="Times,serif" font-size="24.00">&#39;ELSE&#39;</text>
</g>
<!-- NOT_EQUAL -->
<g id="node29" class="node"><title>NOT_EQUAL</title>
<ellipse fill="none" stroke="green" cx="1149" cy="-912" rx="54.0436" ry="54.2048"/>
<ellipse fill="none" stroke="green" cx="1149" cy="-912" rx="58.0213" ry="58.1944"/>
<text text-anchor="middle" x="1149" y="-908.5" font-family="Times,serif" font-size="15.00">NOT_EQUAL</text>
</g>
<!-- NOT&#45;&gt;NOT_EQUAL -->
<g id="edge3" class="edge"><title>NOT&#45;&gt;NOT_EQUAL</title>
<path fill="none" stroke="black" d="M1091.4,-1054.32C1100.91,-1030.97 1112.89,-1001.6 1123.45,-975.685"/>
<polygon fill="black" stroke="black" points="1126.74,-976.894 1127.27,-966.313 1120.25,-974.252 1126.74,-976.894"/>
<text text-anchor="middle" x="1135" y="-998" font-family="Times,serif" font-size="25.00">&#39;[=]&#39;</text>
</g>
<!-- E_STRING -->
<g id="node25" class="node"><title>E_STRING</title>
<ellipse fill="none" stroke="green" cx="489" cy="-710" rx="44.455" ry="44.8864"/>
<ellipse fill="none" stroke="green" cx="489" cy="-710" rx="48.4118" ry="48.8816"/>
<text text-anchor="middle" x="489" y="-706.5" font-family="Times,serif" font-size="15.00">E_STRING</text>
</g>
<!-- ASIGNMENT_SMBL -->
<g id="node26" class="node"><title>ASIGNMENT_SMBL</title>
<ellipse fill="none" stroke="green" cx="1766" cy="-1336" rx="79.1592" ry="79.3638"/>
<ellipse fill="none" stroke="green" cx="1766" cy="-1336" rx="83.1455" ry="83.3605"/>
<text text-anchor="middle" x="1766" y="-1332.5" font-family="Times,serif" font-size="15.00">ASIGNMENT_SMBL</text>
</g>
<!-- EQUAL_SMBL -->
<g id="node27" class="node"><title>EQUAL_SMBL</title>
<ellipse fill="none" stroke="green" cx="1931" cy="-1336" rx="59.3722" ry="59.6408"/>
<ellipse fill="none" stroke="green" cx="1931" cy="-1336" rx="63.3587" ry="63.6454"/>
<text text-anchor="middle" x="1931" y="-1332.5" font-family="Times,serif" font-size="15.00">EQUAL_SMBL</text>
</g>
<!-- DIVIDE_SMBL -->
<g id="node28" class="node"><title>DIVIDE_SMBL</title>
<ellipse fill="none" stroke="green" cx="1561" cy="-496" rx="60.4382" ry="60.7285"/>
<ellipse fill="none" stroke="green" cx="1561" cy="-496" rx="64.4263" ry="64.7358"/>
<text text-anchor="middle" x="1561" y="-492.5" font-family="Times,serif" font-size="15.00">DIVIDE_SMBL</text>
</g>
<!-- R_ARROW&#45;&gt;DOUBLE_R_ARR -->
<g id="edge8" class="edge"><title>R_ARROW&#45;&gt;DOUBLE_R_ARR</title>
<path fill="none" stroke="black" d="M1238.6,-252.323C1260.5,-222.647 1292.64,-179.102 1319.41,-142.834"/>
<polygon fill="black" stroke="black" points="1322.26,-144.864 1325.38,-134.739 1316.63,-140.707 1322.26,-144.864"/>
<text text-anchor="middle" x="1315" y="-178" font-family="Times,serif" font-size="25.00">&#39;[&gt;]&#39;</text>
</g>
<!-- R_ARROW&#45;&gt;MORE_SMBL -->
<g id="edge6" class="edge"><title>R_ARROW&#45;&gt;MORE_SMBL</title>
<path fill="none" stroke="black" d="M1184.77,-254.523C1170.96,-238.046 1154.46,-217.447 1141,-198 1127.84,-178.983 1114.67,-157.425 1103.31,-137.829"/>
<polygon fill="black" stroke="black" points="1106.25,-135.907 1098.23,-128.98 1100.18,-139.394 1106.25,-135.907"/>
<text text-anchor="middle" x="1175" y="-177.8" font-family="Times,serif" font-size="24.00">&#39;ELSE&#39;</text>
</g>
<!-- R_ARROW&#45;&gt;MORE_EQUAL -->
<g id="edge7" class="edge"><title>R_ARROW&#45;&gt;MORE_EQUAL</title>
<path fill="none" stroke="black" d="M1213,-243.997C1213,-217.26 1213,-182.168 1213,-151.056"/>
<polygon fill="black" stroke="black" points="1216.5,-150.675 1213,-140.675 1209.5,-150.675 1216.5,-150.675"/>
<text text-anchor="middle" x="1233" y="-178" font-family="Times,serif" font-size="25.00">&#39;[=]&#39;</text>
</g>
<!-- L_ARROW&#45;&gt;LESS_SMBL -->
<g id="edge10" class="edge"><title>L_ARROW&#45;&gt;LESS_SMBL</title>
<path fill="none" stroke="black" d="M1369.29,-453.313C1362.53,-424.333 1353.41,-385.171 1345.76,-352.349"/>
<polygon fill="black" stroke="black" points="1349.12,-351.33 1343.44,-342.385 1342.3,-352.918 1349.12,-351.33"/>
<text text-anchor="middle" x="1391" y="-385.8" font-family="Times,serif" font-size="24.00">&#39;ELSE&#39;</text>
</g>
<!-- L_ARROW&#45;&gt;LESS_EQUAL -->
<g id="edge11" class="edge"><title>L_ARROW&#45;&gt;LESS_EQUAL</title>
<path fill="none" stroke="black" d="M1401.74,-458.658C1411,-442.868 1421.32,-423.917 1429,-406 1435.76,-390.244 1441.83,-372.801 1446.98,-356.298"/>
<polygon fill="black" stroke="black" points="1450.34,-357.295 1449.9,-346.709 1443.64,-355.254 1450.34,-357.295"/>
<text text-anchor="middle" x="1458" y="-386" font-family="Times,serif" font-size="25.00">&#39;[=]&#39;</text>
</g>
<!-- L_ARROW&#45;&gt;DOUBLE_L_ARR -->
<g id="edge12" class="edge"><title>L_ARROW&#45;&gt;DOUBLE_L_ARR</title>
<path fill="none" stroke="black" d="M1411.54,-467.015C1431.84,-449.522 1458.49,-426.5 1482,-406 1505.64,-385.391 1531.55,-362.637 1554.17,-342.716"/>
<polygon fill="black" stroke="black" points="1556.51,-345.312 1561.7,-336.076 1551.89,-340.06 1556.51,-345.312"/>
<text text-anchor="middle" x="1531" y="-386" font-family="Times,serif" font-size="25.00">&#39;[&lt;]&#39;</text>
</g>
<!-- KW_OR_ID&#45;&gt;ERR -->
<g id="edge14" class="edge"><title>KW_OR_ID&#45;&gt;ERR</title>
<path fill="none" stroke="black" d="M184.786,-681.668C204.638,-664.476 227.897,-640.561 241,-614 287.912,-518.906 245.124,-479.441 276,-378 299.213,-301.735 303.481,-278.474 353,-216 381.34,-180.246 420.522,-147.92 454.531,-123.459"/>
<polygon fill="black" stroke="black" points="456.924,-126.052 463.056,-117.412 452.875,-120.343 456.924,-126.052"/>
<text text-anchor="middle" x="310" y="-385.8" font-family="Times,serif" font-size="24.00">&#39;ELSE&#39;</text>
</g>
<!-- KW_OR_ID&#45;&gt;END_KW_OR_ID -->
<g id="edge16" class="edge"><title>KW_OR_ID&#45;&gt;END_KW_OR_ID</title>
<path fill="none" stroke="black" d="M129.542,-668.832C122.534,-652.263 115.497,-632.613 112,-614 109.814,-602.365 108.933,-589.974 108.875,-577.77"/>
<polygon fill="black" stroke="black" points="112.377,-577.629 109.01,-567.584 105.378,-577.537 112.377,-577.629"/>
<text text-anchor="middle" x="176.5" y="-593.8" font-family="Times,serif" font-size="24.00">&#39;Σ&#45;[A&#45;z_0&#45;9]&#39;</text>
</g>
<!-- KW_OR_ID&#45;&gt;KW_OR_ID -->
<g id="edge15" class="edge"><title>KW_OR_ID&#45;&gt;KW_OR_ID</title>
<path fill="none" stroke="black" d="M189.293,-730.614C201.986,-730.299 212,-723.428 212,-710 212,-700.349 206.827,-694.085 199.204,-691.208"/>
<polygon fill="black" stroke="black" points="199.761,-687.752 189.293,-689.386 198.496,-694.636 199.761,-687.752"/>
<text text-anchor="middle" x="265" y="-703.8" font-family="Times,serif" font-size="24.00">&#39;[A&#45;z_0&#45;9]&#39;</text>
</g>
<!-- DIV_OR_COMM&#45;&gt;DIVIDE_SMBL -->
<g id="edge17" class="edge"><title>DIV_OR_COMM&#45;&gt;DIVIDE_SMBL</title>
<path fill="none" stroke="black" d="M1543.03,-1036.17C1546.72,-925.293 1554.54,-690.742 1558.54,-570.884"/>
<polygon fill="black" stroke="black" points="1562.04,-570.813 1558.88,-560.702 1555.05,-570.58 1562.04,-570.813"/>
<text text-anchor="middle" x="1584" y="-813.8" font-family="Times,serif" font-size="24.00">&#39;ELSE&#39;</text>
</g>
<!-- LINE_COMM -->
<g id="node34" class="node"><title>LINE_COMM</title>
<ellipse fill="none" stroke="black" cx="1395" cy="-912" rx="51.5634" ry="51.9195"/>
<text text-anchor="middle" x="1395" y="-908.3" font-family="Times,serif" font-size="14.00">LINE_COMM</text>
</g>
<!-- DIV_OR_COMM&#45;&gt;LINE_COMM -->
<g id="edge18" class="edge"><title>DIV_OR_COMM&#45;&gt;LINE_COMM</title>
<path fill="none" stroke="black" d="M1503.02,-1049.14C1481.41,-1021.9 1454.44,-987.909 1432.85,-960.702"/>
<polygon fill="black" stroke="black" points="1435.58,-958.515 1426.63,-952.857 1430.1,-962.866 1435.58,-958.515"/>
<text text-anchor="middle" x="1492.5" y="-998" font-family="Times,serif" font-size="25.00">&#39;[/]&#39;</text>
</g>
<!-- BLOCK_COMM -->
<g id="node35" class="node"><title>BLOCK_COMM</title>
<ellipse fill="none" stroke="black" cx="1649" cy="-912" rx="59.4356" ry="59.7483"/>
<text text-anchor="middle" x="1649" y="-908.3" font-family="Times,serif" font-size="14.00">BLOCK_COMM</text>
</g>
<!-- DIV_OR_COMM&#45;&gt;BLOCK_COMM -->
<g id="edge21" class="edge"><title>DIV_OR_COMM&#45;&gt;BLOCK_COMM</title>
<path fill="none" stroke="black" d="M1571.95,-1044.27C1585.1,-1021.86 1600.5,-995.623 1614.06,-972.519"/>
<polygon fill="black" stroke="black" points="1617.12,-974.228 1619.16,-963.833 1611.08,-970.685 1617.12,-974.228"/>
<text text-anchor="middle" x="1620.5" y="-998" font-family="Times,serif" font-size="25.00">&#39;[*]&#39;</text>
</g>
<!-- LINE_COMM&#45;&gt;S_START -->
<g id="edge20" class="edge"><title>LINE_COMM&#45;&gt;S_START</title>
<path fill="none" stroke="black" d="M1389.59,-963.602C1380.56,-1026.57 1357.22,-1134.5 1299,-1206 1269.59,-1242.11 1227.22,-1270.1 1187.16,-1290.64"/>
<polygon fill="black" stroke="black" points="1185.49,-1287.56 1178.12,-1295.17 1188.63,-1293.82 1185.49,-1287.56"/>
<text text-anchor="middle" x="1397" y="-1092" font-family="Times,serif" font-size="25.00">&#39;[\n]&#39;</text>
</g>
<!-- LINE_COMM&#45;&gt;LINE_COMM -->
<g id="edge19" class="edge"><title>LINE_COMM&#45;&gt;LINE_COMM</title>
<path fill="none" stroke="black" d="M1443.68,-928.946C1455.35,-927.621 1464,-921.973 1464,-912 1464,-905.144 1459.91,-900.331 1453.56,-897.563"/>
<polygon fill="black" stroke="black" points="1454.23,-894.122 1443.68,-895.054 1452.51,-900.907 1454.23,-894.122"/>
<text text-anchor="middle" x="1498" y="-905.8" font-family="Times,serif" font-size="24.00">&#39;ELSE&#39;</text>
</g>
<!-- BLOCK_COMM&#45;&gt;BLOCK_COMM -->
<g id="edge23" class="edge"><title>BLOCK_COMM&#45;&gt;BLOCK_COMM</title>
<path fill="none" stroke="black" d="M1706.09,-928.592C1717.69,-926.785 1726,-921.254 1726,-912 1726,-905.638 1722.07,-901.036 1715.85,-898.193"/>
<polygon fill="black" stroke="black" points="1716.66,-894.786 1706.09,-895.408 1714.74,-901.518 1716.66,-894.786"/>
<text text-anchor="middle" x="1760" y="-905.8" font-family="Times,serif" font-size="24.00">&#39;ELSE&#39;</text>
</g>
<!-- END_BLOCK_COMM -->
<g id="node36" class="node"><title>END_BLOCK_COMM</title>
<ellipse fill="none" stroke="black" cx="1714" cy="-710" rx="78.1375" ry="78.1833"/>
<text text-anchor="middle" x="1714" y="-706.3" font-family="Times,serif" font-size="14.00">END_BLOCK_COMM</text>
</g>
<!-- BLOCK_COMM&#45;&gt;END_BLOCK_COMM -->
<g id="edge22" class="edge"><title>BLOCK_COMM&#45;&gt;END_BLOCK_COMM</title>
<path fill="none" stroke="black" d="M1645.77,-852.294C1646.4,-836.949 1648.41,-820.619 1653,-806 1655.53,-797.936 1658.94,-789.893 1662.87,-782.093"/>
<polygon fill="black" stroke="black" points="1666.07,-783.532 1667.68,-773.061 1659.89,-780.239 1666.07,-783.532"/>
<text text-anchor="middle" x="1672.5" y="-814" font-family="Times,serif" font-size="25.00">&#39;[*]&#39;</text>
</g>
<!-- END_BLOCK_COMM&#45;&gt;S_START -->
<g id="edge24" class="edge"><title>END_BLOCK_COMM&#45;&gt;S_START</title>
<path fill="none" stroke="black" d="M1762.49,-771.199C1778.69,-794.938 1794.72,-823.358 1803,-852 1817.82,-903.234 1823.67,-922.835 1803,-972 1756.72,-1082.1 1713.13,-1098.09 1611,-1160 1479.34,-1239.81 1307.18,-1287.55 1193.72,-1312.54"/>
<polygon fill="black" stroke="black" points="1192.64,-1309.19 1183.62,-1314.74 1194.13,-1316.03 1192.64,-1309.19"/>
<text text-anchor="middle" x="1815" y="-998" font-family="Times,serif" font-size="25.00">&#39;&#39;[/]&#39;&#39;</text>
</g>
<!-- END_BLOCK_COMM&#45;&gt;BLOCK_COMM -->
<g id="edge25" class="edge"><title>END_BLOCK_COMM&#45;&gt;BLOCK_COMM</title>
<path fill="none" stroke="black" d="M1704.32,-787.815C1701.24,-803.352 1697.22,-819.394 1692,-834 1689.9,-839.867 1687.39,-845.813 1684.64,-851.667"/>
<polygon fill="black" stroke="black" points="1681.44,-850.246 1680.15,-860.763 1687.71,-853.342 1681.44,-850.246"/>
<text text-anchor="middle" x="1733" y="-813.8" font-family="Times,serif" font-size="24.00">&#39;ELSE&#39;</text>
</g>
<!-- S_STRING&#45;&gt;ERR -->
<g id="edge27" class="edge"><title>S_STRING&#45;&gt;ERR</title>
<path fill="none" stroke="black" d="M547.533,-870.377C549.375,-858.678 551.081,-845.87 552,-834 552.961,-821.593 552.214,-818.443 552,-806 550.666,-728.632 551.544,-709.18 546,-632 543.95,-603.459 540.907,-596.55 539,-568 529.519,-426.05 527.299,-260.569 526.903,-162.525"/>
<polygon fill="black" stroke="black" points="530.403,-162.361 526.868,-152.373 523.403,-162.386 530.403,-162.361"/>
<text text-anchor="middle" x="573" y="-489.8" font-family="Times,serif" font-size="24.00">&#39;ELSE&#39;</text>
</g>
<!-- S_STRING&#45;&gt;E_STRING -->
<g id="edge36" class="edge"><title>S_STRING&#45;&gt;E_STRING</title>
<path fill="none" stroke="black" d="M526.346,-871.671C522.415,-859.658 518.302,-846.356 515,-834 509.31,-812.708 504.064,-789.076 499.796,-768.263"/>
<polygon fill="black" stroke="black" points="503.193,-767.403 497.782,-758.295 496.332,-768.79 503.193,-767.403"/>
<text text-anchor="middle" x="533.5" y="-814" font-family="Times,serif" font-size="25.00">&#39;[&quot;]&#39;</text>
</g>
<!-- S_STRING&#45;&gt;S_STRING -->
<g id="edge26" class="edge"><title>S_STRING&#45;&gt;S_STRING</title>
<path fill="none" stroke="black" d="M578.664,-929.233C590.615,-928.885 600,-923.141 600,-912 600,-904.341 595.564,-899.232 588.908,-896.674"/>
<polygon fill="black" stroke="black" points="589.136,-893.156 578.664,-894.767 587.855,-900.038 589.136,-893.156"/>
<text text-anchor="middle" x="623.5" y="-905.8" font-family="Times,serif" font-size="24.00">&#39;[^&quot;]&#39;</text>
</g>
<!-- S_ESCAPE -->
<g id="node38" class="node"><title>S_ESCAPE</title>
<ellipse fill="none" stroke="black" cx="379" cy="-710" rx="42.6083" ry="42.98"/>
<text text-anchor="middle" x="379" y="-706.3" font-family="Times,serif" font-size="14.00">S_ESCAPE</text>
</g>
<!-- S_STRING&#45;&gt;S_ESCAPE -->
<g id="edge28" class="edge"><title>S_STRING&#45;&gt;S_ESCAPE</title>
<path fill="none" stroke="black" d="M498.443,-905.094C457.849,-896.873 398.182,-877.704 370,-834 356.141,-812.508 357.173,-784.297 362.218,-760.314"/>
<polygon fill="black" stroke="black" points="365.684,-760.865 364.594,-750.327 358.874,-759.245 365.684,-760.865"/>
<text text-anchor="middle" x="390" y="-814" font-family="Times,serif" font-size="25.00">&#39;[\\]&#39;</text>
</g>
<!-- S_ESCAPE&#45;&gt;ERR -->
<g id="edge30" class="edge"><title>S_ESCAPE&#45;&gt;ERR</title>
<path fill="none" stroke="black" d="M368.458,-668.566C353.702,-605.759 330.93,-481.238 352,-378 372.36,-278.241 389.051,-253.014 448,-170 454.851,-160.351 462.474,-150.486 470.206,-140.957"/>
<polygon fill="black" stroke="black" points="473.064,-142.991 476.711,-133.044 467.657,-138.546 473.064,-142.991"/>
<text text-anchor="middle" x="386" y="-385.8" font-family="Times,serif" font-size="24.00">&#39;ELSE&#39;</text>
</g>
<!-- S_ESCAPE&#45;&gt;S_STRING -->
<g id="edge29" class="edge"><title>S_ESCAPE&#45;&gt;S_STRING</title>
<path fill="none" stroke="black" d="M395.329,-749.671C407.187,-775.163 424.83,-808.435 446,-834 460.685,-851.733 479.933,-868.341 497.186,-881.561"/>
<polygon fill="black" stroke="black" points="495.365,-884.57 505.466,-887.768 499.564,-878.969 495.365,-884.57"/>
<text text-anchor="middle" x="475.5" y="-814" font-family="Times,serif" font-size="25.00">&#39;[tn\\]&#39;</text>
</g>
<!-- ESCAPE_X1 -->
<g id="node39" class="node"><title>ESCAPE_X1</title>
<ellipse fill="none" stroke="black" cx="429" cy="-496" rx="47.2323" ry="47.4763"/>
<text text-anchor="middle" x="429" y="-492.3" font-family="Times,serif" font-size="14.00">ESCAPE_X1</text>
</g>
<!-- S_ESCAPE&#45;&gt;ESCAPE_X1 -->
<g id="edge31" class="edge"><title>S_ESCAPE&#45;&gt;ESCAPE_X1</title>
<path fill="none" stroke="black" d="M388.641,-668.124C396.396,-635.24 407.372,-588.702 415.92,-552.458"/>
<polygon fill="black" stroke="black" points="419.373,-553.065 418.262,-542.528 412.56,-551.458 419.373,-553.065"/>
<text text-anchor="middle" x="426.5" y="-594" font-family="Times,serif" font-size="25.00">&#39;[x]&#39;</text>
</g>
<!-- ESCAPE_X1&#45;&gt;ERR -->
<g id="edge33" class="edge"><title>ESCAPE_X1&#45;&gt;ERR</title>
<path fill="none" stroke="black" d="M425.082,-448.413C421.826,-392.053 421.01,-294.913 445,-216 452.27,-192.086 464.431,-167.959 477.191,-146.673"/>
<polygon fill="black" stroke="black" points="480.239,-148.397 482.488,-138.044 474.274,-144.735 480.239,-148.397"/>
<text text-anchor="middle" x="479" y="-281.8" font-family="Times,serif" font-size="24.00">&#39;ELSE&#39;</text>
</g>
<!-- ESCAPE_X2 -->
<g id="node40" class="node"><title>ESCAPE_X2</title>
<ellipse fill="none" stroke="black" cx="602" cy="-288" rx="47.2323" ry="47.4763"/>
<text text-anchor="middle" x="602" y="-284.3" font-family="Times,serif" font-size="14.00">ESCAPE_X2</text>
</g>
<!-- ESCAPE_X1&#45;&gt;ESCAPE_X2 -->
<g id="edge32" class="edge"><title>ESCAPE_X1&#45;&gt;ESCAPE_X2</title>
<path fill="none" stroke="black" d="M459.134,-459.118C488.688,-423.926 533.791,-370.22 565.393,-332.59"/>
<polygon fill="black" stroke="black" points="568.17,-334.725 571.921,-324.816 562.81,-330.223 568.17,-334.725"/>
<text text-anchor="middle" x="557" y="-385.8" font-family="Times,serif" font-size="24.00">&#39;[A&#45;z]&#39;</text>
</g>
<!-- ESCAPE_X2&#45;&gt;ERR -->
<g id="edge35" class="edge"><title>ESCAPE_X2&#45;&gt;ERR</title>
<path fill="none" stroke="black" d="M586.278,-242.977C577.44,-218.232 566.133,-186.573 555.769,-157.552"/>
<polygon fill="black" stroke="black" points="558.954,-156.066 552.295,-147.825 552.362,-158.42 558.954,-156.066"/>
<text text-anchor="middle" x="603" y="-177.8" font-family="Times,serif" font-size="24.00">&#39;ELSE&#39;</text>
</g>
<!-- ESCAPE_X2&#45;&gt;S_STRING -->
<g id="edge34" class="edge"><title>ESCAPE_X2&#45;&gt;S_STRING</title>
<path fill="none" stroke="black" d="M605.867,-335.508C607.837,-361.517 610.019,-394.537 611,-424 613.13,-487.965 621.252,-504.826 611,-568 609.649,-576.324 606.767,-577.754 605,-586 581.787,-694.321 611.656,-727.838 580,-834 576.704,-845.054 571.801,-856.384 566.548,-866.836"/>
<polygon fill="black" stroke="black" points="563.41,-865.283 561.872,-875.766 569.611,-868.53 563.41,-865.283"/>
<text text-anchor="middle" x="636" y="-593.8" font-family="Times,serif" font-size="24.00">&#39;[A&#45;z]&#39;</text>
</g>
<!-- EQ_OR_ASIGNMENT&#45;&gt;ASIGNMENT_SMBL -->
<g id="edge38" class="edge"><title>EQ_OR_ASIGNMENT&#45;&gt;ASIGNMENT_SMBL</title>
<path fill="none" stroke="black" d="M1882.36,-1567.4C1860.2,-1523.52 1831.31,-1466.33 1807.87,-1419.9"/>
<polygon fill="black" stroke="black" points="1810.89,-1418.12 1803.25,-1410.77 1804.64,-1421.27 1810.89,-1418.12"/>
<text text-anchor="middle" x="1880" y="-1477.8" font-family="Times,serif" font-size="24.00">&#39;ELSE&#39;</text>
</g>
<!-- EQ_OR_ASIGNMENT&#45;&gt;EQUAL_SMBL -->
<g id="edge39" class="edge"><title>EQ_OR_ASIGNMENT&#45;&gt;EQUAL_SMBL</title>
<path fill="none" stroke="black" d="M1920.59,-1559.39C1922.74,-1513.38 1925.47,-1455.18 1927.59,-1409.86"/>
<polygon fill="black" stroke="black" points="1931.09,-1409.97 1928.06,-1399.81 1924.09,-1409.64 1931.09,-1409.97"/>
<text text-anchor="middle" x="1944" y="-1478" font-family="Times,serif" font-size="25.00">&#39;[=]&#39;</text>
</g>
<!-- S_NUMBER&#45;&gt;END_NUMBER -->
<g id="edge55" class="edge"><title>S_NUMBER&#45;&gt;END_NUMBER</title>
<path fill="none" stroke="black" d="M918.683,-1063.94C930.335,-1050.59 942.632,-1034.47 951,-1018 971.581,-977.501 998.471,-861.566 1014.97,-784.33"/>
<polygon fill="black" stroke="black" points="1018.48,-784.68 1017.13,-774.171 1011.63,-783.225 1018.48,-784.68"/>
<text text-anchor="middle" x="1039" y="-905.8" font-family="Times,serif" font-size="24.00">&#39;Σ&#45;[.eE]&#39;</text>
</g>
<!-- S_NUMBER&#45;&gt;S_NUMBER -->
<g id="edge54" class="edge"><title>S_NUMBER&#45;&gt;S_NUMBER</title>
<path fill="none" stroke="black" d="M929.373,-1115.49C941.088,-1114.57 950,-1108.74 950,-1098 950,-1090.62 945.788,-1085.55 939.348,-1082.81"/>
<polygon fill="black" stroke="black" points="939.904,-1079.34 929.373,-1080.51 938.329,-1086.17 939.904,-1079.34"/>
<text text-anchor="middle" x="979" y="-1091.8" font-family="Times,serif" font-size="24.00">&#39;[0&#45;9]&#39;</text>
</g>
<!-- EXPONENT -->
<g id="node43" class="node"><title>EXPONENT</title>
<ellipse fill="none" stroke="black" cx="835" cy="-496" rx="46.1497" ry="46.3658"/>
<text text-anchor="middle" x="835" y="-492.3" font-family="Times,serif" font-size="14.00">EXPONENT</text>
</g>
<!-- S_NUMBER&#45;&gt;EXPONENT -->
<g id="edge56" class="edge"><title>S_NUMBER&#45;&gt;EXPONENT</title>
<path fill="none" stroke="black" d="M898.61,-1052.72C920.399,-968.846 958.927,-781.789 917,-632 907.703,-598.785 887.746,-565.619 869.849,-540.472"/>
<polygon fill="black" stroke="black" points="872.59,-538.291 863.877,-532.263 866.93,-542.409 872.59,-538.291"/>
<text text-anchor="middle" x="961" y="-813.8" font-family="Times,serif" font-size="24.00">&#39;[eE]&#39;</text>
</g>
<!-- D_NUMBER -->
<g id="node44" class="node"><title>D_NUMBER</title>
<ellipse fill="none" stroke="black" cx="771" cy="-912" rx="48.3149" ry="48.5869"/>
<text text-anchor="middle" x="771" y="-908.3" font-family="Times,serif" font-size="14.00">D_NUMBER</text>
</g>
<!-- S_NUMBER&#45;&gt;D_NUMBER -->
<g id="edge57" class="edge"><title>S_NUMBER&#45;&gt;D_NUMBER</title>
<path fill="none" stroke="black" d="M861.611,-1057.98C844.149,-1030.04 820.506,-992.209 801.749,-962.199"/>
<polygon fill="black" stroke="black" points="804.616,-960.182 796.348,-953.558 798.68,-963.893 804.616,-960.182"/>
<text text-anchor="middle" x="852" y="-998" font-family="Times,serif" font-size="25.00">&#39;[.]&#39;</text>
</g>
<!-- EXPONENT&#45;&gt;ERR -->
<g id="edge64" class="edge"><title>EXPONENT&#45;&gt;ERR</title>
<path fill="none" stroke="black" d="M803.074,-461.957C779.936,-436.182 749.718,-398.415 732,-360 695.819,-281.553 742.156,-239.613 691,-170 670.273,-141.794 638.245,-120.925 607.975,-106.185"/>
<polygon fill="black" stroke="black" points="609.191,-102.889 598.652,-101.806 606.215,-109.225 609.191,-102.889"/>
<text text-anchor="middle" x="766" y="-281.8" font-family="Times,serif" font-size="24.00">&#39;ELSE&#39;</text>
</g>
<!-- FEX_NUMBER -->
<g id="node46" class="node"><title>FEX_NUMBER</title>
<ellipse fill="none" stroke="black" cx="865" cy="-288" rx="56.1874" ry="56.4163"/>
<text text-anchor="middle" x="865" y="-284.3" font-family="Times,serif" font-size="14.00">FEX_NUMBER</text>
</g>
<!-- EXPONENT&#45;&gt;FEX_NUMBER -->
<g id="edge63" class="edge"><title>EXPONENT&#45;&gt;FEX_NUMBER</title>
<path fill="none" stroke="black" d="M841.584,-449.792C845.677,-421.686 851.006,-385.09 855.547,-353.912"/>
<polygon fill="black" stroke="black" points="859.013,-354.398 856.991,-343.998 852.086,-353.389 859.013,-354.398"/>
<text text-anchor="middle" x="895.5" y="-385.8" font-family="Times,serif" font-size="24.00">&#39;[\&#45;+0&#45;9]&#39;</text>
</g>
<!-- D_NUMBER&#45;&gt;ERR -->
<g id="edge59" class="edge"><title>D_NUMBER&#45;&gt;ERR</title>
<path fill="none" stroke="black" d="M742.64,-872.396C727.167,-849.156 709.315,-818.283 700,-788 625.059,-544.358 712.046,-465.111 658,-216 653.379,-194.7 653.669,-187.736 641,-170 629.243,-153.54 613.85,-138.363 598.196,-125.252"/>
<polygon fill="black" stroke="black" points="599.97,-122.183 590.004,-118.588 595.553,-127.613 599.97,-122.183"/>
<text text-anchor="middle" x="711" y="-489.8" font-family="Times,serif" font-size="24.00">&#39;ELSE&#39;</text>
</g>
<!-- FRAC_NUMBER -->
<g id="node45" class="node"><title>FRAC_NUMBER</title>
<ellipse fill="none" stroke="black" cx="771" cy="-710" rx="61.6014" ry="61.9701"/>
<text text-anchor="middle" x="771" y="-706.3" font-family="Times,serif" font-size="14.00">FRAC_NUMBER</text>
</g>
<!-- D_NUMBER&#45;&gt;FRAC_NUMBER -->
<g id="edge58" class="edge"><title>D_NUMBER&#45;&gt;FRAC_NUMBER</title>
<path fill="none" stroke="black" d="M771,-863.349C771,-839.068 771,-809.053 771,-782.102"/>
<polygon fill="black" stroke="black" points="774.5,-781.941 771,-771.941 767.5,-781.941 774.5,-781.941"/>
<text text-anchor="middle" x="800" y="-813.8" font-family="Times,serif" font-size="24.00">&#39;[0&#45;9]&#39;</text>
</g>
<!-- FRAC_NUMBER&#45;&gt;END_DOUBLE -->
<g id="edge61" class="edge"><title>FRAC_NUMBER&#45;&gt;END_DOUBLE</title>
<path fill="none" stroke="black" d="M815.904,-666.995C831.684,-651.14 848.965,-632.459 863,-614 908.635,-553.978 975.992,-475.415 1006,-360 1022.1,-298.059 1025.63,-276.914 1006,-216 995.88,-184.605 975.747,-154.313 956.182,-130.065"/>
<polygon fill="black" stroke="black" points="958.652,-127.56 949.583,-122.081 953.256,-132.019 958.652,-127.56"/>
<text text-anchor="middle" x="1053" y="-385.8" font-family="Times,serif" font-size="24.00">&#39;Σ&#45;[0&#45;9eE]&#39;</text>
</g>
<!-- FRAC_NUMBER&#45;&gt;EXPONENT -->
<g id="edge62" class="edge"><title>FRAC_NUMBER&#45;&gt;EXPONENT</title>
<path fill="none" stroke="black" d="M788.573,-650.79C798.056,-619.377 809.677,-580.882 818.92,-550.264"/>
<polygon fill="black" stroke="black" points="822.292,-551.204 821.832,-540.619 815.591,-549.181 822.292,-551.204"/>
<text text-anchor="middle" x="833" y="-593.8" font-family="Times,serif" font-size="24.00">&#39;[eE]&#39;</text>
</g>
<!-- FRAC_NUMBER&#45;&gt;FRAC_NUMBER -->
<g id="edge60" class="edge"><title>FRAC_NUMBER&#45;&gt;FRAC_NUMBER</title>
<path fill="none" stroke="black" d="M829.221,-729.9C841.308,-727.805 850,-721.172 850,-710 850,-702.145 845.703,-696.533 838.95,-693.166"/>
<polygon fill="black" stroke="black" points="839.81,-689.767 829.221,-690.1 837.706,-696.444 839.81,-689.767"/>
<text text-anchor="middle" x="879" y="-703.8" font-family="Times,serif" font-size="24.00">&#39;[0&#45;9]&#39;</text>
</g>
<!-- FEX_NUMBER&#45;&gt;ERR -->
<g id="edge67" class="edge"><title>FEX_NUMBER&#45;&gt;ERR</title>
<path fill="none" stroke="black" d="M826.584,-246.328C816.541,-236.174 805.563,-225.481 795,-216 770.516,-194.022 765.156,-187.02 737,-170 696.248,-145.366 647.816,-123.476 607.738,-107.132"/>
<polygon fill="black" stroke="black" points="608.852,-103.807 598.269,-103.309 606.232,-110.298 608.852,-103.807"/>
<text text-anchor="middle" x="810" y="-177.8" font-family="Times,serif" font-size="24.00">&#39;ELSE&#39;</text>
</g>
<!-- FEX_NUMBER&#45;&gt;END_DOUBLE -->
<g id="edge66" class="edge"><title>FEX_NUMBER&#45;&gt;END_DOUBLE</title>
<path fill="none" stroke="black" d="M875.665,-232.373C880.695,-206.613 886.759,-175.552 892.139,-147.994"/>
<polygon fill="black" stroke="black" points="895.606,-148.502 894.087,-138.016 888.736,-147.16 895.606,-148.502"/>
<text text-anchor="middle" x="920" y="-177.8" font-family="Times,serif" font-size="24.00">&#39;ELSE&#39;</text>
</g>
<!-- FEX_NUMBER&#45;&gt;FEX_NUMBER -->
<g id="edge65" class="edge"><title>FEX_NUMBER&#45;&gt;FEX_NUMBER</title>
<path fill="none" stroke="black" d="M918.215,-307.024C930.22,-305.31 939,-298.969 939,-288 939,-280.288 934.659,-274.863 927.909,-271.726"/>
<polygon fill="black" stroke="black" points="928.791,-268.338 918.215,-268.976 926.881,-275.072 928.791,-268.338"/>
<text text-anchor="middle" x="968" y="-281.8" font-family="Times,serif" font-size="24.00">&#39;[0&#45;9]&#39;</text>
</g>
</g>
</svg>
