<?xml version="1.0" encoding="UTF-8" standalone="no"?>
<!DOCTYPE svg PUBLIC "-//W3C//DTD SVG 1.1//EN"
 "http://www.w3.org/Graphics/SVG/1.1/DTD/svg11.dtd">
<!-- Generated by graphviz version 2.36.0 (20140111.2315)
 -->
<!-- Title: finite_state_machine Pages: 1 -->
<svg width="600pt" height="526pt"
 viewBox="0.00 0.00 600.07 526.00" xmlns="http://www.w3.org/2000/svg" xmlns:xlink="http://www.w3.org/1999/xlink">
<g id="graph0" class="graph" transform="scale(0.299886 0.299886) rotate(0) translate(4 1750)">
<title>finite_state_machine</title>
<polygon fill="white" stroke="none" points="-4,4 -4,-1750 1997,-1750 1997,4 -4,4"/>
<!-- bod -->
<g id="node1" class="node"><title>bod</title>
<ellipse fill="black" stroke="black" cx="464" cy="-1336" rx="1.8" ry="1.8"/>
</g>
<!-- S_START -->
<g id="node2" class="node"><title>S_START</title>
<ellipse fill="none" stroke="blue" cx="1076" cy="-1336" rx="107.518" ry="108"/>
<ellipse fill="none" stroke="blue" cx="1076" cy="-1336" rx="111.5" ry="112"/>
<text text-anchor="middle" x="1076" y="-1330.1" font-family="Times,serif" font-size="23.00">S_START</text>
</g>
<!-- bod&#45;&gt;S_START -->
<g id="edge68" class="edge"><title>bod&#45;&gt;S_START</title>
<path fill="none" stroke="black" d="M465.979,-1336C492.713,-1336 783.944,-1336 954.149,-1336"/>
<polygon fill="black" stroke="black" points="954.174,-1339.5 964.174,-1336 954.174,-1332.5 954.174,-1339.5"/>
<text text-anchor="middle" x="714.5" y="-1345.8" font-family="Times,serif" font-size="24.00">&#39;Σ&#39;</text>
</g>
<!-- S_START&#45;&gt;S_START -->
<g id="edge1" class="edge"><title>S_START&#45;&gt;S_START</title>
<path fill="none" stroke="black" d="M1185.64,-1358.54C1197.42,-1354.2 1205,-1346.69 1205,-1336 1205,-1328.49 1201.25,-1322.54 1194.93,-1318.16"/>
<polygon fill="black" stroke="black" points="1196.14,-1314.85 1185.64,-1313.46 1192.98,-1321.1 1196.14,-1314.85"/>
<text text-anchor="middle" x="1240.5" y="-1329.8" font-family="Times,serif" font-size="24.00">&#39;[\ \n\t]&#39;</text>
</g>
<!-- ERR -->
<g id="node3" class="node"><title>ERR</title>
<ellipse fill="none" stroke="red" cx="527" cy="-76" rx="72" ry="72"/>
<ellipse fill="none" stroke="red" cx="527" cy="-76" rx="76" ry="76"/>
<text text-anchor="middle" x="527" y="-69.7" font-family="Times,serif" font-size="26.00">ERR</text>
</g>
<!-- S_START&#45;&gt;ERR -->
<g id="edge40" class="edge"><title>S_START&#45;&gt;ERR</title>
<path fill="none" stroke="black" d="M966.657,-1313.51C696.084,-1259.95 17,-1123.13 17,-1099 17,-1099 17,-1099 17,-287 17,-196.12 297.396,-124.555 442.37,-93.6266"/>
<polygon fill="black" stroke="black" points="443.509,-96.9633 452.569,-91.4703 442.061,-90.1147 443.509,-96.9633"/>
<text text-anchor="middle" x="51" y="-703.8" font-family="Times,serif" font-size="24.00">&#39;ELSE&#39;</text>
</g>
<!-- SEMICOLON_SMBL -->
<g id="node4" class="node"><title>SEMICOLON_SMBL</title>
<ellipse fill="none" stroke="green" cx="1533" cy="-1629" rx="78.3884" ry="78.8198"/>
<ellipse fill="none" stroke="green" cx="1533" cy="-1629" rx="82.3621" ry="82.8154"/>
<text text-anchor="middle" x="1533" y="-1625.5" font-family="Times,serif" font-size="15.00">SEMICOLON_SMBL</text>
</g>
<!-- S_START&#45;&gt;SEMICOLON_SMBL -->
<g id="edge52" class="edge"><title>S_START&#45;&gt;SEMICOLON_SMBL</title>
<path fill="none" stroke="black" d="M1181.47,-1372.85C1258.51,-1402.38 1362.74,-1449.53 1441,-1512 1455.32,-1523.43 1468.8,-1537.5 1480.8,-1551.84"/>
<polygon fill="black" stroke="black" points="1478.28,-1554.28 1487.31,-1559.82 1483.7,-1549.85 1478.28,-1554.28"/>
<text text-anchor="middle" x="1430.5" y="-1474" font-family="Times,serif" font-size="25.00">&#39;[;]&#39;</text>
</g>
<!-- LEFT_COLUMN_SMBL -->
<g id="node5" class="node"><title>LEFT_COLUMN_SMBL</title>
<ellipse fill="none" stroke="green" cx="1727" cy="-1629" rx="89.0527" ry="89.2242"/>
<ellipse fill="none" stroke="green" cx="1727" cy="-1629" rx="93.0389" ry="93.2182"/>
<text text-anchor="middle" x="1727" y="-1625.5" font-family="Times,serif" font-size="15.00">LEFT_COLUMN_SMBL</text>
</g>
<!-- S_START&#45;&gt;LEFT_COLUMN_SMBL -->
<g id="edge49" class="edge"><title>S_START&#45;&gt;LEFT_COLUMN_SMBL</title>
<path fill="none" stroke="black" d="M1186.13,-1354.3C1302.42,-1376.47 1487.45,-1423.14 1624,-1512 1638.44,-1521.39 1652.09,-1533.33 1664.44,-1545.96"/>
<polygon fill="black" stroke="black" points="1662.14,-1548.62 1671.57,-1553.46 1667.22,-1543.8 1662.14,-1548.62"/>
<text text-anchor="middle" x="1604.5" y="-1474" font-family="Times,serif" font-size="25.00">&#39;[\(]&#39;</text>
</g>
<!-- RIGHT_COLUMN_SMBL -->
<g id="node6" class="node"><title>RIGHT_COLUMN_SMBL</title>
<ellipse fill="none" stroke="green" cx="98" cy="-1629" rx="94.3852" ry="94.6659"/>
<ellipse fill="none" stroke="green" cx="98" cy="-1629" rx="98.3768" ry="98.6694"/>
<text text-anchor="middle" x="98" y="-1625.5" font-family="Times,serif" font-size="15.00">RIGHT_COLUMN_SMBL</text>
</g>
<!-- S_START&#45;&gt;RIGHT_COLUMN_SMBL -->
<g id="edge48" class="edge"><title>S_START&#45;&gt;RIGHT_COLUMN_SMBL</title>
<path fill="none" stroke="black" d="M966.102,-1357.25C739.619,-1399.24 239.22,-1493.43 206,-1512 191.243,-1520.25 177.349,-1531.22 164.753,-1543.13"/>
<polygon fill="black" stroke="black" points="162.189,-1540.75 157.49,-1550.24 167.085,-1545.75 162.189,-1540.75"/>
<text text-anchor="middle" x="412.5" y="-1474" font-family="Times,serif" font-size="25.00">&#39;[\)]&#39;</text>
</g>
<!-- LEFT_VIN_COLUMN_SMBL -->
<g id="node7" class="node"><title>LEFT_VIN_COLUMN_SMBL</title>
<ellipse fill="none" stroke="green" cx="326" cy="-1629" rx="107.187" ry="107.248"/>
<ellipse fill="none" stroke="green" cx="326" cy="-1629" rx="111.189" ry="111.253"/>
<text text-anchor="middle" x="326" y="-1625.5" font-family="Times,serif" font-size="15.00">LEFT_VIN_COLUMN_SMBL</text>
</g>
<!-- S_START&#45;&gt;LEFT_VIN_COLUMN_SMBL -->
<g id="edge45" class="edge"><title>S_START&#45;&gt;LEFT_VIN_COLUMN_SMBL</title>
<path fill="none" stroke="black" d="M965.447,-1350.8C834.39,-1370.84 612.76,-1416.59 446,-1512 432.796,-1519.55 419.961,-1528.89 407.899,-1538.96"/>
<polygon fill="black" stroke="black" points="405.393,-1536.5 400.088,-1545.67 409.954,-1541.81 405.393,-1536.5"/>
<text text-anchor="middle" x="547.5" y="-1474" font-family="Times,serif" font-size="25.00">&#39;[\{]&#39;</text>
</g>
<!-- RIGHT_VIN_COLUMN_SMBL -->
<g id="node8" class="node"><title>RIGHT_VIN_COLUMN_SMBL</title>
<ellipse fill="none" stroke="green" cx="571" cy="-1629" rx="112.039" ry="112.209"/>
<ellipse fill="none" stroke="green" cx="571" cy="-1629" rx="116.028" ry="116.204"/>
<text text-anchor="middle" x="571" y="-1625.5" font-family="Times,serif" font-size="15.00">RIGHT_VIN_COLUMN_SMBL</text>
</g>
<!-- S_START&#45;&gt;RIGHT_VIN_COLUMN_SMBL -->
<g id="edge46" class="edge"><title>S_START&#45;&gt;RIGHT_VIN_COLUMN_SMBL</title>
<path fill="none" stroke="black" d="M971.35,-1374.77C892.288,-1405.73 782.918,-1453.83 696,-1512 683.906,-1520.09 671.847,-1529.36 660.257,-1539.04"/>
<polygon fill="black" stroke="black" points="657.658,-1536.66 652.312,-1545.8 662.196,-1541.99 657.658,-1536.66"/>
<text text-anchor="middle" x="787.5" y="-1474" font-family="Times,serif" font-size="25.00">&#39;[\}]&#39;</text>
</g>
<!-- COMMA_SMBL -->
<g id="node9" class="node"><title>COMMA_SMBL</title>
<ellipse fill="none" stroke="green" cx="773" cy="-1629" rx="63.1687" ry="63.5218"/>
<ellipse fill="none" stroke="green" cx="773" cy="-1629" rx="67.132" ry="67.5073"/>
<text text-anchor="middle" x="773" y="-1625.5" font-family="Times,serif" font-size="15.00">COMMA_SMBL</text>
</g>
<!-- S_START&#45;&gt;COMMA_SMBL -->
<g id="edge41" class="edge"><title>S_START&#45;&gt;COMMA_SMBL</title>
<path fill="none" stroke="black" d="M983.155,-1398.34C939.919,-1429.44 889.447,-1469.57 850,-1512 836.265,-1526.77 823.303,-1544.24 812.068,-1561.08"/>
<polygon fill="black" stroke="black" points="808.903,-1559.52 806.356,-1569.81 814.76,-1563.36 808.903,-1559.52"/>
<text text-anchor="middle" x="910" y="-1474" font-family="Times,serif" font-size="25.00">&#39;[,]&#39;</text>
</g>
<!-- PLUS_SMBL -->
<g id="node10" class="node"><title>PLUS_SMBL</title>
<ellipse fill="none" stroke="green" cx="916" cy="-1629" rx="52.2141" ry="52.5749"/>
<ellipse fill="none" stroke="green" cx="916" cy="-1629" rx="56.1713" ry="56.5594"/>
<text text-anchor="middle" x="916" y="-1625.5" font-family="Times,serif" font-size="15.00">PLUS_SMBL</text>
</g>
<!-- S_START&#45;&gt;PLUS_SMBL -->
<g id="edge43" class="edge"><title>S_START&#45;&gt;PLUS_SMBL</title>
<path fill="none" stroke="black" d="M1022.5,-1434.3C997.779,-1479.26 969.246,-1531.16 947.94,-1569.91"/>
<polygon fill="black" stroke="black" points="944.712,-1568.52 942.961,-1578.96 950.846,-1571.89 944.712,-1568.52"/>
<text text-anchor="middle" x="1023.5" y="-1474" font-family="Times,serif" font-size="25.00">&#39;[\+]&#39;</text>
</g>
<!-- MINUS_SMBL -->
<g id="node11" class="node"><title>MINUS_SMBL</title>
<ellipse fill="none" stroke="green" cx="1054" cy="-1629" rx="59.0736" ry="59.097"/>
<ellipse fill="none" stroke="green" cx="1054" cy="-1629" rx="63.0751" ry="63.1002"/>
<text text-anchor="middle" x="1054" y="-1625.5" font-family="Times,serif" font-size="15.00">MINUS_SMBL</text>
</g>
<!-- S_START&#45;&gt;MINUS_SMBL -->
<g id="edge44" class="edge"><title>S_START&#45;&gt;MINUS_SMBL</title>
<path fill="none" stroke="black" d="M1067.63,-1447.73C1064.9,-1483.86 1061.94,-1523.03 1059.47,-1555.6"/>
<polygon fill="black" stroke="black" points="1055.96,-1555.69 1058.69,-1565.93 1062.94,-1556.22 1055.96,-1555.69"/>
<text text-anchor="middle" x="1082" y="-1474" font-family="Times,serif" font-size="25.00">&#39;[&#45;]&#39;</text>
</g>
<!-- MULTIPLY_SMBL -->
<g id="node12" class="node"><title>MULTIPLY_SMBL</title>
<ellipse fill="none" stroke="green" cx="1212" cy="-1629" rx="73.2351" ry="73.3108"/>
<ellipse fill="none" stroke="green" cx="1212" cy="-1629" rx="77.2393" ry="77.3191"/>
<text text-anchor="middle" x="1212" y="-1625.5" font-family="Times,serif" font-size="15.00">MULTIPLY_SMBL</text>
</g>
<!-- S_START&#45;&gt;MULTIPLY_SMBL -->
<g id="edge51" class="edge"><title>S_START&#45;&gt;MULTIPLY_SMBL</title>
<path fill="none" stroke="black" d="M1123.08,-1437.75C1140.2,-1474.38 1159.28,-1515.2 1175.36,-1549.6"/>
<polygon fill="black" stroke="black" points="1172.19,-1551.09 1179.6,-1558.67 1178.53,-1548.13 1172.19,-1551.09"/>
<text text-anchor="middle" x="1171" y="-1474" font-family="Times,serif" font-size="25.00">&#39;[\*]&#39;</text>
</g>
<!-- END_OF_FILE -->
<g id="node15" class="node"><title>END_OF_FILE</title>
<ellipse fill="none" stroke="green" cx="1370" cy="-1629" rx="58.3063" ry="58.5533"/>
<ellipse fill="none" stroke="green" cx="1370" cy="-1629" rx="62.2912" ry="62.555"/>
<text text-anchor="middle" x="1370" y="-1625.5" font-family="Times,serif" font-size="15.00">END_OF_FILE</text>
</g>
<!-- S_START&#45;&gt;END_OF_FILE -->
<g id="edge42" class="edge"><title>S_START&#45;&gt;END_OF_FILE</title>
<path fill="none" stroke="black" d="M1168.53,-1398.69C1210.92,-1429.64 1260.06,-1469.55 1298,-1512 1312.12,-1527.8 1325.15,-1546.7 1336.14,-1564.62"/>
<polygon fill="black" stroke="black" points="1333.22,-1566.55 1341.37,-1573.32 1339.22,-1562.94 1333.22,-1566.55"/>
<text text-anchor="middle" x="1303.5" y="-1473.8" font-family="Times,serif" font-size="24.00">&#39;EOF&#39;</text>
</g>
<!-- NOT -->
<g id="node23" class="node"><title>NOT</title>
<ellipse fill="none" stroke="green" cx="1076" cy="-1098" rx="43" ry="43"/>
<ellipse fill="none" stroke="green" cx="1076" cy="-1098" rx="47" ry="47"/>
<text text-anchor="middle" x="1076" y="-1094.5" font-family="Times,serif" font-size="15.00">NOT</text>
</g>
<!-- S_START&#45;&gt;NOT -->
<g id="edge2" class="edge"><title>S_START&#45;&gt;NOT</title>
<path fill="none" stroke="black" d="M1076,-1223.91C1076,-1200.08 1076,-1175.87 1076,-1155.19"/>
<polygon fill="black" stroke="black" points="1079.5,-1155.03 1076,-1145.03 1072.5,-1155.03 1079.5,-1155.03"/>
<text text-anchor="middle" x="1096.5" y="-1186" font-family="Times,serif" font-size="25.00">&#39;[\!]&#39;</text>
</g>
<!-- R_ARROW -->
<g id="node29" class="node"><title>R_ARROW</title>
<ellipse fill="none" stroke="black" cx="1218" cy="-288" rx="43.1947" ry="43.5902"/>
<text text-anchor="middle" x="1218" y="-284.3" font-family="Times,serif" font-size="14.00">R_ARROW</text>
</g>
<!-- S_START&#45;&gt;R_ARROW -->
<g id="edge5" class="edge"><title>S_START&#45;&gt;R_ARROW</title>
<path fill="none" stroke="black" d="M1156.86,-1258.6C1181.37,-1230.25 1205.18,-1196.14 1218,-1160 1271.79,-1008.34 1236.14,-506.854 1222.59,-342.021"/>
<polygon fill="black" stroke="black" points="1226.04,-341.334 1221.73,-331.658 1219.07,-341.913 1226.04,-341.334"/>
<text text-anchor="middle" x="1266" y="-814" font-family="Times,serif" font-size="25.00">&#39;[&gt;]&#39;</text>
</g>
<!-- L_ARROW -->
<g id="node30" class="node"><title>L_ARROW</title>
<ellipse fill="none" stroke="black" cx="1386" cy="-496" rx="43.1947" ry="43.5902"/>
<text text-anchor="middle" x="1386" y="-492.3" font-family="Times,serif" font-size="14.00">L_ARROW</text>
</g>
<!-- S_START&#45;&gt;L_ARROW -->
<g id="edge9" class="edge"><title>S_START&#45;&gt;L_ARROW</title>
<path fill="none" stroke="black" d="M1174.58,-1283.11C1203.76,-1262.93 1232.75,-1237.08 1251,-1206 1331.32,-1069.24 1266.46,-1007.82 1296,-852 1316.77,-742.445 1351.32,-616.39 1371.02,-547.856"/>
<polygon fill="black" stroke="black" points="1374.41,-548.75 1373.82,-538.171 1367.68,-546.808 1374.41,-548.75"/>
<text text-anchor="middle" x="1316" y="-906" font-family="Times,serif" font-size="25.00">&#39;[&lt;]&#39;</text>
</g>
<!-- KW_OR_ID -->
<g id="node31" class="node"><title>KW_OR_ID</title>
<ellipse fill="none" stroke="black" cx="148" cy="-710" rx="45.0672" ry="45.2554"/>
<text text-anchor="middle" x="148" y="-706.3" font-family="Times,serif" font-size="14.00">KW_OR_ID</text>
</g>
<!-- S_START&#45;&gt;KW_OR_ID -->
<g id="edge13" class="edge"><title>S_START&#45;&gt;KW_OR_ID</title>
<path fill="none" stroke="black" d="M969.569,-1302.08C881.041,-1272.15 753.696,-1223.06 653,-1160 456.836,-1037.15 263.086,-836.97 184.541,-751.623"/>
<polygon fill="black" stroke="black" points="187.086,-749.219 177.748,-744.214 181.927,-753.95 187.086,-749.219"/>
<text text-anchor="middle" x="496" y="-997.8" font-family="Times,serif" font-size="24.00">&#39;[A&#45;z_]&#39;</text>
</g>
<!-- DIV_OR_COMM -->
<g id="node32" class="node"><title>DIV_OR_COMM</title>
<ellipse fill="none" stroke="black" cx="1543" cy="-1098" rx="61.6014" ry="61.9701"/>
<text text-anchor="middle" x="1543" y="-1094.3" font-family="Times,serif" font-size="14.00">DIV_OR_COMM</text>
</g>
<!-- S_START&#45;&gt;DIV_OR_COMM -->
<g id="edge50" class="edge"><title>S_START&#45;&gt;DIV_OR_COMM</title>
<path fill="none" stroke="black" d="M1180.13,-1295.93C1239.58,-1272.33 1314.82,-1240.26 1379,-1206 1415.46,-1186.54 1454.28,-1161.43 1484.99,-1140.43"/>
<polygon fill="black" stroke="black" points="1487.17,-1143.17 1493.43,-1134.62 1483.2,-1137.41 1487.17,-1143.17"/>
<text text-anchor="middle" x="1441.5" y="-1186" font-family="Times,serif" font-size="25.00">&#39;[/]&#39;</text>
</g>
<!-- S_STRING -->
<g id="node36" class="node"><title>S_STRING</title>
<ellipse fill="none" stroke="black" cx="536" cy="-912" rx="42.3181" ry="42.4244"/>
<text text-anchor="middle" x="536" y="-908.3" font-family="Times,serif" font-size="14.00">S_STRING</text>
</g>
<!-- S_START&#45;&gt;S_STRING -->
<g id="edge47" class="edge"><title>S_START&#45;&gt;S_STRING</title>
<path fill="none" stroke="black" d="M978.782,-1281.11C923.12,-1248.64 853.031,-1204.98 795,-1160 708.814,-1093.2 619.08,-1001.91 571.164,-951.102"/>
<polygon fill="black" stroke="black" points="573.519,-948.497 564.121,-943.606 568.417,-953.29 573.519,-948.497"/>
<text text-anchor="middle" x="813.5" y="-1092" font-family="Times,serif" font-size="25.00">&#39;[&quot;]&#39;</text>
</g>
<!-- EQ_OR_ASIGNMENT -->
<g id="node40" class="node"><title>EQ_OR_ASIGNMENT</title>
<ellipse fill="none" stroke="black" cx="1916" cy="-1629" rx="77.3458" ry="77.628"/>
<text text-anchor="middle" x="1916" y="-1625.3" font-family="Times,serif" font-size="14.00">EQ_OR_ASIGNMENT</text>
</g>
<!-- S_START&#45;&gt;EQ_OR_ASIGNMENT -->
<g id="edge37" class="edge"><title>S_START&#45;&gt;EQ_OR_ASIGNMENT</title>
<path fill="none" stroke="black" d="M1185.45,-1358.12C1381.03,-1396.49 1775.21,-1476.93 1829,-1512 1845.34,-1522.66 1859.76,-1537.49 1871.92,-1552.99"/>
<polygon fill="black" stroke="black" points="1869.26,-1555.27 1878.08,-1561.15 1874.85,-1551.06 1869.26,-1555.27"/>
<text text-anchor="middle" x="1799" y="-1474" font-family="Times,serif" font-size="25.00">&#39;[=]&#39;</text>
</g>
<!-- S_NUMBER -->
<g id="node41" class="node"><title>S_NUMBER</title>
<ellipse fill="none" stroke="black" cx="888" cy="-1098" rx="46.4412" ry="46.921"/>
<text text-anchor="middle" x="888" y="-1094.3" font-family="Times,serif" font-size="14.00">S_NUMBER</text>
</g>
<!-- S_START&#45;&gt;S_NUMBER -->
<g id="edge53" class="edge"><title>S_START&#45;&gt;S_NUMBER</title>
<path fill="none" stroke="black" d="M1006.8,-1248.13C978.374,-1212.45 946.694,-1172.68 923.201,-1143.19"/>
<polygon fill="black" stroke="black" points="925.77,-1140.8 916.801,-1135.15 920.295,-1145.16 925.77,-1140.8"/>
<text text-anchor="middle" x="999" y="-1185.8" font-family="Times,serif" font-size="24.00">&#39;[0&#45;9]&#39;</text>
</g>
<!-- END_DOUBLE -->
<g id="node13" class="node"><title>END_DOUBLE</title>
<ellipse fill="none" stroke="green" cx="917" cy="-76" rx="59.0736" ry="59.097"/>
<ellipse fill="none" stroke="green" cx="917" cy="-76" rx="63.0751" ry="63.1002"/>
<text text-anchor="middle" x="917" y="-72.5" font-family="Times,serif" font-size="15.00">END_DOUBLE</text>
</g>
<!-- END_NUMBER -->
<g id="node14" class="node"><title>END_NUMBER</title>
<ellipse fill="none" stroke="green" cx="1029" cy="-710" rx="61.2064" ry="61.2724"/>
<ellipse fill="none" stroke="green" cx="1029" cy="-710" rx="65.2107" ry="65.281"/>
<text text-anchor="middle" x="1029" y="-706.5" font-family="Times,serif" font-size="15.00">END_NUMBER</text>
</g>
<!-- END_KW_OR_ID -->
<g id="node16" class="node"><title>END_KW_OR_ID</title>
<ellipse fill="none" stroke="green" cx="117" cy="-496" rx="67.4307" ry="67.8712"/>
<ellipse fill="none" stroke="green" cx="117" cy="-496" rx="71.4011" ry="71.8675"/>
<text text-anchor="middle" x="117" y="-492.5" font-family="Times,serif" font-size="15.00">END_KW_OR_ID</text>
</g>
<!-- LESS_SMBL -->
<g id="node17" class="node"><title>LESS_SMBL</title>
<ellipse fill="none" stroke="green" cx="1336" cy="-288" rx="51.6102" ry="51.9524"/>
<ellipse fill="none" stroke="green" cx="1336" cy="-288" rx="55.6007" ry="55.9693"/>
<text text-anchor="middle" x="1336" y="-284.5" font-family="Times,serif" font-size="15.00">LESS_SMBL</text>
</g>
<!-- LESS_EQUAL -->
<g id="node18" class="node"><title>LESS_EQUAL</title>
<ellipse fill="none" stroke="green" cx="1470" cy="-288" rx="56.1748" ry="56.3787"/>
<ellipse fill="none" stroke="green" cx="1470" cy="-288" rx="60.1562" ry="60.3746"/>
<text text-anchor="middle" x="1470" y="-284.5" font-family="Times,serif" font-size="15.00">LESS_EQUAL</text>
</g>
<!-- DOUBLE_R_ARR -->
<g id="node19" class="node"><title>DOUBLE_R_ARR</title>
<ellipse fill="none" stroke="green" cx="1373" cy="-76" rx="68.1996" ry="68.415"/>
<ellipse fill="none" stroke="green" cx="1373" cy="-76" rx="72.1846" ry="72.4126"/>
<text text-anchor="middle" x="1373" y="-72.5" font-family="Times,serif" font-size="15.00">DOUBLE_R_ARR</text>
</g>
<!-- DOUBLE_L_ARR -->
<g id="node20" class="node"><title>DOUBLE_L_ARR</title>
<ellipse fill="none" stroke="green" cx="1620" cy="-288" rx="67.4307" ry="67.8712"/>
<ellipse fill="none" stroke="green" cx="1620" cy="-288" rx="71.4011" ry="71.8675"/>
<text text-anchor="middle" x="1620" y="-284.5" font-family="Times,serif" font-size="15.00">DOUBLE_L_ARR</text>
</g>
<!-- MORE_SMBL -->
<g id="node21" class="node"><title>MORE_SMBL</title>
<ellipse fill="none" stroke="green" cx="1075" cy="-76" rx="55.409" ry="55.8352"/>
<ellipse fill="none" stroke="green" cx="1075" cy="-76" rx="59.3728" ry="59.8295"/>
<text text-anchor="middle" x="1075" y="-72.5" font-family="Times,serif" font-size="15.00">MORE_SMBL</text>
</g>
<!-- MORE_EQUAL -->
<g id="node22" class="node"><title>MORE_EQUAL</title>
<ellipse fill="none" stroke="green" cx="1218" cy="-76" rx="60.4382" ry="60.7285"/>
<ellipse fill="none" stroke="green" cx="1218" cy="-76" rx="64.4263" ry="64.7358"/>
<text text-anchor="middle" x="1218" y="-72.5" font-family="Times,serif" font-size="15.00">MORE_EQUAL</text>
</g>
<!-- NOT&#45;&gt;NOT -->
<g id="edge4" class="edge"><title>NOT&#45;&gt;NOT</title>
<path fill="none" stroke="black" d="M1119.75,-1115.52C1131.79,-1114.67 1141,-1108.83 1141,-1098 1141,-1090.38 1136.45,-1085.24 1129.56,-1082.56"/>
<polygon fill="black" stroke="black" points="1130.25,-1079.13 1119.75,-1080.48 1128.81,-1085.97 1130.25,-1079.13"/>
<text text-anchor="middle" x="1175" y="-1091.8" font-family="Times,serif" font-size="24.00">&#39;ELSE&#39;</text>
</g>
<!-- NOT_EQUAL -->
<g id="node28" class="node"><title>NOT_EQUAL</title>
<ellipse fill="none" stroke="green" cx="1151" cy="-912" rx="54.0436" ry="54.2048"/>
<ellipse fill="none" stroke="green" cx="1151" cy="-912" rx="58.0213" ry="58.1944"/>
<text text-anchor="middle" x="1151" y="-908.5" font-family="Times,serif" font-size="15.00">NOT_EQUAL</text>
</g>
<!-- NOT&#45;&gt;NOT_EQUAL -->
<g id="edge3" class="edge"><title>NOT&#45;&gt;NOT_EQUAL</title>
<path fill="none" stroke="black" d="M1093.4,-1054.32C1102.91,-1030.97 1114.89,-1001.6 1125.45,-975.685"/>
<polygon fill="black" stroke="black" points="1128.74,-976.894 1129.27,-966.313 1122.25,-974.252 1128.74,-976.894"/>
<text text-anchor="middle" x="1137" y="-998" font-family="Times,serif" font-size="25.00">&#39;[=]&#39;</text>
</g>
<!-- E_STRING -->
<g id="node24" class="node"><title>E_STRING</title>
<ellipse fill="none" stroke="green" cx="488" cy="-710" rx="44.455" ry="44.8864"/>
<ellipse fill="none" stroke="green" cx="488" cy="-710" rx="48.4118" ry="48.8816"/>
<text text-anchor="middle" x="488" y="-706.5" font-family="Times,serif" font-size="15.00">E_STRING</text>
</g>
<!-- ASIGNMENT_SMBL -->
<g id="node25" class="node"><title>ASIGNMENT_SMBL</title>
<ellipse fill="none" stroke="green" cx="1765" cy="-1336" rx="79.1592" ry="79.3638"/>
<ellipse fill="none" stroke="green" cx="1765" cy="-1336" rx="83.1455" ry="83.3605"/>
<text text-anchor="middle" x="1765" y="-1332.5" font-family="Times,serif" font-size="15.00">ASIGNMENT_SMBL</text>
</g>
<!-- EQUAL_SMBL -->
<g id="node26" class="node"><title>EQUAL_SMBL</title>
<ellipse fill="none" stroke="green" cx="1930" cy="-1336" rx="59.3722" ry="59.6408"/>
<ellipse fill="none" stroke="green" cx="1930" cy="-1336" rx="63.3587" ry="63.6454"/>
<text text-anchor="middle" x="1930" y="-1332.5" font-family="Times,serif" font-size="15.00">EQUAL_SMBL</text>
</g>
<!-- DIVIDE_SMBL -->
<g id="node27" class="node"><title>DIVIDE_SMBL</title>
<ellipse fill="none" stroke="green" cx="1563" cy="-496" rx="60.4382" ry="60.7285"/>
<ellipse fill="none" stroke="green" cx="1563" cy="-496" rx="64.4263" ry="64.7358"/>
<text text-anchor="middle" x="1563" y="-492.5" font-family="Times,serif" font-size="15.00">DIVIDE_SMBL</text>
</g>
<!-- R_ARROW&#45;&gt;DOUBLE_R_ARR -->
<g id="edge8" class="edge"><title>R_ARROW&#45;&gt;DOUBLE_R_ARR</title>
<path fill="none" stroke="black" d="M1243.6,-252.323C1265.5,-222.647 1297.64,-179.102 1324.41,-142.834"/>
<polygon fill="black" stroke="black" points="1327.26,-144.864 1330.38,-134.739 1321.63,-140.707 1327.26,-144.864"/>
<text text-anchor="middle" x="1320" y="-178" font-family="Times,serif" font-size="25.00">&#39;[&gt;]&#39;</text>
</g>
<!-- R_ARROW&#45;&gt;MORE_SMBL -->
<g id="edge6" class="edge"><title>R_ARROW&#45;&gt;MORE_SMBL</title>
<path fill="none" stroke="black" d="M1189.77,-254.523C1175.96,-238.046 1159.46,-217.447 1146,-198 1132.84,-178.983 1119.67,-157.425 1108.31,-137.829"/>
<polygon fill="black" stroke="black" points="1111.25,-135.907 1103.23,-128.98 1105.18,-139.394 1111.25,-135.907"/>
<text text-anchor="middle" x="1180" y="-177.8" font-family="Times,serif" font-size="24.00">&#39;ELSE&#39;</text>
</g>
<!-- R_ARROW&#45;&gt;MORE_EQUAL -->
<g id="edge7" class="edge"><title>R_ARROW&#45;&gt;MORE_EQUAL</title>
<path fill="none" stroke="black" d="M1218,-243.997C1218,-217.26 1218,-182.168 1218,-151.056"/>
<polygon fill="black" stroke="black" points="1221.5,-150.675 1218,-140.675 1214.5,-150.675 1221.5,-150.675"/>
<text text-anchor="middle" x="1238" y="-178" font-family="Times,serif" font-size="25.00">&#39;[=]&#39;</text>
</g>
<!-- L_ARROW&#45;&gt;LESS_SMBL -->
<g id="edge10" class="edge"><title>L_ARROW&#45;&gt;LESS_SMBL</title>
<path fill="none" stroke="black" d="M1375.88,-453.313C1368.85,-424.333 1359.34,-385.171 1351.38,-352.349"/>
<polygon fill="black" stroke="black" points="1354.72,-351.277 1348.96,-342.385 1347.92,-352.928 1354.72,-351.277"/>
<text text-anchor="middle" x="1397" y="-385.8" font-family="Times,serif" font-size="24.00">&#39;ELSE&#39;</text>
</g>
<!-- L_ARROW&#45;&gt;LESS_EQUAL -->
<g id="edge11" class="edge"><title>L_ARROW&#45;&gt;LESS_EQUAL</title>
<path fill="none" stroke="black" d="M1408.56,-458.204C1417.58,-442.497 1427.57,-423.731 1435,-406 1441.61,-390.227 1447.53,-372.777 1452.54,-356.273"/>
<polygon fill="black" stroke="black" points="1455.9,-357.267 1455.38,-346.685 1449.19,-355.278 1455.9,-357.267"/>
<text text-anchor="middle" x="1464" y="-386" font-family="Times,serif" font-size="25.00">&#39;[=]&#39;</text>
</g>
<!-- L_ARROW&#45;&gt;DOUBLE_L_ARR -->
<g id="edge12" class="edge"><title>L_ARROW&#45;&gt;DOUBLE_L_ARR</title>
<path fill="none" stroke="black" d="M1418.67,-466.606C1438.71,-449.16 1464.88,-426.332 1488,-406 1511.24,-385.558 1536.71,-363.018 1559.02,-343.224"/>
<polygon fill="black" stroke="black" points="1561.62,-345.6 1566.78,-336.345 1556.97,-340.365 1561.62,-345.6"/>
<text text-anchor="middle" x="1536" y="-386" font-family="Times,serif" font-size="25.00">&#39;[&lt;]&#39;</text>
</g>
<!-- KW_OR_ID&#45;&gt;ERR -->
<g id="edge14" class="edge"><title>KW_OR_ID&#45;&gt;ERR</title>
<path fill="none" stroke="black" d="M183.786,-681.668C203.638,-664.476 226.897,-640.561 240,-614 286.912,-518.906 244.124,-479.441 275,-378 298.213,-301.735 302.394,-278.405 352,-216 380.489,-180.16 419.896,-147.828 454.103,-123.384"/>
<polygon fill="black" stroke="black" points="456.519,-125.963 462.678,-117.342 452.487,-120.241 456.519,-125.963"/>
<text text-anchor="middle" x="309" y="-385.8" font-family="Times,serif" font-size="24.00">&#39;ELSE&#39;</text>
</g>
<!-- KW_OR_ID&#45;&gt;END_KW_OR_ID -->
<g id="edge16" class="edge"><title>KW_OR_ID&#45;&gt;END_KW_OR_ID</title>
<path fill="none" stroke="black" d="M128.542,-668.832C121.534,-652.263 114.497,-632.613 111,-614 108.814,-602.365 107.933,-589.974 107.875,-577.77"/>
<polygon fill="black" stroke="black" points="111.377,-577.629 108.01,-567.584 104.378,-577.537 111.377,-577.629"/>
<text text-anchor="middle" x="175.5" y="-593.8" font-family="Times,serif" font-size="24.00">&#39;Σ&#45;[A&#45;z_0&#45;9]&#39;</text>
</g>
<!-- KW_OR_ID&#45;&gt;KW_OR_ID -->
<g id="edge15" class="edge"><title>KW_OR_ID&#45;&gt;KW_OR_ID</title>
<path fill="none" stroke="black" d="M188.293,-730.614C200.986,-730.299 211,-723.428 211,-710 211,-700.349 205.827,-694.085 198.204,-691.208"/>
<polygon fill="black" stroke="black" points="198.761,-687.752 188.293,-689.386 197.496,-694.636 198.761,-687.752"/>
<text text-anchor="middle" x="264" y="-703.8" font-family="Times,serif" font-size="24.00">&#39;[A&#45;z_0&#45;9]&#39;</text>
</g>
<!-- DIV_OR_COMM&#45;&gt;DIVIDE_SMBL -->
<g id="edge17" class="edge"><title>DIV_OR_COMM&#45;&gt;DIVIDE_SMBL</title>
<path fill="none" stroke="black" d="M1545.03,-1036.17C1548.72,-925.293 1556.54,-690.742 1560.54,-570.884"/>
<polygon fill="black" stroke="black" points="1564.04,-570.813 1560.88,-560.702 1557.05,-570.58 1564.04,-570.813"/>
<text text-anchor="middle" x="1586" y="-813.8" font-family="Times,serif" font-size="24.00">&#39;ELSE&#39;</text>
</g>
<!-- LINE_COMM -->
<g id="node33" class="node"><title>LINE_COMM</title>
<ellipse fill="none" stroke="black" cx="1397" cy="-912" rx="51.5634" ry="51.9195"/>
<text text-anchor="middle" x="1397" y="-908.3" font-family="Times,serif" font-size="14.00">LINE_COMM</text>
</g>
<!-- DIV_OR_COMM&#45;&gt;LINE_COMM -->
<g id="edge18" class="edge"><title>DIV_OR_COMM&#45;&gt;LINE_COMM</title>
<path fill="none" stroke="black" d="M1505.02,-1049.14C1483.41,-1021.9 1456.44,-987.909 1434.85,-960.702"/>
<polygon fill="black" stroke="black" points="1437.58,-958.515 1428.63,-952.857 1432.1,-962.866 1437.58,-958.515"/>
<text text-anchor="middle" x="1494.5" y="-998" font-family="Times,serif" font-size="25.00">&#39;[/]&#39;</text>
</g>
<!-- BLOCK_COMM -->
<g id="node34" class="node"><title>BLOCK_COMM</title>
<ellipse fill="none" stroke="black" cx="1651" cy="-912" rx="59.4356" ry="59.7483"/>
<text text-anchor="middle" x="1651" y="-908.3" font-family="Times,serif" font-size="14.00">BLOCK_COMM</text>
</g>
<!-- DIV_OR_COMM&#45;&gt;BLOCK_COMM -->
<g id="edge21" class="edge"><title>DIV_OR_COMM&#45;&gt;BLOCK_COMM</title>
<path fill="none" stroke="black" d="M1573.95,-1044.27C1587.1,-1021.86 1602.5,-995.623 1616.06,-972.519"/>
<polygon fill="black" stroke="black" points="1619.12,-974.228 1621.16,-963.833 1613.08,-970.685 1619.12,-974.228"/>
<text text-anchor="middle" x="1626" y="-998" font-family="Times,serif" font-size="25.00">&#39;[\*]&#39;</text>
</g>
<!-- LINE_COMM&#45;&gt;S_START -->
<g id="edge20" class="edge"><title>LINE_COMM&#45;&gt;S_START</title>
<path fill="none" stroke="black" d="M1391.59,-963.602C1382.56,-1026.57 1359.22,-1134.5 1301,-1206 1271.59,-1242.11 1229.22,-1270.1 1189.16,-1290.64"/>
<polygon fill="black" stroke="black" points="1187.49,-1287.56 1180.12,-1295.17 1190.63,-1293.82 1187.49,-1287.56"/>
<text text-anchor="middle" x="1399" y="-1092" font-family="Times,serif" font-size="25.00">&#39;[\n]&#39;</text>
</g>
<!-- LINE_COMM&#45;&gt;LINE_COMM -->
<g id="edge19" class="edge"><title>LINE_COMM&#45;&gt;LINE_COMM</title>
<path fill="none" stroke="black" d="M1445.68,-928.946C1457.35,-927.621 1466,-921.973 1466,-912 1466,-905.144 1461.91,-900.331 1455.56,-897.563"/>
<polygon fill="black" stroke="black" points="1456.23,-894.122 1445.68,-895.054 1454.51,-900.907 1456.23,-894.122"/>
<text text-anchor="middle" x="1500" y="-905.8" font-family="Times,serif" font-size="24.00">&#39;ELSE&#39;</text>
</g>
<!-- BLOCK_COMM&#45;&gt;BLOCK_COMM -->
<g id="edge23" class="edge"><title>BLOCK_COMM&#45;&gt;BLOCK_COMM</title>
<path fill="none" stroke="black" d="M1708.09,-928.592C1719.69,-926.785 1728,-921.254 1728,-912 1728,-905.638 1724.07,-901.036 1717.85,-898.193"/>
<polygon fill="black" stroke="black" points="1718.66,-894.786 1708.09,-895.408 1716.74,-901.518 1718.66,-894.786"/>
<text text-anchor="middle" x="1762" y="-905.8" font-family="Times,serif" font-size="24.00">&#39;ELSE&#39;</text>
</g>
<!-- END_BLOCK_COMM -->
<g id="node35" class="node"><title>END_BLOCK_COMM</title>
<ellipse fill="none" stroke="black" cx="1723" cy="-710" rx="78.1375" ry="78.1833"/>
<text text-anchor="middle" x="1723" y="-706.3" font-family="Times,serif" font-size="14.00">END_BLOCK_COMM</text>
</g>
<!-- BLOCK_COMM&#45;&gt;END_BLOCK_COMM -->
<g id="edge22" class="edge"><title>BLOCK_COMM&#45;&gt;END_BLOCK_COMM</title>
<path fill="none" stroke="black" d="M1647.26,-852.404C1647.88,-836.981 1650.01,-820.585 1655,-806 1658.18,-796.717 1662.58,-787.549 1667.63,-778.786"/>
<polygon fill="black" stroke="black" points="1670.67,-780.529 1672.88,-770.168 1664.69,-776.887 1670.67,-780.529"/>
<text text-anchor="middle" x="1678" y="-814" font-family="Times,serif" font-size="25.00">&#39;[\*]&#39;</text>
</g>
<!-- END_BLOCK_COMM&#45;&gt;S_START -->
<g id="edge24" class="edge"><title>END_BLOCK_COMM&#45;&gt;S_START</title>
<path fill="none" stroke="black" d="M1763.83,-776.586C1769.7,-786.383 1775.58,-796.411 1781,-806 1817.68,-870.894 1833.89,-903.281 1805,-972 1758.72,-1082.1 1715.13,-1098.09 1613,-1160 1481.34,-1239.81 1309.18,-1287.55 1195.72,-1312.54"/>
<polygon fill="black" stroke="black" points="1194.64,-1309.19 1185.62,-1314.74 1196.13,-1316.03 1194.64,-1309.19"/>
<text text-anchor="middle" x="1817" y="-998" font-family="Times,serif" font-size="25.00">&#39;&#39;[/]&#39;&#39;</text>
</g>
<!-- END_BLOCK_COMM&#45;&gt;BLOCK_COMM -->
<g id="edge25" class="edge"><title>END_BLOCK_COMM&#45;&gt;BLOCK_COMM</title>
<path fill="none" stroke="black" d="M1714.14,-787.773C1710.99,-803.39 1706.74,-819.475 1701,-834 1698.26,-840.93 1694.85,-847.896 1691.12,-854.655"/>
<polygon fill="black" stroke="black" points="1687.85,-853.316 1685.84,-863.72 1693.9,-856.836 1687.85,-853.316"/>
<text text-anchor="middle" x="1743" y="-813.8" font-family="Times,serif" font-size="24.00">&#39;ELSE&#39;</text>
</g>
<!-- S_STRING&#45;&gt;ERR -->
<g id="edge27" class="edge"><title>S_STRING&#45;&gt;ERR</title>
<path fill="none" stroke="black" d="M545.414,-870.454C547.717,-858.756 549.849,-845.93 551,-834 552.195,-821.613 551.214,-818.443 551,-806 549.666,-728.632 550.544,-709.18 545,-632 542.95,-603.459 539.878,-596.552 538,-568 528.664,-426.047 526.825,-260.567 526.676,-162.524"/>
<polygon fill="black" stroke="black" points="530.176,-162.369 526.667,-152.372 523.176,-162.376 530.176,-162.369"/>
<text text-anchor="middle" x="572" y="-489.8" font-family="Times,serif" font-size="24.00">&#39;ELSE&#39;</text>
</g>
<!-- S_STRING&#45;&gt;E_STRING -->
<g id="edge36" class="edge"><title>S_STRING&#45;&gt;E_STRING</title>
<path fill="none" stroke="black" d="M520.459,-872.672C515.944,-860.463 511.337,-846.801 508,-834 502.513,-812.95 498.251,-789.462 495.098,-768.697"/>
<polygon fill="black" stroke="black" points="498.553,-768.131 493.639,-758.745 491.627,-769.147 498.553,-768.131"/>
<text text-anchor="middle" x="529.5" y="-814" font-family="Times,serif" font-size="25.00">&#39;[\&quot;]&#39;</text>
</g>
<!-- S_STRING&#45;&gt;S_STRING -->
<g id="edge26" class="edge"><title>S_STRING&#45;&gt;S_STRING</title>
<path fill="none" stroke="black" d="M574.664,-929.233C586.615,-928.885 596,-923.141 596,-912 596,-904.341 591.564,-899.232 584.908,-896.674"/>
<polygon fill="black" stroke="black" points="585.136,-893.156 574.664,-894.767 583.855,-900.038 585.136,-893.156"/>
<text text-anchor="middle" x="619.5" y="-905.8" font-family="Times,serif" font-size="24.00">&#39;[^&quot;]&#39;</text>
</g>
<!-- S_ESCAPE -->
<g id="node37" class="node"><title>S_ESCAPE</title>
<ellipse fill="none" stroke="black" cx="378" cy="-710" rx="42.6083" ry="42.98"/>
<text text-anchor="middle" x="378" y="-706.3" font-family="Times,serif" font-size="14.00">S_ESCAPE</text>
</g>
<!-- S_STRING&#45;&gt;S_ESCAPE -->
<g id="edge28" class="edge"><title>S_STRING&#45;&gt;S_ESCAPE</title>
<path fill="none" stroke="black" d="M494.121,-905.397C452.823,-897.4 391.83,-878.389 363,-834 348.788,-812.118 351.41,-783.361 358.105,-759.155"/>
<polygon fill="black" stroke="black" points="361.498,-760.025 361.07,-749.439 354.803,-757.981 361.498,-760.025"/>
<text text-anchor="middle" x="383" y="-814" font-family="Times,serif" font-size="25.00">&#39;[\\]&#39;</text>
</g>
<!-- S_ESCAPE&#45;&gt;ERR -->
<g id="edge30" class="edge"><title>S_ESCAPE&#45;&gt;ERR</title>
<path fill="none" stroke="black" d="M367.458,-668.566C352.702,-605.759 329.93,-481.238 351,-378 371.397,-278.058 388.278,-252.691 448,-170 454.88,-160.474 462.488,-150.71 470.184,-141.258"/>
<polygon fill="black" stroke="black" points="472.998,-143.347 476.656,-133.404 467.596,-138.895 472.998,-143.347"/>
<text text-anchor="middle" x="385" y="-385.8" font-family="Times,serif" font-size="24.00">&#39;ELSE&#39;</text>
</g>
<!-- S_ESCAPE&#45;&gt;S_STRING -->
<g id="edge29" class="edge"><title>S_ESCAPE&#45;&gt;S_STRING</title>
<path fill="none" stroke="black" d="M392.322,-750.41C402.789,-775.901 418.689,-808.888 439,-834 454.009,-852.556 474.239,-869.497 492.34,-882.734"/>
<polygon fill="black" stroke="black" points="490.309,-885.585 500.481,-888.548 494.377,-879.888 490.309,-885.585"/>
<text text-anchor="middle" x="468.5" y="-814" font-family="Times,serif" font-size="25.00">&#39;[tn\\]&#39;</text>
</g>
<!-- ESCAPE_X1 -->
<g id="node38" class="node"><title>ESCAPE_X1</title>
<ellipse fill="none" stroke="black" cx="428" cy="-496" rx="47.2323" ry="47.4763"/>
<text text-anchor="middle" x="428" y="-492.3" font-family="Times,serif" font-size="14.00">ESCAPE_X1</text>
</g>
<!-- S_ESCAPE&#45;&gt;ESCAPE_X1 -->
<g id="edge31" class="edge"><title>S_ESCAPE&#45;&gt;ESCAPE_X1</title>
<path fill="none" stroke="black" d="M387.641,-668.124C395.396,-635.24 406.372,-588.702 414.92,-552.458"/>
<polygon fill="black" stroke="black" points="418.373,-553.065 417.262,-542.528 411.56,-551.458 418.373,-553.065"/>
<text text-anchor="middle" x="425.5" y="-594" font-family="Times,serif" font-size="25.00">&#39;[x]&#39;</text>
</g>
<!-- ESCAPE_X1&#45;&gt;ERR -->
<g id="edge33" class="edge"><title>ESCAPE_X1&#45;&gt;ERR</title>
<path fill="none" stroke="black" d="M424.295,-448.404C421.287,-392.035 420.864,-294.887 445,-216 452.313,-192.099 464.487,-167.976 477.245,-146.689"/>
<polygon fill="black" stroke="black" points="480.294,-148.414 482.541,-138.06 474.327,-144.752 480.294,-148.414"/>
<text text-anchor="middle" x="479" y="-281.8" font-family="Times,serif" font-size="24.00">&#39;ELSE&#39;</text>
</g>
<!-- ESCAPE_X2 -->
<g id="node39" class="node"><title>ESCAPE_X2</title>
<ellipse fill="none" stroke="black" cx="602" cy="-288" rx="47.2323" ry="47.4763"/>
<text text-anchor="middle" x="602" y="-284.3" font-family="Times,serif" font-size="14.00">ESCAPE_X2</text>
</g>
<!-- ESCAPE_X1&#45;&gt;ESCAPE_X2 -->
<g id="edge32" class="edge"><title>ESCAPE_X1&#45;&gt;ESCAPE_X2</title>
<path fill="none" stroke="black" d="M458.308,-459.118C488.033,-423.926 533.397,-370.22 565.182,-332.59"/>
<polygon fill="black" stroke="black" points="567.968,-334.714 571.747,-324.816 562.621,-330.197 567.968,-334.714"/>
<text text-anchor="middle" x="557" y="-385.8" font-family="Times,serif" font-size="24.00">&#39;[A&#45;z]&#39;</text>
</g>
<!-- ESCAPE_X2&#45;&gt;ERR -->
<g id="edge35" class="edge"><title>ESCAPE_X2&#45;&gt;ERR</title>
<path fill="none" stroke="black" d="M586.278,-242.977C577.44,-218.232 566.133,-186.573 555.769,-157.552"/>
<polygon fill="black" stroke="black" points="558.954,-156.066 552.295,-147.825 552.362,-158.42 558.954,-156.066"/>
<text text-anchor="middle" x="603" y="-177.8" font-family="Times,serif" font-size="24.00">&#39;ELSE&#39;</text>
</g>
<!-- ESCAPE_X2&#45;&gt;S_STRING -->
<g id="edge34" class="edge"><title>ESCAPE_X2&#45;&gt;S_STRING</title>
<path fill="none" stroke="black" d="M605.437,-335.516C607.188,-361.527 609.128,-394.547 610,-424 611.894,-487.972 620.252,-504.826 610,-568 608.649,-576.324 605.767,-577.754 604,-586 580.787,-694.321 612.254,-728.328 579,-834 575.445,-845.296 570.113,-856.795 564.403,-867.343"/>
<polygon fill="black" stroke="black" points="561.192,-865.911 559.322,-876.339 567.287,-869.353 561.192,-865.911"/>
<text text-anchor="middle" x="635" y="-593.8" font-family="Times,serif" font-size="24.00">&#39;[A&#45;z]&#39;</text>
</g>
<!-- EQ_OR_ASIGNMENT&#45;&gt;ASIGNMENT_SMBL -->
<g id="edge38" class="edge"><title>EQ_OR_ASIGNMENT&#45;&gt;ASIGNMENT_SMBL</title>
<path fill="none" stroke="black" d="M1880.6,-1559.77C1858.82,-1517.81 1830.78,-1463.77 1807.77,-1419.42"/>
<polygon fill="black" stroke="black" points="1810.8,-1417.66 1803.09,-1410.4 1804.59,-1420.89 1810.8,-1417.66"/>
<text text-anchor="middle" x="1879" y="-1473.8" font-family="Times,serif" font-size="24.00">&#39;ELSE&#39;</text>
</g>
<!-- EQ_OR_ASIGNMENT&#45;&gt;EQUAL_SMBL -->
<g id="edge39" class="edge"><title>EQ_OR_ASIGNMENT&#45;&gt;EQUAL_SMBL</title>
<path fill="none" stroke="black" d="M1919.7,-1551.16C1921.8,-1507.36 1924.43,-1452.78 1926.5,-1409.68"/>
<polygon fill="black" stroke="black" points="1930.01,-1409.71 1926.99,-1399.55 1923.01,-1409.37 1930.01,-1409.71"/>
<text text-anchor="middle" x="1943" y="-1474" font-family="Times,serif" font-size="25.00">&#39;[=]&#39;</text>
</g>
<!-- S_NUMBER&#45;&gt;END_NUMBER -->
<g id="edge55" class="edge"><title>S_NUMBER&#45;&gt;END_NUMBER</title>
<path fill="none" stroke="black" d="M919.447,-1063.33C930.46,-1050.04 942.05,-1034.1 950,-1018 960.4,-996.936 992.069,-867.408 1012.01,-783.466"/>
<polygon fill="black" stroke="black" points="1015.42,-784.257 1014.32,-773.72 1008.61,-782.642 1015.42,-784.257"/>
<text text-anchor="middle" x="1038.5" y="-905.8" font-family="Times,serif" font-size="24.00">&#39;Σ&#45;[\.eE]&#39;</text>
</g>
<!-- S_NUMBER&#45;&gt;S_NUMBER -->
<g id="edge54" class="edge"><title>S_NUMBER&#45;&gt;S_NUMBER</title>
<path fill="none" stroke="black" d="M931.373,-1115.49C943.088,-1114.57 952,-1108.74 952,-1098 952,-1090.62 947.788,-1085.55 941.348,-1082.81"/>
<polygon fill="black" stroke="black" points="941.904,-1079.34 931.373,-1080.51 940.329,-1086.17 941.904,-1079.34"/>
<text text-anchor="middle" x="981" y="-1091.8" font-family="Times,serif" font-size="24.00">&#39;[0&#45;9]&#39;</text>
</g>
<!-- EXPONENT -->
<g id="node42" class="node"><title>EXPONENT</title>
<ellipse fill="none" stroke="black" cx="826" cy="-496" rx="46.1497" ry="46.3658"/>
<text text-anchor="middle" x="826" y="-492.3" font-family="Times,serif" font-size="14.00">EXPONENT</text>
</g>
<!-- S_NUMBER&#45;&gt;EXPONENT -->
<g id="edge56" class="edge"><title>S_NUMBER&#45;&gt;EXPONENT</title>
<path fill="none" stroke="black" d="M900.726,-1052.54C922.649,-968.359 961.056,-780.811 916,-632 905.541,-597.456 883.005,-563.672 863.102,-538.54"/>
<polygon fill="black" stroke="black" points="865.763,-536.265 856.751,-530.695 860.323,-540.67 865.763,-536.265"/>
<text text-anchor="middle" x="962" y="-813.8" font-family="Times,serif" font-size="24.00">&#39;[eE]&#39;</text>
</g>
<!-- D_NUMBER -->
<g id="node43" class="node"><title>D_NUMBER</title>
<ellipse fill="none" stroke="black" cx="770" cy="-912" rx="48.3149" ry="48.5869"/>
<text text-anchor="middle" x="770" y="-908.3" font-family="Times,serif" font-size="14.00">D_NUMBER</text>
</g>
<!-- S_NUMBER&#45;&gt;D_NUMBER -->
<g id="edge57" class="edge"><title>S_NUMBER&#45;&gt;D_NUMBER</title>
<path fill="none" stroke="black" d="M862.975,-1057.98C844.996,-1029.94 820.631,-991.949 801.353,-961.89"/>
<polygon fill="black" stroke="black" points="804.149,-959.766 795.804,-953.237 798.257,-963.545 804.149,-959.766"/>
<text text-anchor="middle" x="856.5" y="-998" font-family="Times,serif" font-size="25.00">&#39;[\.]&#39;</text>
</g>
<!-- EXPONENT&#45;&gt;ERR -->
<g id="edge64" class="edge"><title>EXPONENT&#45;&gt;ERR</title>
<path fill="none" stroke="black" d="M796.084,-460.378C775.141,-434.392 748.123,-397.056 732,-360 697.535,-280.785 742.156,-239.613 691,-170 670.273,-141.794 638.245,-120.925 607.975,-106.185"/>
<polygon fill="black" stroke="black" points="609.191,-102.889 598.652,-101.806 606.215,-109.225 609.191,-102.889"/>
<text text-anchor="middle" x="766" y="-281.8" font-family="Times,serif" font-size="24.00">&#39;ELSE&#39;</text>
</g>
<!-- FEX_NUMBER -->
<g id="node45" class="node"><title>FEX_NUMBER</title>
<ellipse fill="none" stroke="black" cx="865" cy="-288" rx="56.1874" ry="56.4163"/>
<text text-anchor="middle" x="865" y="-284.3" font-family="Times,serif" font-size="14.00">FEX_NUMBER</text>
</g>
<!-- EXPONENT&#45;&gt;FEX_NUMBER -->
<g id="edge63" class="edge"><title>EXPONENT&#45;&gt;FEX_NUMBER</title>
<path fill="none" stroke="black" d="M834.462,-450.301C839.819,-422.005 846.833,-384.957 852.788,-353.503"/>
<polygon fill="black" stroke="black" points="856.26,-353.982 854.681,-343.505 849.382,-352.68 856.26,-353.982"/>
<text text-anchor="middle" x="891.5" y="-385.8" font-family="Times,serif" font-size="24.00">&#39;[\+&#45;0&#45;9]&#39;</text>
</g>
<!-- D_NUMBER&#45;&gt;ERR -->
<g id="edge59" class="edge"><title>D_NUMBER&#45;&gt;ERR</title>
<path fill="none" stroke="black" d="M741.62,-872.402C726.141,-849.164 708.288,-818.291 699,-788 624.28,-544.324 711.823,-465.127 658,-216 653.397,-194.696 653.669,-187.736 641,-170 629.243,-153.54 613.85,-138.363 598.196,-125.252"/>
<polygon fill="black" stroke="black" points="599.97,-122.183 590.004,-118.588 595.553,-127.613 599.97,-122.183"/>
<text text-anchor="middle" x="710" y="-489.8" font-family="Times,serif" font-size="24.00">&#39;ELSE&#39;</text>
</g>
<!-- FRAC_NUMBER -->
<g id="node44" class="node"><title>FRAC_NUMBER</title>
<ellipse fill="none" stroke="black" cx="770" cy="-710" rx="61.6014" ry="61.9701"/>
<text text-anchor="middle" x="770" y="-706.3" font-family="Times,serif" font-size="14.00">FRAC_NUMBER</text>
</g>
<!-- D_NUMBER&#45;&gt;FRAC_NUMBER -->
<g id="edge58" class="edge"><title>D_NUMBER&#45;&gt;FRAC_NUMBER</title>
<path fill="none" stroke="black" d="M770,-863.349C770,-839.068 770,-809.053 770,-782.102"/>
<polygon fill="black" stroke="black" points="773.5,-781.941 770,-771.941 766.5,-781.941 773.5,-781.941"/>
<text text-anchor="middle" x="799" y="-813.8" font-family="Times,serif" font-size="24.00">&#39;[0&#45;9]&#39;</text>
</g>
<!-- FRAC_NUMBER&#45;&gt;END_DOUBLE -->
<g id="edge61" class="edge"><title>FRAC_NUMBER&#45;&gt;END_DOUBLE</title>
<path fill="none" stroke="black" d="M813.414,-666.034C871.783,-604.648 972.148,-485.338 1006,-360 1022.69,-298.214 1023.98,-277.423 1006,-216 997.323,-186.357 980.174,-157.033 963.226,-133.015"/>
<polygon fill="black" stroke="black" points="965.948,-130.806 957.254,-124.75 960.274,-134.905 965.948,-130.806"/>
<text text-anchor="middle" x="1052" y="-385.8" font-family="Times,serif" font-size="24.00">&#39;Σ&#45;[0&#45;9eE]&#39;</text>
</g>
<!-- FRAC_NUMBER&#45;&gt;EXPONENT -->
<g id="edge62" class="edge"><title>FRAC_NUMBER&#45;&gt;EXPONENT</title>
<path fill="none" stroke="black" d="M785.525,-650.228C793.726,-619.181 803.721,-581.34 811.728,-551.031"/>
<polygon fill="black" stroke="black" points="815.191,-551.625 814.361,-541.062 808.423,-549.837 815.191,-551.625"/>
<text text-anchor="middle" x="828" y="-593.8" font-family="Times,serif" font-size="24.00">&#39;[eE]&#39;</text>
</g>
<!-- FRAC_NUMBER&#45;&gt;FRAC_NUMBER -->
<g id="edge60" class="edge"><title>FRAC_NUMBER&#45;&gt;FRAC_NUMBER</title>
<path fill="none" stroke="black" d="M828.221,-729.9C840.308,-727.805 849,-721.172 849,-710 849,-702.145 844.703,-696.533 837.95,-693.166"/>
<polygon fill="black" stroke="black" points="838.81,-689.767 828.221,-690.1 836.706,-696.444 838.81,-689.767"/>
<text text-anchor="middle" x="878" y="-703.8" font-family="Times,serif" font-size="24.00">&#39;[0&#45;9]&#39;</text>
</g>
<!-- FEX_NUMBER&#45;&gt;ERR -->
<g id="edge67" class="edge"><title>FEX_NUMBER&#45;&gt;ERR</title>
<path fill="none" stroke="black" d="M826.584,-246.328C816.541,-236.174 805.563,-225.481 795,-216 770.516,-194.022 765.156,-187.02 737,-170 696.248,-145.366 647.816,-123.476 607.738,-107.132"/>
<polygon fill="black" stroke="black" points="608.852,-103.807 598.269,-103.309 606.232,-110.298 608.852,-103.807"/>
<text text-anchor="middle" x="810" y="-177.8" font-family="Times,serif" font-size="24.00">&#39;ELSE&#39;</text>
</g>
<!-- FEX_NUMBER&#45;&gt;END_DOUBLE -->
<g id="edge66" class="edge"><title>FEX_NUMBER&#45;&gt;END_DOUBLE</title>
<path fill="none" stroke="black" d="M878.391,-232.92C884.852,-206.83 892.683,-175.205 899.599,-147.275"/>
<polygon fill="black" stroke="black" points="902.997,-148.113 902.003,-137.565 896.202,-146.43 902.997,-148.113"/>
<text text-anchor="middle" x="926" y="-177.8" font-family="Times,serif" font-size="24.00">&#39;ELSE&#39;</text>
</g>
<!-- FEX_NUMBER&#45;&gt;FEX_NUMBER -->
<g id="edge65" class="edge"><title>FEX_NUMBER&#45;&gt;FEX_NUMBER</title>
<path fill="none" stroke="black" d="M918.215,-307.024C930.22,-305.31 939,-298.969 939,-288 939,-280.288 934.659,-274.863 927.909,-271.726"/>
<polygon fill="black" stroke="black" points="928.791,-268.338 918.215,-268.976 926.881,-275.072 928.791,-268.338"/>
<text text-anchor="middle" x="968" y="-281.8" font-family="Times,serif" font-size="24.00">&#39;[0&#45;9]&#39;</text>
</g>
</g>
</svg>
