<?xml version="1.0" encoding="UTF-8" standalone="no"?>
<!DOCTYPE svg PUBLIC "-//W3C//DTD SVG 1.1//EN"
 "http://www.w3.org/Graphics/SVG/1.1/DTD/svg11.dtd">
<!-- Generated by graphviz version 2.36.0 (20140111.2315)
 -->
<!-- Title: finite_state_machine Pages: 1 -->
<svg width="526pt" height="479pt"
 viewBox="0.00 0.00 526.00 478.95" xmlns="http://www.w3.org/2000/svg" xmlns:xlink="http://www.w3.org/1999/xlink">
<g id="graph0" class="graph" transform="scale(0.262869 0.262869) rotate(0) translate(4 1818)">
<title>finite_state_machine</title>
<polygon fill="white" stroke="none" points="-4,4 -4,-1818 1997,-1818 1997,4 -4,4"/>
<!-- qi -->
<g id="node1" class="node"><title>qi</title>
<ellipse fill="black" stroke="black" cx="479" cy="-1404" rx="1.8" ry="1.8"/>
</g>
<!-- S_START -->
<g id="node2" class="node"><title>S_START</title>
<ellipse fill="none" stroke="blue" cx="1102" cy="-1404" rx="107.518" ry="108"/>
<ellipse fill="none" stroke="blue" cx="1102" cy="-1404" rx="111.5" ry="112"/>
<text text-anchor="middle" x="1102" y="-1398.1" font-family="Times,serif" font-size="23.00">S_START</text>
</g>
<!-- qi&#45;&gt;S_START -->
<g id="edge68" class="edge"><title>qi&#45;&gt;S_START</title>
<path fill="none" stroke="black" d="M480.825,-1404C647.194,-1404 813.564,-1404 979.933,-1404"/>
<polygon fill="black" stroke="black" points="980.383,-1407.5 990.383,-1404 980.383,-1400.5 980.383,-1407.5"/>
</g>
<!-- S_START&#45;&gt;S_START -->
<g id="edge1" class="edge"><title>S_START&#45;&gt;S_START</title>
<path fill="none" stroke="black" d="M1211.64,-1426.54C1223.42,-1422.2 1231,-1414.69 1231,-1404 1231,-1396.49 1227.25,-1390.54 1220.93,-1386.16"/>
<polygon fill="black" stroke="black" points="1222.14,-1382.85 1211.64,-1381.46 1218.98,-1389.1 1222.14,-1382.85"/>
<text text-anchor="middle" x="1266.5" y="-1397.8" font-family="Times,serif" font-size="24.00">&#39;[\ \n\t]&#39;</text>
</g>
<!-- ERR -->
<g id="node3" class="node"><title>ERR</title>
<ellipse fill="none" stroke="red" cx="574" cy="-76" rx="72" ry="72"/>
<ellipse fill="none" stroke="red" cx="574" cy="-76" rx="76" ry="76"/>
<text text-anchor="middle" x="574" y="-69.7" font-family="Times,serif" font-size="26.00">ERR</text>
</g>
<!-- S_START&#45;&gt;ERR -->
<g id="edge40" class="edge"><title>S_START&#45;&gt;ERR</title>
<path fill="none" stroke="black" d="M992.496,-1382.06C717.006,-1329.01 17,-1191.77 17,-1167 17,-1167 17,-1167 17,-287 17,-187.391 332.823,-118.722 488.84,-90.8757"/>
<polygon fill="black" stroke="black" points="489.643,-94.2882 498.881,-89.1006 488.424,-87.395 489.643,-94.2882"/>
<text text-anchor="middle" x="51" y="-771.8" font-family="Times,serif" font-size="24.00">&#39;ELSE&#39;</text>
</g>
<!-- SEMICOLON_SMBL -->
<g id="node4" class="node"><title>SEMICOLON_SMBL</title>
<ellipse fill="none" stroke="green" cx="1533" cy="-1697" rx="78.3884" ry="78.8198"/>
<ellipse fill="none" stroke="green" cx="1533" cy="-1697" rx="82.3621" ry="82.8154"/>
<text text-anchor="middle" x="1533" y="-1693.5" font-family="Times,serif" font-size="15.00">SEMICOLON_SMBL</text>
</g>
<!-- S_START&#45;&gt;SEMICOLON_SMBL -->
<g id="edge52" class="edge"><title>S_START&#45;&gt;SEMICOLON_SMBL</title>
<path fill="none" stroke="black" d="M1205.92,-1444.93C1276.74,-1475.28 1370.16,-1521.72 1441,-1580 1455.15,-1591.64 1468.56,-1605.8 1480.53,-1620.16"/>
<polygon fill="black" stroke="black" points="1478.01,-1622.6 1487.04,-1628.15 1483.44,-1618.19 1478.01,-1622.6"/>
<text text-anchor="middle" x="1432.5" y="-1542" font-family="Times,serif" font-size="25.00">&#39;[;]&#39;</text>
</g>
<!-- LEFT_COLUMN_SMBL -->
<g id="node5" class="node"><title>LEFT_COLUMN_SMBL</title>
<ellipse fill="none" stroke="green" cx="1727" cy="-1697" rx="89.0527" ry="89.2242"/>
<ellipse fill="none" stroke="green" cx="1727" cy="-1697" rx="93.0389" ry="93.2182"/>
<text text-anchor="middle" x="1727" y="-1693.5" font-family="Times,serif" font-size="15.00">LEFT_COLUMN_SMBL</text>
</g>
<!-- S_START&#45;&gt;LEFT_COLUMN_SMBL -->
<g id="edge49" class="edge"><title>S_START&#45;&gt;LEFT_COLUMN_SMBL</title>
<path fill="none" stroke="black" d="M1211.78,-1424.46C1322.8,-1447.95 1495.82,-1495.27 1624,-1580 1638.37,-1589.5 1651.98,-1601.49 1664.33,-1614.13"/>
<polygon fill="black" stroke="black" points="1662.03,-1616.79 1671.45,-1621.64 1667.11,-1611.98 1662.03,-1616.79"/>
<text text-anchor="middle" x="1603" y="-1542" font-family="Times,serif" font-size="25.00">&#39;[(]&#39;</text>
</g>
<!-- RIGHT_COLUMN_SMBL -->
<g id="node6" class="node"><title>RIGHT_COLUMN_SMBL</title>
<ellipse fill="none" stroke="green" cx="98" cy="-1697" rx="94.3852" ry="94.6659"/>
<ellipse fill="none" stroke="green" cx="98" cy="-1697" rx="98.3768" ry="98.6694"/>
<text text-anchor="middle" x="98" y="-1693.5" font-family="Times,serif" font-size="15.00">RIGHT_COLUMN_SMBL</text>
</g>
<!-- S_START&#45;&gt;RIGHT_COLUMN_SMBL -->
<g id="edge48" class="edge"><title>S_START&#45;&gt;RIGHT_COLUMN_SMBL</title>
<path fill="none" stroke="black" d="M992.339,-1424.55C760.801,-1466.09 240.401,-1560.89 206,-1580 191.22,-1588.21 177.314,-1599.16 164.713,-1611.06"/>
<polygon fill="black" stroke="black" points="162.15,-1608.67 157.448,-1618.17 167.045,-1613.68 162.15,-1608.67"/>
<text text-anchor="middle" x="414" y="-1542" font-family="Times,serif" font-size="25.00">&#39;[)]&#39;</text>
</g>
<!-- LEFT_VIN_COLUMN_SMBL -->
<g id="node7" class="node"><title>LEFT_VIN_COLUMN_SMBL</title>
<ellipse fill="none" stroke="green" cx="326" cy="-1697" rx="107.187" ry="107.248"/>
<ellipse fill="none" stroke="green" cx="326" cy="-1697" rx="111.189" ry="111.253"/>
<text text-anchor="middle" x="326" y="-1693.5" font-family="Times,serif" font-size="15.00">LEFT_VIN_COLUMN_SMBL</text>
</g>
<!-- S_START&#45;&gt;LEFT_VIN_COLUMN_SMBL -->
<g id="edge45" class="edge"><title>S_START&#45;&gt;LEFT_VIN_COLUMN_SMBL</title>
<path fill="none" stroke="black" d="M991.094,-1417.26C855.211,-1436.04 621.459,-1480.8 446,-1580 432.654,-1587.55 419.699,-1596.93 407.543,-1607.06"/>
<polygon fill="black" stroke="black" points="404.98,-1604.65 399.674,-1613.82 409.541,-1609.96 404.98,-1604.65"/>
<text text-anchor="middle" x="548" y="-1542" font-family="Times,serif" font-size="25.00">&#39;[{]&#39;</text>
</g>
<!-- RIGHT_VIN_COLUMN_SMBL -->
<g id="node8" class="node"><title>RIGHT_VIN_COLUMN_SMBL</title>
<ellipse fill="none" stroke="green" cx="571" cy="-1697" rx="112.039" ry="112.209"/>
<ellipse fill="none" stroke="green" cx="571" cy="-1697" rx="116.028" ry="116.204"/>
<text text-anchor="middle" x="571" y="-1693.5" font-family="Times,serif" font-size="15.00">RIGHT_VIN_COLUMN_SMBL</text>
</g>
<!-- S_START&#45;&gt;RIGHT_VIN_COLUMN_SMBL -->
<g id="edge46" class="edge"><title>S_START&#45;&gt;RIGHT_VIN_COLUMN_SMBL</title>
<path fill="none" stroke="black" d="M996.145,-1439.35C911.184,-1469.51 790.853,-1518.19 696,-1580 683.807,-1587.95 671.688,-1597.12 660.063,-1606.75"/>
<polygon fill="black" stroke="black" points="657.476,-1604.35 652.1,-1613.48 661.996,-1609.7 657.476,-1604.35"/>
<text text-anchor="middle" x="788" y="-1542" font-family="Times,serif" font-size="25.00">&#39;[}]&#39;</text>
</g>
<!-- COMMA_SMBL -->
<g id="node9" class="node"><title>COMMA_SMBL</title>
<ellipse fill="none" stroke="green" cx="773" cy="-1697" rx="63.1687" ry="63.5218"/>
<ellipse fill="none" stroke="green" cx="773" cy="-1697" rx="67.132" ry="67.5073"/>
<text text-anchor="middle" x="773" y="-1693.5" font-family="Times,serif" font-size="15.00">COMMA_SMBL</text>
</g>
<!-- S_START&#45;&gt;COMMA_SMBL -->
<g id="edge41" class="edge"><title>S_START&#45;&gt;COMMA_SMBL</title>
<path fill="none" stroke="black" d="M1005.13,-1460.1C955.316,-1491.31 895.652,-1533.38 850,-1580 835.814,-1594.49 822.658,-1611.93 811.38,-1628.84"/>
<polygon fill="black" stroke="black" points="808.188,-1627.33 805.658,-1637.62 814.051,-1631.16 808.188,-1627.33"/>
<text text-anchor="middle" x="916" y="-1542" font-family="Times,serif" font-size="25.00">&#39;[,]&#39;</text>
</g>
<!-- PLUS_SMBL -->
<g id="node10" class="node"><title>PLUS_SMBL</title>
<ellipse fill="none" stroke="green" cx="916" cy="-1697" rx="52.2141" ry="52.5749"/>
<ellipse fill="none" stroke="green" cx="916" cy="-1697" rx="56.1713" ry="56.5594"/>
<text text-anchor="middle" x="916" y="-1693.5" font-family="Times,serif" font-size="15.00">PLUS_SMBL</text>
</g>
<!-- S_START&#45;&gt;PLUS_SMBL -->
<g id="edge43" class="edge"><title>S_START&#45;&gt;PLUS_SMBL</title>
<path fill="none" stroke="black" d="M1037.63,-1495.77C1019.2,-1522.59 999.393,-1552.21 982,-1580 970.328,-1598.65 958.233,-1619.43 947.636,-1638.18"/>
<polygon fill="black" stroke="black" points="944.571,-1636.5 942.722,-1646.93 950.673,-1639.93 944.571,-1636.5"/>
<text text-anchor="middle" x="1030" y="-1542" font-family="Times,serif" font-size="25.00">&#39;[+]&#39;</text>
</g>
<!-- MINUS_SMBL -->
<g id="node11" class="node"><title>MINUS_SMBL</title>
<ellipse fill="none" stroke="green" cx="1054" cy="-1697" rx="59.0736" ry="59.097"/>
<ellipse fill="none" stroke="green" cx="1054" cy="-1697" rx="63.0751" ry="63.1002"/>
<text text-anchor="middle" x="1054" y="-1693.5" font-family="Times,serif" font-size="15.00">MINUS_SMBL</text>
</g>
<!-- S_START&#45;&gt;MINUS_SMBL -->
<g id="edge44" class="edge"><title>S_START&#45;&gt;MINUS_SMBL</title>
<path fill="none" stroke="black" d="M1083.9,-1514.76C1077.83,-1551.54 1071.23,-1591.56 1065.77,-1624.62"/>
<polygon fill="black" stroke="black" points="1062.3,-1624.21 1064.12,-1634.64 1069.2,-1625.34 1062.3,-1624.21"/>
<text text-anchor="middle" x="1096" y="-1542" font-family="Times,serif" font-size="25.00">&#39;[&#45;]&#39;</text>
</g>
<!-- MULTIPLY_SMBL -->
<g id="node12" class="node"><title>MULTIPLY_SMBL</title>
<ellipse fill="none" stroke="green" cx="1212" cy="-1697" rx="73.2351" ry="73.3108"/>
<ellipse fill="none" stroke="green" cx="1212" cy="-1697" rx="77.2393" ry="77.3191"/>
<text text-anchor="middle" x="1212" y="-1693.5" font-family="Times,serif" font-size="15.00">MULTIPLY_SMBL</text>
</g>
<!-- S_START&#45;&gt;MULTIPLY_SMBL -->
<g id="edge51" class="edge"><title>S_START&#45;&gt;MULTIPLY_SMBL</title>
<path fill="none" stroke="black" d="M1141.32,-1509.03C1154.48,-1543.84 1168.95,-1582.1 1181.34,-1614.9"/>
<polygon fill="black" stroke="black" points="1178.14,-1616.32 1184.95,-1624.44 1184.69,-1613.85 1178.14,-1616.32"/>
<text text-anchor="middle" x="1179.5" y="-1542" font-family="Times,serif" font-size="25.00">&#39;[*]&#39;</text>
</g>
<!-- END_OF_FILE -->
<g id="node15" class="node"><title>END_OF_FILE</title>
<ellipse fill="none" stroke="green" cx="1370" cy="-1697" rx="58.3063" ry="58.5533"/>
<ellipse fill="none" stroke="green" cx="1370" cy="-1697" rx="62.2912" ry="62.555"/>
<text text-anchor="middle" x="1370" y="-1693.5" font-family="Times,serif" font-size="15.00">END_OF_FILE</text>
</g>
<!-- S_START&#45;&gt;END_OF_FILE -->
<g id="edge42" class="edge"><title>S_START&#45;&gt;END_OF_FILE</title>
<path fill="none" stroke="black" d="M1189.53,-1473.76C1225.37,-1504.21 1265.87,-1541.75 1298,-1580 1311.56,-1596.14 1324.39,-1615.07 1335.36,-1632.9"/>
<polygon fill="black" stroke="black" points="1332.42,-1634.8 1340.59,-1641.55 1338.41,-1631.18 1332.42,-1634.8"/>
<text text-anchor="middle" x="1306.5" y="-1541.8" font-family="Times,serif" font-size="24.00">&#39;EOF&#39;</text>
</g>
<!-- NOT -->
<g id="node23" class="node"><title>NOT</title>
<ellipse fill="none" stroke="green" cx="1102" cy="-1166" rx="43" ry="43"/>
<ellipse fill="none" stroke="green" cx="1102" cy="-1166" rx="47" ry="47"/>
<text text-anchor="middle" x="1102" y="-1162.5" font-family="Times,serif" font-size="15.00">NOT</text>
</g>
<!-- S_START&#45;&gt;NOT -->
<g id="edge2" class="edge"><title>S_START&#45;&gt;NOT</title>
<path fill="none" stroke="black" d="M1102,-1291.91C1102,-1268.08 1102,-1243.87 1102,-1223.19"/>
<polygon fill="black" stroke="black" points="1105.5,-1223.03 1102,-1213.03 1098.5,-1223.03 1105.5,-1223.03"/>
<text text-anchor="middle" x="1119" y="-1254" font-family="Times,serif" font-size="25.00">&#39;[!]&#39;</text>
</g>
<!-- R_ARROW -->
<g id="node29" class="node"><title>R_ARROW</title>
<ellipse fill="none" stroke="black" cx="1263" cy="-288" rx="43.1947" ry="43.5902"/>
<text text-anchor="middle" x="1263" y="-284.3" font-family="Times,serif" font-size="14.00">R_ARROW</text>
</g>
<!-- S_START&#45;&gt;R_ARROW -->
<g id="edge5" class="edge"><title>S_START&#45;&gt;R_ARROW</title>
<path fill="none" stroke="black" d="M1185.33,-1329.56C1224.61,-1286.72 1263,-1229 1263,-1167 1263,-1167 1263,-1167 1263,-563 1263,-486.358 1263,-397.657 1263,-342.433"/>
<polygon fill="black" stroke="black" points="1266.5,-342.185 1263,-332.185 1259.5,-342.185 1266.5,-342.185"/>
<text text-anchor="middle" x="1283" y="-882" font-family="Times,serif" font-size="25.00">&#39;[&gt;]&#39;</text>
</g>
<!-- L_ARROW -->
<g id="node30" class="node"><title>L_ARROW</title>
<ellipse fill="none" stroke="black" cx="1449" cy="-564" rx="43.1947" ry="43.5902"/>
<text text-anchor="middle" x="1449" y="-560.3" font-family="Times,serif" font-size="14.00">L_ARROW</text>
</g>
<!-- S_START&#45;&gt;L_ARROW -->
<g id="edge9" class="edge"><title>S_START&#45;&gt;L_ARROW</title>
<path fill="none" stroke="black" d="M1200.53,-1351.09C1229.7,-1330.89 1258.7,-1305.06 1277,-1274 1357.53,-1137.3 1286.04,-1074.29 1323,-920 1349.9,-807.705 1399.63,-681.438 1427.91,-613.891"/>
<polygon fill="black" stroke="black" points="1431.26,-614.935 1431.92,-604.36 1424.81,-612.22 1431.26,-614.935"/>
<text text-anchor="middle" x="1343" y="-974" font-family="Times,serif" font-size="25.00">&#39;[&lt;]&#39;</text>
</g>
<!-- KW_OR_ID -->
<g id="node31" class="node"><title>KW_OR_ID</title>
<ellipse fill="none" stroke="black" cx="148" cy="-778" rx="45.0672" ry="45.2554"/>
<text text-anchor="middle" x="148" y="-774.3" font-family="Times,serif" font-size="14.00">KW_OR_ID</text>
</g>
<!-- S_START&#45;&gt;KW_OR_ID -->
<g id="edge13" class="edge"><title>S_START&#45;&gt;KW_OR_ID</title>
<path fill="none" stroke="black" d="M995.039,-1371.78C902.875,-1342.29 768.291,-1292.92 662,-1228 462.248,-1106 264.722,-904.938 184.922,-819.466"/>
<polygon fill="black" stroke="black" points="187.396,-816.987 178.022,-812.049 182.27,-821.754 187.396,-816.987"/>
<text text-anchor="middle" x="502" y="-1065.8" font-family="Times,serif" font-size="24.00">&#39;[A&#45;z_]&#39;</text>
</g>
<!-- DIV_OR_COMM -->
<g id="node32" class="node"><title>DIV_OR_COMM</title>
<ellipse fill="none" stroke="black" cx="1601" cy="-1166" rx="61.6014" ry="61.9701"/>
<text text-anchor="middle" x="1601" y="-1162.3" font-family="Times,serif" font-size="14.00">DIV_OR_COMM</text>
</g>
<!-- S_START&#45;&gt;DIV_OR_COMM -->
<g id="edge50" class="edge"><title>S_START&#45;&gt;DIV_OR_COMM</title>
<path fill="none" stroke="black" d="M1209.65,-1374.3C1283.49,-1352.3 1382.31,-1318.22 1463,-1274 1492.99,-1257.57 1523.34,-1234.84 1547.91,-1214.56"/>
<polygon fill="black" stroke="black" points="1550.25,-1217.17 1555.68,-1208.07 1545.76,-1211.8 1550.25,-1217.17"/>
<text text-anchor="middle" x="1519.5" y="-1254" font-family="Times,serif" font-size="25.00">&#39;[/]&#39;</text>
</g>
<!-- S_STRING -->
<g id="node36" class="node"><title>S_STRING</title>
<ellipse fill="none" stroke="black" cx="525" cy="-980" rx="42.3181" ry="42.4244"/>
<text text-anchor="middle" x="525" y="-976.3" font-family="Times,serif" font-size="14.00">S_STRING</text>
</g>
<!-- S_START&#45;&gt;S_STRING -->
<g id="edge47" class="edge"><title>S_START&#45;&gt;S_STRING</title>
<path fill="none" stroke="black" d="M1005.56,-1347.45C950.307,-1314.52 880.373,-1270.95 821,-1228 724.144,-1157.94 618.362,-1065.42 563.251,-1015.87"/>
<polygon fill="black" stroke="black" points="565.589,-1013.27 555.817,-1009.17 560.903,-1018.47 565.589,-1013.27"/>
<text text-anchor="middle" x="839.5" y="-1160" font-family="Times,serif" font-size="25.00">&#39;[&quot;]&#39;</text>
</g>
<!-- EQ_OR_ASIGNMENT -->
<g id="node40" class="node"><title>EQ_OR_ASIGNMENT</title>
<ellipse fill="none" stroke="black" cx="1916" cy="-1697" rx="77.3458" ry="77.628"/>
<text text-anchor="middle" x="1916" y="-1693.3" font-family="Times,serif" font-size="14.00">EQ_OR_ASIGNMENT</text>
</g>
<!-- S_START&#45;&gt;EQ_OR_ASIGNMENT -->
<g id="edge37" class="edge"><title>S_START&#45;&gt;EQ_OR_ASIGNMENT</title>
<path fill="none" stroke="black" d="M1211.4,-1427.06C1401.48,-1466.03 1777.45,-1546.09 1829,-1580 1845.3,-1590.72 1859.7,-1605.58 1871.86,-1621.09"/>
<polygon fill="black" stroke="black" points="1869.2,-1623.37 1878.02,-1629.24 1874.79,-1619.15 1869.2,-1623.37"/>
<text text-anchor="middle" x="1800" y="-1542" font-family="Times,serif" font-size="25.00">&#39;[=]&#39;</text>
</g>
<!-- S_NUMBER -->
<g id="node41" class="node"><title>S_NUMBER</title>
<ellipse fill="none" stroke="black" cx="914" cy="-1166" rx="46.4412" ry="46.921"/>
<text text-anchor="middle" x="914" y="-1162.3" font-family="Times,serif" font-size="14.00">S_NUMBER</text>
</g>
<!-- S_START&#45;&gt;S_NUMBER -->
<g id="edge53" class="edge"><title>S_START&#45;&gt;S_NUMBER</title>
<path fill="none" stroke="black" d="M1032.8,-1316.13C1004.37,-1280.45 972.694,-1240.68 949.201,-1211.19"/>
<polygon fill="black" stroke="black" points="951.77,-1208.8 942.801,-1203.15 946.295,-1213.16 951.77,-1208.8"/>
<text text-anchor="middle" x="1025" y="-1253.8" font-family="Times,serif" font-size="24.00">&#39;[0&#45;9]&#39;</text>
</g>
<!-- END_DOUBLE -->
<g id="node13" class="node"><title>END_DOUBLE</title>
<ellipse fill="none" stroke="green" cx="967" cy="-76" rx="59.0736" ry="59.097"/>
<ellipse fill="none" stroke="green" cx="967" cy="-76" rx="63.0751" ry="63.1002"/>
<text text-anchor="middle" x="967" y="-72.5" font-family="Times,serif" font-size="15.00">END_DOUBLE</text>
</g>
<!-- END_NUMBER -->
<g id="node14" class="node"><title>END_NUMBER</title>
<ellipse fill="none" stroke="green" cx="776" cy="-778" rx="61.2064" ry="61.2724"/>
<ellipse fill="none" stroke="green" cx="776" cy="-778" rx="65.2107" ry="65.281"/>
<text text-anchor="middle" x="776" y="-774.5" font-family="Times,serif" font-size="15.00">END_NUMBER</text>
</g>
<!-- END_KW_OR_ID -->
<g id="node16" class="node"><title>END_KW_OR_ID</title>
<ellipse fill="none" stroke="green" cx="148" cy="-564" rx="67.4307" ry="67.8712"/>
<ellipse fill="none" stroke="green" cx="148" cy="-564" rx="71.4011" ry="71.8675"/>
<text text-anchor="middle" x="148" y="-560.5" font-family="Times,serif" font-size="15.00">END_KW_OR_ID</text>
</g>
<!-- LESS_SMBL -->
<g id="node17" class="node"><title>LESS_SMBL</title>
<ellipse fill="none" stroke="green" cx="1543" cy="-288" rx="51.6102" ry="51.9524"/>
<ellipse fill="none" stroke="green" cx="1543" cy="-288" rx="55.6007" ry="55.9693"/>
<text text-anchor="middle" x="1543" y="-284.5" font-family="Times,serif" font-size="15.00">LESS_SMBL</text>
</g>
<!-- LESS_EQUAL -->
<g id="node18" class="node"><title>LESS_EQUAL</title>
<ellipse fill="none" stroke="green" cx="1677" cy="-288" rx="56.1748" ry="56.3787"/>
<ellipse fill="none" stroke="green" cx="1677" cy="-288" rx="60.1562" ry="60.3746"/>
<text text-anchor="middle" x="1677" y="-284.5" font-family="Times,serif" font-size="15.00">LESS_EQUAL</text>
</g>
<!-- DOUBLE_R_ARR -->
<g id="node19" class="node"><title>DOUBLE_R_ARR</title>
<ellipse fill="none" stroke="green" cx="1270" cy="-76" rx="68.1996" ry="68.415"/>
<ellipse fill="none" stroke="green" cx="1270" cy="-76" rx="72.1846" ry="72.4126"/>
<text text-anchor="middle" x="1270" y="-72.5" font-family="Times,serif" font-size="15.00">DOUBLE_R_ARR</text>
</g>
<!-- DOUBLE_L_ARR -->
<g id="node20" class="node"><title>DOUBLE_L_ARR</title>
<ellipse fill="none" stroke="green" cx="1397" cy="-288" rx="67.4307" ry="67.8712"/>
<ellipse fill="none" stroke="green" cx="1397" cy="-288" rx="71.4011" ry="71.8675"/>
<text text-anchor="middle" x="1397" y="-284.5" font-family="Times,serif" font-size="15.00">DOUBLE_L_ARR</text>
</g>
<!-- MORE_SMBL -->
<g id="node21" class="node"><title>MORE_SMBL</title>
<ellipse fill="none" stroke="green" cx="1420" cy="-76" rx="55.409" ry="55.8352"/>
<ellipse fill="none" stroke="green" cx="1420" cy="-76" rx="59.3728" ry="59.8295"/>
<text text-anchor="middle" x="1420" y="-72.5" font-family="Times,serif" font-size="15.00">MORE_SMBL</text>
</g>
<!-- MORE_EQUAL -->
<g id="node22" class="node"><title>MORE_EQUAL</title>
<ellipse fill="none" stroke="green" cx="1115" cy="-76" rx="60.4382" ry="60.7285"/>
<ellipse fill="none" stroke="green" cx="1115" cy="-76" rx="64.4263" ry="64.7358"/>
<text text-anchor="middle" x="1115" y="-72.5" font-family="Times,serif" font-size="15.00">MORE_EQUAL</text>
</g>
<!-- NOT&#45;&gt;NOT -->
<g id="edge4" class="edge"><title>NOT&#45;&gt;NOT</title>
<path fill="none" stroke="black" d="M1145.75,-1183.52C1157.79,-1182.67 1167,-1176.83 1167,-1166 1167,-1158.38 1162.45,-1153.24 1155.56,-1150.56"/>
<polygon fill="black" stroke="black" points="1156.25,-1147.13 1145.75,-1148.48 1154.81,-1153.97 1156.25,-1147.13"/>
<text text-anchor="middle" x="1201" y="-1159.8" font-family="Times,serif" font-size="24.00">&#39;ELSE&#39;</text>
</g>
<!-- NOT_EQUAL -->
<g id="node28" class="node"><title>NOT_EQUAL</title>
<ellipse fill="none" stroke="green" cx="1177" cy="-980" rx="54.0436" ry="54.2048"/>
<ellipse fill="none" stroke="green" cx="1177" cy="-980" rx="58.0213" ry="58.1944"/>
<text text-anchor="middle" x="1177" y="-976.5" font-family="Times,serif" font-size="15.00">NOT_EQUAL</text>
</g>
<!-- NOT&#45;&gt;NOT_EQUAL -->
<g id="edge3" class="edge"><title>NOT&#45;&gt;NOT_EQUAL</title>
<path fill="none" stroke="black" d="M1119.4,-1122.32C1128.91,-1098.97 1140.89,-1069.6 1151.45,-1043.68"/>
<polygon fill="black" stroke="black" points="1154.74,-1044.89 1155.27,-1034.31 1148.25,-1042.25 1154.74,-1044.89"/>
<text text-anchor="middle" x="1163" y="-1066" font-family="Times,serif" font-size="25.00">&#39;[=]&#39;</text>
</g>
<!-- E_STRING -->
<g id="node24" class="node"><title>E_STRING</title>
<ellipse fill="none" stroke="green" cx="384" cy="-778" rx="44.455" ry="44.8864"/>
<ellipse fill="none" stroke="green" cx="384" cy="-778" rx="48.4118" ry="48.8816"/>
<text text-anchor="middle" x="384" y="-774.5" font-family="Times,serif" font-size="15.00">E_STRING</text>
</g>
<!-- ASIGNMENT_SMBL -->
<g id="node25" class="node"><title>ASIGNMENT_SMBL</title>
<ellipse fill="none" stroke="green" cx="1765" cy="-1404" rx="79.1592" ry="79.3638"/>
<ellipse fill="none" stroke="green" cx="1765" cy="-1404" rx="83.1455" ry="83.3605"/>
<text text-anchor="middle" x="1765" y="-1400.5" font-family="Times,serif" font-size="15.00">ASIGNMENT_SMBL</text>
</g>
<!-- EQUAL_SMBL -->
<g id="node26" class="node"><title>EQUAL_SMBL</title>
<ellipse fill="none" stroke="green" cx="1930" cy="-1404" rx="59.3722" ry="59.6408"/>
<ellipse fill="none" stroke="green" cx="1930" cy="-1404" rx="63.3587" ry="63.6454"/>
<text text-anchor="middle" x="1930" y="-1400.5" font-family="Times,serif" font-size="15.00">EQUAL_SMBL</text>
</g>
<!-- DIVIDE_SMBL -->
<g id="node27" class="node"><title>DIVIDE_SMBL</title>
<ellipse fill="none" stroke="green" cx="1627" cy="-564" rx="60.4382" ry="60.7285"/>
<ellipse fill="none" stroke="green" cx="1627" cy="-564" rx="64.4263" ry="64.7358"/>
<text text-anchor="middle" x="1627" y="-560.5" font-family="Times,serif" font-size="15.00">DIVIDE_SMBL</text>
</g>
<!-- R_ARROW&#45;&gt;DOUBLE_R_ARR -->
<g id="edge8" class="edge"><title>R_ARROW&#45;&gt;DOUBLE_R_ARR</title>
<path fill="none" stroke="black" d="M1264.43,-243.997C1265.25,-219.416 1266.31,-187.772 1267.28,-158.652"/>
<polygon fill="black" stroke="black" points="1270.78,-158.584 1267.62,-148.473 1263.79,-158.351 1270.78,-158.584"/>
<text text-anchor="middle" x="1286" y="-178" font-family="Times,serif" font-size="25.00">&#39;[&gt;]&#39;</text>
</g>
<!-- R_ARROW&#45;&gt;MORE_SMBL -->
<g id="edge6" class="edge"><title>R_ARROW&#45;&gt;MORE_SMBL</title>
<path fill="none" stroke="black" d="M1288.87,-252.326C1297.5,-240.77 1307.16,-227.828 1316,-216 1336.59,-188.443 1359.5,-157.825 1378.56,-132.355"/>
<polygon fill="black" stroke="black" points="1381.42,-134.38 1384.61,-124.277 1375.81,-130.186 1381.42,-134.38"/>
<text text-anchor="middle" x="1384" y="-177.8" font-family="Times,serif" font-size="24.00">&#39;ELSE&#39;</text>
</g>
<!-- R_ARROW&#45;&gt;MORE_EQUAL -->
<g id="edge7" class="edge"><title>R_ARROW&#45;&gt;MORE_EQUAL</title>
<path fill="none" stroke="black" d="M1238.23,-251.851C1216.27,-220.696 1183.73,-174.527 1157.61,-137.454"/>
<polygon fill="black" stroke="black" points="1160.42,-135.366 1151.79,-129.208 1154.69,-139.399 1160.42,-135.366"/>
<text text-anchor="middle" x="1217" y="-178" font-family="Times,serif" font-size="25.00">&#39;[=]&#39;</text>
</g>
<!-- L_ARROW&#45;&gt;LESS_SMBL -->
<g id="edge10" class="edge"><title>L_ARROW&#45;&gt;LESS_SMBL</title>
<path fill="none" stroke="black" d="M1462.97,-522.275C1478.52,-476.945 1503.83,-403.178 1521.82,-350.741"/>
<polygon fill="black" stroke="black" points="1525.15,-351.804 1525.09,-341.209 1518.53,-349.532 1525.15,-351.804"/>
<text text-anchor="middle" x="1543" y="-419.8" font-family="Times,serif" font-size="24.00">&#39;ELSE&#39;</text>
</g>
<!-- L_ARROW&#45;&gt;LESS_EQUAL -->
<g id="edge11" class="edge"><title>L_ARROW&#45;&gt;LESS_EQUAL</title>
<path fill="none" stroke="black" d="M1484.45,-538.439C1504.48,-524.652 1530.04,-507.215 1553,-492 1565.33,-483.829 1571.03,-484.934 1581,-474 1612.57,-439.36 1636.77,-392.415 1652.97,-354.483"/>
<polygon fill="black" stroke="black" points="1656.29,-355.623 1656.92,-345.047 1649.83,-352.922 1656.29,-355.623"/>
<text text-anchor="middle" x="1661" y="-420" font-family="Times,serif" font-size="25.00">&#39;[=]&#39;</text>
</g>
<!-- L_ARROW&#45;&gt;DOUBLE_L_ARR -->
<g id="edge12" class="edge"><title>L_ARROW&#45;&gt;DOUBLE_L_ARR</title>
<path fill="none" stroke="black" d="M1440.99,-520.788C1433.33,-480.411 1421.57,-418.49 1412.14,-368.802"/>
<polygon fill="black" stroke="black" points="1415.53,-367.89 1410.23,-358.718 1408.66,-369.196 1415.53,-367.89"/>
<text text-anchor="middle" x="1450" y="-420" font-family="Times,serif" font-size="25.00">&#39;[&lt;]&#39;</text>
</g>
<!-- KW_OR_ID&#45;&gt;ERR -->
<g id="edge14" class="edge"><title>KW_OR_ID&#45;&gt;ERR</title>
<path fill="none" stroke="black" d="M177.723,-743.108C191.9,-725.711 208.282,-703.66 220,-682 334.985,-469.456 245.853,-353.58 403,-170 426.902,-142.077 461.36,-121.094 493.091,-106.194"/>
<polygon fill="black" stroke="black" points="494.744,-109.287 502.395,-101.959 491.843,-102.916 494.744,-109.287"/>
<text text-anchor="middle" x="336" y="-419.8" font-family="Times,serif" font-size="24.00">&#39;ELSE&#39;</text>
</g>
<!-- KW_OR_ID&#45;&gt;END_KW_OR_ID -->
<g id="edge16" class="edge"><title>KW_OR_ID&#45;&gt;END_KW_OR_ID</title>
<path fill="none" stroke="black" d="M148,-732.558C148,-707.577 148,-675.617 148,-646.319"/>
<polygon fill="black" stroke="black" points="151.5,-646.084 148,-636.084 144.5,-646.084 151.5,-646.084"/>
<text text-anchor="middle" x="182" y="-661.8" font-family="Times,serif" font-size="24.00">&#39;ELSE&#39;</text>
</g>
<!-- KW_OR_ID&#45;&gt;KW_OR_ID -->
<g id="edge15" class="edge"><title>KW_OR_ID&#45;&gt;KW_OR_ID</title>
<path fill="none" stroke="black" d="M188.293,-798.614C200.986,-798.299 211,-791.428 211,-778 211,-768.349 205.827,-762.085 198.204,-759.208"/>
<polygon fill="black" stroke="black" points="198.761,-755.752 188.293,-757.386 197.496,-762.636 198.761,-755.752"/>
<text text-anchor="middle" x="264" y="-771.8" font-family="Times,serif" font-size="24.00">&#39;[A&#45;z_0&#45;9]&#39;</text>
</g>
<!-- DIV_OR_COMM&#45;&gt;DIVIDE_SMBL -->
<g id="edge17" class="edge"><title>DIV_OR_COMM&#45;&gt;DIVIDE_SMBL</title>
<path fill="none" stroke="black" d="M1603.99,-1104.29C1604.97,-1083.86 1606.06,-1060.94 1607,-1040 1613.39,-898.136 1620.23,-732.41 1624.02,-638.972"/>
<polygon fill="black" stroke="black" points="1627.53,-638.908 1624.43,-628.774 1620.53,-638.624 1627.53,-638.908"/>
<text text-anchor="middle" x="1648" y="-881.8" font-family="Times,serif" font-size="24.00">&#39;ELSE&#39;</text>
</g>
<!-- LINE_COMM -->
<g id="node33" class="node"><title>LINE_COMM</title>
<ellipse fill="none" stroke="black" cx="1461" cy="-980" rx="51.5634" ry="51.9195"/>
<text text-anchor="middle" x="1461" y="-976.3" font-family="Times,serif" font-size="14.00">LINE_COMM</text>
</g>
<!-- DIV_OR_COMM&#45;&gt;LINE_COMM -->
<g id="edge18" class="edge"><title>DIV_OR_COMM&#45;&gt;LINE_COMM</title>
<path fill="none" stroke="black" d="M1563.85,-1116.17C1543.51,-1089.45 1518.4,-1056.43 1498.07,-1029.72"/>
<polygon fill="black" stroke="black" points="1500.77,-1027.49 1491.93,-1021.65 1495.2,-1031.73 1500.77,-1027.49"/>
<text text-anchor="middle" x="1555.5" y="-1066" font-family="Times,serif" font-size="25.00">&#39;[/]&#39;</text>
</g>
<!-- BLOCK_COMM -->
<g id="node34" class="node"><title>BLOCK_COMM</title>
<ellipse fill="none" stroke="black" cx="1718" cy="-980" rx="59.4356" ry="59.7483"/>
<text text-anchor="middle" x="1718" y="-976.3" font-family="Times,serif" font-size="14.00">BLOCK_COMM</text>
</g>
<!-- DIV_OR_COMM&#45;&gt;BLOCK_COMM -->
<g id="edge21" class="edge"><title>DIV_OR_COMM&#45;&gt;BLOCK_COMM</title>
<path fill="none" stroke="black" d="M1633.9,-1113.26C1648.53,-1090.25 1665.82,-1063.06 1680.9,-1039.34"/>
<polygon fill="black" stroke="black" points="1683.94,-1041.09 1686.35,-1030.77 1678.03,-1037.33 1683.94,-1041.09"/>
<text text-anchor="middle" x="1685.5" y="-1066" font-family="Times,serif" font-size="25.00">&#39;[*]&#39;</text>
</g>
<!-- LINE_COMM&#45;&gt;S_START -->
<g id="edge20" class="edge"><title>LINE_COMM&#45;&gt;S_START</title>
<path fill="none" stroke="black" d="M1462.76,-1031.74C1462.29,-1095.35 1452.25,-1204.46 1395,-1274 1351.32,-1327.05 1281.49,-1358.95 1220.96,-1377.75"/>
<polygon fill="black" stroke="black" points="1219.89,-1374.42 1211.33,-1380.66 1221.91,-1381.12 1219.89,-1374.42"/>
<text text-anchor="middle" x="1480" y="-1160" font-family="Times,serif" font-size="25.00">&#39;[\n]&#39;</text>
</g>
<!-- LINE_COMM&#45;&gt;LINE_COMM -->
<g id="edge19" class="edge"><title>LINE_COMM&#45;&gt;LINE_COMM</title>
<path fill="none" stroke="black" d="M1509.68,-996.946C1521.35,-995.621 1530,-989.973 1530,-980 1530,-973.144 1525.91,-968.331 1519.56,-965.563"/>
<polygon fill="black" stroke="black" points="1520.23,-962.122 1509.68,-963.054 1518.51,-968.907 1520.23,-962.122"/>
<text text-anchor="middle" x="1564" y="-973.8" font-family="Times,serif" font-size="24.00">&#39;ELSE&#39;</text>
</g>
<!-- BLOCK_COMM&#45;&gt;BLOCK_COMM -->
<g id="edge23" class="edge"><title>BLOCK_COMM&#45;&gt;BLOCK_COMM</title>
<path fill="none" stroke="black" d="M1775.09,-996.592C1786.69,-994.785 1795,-989.254 1795,-980 1795,-973.638 1791.07,-969.036 1784.85,-966.193"/>
<polygon fill="black" stroke="black" points="1785.66,-962.786 1775.09,-963.408 1783.74,-969.518 1785.66,-962.786"/>
<text text-anchor="middle" x="1829" y="-973.8" font-family="Times,serif" font-size="24.00">&#39;ELSE&#39;</text>
</g>
<!-- END_BLOCK_COMM -->
<g id="node35" class="node"><title>END_BLOCK_COMM</title>
<ellipse fill="none" stroke="black" cx="1733" cy="-778" rx="78.1375" ry="78.1833"/>
<text text-anchor="middle" x="1733" y="-774.3" font-family="Times,serif" font-size="14.00">END_BLOCK_COMM</text>
</g>
<!-- BLOCK_COMM&#45;&gt;END_BLOCK_COMM -->
<g id="edge22" class="edge"><title>BLOCK_COMM&#45;&gt;END_BLOCK_COMM</title>
<path fill="none" stroke="black" d="M1762.65,-940.098C1772.55,-928.902 1781.68,-915.915 1787,-902 1793.54,-884.908 1790.99,-866.737 1784.32,-849.756"/>
<polygon fill="black" stroke="black" points="1787.46,-848.196 1780.22,-840.458 1781.05,-851.02 1787.46,-848.196"/>
<text text-anchor="middle" x="1809.5" y="-882" font-family="Times,serif" font-size="25.00">&#39;[*]&#39;</text>
</g>
<!-- END_BLOCK_COMM&#45;&gt;S_START -->
<g id="edge24" class="edge"><title>END_BLOCK_COMM&#45;&gt;S_START</title>
<path fill="none" stroke="black" d="M1655.94,-790.55C1579.28,-806.221 1464.09,-841.839 1400,-920 1349.07,-982.111 1374.11,-1208.95 1327,-1274 1299.38,-1312.14 1256.77,-1340.65 1216.03,-1361.03"/>
<polygon fill="black" stroke="black" points="1214.28,-1357.99 1206.83,-1365.51 1217.35,-1364.28 1214.28,-1357.99"/>
<text text-anchor="middle" x="1386" y="-1066" font-family="Times,serif" font-size="25.00">&#39;&#39;[/]&#39;&#39;</text>
</g>
<!-- END_BLOCK_COMM&#45;&gt;BLOCK_COMM -->
<g id="edge25" class="edge"><title>END_BLOCK_COMM&#45;&gt;BLOCK_COMM</title>
<path fill="none" stroke="black" d="M1717.37,-854.526C1716.41,-861.09 1715.6,-867.649 1715,-874 1713.84,-886.39 1714.76,-889.558 1715,-902 1715.05,-904.667 1715.11,-907.385 1715.18,-910.131"/>
<polygon fill="black" stroke="black" points="1711.69,-910.255 1715.47,-920.15 1718.68,-910.054 1711.69,-910.255"/>
<text text-anchor="middle" x="1749" y="-881.8" font-family="Times,serif" font-size="24.00">&#39;ELSE&#39;</text>
</g>
<!-- S_STRING&#45;&gt;ERR -->
<g id="edge27" class="edge"><title>S_STRING&#45;&gt;ERR</title>
<path fill="none" stroke="black" d="M506.463,-941.979C500.67,-929.485 494.599,-915.326 490,-902 459.863,-814.672 468.157,-788.3 441,-700 432.07,-670.964 422.42,-665.891 417,-636 383.579,-451.692 375.066,-386.785 452,-216 465.625,-185.753 488.124,-157.28 510.115,-134.076"/>
<polygon fill="black" stroke="black" points="512.784,-136.351 517.225,-126.731 507.755,-131.482 512.784,-136.351"/>
<text text-anchor="middle" x="451" y="-557.8" font-family="Times,serif" font-size="24.00">&#39;ELSE&#39;</text>
</g>
<!-- S_STRING&#45;&gt;E_STRING -->
<g id="edge36" class="edge"><title>S_STRING&#45;&gt;E_STRING</title>
<path fill="none" stroke="black" d="M486.34,-962.649C460.771,-949.844 428.64,-929.567 410,-902 397.177,-883.035 390.497,-858.963 387.079,-837.152"/>
<polygon fill="black" stroke="black" points="390.511,-836.422 385.689,-826.989 383.576,-837.371 390.511,-836.422"/>
<text text-anchor="middle" x="428.5" y="-882" font-family="Times,serif" font-size="25.00">&#39;[&quot;]&#39;</text>
</g>
<!-- S_STRING&#45;&gt;S_STRING -->
<g id="edge26" class="edge"><title>S_STRING&#45;&gt;S_STRING</title>
<path fill="none" stroke="black" d="M563.664,-997.233C575.615,-996.885 585,-991.141 585,-980 585,-972.341 580.564,-967.232 573.908,-964.674"/>
<polygon fill="black" stroke="black" points="574.136,-961.156 563.664,-962.767 572.855,-968.038 574.136,-961.156"/>
<text text-anchor="middle" x="608.5" y="-973.8" font-family="Times,serif" font-size="24.00">&#39;[^&quot;]&#39;</text>
</g>
<!-- S_ESCAPE -->
<g id="node37" class="node"><title>S_ESCAPE</title>
<ellipse fill="none" stroke="black" cx="542" cy="-778" rx="42.6083" ry="42.98"/>
<text text-anchor="middle" x="542" y="-774.3" font-family="Times,serif" font-size="14.00">S_ESCAPE</text>
</g>
<!-- S_STRING&#45;&gt;S_ESCAPE -->
<g id="edge28" class="edge"><title>S_STRING&#45;&gt;S_ESCAPE</title>
<path fill="none" stroke="black" d="M505.028,-942.298C496.518,-922.242 489.647,-896.891 495,-874 499.063,-856.625 506.791,-838.783 514.825,-823.32"/>
<polygon fill="black" stroke="black" points="517.909,-824.976 519.566,-814.512 511.745,-821.659 517.909,-824.976"/>
<text text-anchor="middle" x="515" y="-882" font-family="Times,serif" font-size="25.00">&#39;[\\]&#39;</text>
</g>
<!-- S_ESCAPE&#45;&gt;ERR -->
<g id="edge30" class="edge"><title>S_ESCAPE&#45;&gt;ERR</title>
<path fill="none" stroke="black" d="M545.383,-735.287C548.006,-675.208 544.189,-563.679 489,-492 477.599,-477.193 460.993,-489.791 451,-474 428.184,-437.946 442.776,-419.867 451,-378 466.777,-297.684 504.139,-211.79 533.575,-152.401"/>
<polygon fill="black" stroke="black" points="536.883,-153.611 538.226,-143.102 530.622,-150.48 536.883,-153.611"/>
<text text-anchor="middle" x="485" y="-419.8" font-family="Times,serif" font-size="24.00">&#39;ELSE&#39;</text>
</g>
<!-- S_ESCAPE&#45;&gt;S_STRING -->
<g id="edge29" class="edge"><title>S_ESCAPE&#45;&gt;S_STRING</title>
<path fill="none" stroke="black" d="M540.367,-820.9C539.251,-844.711 537.513,-875.06 535,-902 534.217,-910.393 533.22,-919.28 532.16,-927.919"/>
<polygon fill="black" stroke="black" points="528.68,-927.541 530.896,-937.902 535.625,-928.42 528.68,-927.541"/>
<text text-anchor="middle" x="567.5" y="-882" font-family="Times,serif" font-size="25.00">&#39;[tn\\]&#39;</text>
</g>
<!-- ESCAPE_X1 -->
<g id="node38" class="node"><title>ESCAPE_X1</title>
<ellipse fill="none" stroke="black" cx="575" cy="-426" rx="47.2323" ry="47.4763"/>
<text text-anchor="middle" x="575" y="-422.3" font-family="Times,serif" font-size="14.00">ESCAPE_X1</text>
</g>
<!-- S_ESCAPE&#45;&gt;ESCAPE_X1 -->
<g id="edge31" class="edge"><title>S_ESCAPE&#45;&gt;ESCAPE_X1</title>
<path fill="none" stroke="black" d="M545.948,-735.129C551.867,-672.351 563.053,-553.714 569.684,-483.378"/>
<polygon fill="black" stroke="black" points="573.174,-483.648 570.629,-473.364 566.205,-482.991 573.174,-483.648"/>
<text text-anchor="middle" x="572.5" y="-662" font-family="Times,serif" font-size="25.00">&#39;[x]&#39;</text>
</g>
<!-- ESCAPE_X1&#45;&gt;ERR -->
<g id="edge33" class="edge"><title>ESCAPE_X1&#45;&gt;ERR</title>
<path fill="none" stroke="black" d="M574.866,-378.428C574.708,-323.377 574.442,-230.653 574.246,-162.552"/>
<polygon fill="black" stroke="black" points="577.745,-162.257 574.216,-152.268 570.745,-162.278 577.745,-162.257"/>
<text text-anchor="middle" x="609" y="-281.8" font-family="Times,serif" font-size="24.00">&#39;ELSE&#39;</text>
</g>
<!-- ESCAPE_X2 -->
<g id="node39" class="node"><title>ESCAPE_X2</title>
<ellipse fill="none" stroke="black" cx="749" cy="-426" rx="47.2323" ry="47.4763"/>
<text text-anchor="middle" x="749" y="-422.3" font-family="Times,serif" font-size="14.00">ESCAPE_X2</text>
</g>
<!-- ESCAPE_X1&#45;&gt;ESCAPE_X2 -->
<g id="edge32" class="edge"><title>ESCAPE_X1&#45;&gt;ESCAPE_X2</title>
<path fill="none" stroke="black" d="M622.546,-426C643.837,-426 669.127,-426 691.475,-426"/>
<polygon fill="black" stroke="black" points="691.511,-429.5 701.511,-426 691.511,-422.5 691.511,-429.5"/>
<text text-anchor="middle" x="661.756" y="-435.8" font-family="Times,serif" font-size="24.00">&#39;[A&#45;z]&#39;</text>
</g>
<!-- ESCAPE_X2&#45;&gt;ERR -->
<g id="edge35" class="edge"><title>ESCAPE_X2&#45;&gt;ERR</title>
<path fill="none" stroke="black" d="M715.63,-392.307C707.021,-382.542 698.391,-371.387 692,-360 659.185,-301.526 672.693,-277.934 647,-216 638.084,-194.507 626.997,-171.892 616.178,-151.293"/>
<polygon fill="black" stroke="black" points="619.18,-149.483 611.4,-142.29 612.996,-152.764 619.18,-149.483"/>
<text text-anchor="middle" x="726" y="-281.8" font-family="Times,serif" font-size="24.00">&#39;ELSE&#39;</text>
</g>
<!-- ESCAPE_X2&#45;&gt;S_STRING -->
<g id="edge34" class="edge"><title>ESCAPE_X2&#45;&gt;S_STRING</title>
<path fill="none" stroke="black" d="M729.053,-469.608C704.944,-522.583 664.561,-616.259 640,-700 614.266,-787.74 643.611,-821.1 601,-902 592.293,-918.532 578.877,-933.842 565.726,-946.384"/>
<polygon fill="black" stroke="black" points="563.046,-944.094 558.052,-953.437 567.783,-949.248 563.046,-944.094"/>
<text text-anchor="middle" x="671" y="-771.8" font-family="Times,serif" font-size="24.00">&#39;[A&#45;z]&#39;</text>
</g>
<!-- EQ_OR_ASIGNMENT&#45;&gt;ASIGNMENT_SMBL -->
<g id="edge38" class="edge"><title>EQ_OR_ASIGNMENT&#45;&gt;ASIGNMENT_SMBL</title>
<path fill="none" stroke="black" d="M1880.6,-1627.77C1858.82,-1585.81 1830.78,-1531.77 1807.77,-1487.42"/>
<polygon fill="black" stroke="black" points="1810.8,-1485.66 1803.09,-1478.4 1804.59,-1488.89 1810.8,-1485.66"/>
<text text-anchor="middle" x="1879" y="-1541.8" font-family="Times,serif" font-size="24.00">&#39;ELSE&#39;</text>
</g>
<!-- EQ_OR_ASIGNMENT&#45;&gt;EQUAL_SMBL -->
<g id="edge39" class="edge"><title>EQ_OR_ASIGNMENT&#45;&gt;EQUAL_SMBL</title>
<path fill="none" stroke="black" d="M1919.7,-1619.16C1921.8,-1575.36 1924.43,-1520.78 1926.5,-1477.68"/>
<polygon fill="black" stroke="black" points="1930.01,-1477.71 1926.99,-1467.55 1923.01,-1477.37 1930.01,-1477.71"/>
<text text-anchor="middle" x="1943" y="-1542" font-family="Times,serif" font-size="25.00">&#39;[=]&#39;</text>
</g>
<!-- S_NUMBER&#45;&gt;END_NUMBER -->
<g id="edge55" class="edge"><title>S_NUMBER&#45;&gt;END_NUMBER</title>
<path fill="none" stroke="black" d="M875.522,-1139.29C845.721,-1116.95 806.498,-1081.68 788,-1040 761.813,-980.99 761.035,-906.92 765.507,-852.776"/>
<polygon fill="black" stroke="black" points="769.016,-852.84 766.432,-842.565 762.044,-852.209 769.016,-852.84"/>
<text text-anchor="middle" x="822" y="-973.8" font-family="Times,serif" font-size="24.00">&#39;ELSE&#39;</text>
</g>
<!-- S_NUMBER&#45;&gt;S_NUMBER -->
<g id="edge54" class="edge"><title>S_NUMBER&#45;&gt;S_NUMBER</title>
<path fill="none" stroke="black" d="M957.373,-1183.49C969.088,-1182.57 978,-1176.74 978,-1166 978,-1158.62 973.788,-1153.55 967.348,-1150.81"/>
<polygon fill="black" stroke="black" points="967.904,-1147.34 957.373,-1148.51 966.329,-1154.17 967.904,-1147.34"/>
<text text-anchor="middle" x="1007" y="-1159.8" font-family="Times,serif" font-size="24.00">&#39;[0&#45;9]&#39;</text>
</g>
<!-- EXPONENT -->
<g id="node42" class="node"><title>EXPONENT</title>
<ellipse fill="none" stroke="black" cx="961" cy="-564" rx="46.1497" ry="46.3658"/>
<text text-anchor="middle" x="961" y="-560.3" font-family="Times,serif" font-size="14.00">EXPONENT</text>
</g>
<!-- S_NUMBER&#45;&gt;EXPONENT -->
<g id="edge56" class="edge"><title>S_NUMBER&#45;&gt;EXPONENT</title>
<path fill="none" stroke="black" d="M944.788,-1130.15C990.327,-1076.01 1073.63,-966.412 1105,-856 1123.95,-789.306 1132.56,-763.62 1105,-700 1085.47,-654.924 1042.66,-617.999 1008.77,-594.231"/>
<polygon fill="black" stroke="black" points="1010.59,-591.237 1000.36,-588.475 1006.63,-597.013 1010.59,-591.237"/>
<text text-anchor="middle" x="1124" y="-881.8" font-family="Times,serif" font-size="24.00">&#39;[eE]&#39;</text>
</g>
<!-- D_NUMBER -->
<g id="node43" class="node"><title>D_NUMBER</title>
<ellipse fill="none" stroke="black" cx="914" cy="-980" rx="48.3149" ry="48.5869"/>
<text text-anchor="middle" x="914" y="-976.3" font-family="Times,serif" font-size="14.00">D_NUMBER</text>
</g>
<!-- S_NUMBER&#45;&gt;D_NUMBER -->
<g id="edge57" class="edge"><title>S_NUMBER&#45;&gt;D_NUMBER</title>
<path fill="none" stroke="black" d="M914,-1118.57C914,-1094.32 914,-1064.42 914,-1038.7"/>
<polygon fill="black" stroke="black" points="917.5,-1038.7 914,-1028.7 910.5,-1038.7 917.5,-1038.7"/>
<text text-anchor="middle" x="930" y="-1066" font-family="Times,serif" font-size="25.00">&#39;[.]&#39;</text>
</g>
<!-- EXPONENT&#45;&gt;ERR -->
<g id="edge64" class="edge"><title>EXPONENT&#45;&gt;ERR</title>
<path fill="none" stroke="black" d="M932.101,-527.496C901.936,-488.659 855.42,-423.453 829,-360 795.794,-280.249 842.768,-236.808 788,-170 755.58,-130.452 703.097,-107.294 658.221,-93.9771"/>
<polygon fill="black" stroke="black" points="659.052,-90.5749 648.476,-91.2022 657.135,-97.3073 659.052,-90.5749"/>
<text text-anchor="middle" x="863" y="-281.8" font-family="Times,serif" font-size="24.00">&#39;ELSE&#39;</text>
</g>
<!-- FEX_NUMBER -->
<g id="node45" class="node"><title>FEX_NUMBER</title>
<ellipse fill="none" stroke="black" cx="962" cy="-288" rx="56.1874" ry="56.4163"/>
<text text-anchor="middle" x="962" y="-284.3" font-family="Times,serif" font-size="14.00">FEX_NUMBER</text>
</g>
<!-- EXPONENT&#45;&gt;FEX_NUMBER -->
<g id="edge63" class="edge"><title>EXPONENT&#45;&gt;FEX_NUMBER</title>
<path fill="none" stroke="black" d="M961.166,-517.447C961.328,-473.029 961.577,-405.008 961.76,-354.733"/>
<polygon fill="black" stroke="black" points="965.26,-354.621 961.797,-344.608 958.26,-354.595 965.26,-354.621"/>
<text text-anchor="middle" x="1004.5" y="-419.8" font-family="Times,serif" font-size="24.00">&#39;[\&#45;+0&#45;9]&#39;</text>
</g>
<!-- D_NUMBER&#45;&gt;ERR -->
<g id="edge59" class="edge"><title>D_NUMBER&#45;&gt;ERR</title>
<path fill="none" stroke="black" d="M902.779,-932.582C887.096,-866.821 858.272,-742.658 838,-636 820.275,-542.74 811.768,-295.572 760,-216 732.818,-174.218 688.501,-140.37 649.944,-116.539"/>
<polygon fill="black" stroke="black" points="651.671,-113.493 641.305,-111.305 648.044,-119.48 651.671,-113.493"/>
<text text-anchor="middle" x="872" y="-557.8" font-family="Times,serif" font-size="24.00">&#39;ELSE&#39;</text>
</g>
<!-- FRAC_NUMBER -->
<g id="node44" class="node"><title>FRAC_NUMBER</title>
<ellipse fill="none" stroke="black" cx="959" cy="-778" rx="61.6014" ry="61.9701"/>
<text text-anchor="middle" x="959" y="-774.3" font-family="Times,serif" font-size="14.00">FRAC_NUMBER</text>
</g>
<!-- D_NUMBER&#45;&gt;FRAC_NUMBER -->
<g id="edge58" class="edge"><title>D_NUMBER&#45;&gt;FRAC_NUMBER</title>
<path fill="none" stroke="black" d="M924.494,-932.361C930.114,-907.38 937.149,-876.117 943.397,-848.345"/>
<polygon fill="black" stroke="black" points="946.879,-848.814 945.66,-838.289 940.05,-847.277 946.879,-848.814"/>
<text text-anchor="middle" x="966" y="-881.8" font-family="Times,serif" font-size="24.00">&#39;[0&#45;9]&#39;</text>
</g>
<!-- FRAC_NUMBER&#45;&gt;END_DOUBLE -->
<g id="edge61" class="edge"><title>FRAC_NUMBER&#45;&gt;END_DOUBLE</title>
<path fill="none" stroke="black" d="M992.968,-726.394C1055.67,-626.253 1176.76,-396.861 1103,-216 1102.41,-214.542 1056.3,-167.562 1017.94,-128.62"/>
<polygon fill="black" stroke="black" points="1020.39,-126.122 1010.88,-121.456 1015.41,-131.035 1020.39,-126.122"/>
<text text-anchor="middle" x="1157" y="-419.8" font-family="Times,serif" font-size="24.00">&#39;ELSE&#39;</text>
</g>
<!-- FRAC_NUMBER&#45;&gt;EXPONENT -->
<g id="edge62" class="edge"><title>FRAC_NUMBER&#45;&gt;EXPONENT</title>
<path fill="none" stroke="black" d="M959.573,-716.249C959.857,-686.151 960.198,-650.06 960.475,-620.682"/>
<polygon fill="black" stroke="black" points="963.975,-620.625 960.57,-610.592 956.976,-620.559 963.975,-620.625"/>
<text text-anchor="middle" x="986" y="-661.8" font-family="Times,serif" font-size="24.00">&#39;[eE]&#39;</text>
</g>
<!-- FRAC_NUMBER&#45;&gt;FRAC_NUMBER -->
<g id="edge60" class="edge"><title>FRAC_NUMBER&#45;&gt;FRAC_NUMBER</title>
<path fill="none" stroke="black" d="M1017.22,-797.9C1029.31,-795.805 1038,-789.172 1038,-778 1038,-770.145 1033.7,-764.533 1026.95,-761.166"/>
<polygon fill="black" stroke="black" points="1027.81,-757.767 1017.22,-758.1 1025.71,-764.444 1027.81,-757.767"/>
<text text-anchor="middle" x="1067" y="-771.8" font-family="Times,serif" font-size="24.00">&#39;[0&#45;9]&#39;</text>
</g>
<!-- FEX_NUMBER&#45;&gt;ERR -->
<g id="edge67" class="edge"><title>FEX_NUMBER&#45;&gt;ERR</title>
<path fill="none" stroke="black" d="M923.584,-246.328C913.541,-236.174 902.563,-225.481 892,-216 867.516,-194.022 862.762,-185.976 834,-170 777.977,-138.882 709.566,-114.904 656.982,-99.0937"/>
<polygon fill="black" stroke="black" points="657.936,-95.7262 647.354,-96.2368 655.945,-102.437 657.936,-95.7262"/>
<text text-anchor="middle" x="907" y="-177.8" font-family="Times,serif" font-size="24.00">&#39;ELSE&#39;</text>
</g>
<!-- FEX_NUMBER&#45;&gt;END_DOUBLE -->
<g id="edge66" class="edge"><title>FEX_NUMBER&#45;&gt;END_DOUBLE</title>
<path fill="none" stroke="black" d="M963.32,-231.55C963.921,-206.336 964.639,-176.176 965.28,-149.22"/>
<polygon fill="black" stroke="black" points="968.783,-149.143 965.522,-139.063 961.785,-148.976 968.783,-149.143"/>
<text text-anchor="middle" x="998" y="-177.8" font-family="Times,serif" font-size="24.00">&#39;ELSE&#39;</text>
</g>
<!-- FEX_NUMBER&#45;&gt;FEX_NUMBER -->
<g id="edge65" class="edge"><title>FEX_NUMBER&#45;&gt;FEX_NUMBER</title>
<path fill="none" stroke="black" d="M1015.22,-307.024C1027.22,-305.31 1036,-298.969 1036,-288 1036,-280.288 1031.66,-274.863 1024.91,-271.726"/>
<polygon fill="black" stroke="black" points="1025.79,-268.338 1015.22,-268.976 1023.88,-275.072 1025.79,-268.338"/>
<text text-anchor="middle" x="1065" y="-281.8" font-family="Times,serif" font-size="24.00">&#39;[0&#45;9]&#39;</text>
</g>
</g>
</svg>
