<?xml version="1.0" encoding="UTF-8" standalone="no"?>
<!DOCTYPE svg PUBLIC "-//W3C//DTD SVG 1.1//EN"
 "http://www.w3.org/Graphics/SVG/1.1/DTD/svg11.dtd">
<!-- Generated by graphviz version 2.36.0 (20140111.2315)
 -->
<!-- Title: finite_state_machine Pages: 1 -->
<svg width="540pt" height="432pt"
 viewBox="0.00 0.00 540.00 431.58" xmlns="http://www.w3.org/2000/svg" xmlns:xlink="http://www.w3.org/1999/xlink">
<g id="graph0" class="graph" transform="scale(0.210938 0.210938) rotate(0) translate(4 2042)">
<title>finite_state_machine</title>
<polygon fill="white" stroke="none" points="-4,4 -4,-2042 2556,-2042 2556,4 -4,4"/>
<!-- qi -->
<g id="node1" class="node"><title>qi</title>
<ellipse fill="black" stroke="black" cx="555" cy="-1556" rx="1.8" ry="1.8"/>
</g>
<!-- S_START -->
<g id="node2" class="node"><title>S_START</title>
<ellipse fill="none" stroke="blue" cx="1218" cy="-1556" rx="79.3813" ry="79.8109"/>
<ellipse fill="none" stroke="blue" cx="1218" cy="-1556" rx="83.3552" ry="83.8062"/>
<text text-anchor="middle" x="1218" y="-1550.1" font-family="Times,serif" font-size="23.00">S_START</text>
</g>
<!-- qi&#45;&gt;S_START -->
<g id="edge68" class="edge"><title>qi&#45;&gt;S_START</title>
<path fill="none" stroke="black" d="M556.942,-1556C746.045,-1556 935.147,-1556 1124.25,-1556"/>
<polygon fill="black" stroke="black" points="1124.4,-1559.5 1134.4,-1556 1124.4,-1552.5 1124.4,-1559.5"/>
</g>
<!-- S_START&#45;&gt;S_START -->
<g id="edge1" class="edge"><title>S_START&#45;&gt;S_START</title>
<path fill="none" stroke="black" d="M1298.01,-1580.4C1310.49,-1576.75 1319,-1568.62 1319,-1556 1319,-1546.93 1314.6,-1540.18 1307.5,-1535.74"/>
<polygon fill="black" stroke="black" points="1308.58,-1532.39 1298.01,-1531.6 1305.78,-1538.81 1308.58,-1532.39"/>
<text text-anchor="middle" x="1330" y="-1549.8" font-family="Times,serif" font-size="24.00">&#39;\ &#39;</text>
</g>
<!-- ERR -->
<g id="node3" class="node"><title>ERR</title>
<ellipse fill="none" stroke="red" cx="525" cy="-95" rx="47.0892" ry="47.2622"/>
<ellipse fill="none" stroke="red" cx="525" cy="-95" rx="51.065" ry="51.2526"/>
<text text-anchor="middle" x="525" y="-88.7" font-family="Times,serif" font-size="26.00">ERR</text>
</g>
<!-- S_START&#45;&gt;ERR -->
<g id="edge40" class="edge"><title>S_START&#45;&gt;ERR</title>
<path fill="none" stroke="black" d="M1135.55,-1541.38C911.297,-1503.21 307,-1392.44 307,-1307 307,-1307 307,-1307 307,-348 307,-305.761 301.405,-291.418 321,-254 353.116,-192.671 420.799,-147.809 469.403,-121.882"/>
<polygon fill="black" stroke="black" points="471.305,-124.837 478.548,-117.106 468.064,-118.633 471.305,-124.837"/>
<text text-anchor="middle" x="341" y="-851.8" font-family="Times,serif" font-size="24.00">&#39;ELSE&#39;</text>
</g>
<!-- SEMICOLON_SMBL -->
<g id="node4" class="node"><title>SEMICOLON_SMBL</title>
<ellipse fill="none" stroke="green" cx="1381" cy="-1884" rx="104.411" ry="104.857"/>
<ellipse fill="none" stroke="green" cx="1381" cy="-1884" rx="108.391" ry="108.855"/>
<text text-anchor="middle" x="1381" y="-1880.5" font-family="Times,serif" font-size="15.00">SEMICOLON_SMBL</text>
</g>
<!-- S_START&#45;&gt;SEMICOLON_SMBL -->
<g id="edge52" class="edge"><title>S_START&#45;&gt;SEMICOLON_SMBL</title>
<path fill="none" stroke="black" d="M1255.15,-1631.29C1276.7,-1674.39 1304.19,-1729.38 1327.98,-1776.97"/>
<polygon fill="black" stroke="black" points="1324.93,-1778.69 1332.54,-1786.07 1331.19,-1775.56 1324.93,-1778.69"/>
<text text-anchor="middle" x="1302" y="-1692" font-family="Times,serif" font-size="25.00">&#39;;&#39;</text>
</g>
<!-- LEFT_COLUMN_SMBL -->
<g id="node5" class="node"><title>LEFT_COLUMN_SMBL</title>
<ellipse fill="none" stroke="green" cx="1631" cy="-1884" rx="118.257" ry="118.656"/>
<ellipse fill="none" stroke="green" cx="1631" cy="-1884" rx="122.238" ry="122.65"/>
<text text-anchor="middle" x="1631" y="-1880.5" font-family="Times,serif" font-size="15.00">LEFT_COLUMN_SMBL</text>
</g>
<!-- S_START&#45;&gt;LEFT_COLUMN_SMBL -->
<g id="edge49" class="edge"><title>S_START&#45;&gt;LEFT_COLUMN_SMBL</title>
<path fill="none" stroke="black" d="M1292.24,-1594.8C1351.17,-1626.64 1433.99,-1675.61 1498,-1730 1515.48,-1744.86 1532.69,-1762.07 1548.62,-1779.47"/>
<polygon fill="black" stroke="black" points="1546.06,-1781.86 1555.37,-1786.93 1551.26,-1777.17 1546.06,-1781.86"/>
<text text-anchor="middle" x="1479" y="-1692" font-family="Times,serif" font-size="25.00">&#39;(&#39;</text>
</g>
<!-- RIGHT_COLUMN_SMBL -->
<g id="node6" class="node"><title>RIGHT_COLUMN_SMBL</title>
<ellipse fill="none" stroke="green" cx="1902" cy="-1884" rx="125.18" ry="125.555"/>
<ellipse fill="none" stroke="green" cx="1902" cy="-1884" rx="129.162" ry="129.548"/>
<text text-anchor="middle" x="1902" y="-1880.5" font-family="Times,serif" font-size="15.00">RIGHT_COLUMN_SMBL</text>
</g>
<!-- S_START&#45;&gt;RIGHT_COLUMN_SMBL -->
<g id="edge48" class="edge"><title>S_START&#45;&gt;RIGHT_COLUMN_SMBL</title>
<path fill="none" stroke="black" d="M1297.81,-1581.19C1444.05,-1625.69 1741.89,-1717.15 1762,-1730 1780.94,-1742.11 1798.97,-1757.41 1815.41,-1773.63"/>
<polygon fill="black" stroke="black" points="1813.32,-1776.5 1822.84,-1781.14 1818.29,-1771.57 1813.32,-1776.5"/>
<text text-anchor="middle" x="1714" y="-1692" font-family="Times,serif" font-size="25.00">&#39;)&#39;</text>
</g>
<!-- LEFT_VIN_COLUMN_SMBL -->
<g id="node7" class="node"><title>LEFT_VIN_COLUMN_SMBL</title>
<ellipse fill="none" stroke="green" cx="2196" cy="-1884" rx="142.184" ry="142.403"/>
<ellipse fill="none" stroke="green" cx="2196" cy="-1884" rx="146.176" ry="146.402"/>
<text text-anchor="middle" x="2196" y="-1880.5" font-family="Times,serif" font-size="15.00">LEFT_VIN_COLUMN_SMBL</text>
</g>
<!-- S_START&#45;&gt;LEFT_VIN_COLUMN_SMBL -->
<g id="edge45" class="edge"><title>S_START&#45;&gt;LEFT_VIN_COLUMN_SMBL</title>
<path fill="none" stroke="black" d="M1296.23,-1585.52C1367.46,-1610.4 1475.99,-1645.61 1573,-1666 1778.02,-1709.08 1852.36,-1636.84 2040,-1730 2058.69,-1739.28 2076.55,-1751.63 2093.07,-1765.31"/>
<polygon fill="black" stroke="black" points="2091.19,-1768.31 2101.07,-1772.12 2095.73,-1762.98 2091.19,-1768.31"/>
<text text-anchor="middle" x="2008" y="-1692" font-family="Times,serif" font-size="25.00">&#39;{&#39;</text>
</g>
<!-- RIGHT_VIN_COLUMN_SMBL -->
<g id="node8" class="node"><title>RIGHT_VIN_COLUMN_SMBL</title>
<ellipse fill="none" stroke="green" cx="153" cy="-1884" rx="149.108" ry="149.302"/>
<ellipse fill="none" stroke="green" cx="153" cy="-1884" rx="153.1" ry="153.299"/>
<text text-anchor="middle" x="153" y="-1880.5" font-family="Times,serif" font-size="15.00">RIGHT_VIN_COLUMN_SMBL</text>
</g>
<!-- S_START&#45;&gt;RIGHT_VIN_COLUMN_SMBL -->
<g id="edge46" class="edge"><title>S_START&#45;&gt;RIGHT_VIN_COLUMN_SMBL</title>
<path fill="none" stroke="black" d="M1135.66,-1569.91C926.737,-1603.09 387.451,-1691.37 315,-1730 297.398,-1739.38 280.315,-1751.2 264.255,-1764.08"/>
<polygon fill="black" stroke="black" points="261.965,-1761.43 256.456,-1770.48 266.406,-1766.84 261.965,-1761.43"/>
<text text-anchor="middle" x="495" y="-1692" font-family="Times,serif" font-size="25.00">&#39;}&#39;</text>
</g>
<!-- COMMA_SMBL -->
<g id="node9" class="node"><title>COMMA_SMBL</title>
<ellipse fill="none" stroke="green" cx="413" cy="-1884" rx="84.1925" ry="84.5619"/>
<ellipse fill="none" stroke="green" cx="413" cy="-1884" rx="88.165" ry="88.5518"/>
<text text-anchor="middle" x="413" y="-1880.5" font-family="Times,serif" font-size="15.00">COMMA_SMBL</text>
</g>
<!-- S_START&#45;&gt;COMMA_SMBL -->
<g id="edge41" class="edge"><title>S_START&#45;&gt;COMMA_SMBL</title>
<path fill="none" stroke="black" d="M1134.29,-1557.47C992.573,-1562.29 702.176,-1590.04 511,-1730 488.218,-1746.68 469.387,-1770.4 454.529,-1794.2"/>
<polygon fill="black" stroke="black" points="451.412,-1792.59 449.234,-1802.95 457.403,-1796.21 451.412,-1792.59"/>
<text text-anchor="middle" x="585" y="-1692" font-family="Times,serif" font-size="25.00">&#39;,&#39;</text>
</g>
<!-- PLUS_SMBL -->
<g id="node10" class="node"><title>PLUS_SMBL</title>
<ellipse fill="none" stroke="green" cx="594" cy="-1884" rx="70.2699" ry="70.3568"/>
<ellipse fill="none" stroke="green" cx="594" cy="-1884" rx="74.2749" ry="74.3667"/>
<text text-anchor="middle" x="594" y="-1880.5" font-family="Times,serif" font-size="15.00">PLUS_SMBL</text>
</g>
<!-- S_START&#45;&gt;PLUS_SMBL -->
<g id="edge43" class="edge"><title>S_START&#45;&gt;PLUS_SMBL</title>
<path fill="none" stroke="black" d="M1134.62,-1564.33C1019.76,-1578.37 811.811,-1618.37 677,-1730 653.473,-1749.48 635.585,-1777.43 622.551,-1804.13"/>
<polygon fill="black" stroke="black" points="619.231,-1802.96 618.142,-1813.5 625.565,-1805.94 619.231,-1802.96"/>
<text text-anchor="middle" x="752" y="-1692" font-family="Times,serif" font-size="25.00">&#39;+&#39;</text>
</g>
<!-- MINUS_SMBL -->
<g id="node11" class="node"><title>MINUS_SMBL</title>
<ellipse fill="none" stroke="green" cx="769" cy="-1884" rx="78.2941" ry="78.5424"/>
<ellipse fill="none" stroke="green" cx="769" cy="-1884" rx="82.2825" ry="82.5434"/>
<text text-anchor="middle" x="769" y="-1880.5" font-family="Times,serif" font-size="15.00">MINUS_SMBL</text>
</g>
<!-- S_START&#45;&gt;MINUS_SMBL -->
<g id="edge44" class="edge"><title>S_START&#45;&gt;MINUS_SMBL</title>
<path fill="none" stroke="black" d="M1137.9,-1580.88C1059.98,-1607.29 941.844,-1656.13 861,-1730 839.806,-1749.37 821.905,-1774.75 807.688,-1799.26"/>
<polygon fill="black" stroke="black" points="804.488,-1797.8 802.618,-1808.23 810.583,-1801.25 804.488,-1797.8"/>
<text text-anchor="middle" x="923" y="-1692" font-family="Times,serif" font-size="25.00">&#39;+&#39;</text>
</g>
<!-- MULTIPLY_SMBL -->
<g id="node12" class="node"><title>MULTIPLY_SMBL</title>
<ellipse fill="none" stroke="green" cx="971" cy="-1884" rx="96.9402" ry="97.076"/>
<ellipse fill="none" stroke="green" cx="971" cy="-1884" rx="100.926" ry="101.068"/>
<text text-anchor="middle" x="971" y="-1880.5" font-family="Times,serif" font-size="15.00">MULTIPLY_SMBL</text>
</g>
<!-- S_START&#45;&gt;MULTIPLY_SMBL -->
<g id="edge51" class="edge"><title>S_START&#45;&gt;MULTIPLY_SMBL</title>
<path fill="none" stroke="black" d="M1165.56,-1621.75C1139.74,-1654.01 1108.35,-1693.76 1081,-1730 1065.86,-1750.06 1049.91,-1771.85 1034.99,-1792.53"/>
<polygon fill="black" stroke="black" points="1032.11,-1790.54 1029.1,-1800.7 1037.79,-1794.63 1032.11,-1790.54"/>
<text text-anchor="middle" x="1123" y="-1692" font-family="Times,serif" font-size="25.00">&#39;*</text>
</g>
<!-- END_OF_FILE -->
<g id="node15" class="node"><title>END_OF_FILE</title>
<ellipse fill="none" stroke="green" cx="1172" cy="-1884" rx="77.2701" ry="77.6624"/>
<ellipse fill="none" stroke="green" cx="1172" cy="-1884" rx="81.2415" ry="81.654"/>
<text text-anchor="middle" x="1172" y="-1880.5" font-family="Times,serif" font-size="15.00">END_OF_FILE</text>
</g>
<!-- S_START&#45;&gt;END_OF_FILE -->
<g id="edge42" class="edge"><title>S_START&#45;&gt;END_OF_FILE</title>
<path fill="none" stroke="black" d="M1206.41,-1639.13C1199.81,-1685.93 1191.52,-1744.65 1184.74,-1792.74"/>
<polygon fill="black" stroke="black" points="1181.24,-1792.44 1183.31,-1802.83 1188.17,-1793.42 1181.24,-1792.44"/>
<text text-anchor="middle" x="1226.5" y="-1691.8" font-family="Times,serif" font-size="24.00">&#39;EOF&#39;</text>
</g>
<!-- NOT -->
<g id="node23" class="node"><title>NOT</title>
<ellipse fill="none" stroke="green" cx="1619" cy="-1556" rx="32.5071" ry="32.8022"/>
<ellipse fill="none" stroke="green" cx="1619" cy="-1556" rx="36.4885" ry="36.8196"/>
<text text-anchor="middle" x="1619" y="-1552.5" font-family="Times,serif" font-size="15.00">NOT</text>
</g>
<!-- S_START&#45;&gt;NOT -->
<g id="edge2" class="edge"><title>S_START&#45;&gt;NOT</title>
<path fill="none" stroke="black" d="M1301.57,-1556C1383.71,-1556 1506.1,-1556 1572.35,-1556"/>
<polygon fill="black" stroke="black" points="1572.48,-1559.5 1582.48,-1556 1572.48,-1552.5 1572.48,-1559.5"/>
<text text-anchor="middle" x="1441.67" y="-1567" font-family="Times,serif" font-size="25.00">&#39;!&#39;</text>
</g>
<!-- R_ARROW -->
<g id="node29" class="node"><title>R_ARROW</title>
<ellipse fill="none" stroke="black" cx="1257" cy="-349" rx="53.4184" ry="53.8905"/>
<text text-anchor="middle" x="1257" y="-345.3" font-family="Times,serif" font-size="14.00">R_ARROW</text>
</g>
<!-- S_START&#45;&gt;R_ARROW -->
<g id="edge5" class="edge"><title>S_START&#45;&gt;R_ARROW</title>
<path fill="none" stroke="black" d="M1221.26,-1471.88C1225.77,-1355.92 1234.01,-1138.97 1240,-954 1246.38,-756.952 1252.55,-523.697 1255.39,-413.596"/>
<polygon fill="black" stroke="black" points="1258.89,-413.417 1255.65,-403.33 1251.89,-413.237 1258.89,-413.417"/>
<text text-anchor="middle" x="1251" y="-980" font-family="Times,serif" font-size="25.00">&#39;&gt;&#39;</text>
</g>
<!-- L_ARROW -->
<g id="node30" class="node"><title>L_ARROW</title>
<ellipse fill="none" stroke="black" cx="1487" cy="-603" rx="53.4184" ry="53.8905"/>
<text text-anchor="middle" x="1487" y="-599.3" font-family="Times,serif" font-size="14.00">L_ARROW</text>
</g>
<!-- S_START&#45;&gt;L_ARROW -->
<g id="edge9" class="edge"><title>S_START&#45;&gt;L_ARROW</title>
<path fill="none" stroke="black" d="M1255.65,-1481.07C1276.81,-1432.8 1299,-1367.69 1299,-1307 1299,-1307 1299,-1307 1299,-857 1299,-765.203 1379.72,-685.076 1435.38,-640.741"/>
<polygon fill="black" stroke="black" points="1437.68,-643.384 1443.4,-634.463 1433.37,-637.873 1437.68,-643.384"/>
<text text-anchor="middle" x="1311" y="-1086" font-family="Times,serif" font-size="25.00">&#39;&lt;&#39;</text>
</g>
<!-- KW_OR_ID -->
<g id="node31" class="node"><title>KW_OR_ID</title>
<ellipse fill="none" stroke="black" cx="91" cy="-858" rx="55.3436" ry="55.7903"/>
<text text-anchor="middle" x="91" y="-854.3" font-family="Times,serif" font-size="14.00">KW_OR_ID</text>
</g>
<!-- S_START&#45;&gt;KW_OR_ID -->
<g id="edge13" class="edge"><title>S_START&#45;&gt;KW_OR_ID</title>
<path fill="none" stroke="black" d="M1136.16,-1538.65C1012.84,-1514.63 771.786,-1470.04 565,-1446 534.914,-1442.5 317.151,-1446.28 293,-1428 132.19,-1306.29 98.9981,-1046.15 92.4316,-924.385"/>
<polygon fill="black" stroke="black" points="95.9127,-923.913 91.9228,-914.098 88.9212,-924.259 95.9127,-923.913"/>
<text text-anchor="middle" x="184" y="-1191.8" font-family="Times,serif" font-size="24.00">&#39;[A&#45;z_]&#39;</text>
</g>
<!-- DIV_OR_COMM -->
<g id="node32" class="node"><title>DIV_OR_COMM</title>
<ellipse fill="none" stroke="black" cx="1589" cy="-1306" rx="76.0649" ry="76.0865"/>
<text text-anchor="middle" x="1589" y="-1302.3" font-family="Times,serif" font-size="14.00">DIV_OR_COMM</text>
</g>
<!-- S_START&#45;&gt;DIV_OR_COMM -->
<g id="edge50" class="edge"><title>S_START&#45;&gt;DIV_OR_COMM</title>
<path fill="none" stroke="black" d="M1290.97,-1515.26C1333.53,-1491.31 1387.78,-1459.43 1434,-1428 1464.06,-1407.56 1495.93,-1383.19 1522.91,-1361.69"/>
<polygon fill="black" stroke="black" points="1525.13,-1364.4 1530.75,-1355.42 1520.75,-1358.93 1525.13,-1364.4"/>
<text text-anchor="middle" x="1477" y="-1408" font-family="Times,serif" font-size="25.00">&#39;/&#39;</text>
</g>
<!-- S_STRING -->
<g id="node36" class="node"><title>S_STRING</title>
<ellipse fill="none" stroke="black" cx="573" cy="-1092" rx="51.4931" ry="51.9908"/>
<text text-anchor="middle" x="573" y="-1088.3" font-family="Times,serif" font-size="14.00">S_STRING</text>
</g>
<!-- S_START&#45;&gt;S_STRING -->
<g id="edge47" class="edge"><title>S_START&#45;&gt;S_STRING</title>
<path fill="none" stroke="black" d="M1150.06,-1507.04C1101.05,-1472.39 1033.35,-1424.43 974,-1382 847.289,-1291.42 698.678,-1184.01 622.917,-1129.16"/>
<polygon fill="black" stroke="black" points="624.64,-1126.09 614.488,-1123.06 620.535,-1131.76 624.64,-1126.09"/>
<text text-anchor="middle" x="984" y="-1300" font-family="Times,serif" font-size="25.00">&#39;&quot;&#39;</text>
</g>
<!-- EQ_OR_ASIGNMENT -->
<g id="node40" class="node"><title>EQ_OR_ASIGNMENT</title>
<ellipse fill="none" stroke="black" cx="2456" cy="-1884" rx="95.3122" ry="95.5831"/>
<text text-anchor="middle" x="2456" y="-1880.3" font-family="Times,serif" font-size="14.00">EQ_OR_ASIGNMENT</text>
</g>
<!-- S_START&#45;&gt;EQ_OR_ASIGNMENT -->
<g id="edge37" class="edge"><title>S_START&#45;&gt;EQ_OR_ASIGNMENT</title>
<path fill="none" stroke="black" d="M1295.55,-1587.17C1366.54,-1613.25 1475.13,-1649.31 1573,-1666 1770.31,-1699.65 1823.64,-1666.08 2023,-1684 2096.31,-1690.59 2288.42,-1691.26 2351,-1730 2374.42,-1744.5 2393.91,-1766.38 2409.48,-1789.09"/>
<polygon fill="black" stroke="black" points="2406.6,-1791.08 2415.04,-1797.49 2412.43,-1787.22 2406.6,-1791.08"/>
<text text-anchor="middle" x="2311" y="-1692" font-family="Times,serif" font-size="25.00">&#39;=&#39;</text>
</g>
<!-- S_NUMBER -->
<g id="node41" class="node"><title>S_NUMBER</title>
<ellipse fill="none" stroke="black" cx="1061" cy="-1306" rx="57.2688" ry="57.6901"/>
<text text-anchor="middle" x="1061" y="-1302.3" font-family="Times,serif" font-size="14.00">S_NUMBER</text>
</g>
<!-- S_START&#45;&gt;S_NUMBER -->
<g id="edge53" class="edge"><title>S_START&#45;&gt;S_NUMBER</title>
<path fill="none" stroke="black" d="M1173.64,-1484.93C1149.48,-1446.77 1119.97,-1400.14 1097.21,-1364.2"/>
<polygon fill="black" stroke="black" points="1099.88,-1361.88 1091.58,-1355.3 1093.97,-1365.62 1099.88,-1361.88"/>
<text text-anchor="middle" x="1163" y="-1407.8" font-family="Times,serif" font-size="24.00">&#39;[0&#45;9]&#39;</text>
</g>
<!-- END_DOUBLE -->
<g id="node13" class="node"><title>END_DOUBLE</title>
<ellipse fill="none" stroke="green" cx="881" cy="-95" rx="78.2941" ry="78.5424"/>
<ellipse fill="none" stroke="green" cx="881" cy="-95" rx="82.2825" ry="82.5434"/>
<text text-anchor="middle" x="881" y="-91.5" font-family="Times,serif" font-size="15.00">END_DOUBLE</text>
</g>
<!-- END_NUMBER -->
<g id="node14" class="node"><title>END_NUMBER</title>
<ellipse fill="none" stroke="green" cx="1146" cy="-858" rx="80.969" ry="81.1122"/>
<ellipse fill="none" stroke="green" cx="1146" cy="-858" rx="84.9527" ry="85.1029"/>
<text text-anchor="middle" x="1146" y="-854.5" font-family="Times,serif" font-size="15.00">END_NUMBER</text>
</g>
<!-- END_KW_OR_ID -->
<g id="node16" class="node"><title>END_KW_OR_ID</title>
<ellipse fill="none" stroke="green" cx="94" cy="-603" rx="90.0167" ry="90.1767"/>
<ellipse fill="none" stroke="green" cx="94" cy="-603" rx="94.0026" ry="94.1697"/>
<text text-anchor="middle" x="94" y="-599.5" font-family="Times,serif" font-size="15.00">END_KW_OR_ID</text>
</g>
<!-- LESS_SMBL -->
<g id="node17" class="node"><title>LESS_SMBL</title>
<ellipse fill="none" stroke="green" cx="1402" cy="-349" rx="68.2248" ry="68.5986"/>
<ellipse fill="none" stroke="green" cx="1402" cy="-349" rx="72.1917" ry="72.5873"/>
<text text-anchor="middle" x="1402" y="-345.5" font-family="Times,serif" font-size="15.00">LESS_SMBL</text>
</g>
<!-- LESS_EQUAL -->
<g id="node18" class="node"><title>LESS_EQUAL</title>
<ellipse fill="none" stroke="green" cx="1572" cy="-349" rx="75.0697" ry="75.0922"/>
<ellipse fill="none" stroke="green" cx="1572" cy="-349" rx="79.0709" ry="79.0946"/>
<text text-anchor="middle" x="1572" y="-345.5" font-family="Times,serif" font-size="15.00">LESS_EQUAL</text>
</g>
<!-- DOUBLE_R_ARR -->
<g id="node19" class="node"><title>DOUBLE_R_ARR</title>
<ellipse fill="none" stroke="green" cx="1455" cy="-95" rx="91.0438" ry="91.0579"/>
<ellipse fill="none" stroke="green" cx="1455" cy="-95" rx="95.0444" ry="95.0592"/>
<text text-anchor="middle" x="1455" y="-91.5" font-family="Times,serif" font-size="15.00">DOUBLE_R_ARR</text>
</g>
<!-- DOUBLE_L_ARR -->
<g id="node20" class="node"><title>DOUBLE_L_ARR</title>
<ellipse fill="none" stroke="green" cx="1763" cy="-349" rx="90.0167" ry="90.1767"/>
<ellipse fill="none" stroke="green" cx="1763" cy="-349" rx="94.0026" ry="94.1697"/>
<text text-anchor="middle" x="1763" y="-345.5" font-family="Times,serif" font-size="15.00">DOUBLE_L_ARR</text>
</g>
<!-- MORE_SMBL -->
<g id="node21" class="node"><title>MORE_SMBL</title>
<ellipse fill="none" stroke="green" cx="1076" cy="-95" rx="74.0457" ry="74.2126"/>
<ellipse fill="none" stroke="green" cx="1076" cy="-95" rx="78.0292" ry="78.2051"/>
<text text-anchor="middle" x="1076" y="-91.5" font-family="Times,serif" font-size="15.00">MORE_SMBL</text>
</g>
<!-- MORE_EQUAL -->
<g id="node22" class="node"><title>MORE_EQUAL</title>
<ellipse fill="none" stroke="green" cx="1257" cy="-95" rx="80.4186" ry="80.7078"/>
<ellipse fill="none" stroke="green" cx="1257" cy="-95" rx="84.4093" ry="84.7128"/>
<text text-anchor="middle" x="1257" y="-91.5" font-family="Times,serif" font-size="15.00">MORE_EQUAL</text>
</g>
<!-- NOT&#45;&gt;NOT -->
<g id="edge4" class="edge"><title>NOT&#45;&gt;NOT</title>
<path fill="none" stroke="black" d="M1645.39,-1581.44C1659.8,-1585.97 1673,-1577.49 1673,-1556 1673,-1539.71 1665.42,-1530.9 1655.48,-1529.56"/>
<polygon fill="black" stroke="black" points="1655,-1526.09 1645.39,-1530.56 1655.69,-1533.05 1655,-1526.09"/>
<text text-anchor="middle" x="1707" y="-1549.8" font-family="Times,serif" font-size="24.00">&#39;ELSE&#39;</text>
</g>
<!-- NOT_EQUAL -->
<g id="node28" class="node"><title>NOT_EQUAL</title>
<ellipse fill="none" stroke="green" cx="1952" cy="-1556" rx="71.9219" ry="72.0484"/>
<ellipse fill="none" stroke="green" cx="1952" cy="-1556" rx="75.9027" ry="76.0362"/>
<text text-anchor="middle" x="1952" y="-1552.5" font-family="Times,serif" font-size="15.00">NOT_EQUAL</text>
</g>
<!-- NOT&#45;&gt;NOT_EQUAL -->
<g id="edge3" class="edge"><title>NOT&#45;&gt;NOT_EQUAL</title>
<path fill="none" stroke="black" d="M1655.59,-1556C1705.73,-1556 1797.33,-1556 1865.48,-1556"/>
<polygon fill="black" stroke="black" points="1865.78,-1559.5 1875.78,-1556 1865.78,-1552.5 1865.78,-1559.5"/>
<text text-anchor="middle" x="1765.37" y="-1567" font-family="Times,serif" font-size="25.00">&#39;=&#39;</text>
</g>
<!-- E_STRING -->
<g id="node24" class="node"><title>E_STRING</title>
<ellipse fill="none" stroke="green" cx="619" cy="-858" rx="59.1809" ry="59.5357"/>
<ellipse fill="none" stroke="green" cx="619" cy="-858" rx="63.1421" ry="63.5207"/>
<text text-anchor="middle" x="619" y="-854.5" font-family="Times,serif" font-size="15.00">E_STRING</text>
</g>
<!-- ASIGNMENT_SMBL -->
<g id="node25" class="node"><title>ASIGNMENT_SMBL</title>
<ellipse fill="none" stroke="green" cx="2258" cy="-1556" rx="105.44" ry="105.74"/>
<ellipse fill="none" stroke="green" cx="2258" cy="-1556" rx="109.433" ry="109.744"/>
<text text-anchor="middle" x="2258" y="-1552.5" font-family="Times,serif" font-size="15.00">ASIGNMENT_SMBL</text>
</g>
<!-- EQUAL_SMBL -->
<g id="node26" class="node"><title>EQUAL_SMBL</title>
<ellipse fill="none" stroke="green" cx="2469" cy="-1556" rx="79.3199" ry="79.4233"/>
<ellipse fill="none" stroke="green" cx="2469" cy="-1556" rx="83.3252" ry="83.4337"/>
<text text-anchor="middle" x="2469" y="-1552.5" font-family="Times,serif" font-size="15.00">EQUAL_SMBL</text>
</g>
<!-- DIVIDE_SMBL -->
<g id="node27" class="node"><title>DIVIDE_SMBL</title>
<ellipse fill="none" stroke="green" cx="1871" cy="-603" rx="80.4186" ry="80.7078"/>
<ellipse fill="none" stroke="green" cx="1871" cy="-603" rx="84.4093" ry="84.7128"/>
<text text-anchor="middle" x="1871" y="-599.5" font-family="Times,serif" font-size="15.00">DIVIDE_SMBL</text>
</g>
<!-- R_ARROW&#45;&gt;DOUBLE_R_ARR -->
<g id="edge8" class="edge"><title>R_ARROW&#45;&gt;DOUBLE_R_ARR</title>
<path fill="none" stroke="black" d="M1285.45,-303.263C1295.92,-287.422 1308.13,-269.654 1320,-254 1340.25,-227.294 1363.58,-199.166 1385.09,-174.164"/>
<polygon fill="black" stroke="black" points="1387.81,-176.366 1391.7,-166.511 1382.51,-171.791 1387.81,-176.366"/>
<text text-anchor="middle" x="1367" y="-216" font-family="Times,serif" font-size="25.00">&#39;&gt;&#39;</text>
</g>
<!-- R_ARROW&#45;&gt;MORE_SMBL -->
<g id="edge6" class="edge"><title>R_ARROW&#45;&gt;MORE_SMBL</title>
<path fill="none" stroke="black" d="M1226.09,-304.966C1199,-267.25 1159.09,-211.679 1127.23,-167.324"/>
<polygon fill="black" stroke="black" points="1130.06,-165.26 1121.38,-159.179 1124.37,-169.343 1130.06,-165.26"/>
<text text-anchor="middle" x="1205" y="-215.8" font-family="Times,serif" font-size="24.00">&#39;ELSE&#39;</text>
</g>
<!-- R_ARROW&#45;&gt;MORE_EQUAL -->
<g id="edge7" class="edge"><title>R_ARROW&#45;&gt;MORE_EQUAL</title>
<path fill="none" stroke="black" d="M1257,-294.865C1257,-264.505 1257,-225.546 1257,-190.169"/>
<polygon fill="black" stroke="black" points="1260.5,-189.809 1257,-179.809 1253.5,-189.809 1260.5,-189.809"/>
<text text-anchor="middle" x="1269" y="-216" font-family="Times,serif" font-size="25.00">&#39;=&#39;</text>
</g>
<!-- L_ARROW&#45;&gt;LESS_SMBL -->
<g id="edge10" class="edge"><title>L_ARROW&#45;&gt;LESS_SMBL</title>
<path fill="none" stroke="black" d="M1470,-551.61C1458.07,-516.239 1441.89,-468.254 1428.3,-427.971"/>
<polygon fill="black" stroke="black" points="1431.6,-426.798 1425.09,-418.441 1424.97,-429.036 1431.6,-426.798"/>
<text text-anchor="middle" x="1481" y="-469.8" font-family="Times,serif" font-size="24.00">&#39;ELSE&#39;</text>
</g>
<!-- L_ARROW&#45;&gt;LESS_EQUAL -->
<g id="edge11" class="edge"><title>L_ARROW&#45;&gt;LESS_EQUAL</title>
<path fill="none" stroke="black" d="M1504,-551.61C1515.34,-517.977 1530.53,-472.939 1543.68,-433.963"/>
<polygon fill="black" stroke="black" points="1547.09,-434.789 1546.97,-424.195 1540.46,-432.552 1547.09,-434.789"/>
<text text-anchor="middle" x="1544" y="-470" font-family="Times,serif" font-size="25.00">&#39;=&#39;</text>
</g>
<!-- L_ARROW&#45;&gt;DOUBLE_L_ARR -->
<g id="edge12" class="edge"><title>L_ARROW&#45;&gt;DOUBLE_L_ARR</title>
<path fill="none" stroke="black" d="M1526.25,-566.162C1567.74,-528.279 1634.24,-467.561 1686.21,-420.108"/>
<polygon fill="black" stroke="black" points="1688.75,-422.535 1693.77,-413.208 1684.03,-417.366 1688.75,-422.535"/>
<text text-anchor="middle" x="1645" y="-470" font-family="Times,serif" font-size="25.00">&#39;&lt;&#39;</text>
</g>
<!-- KW_OR_ID&#45;&gt;ERR -->
<g id="edge14" class="edge"><title>KW_OR_ID&#45;&gt;ERR</title>
<path fill="none" stroke="black" d="M126.935,-815.165C150.96,-784.738 180.998,-741.426 197,-698 273.73,-489.769 151.517,-378.968 293,-208 336.933,-154.912 412.017,-125.157 464.844,-109.879"/>
<polygon fill="black" stroke="black" points="466.079,-113.168 474.766,-107.103 464.193,-106.427 466.079,-113.168"/>
<text text-anchor="middle" x="258" y="-469.8" font-family="Times,serif" font-size="24.00">&#39;ELSE&#39;</text>
</g>
<!-- KW_OR_ID&#45;&gt;END_KW_OR_ID -->
<g id="edge16" class="edge"><title>KW_OR_ID&#45;&gt;END_KW_OR_ID</title>
<path fill="none" stroke="black" d="M91.651,-802.103C91.9783,-774.498 92.386,-740.111 92.7695,-707.772"/>
<polygon fill="black" stroke="black" points="96.2741,-707.397 92.893,-697.356 89.2746,-707.314 96.2741,-707.397"/>
<text text-anchor="middle" x="127" y="-723.8" font-family="Times,serif" font-size="24.00">&#39;ELSE&#39;</text>
</g>
<!-- KW_OR_ID&#45;&gt;KW_OR_ID -->
<g id="edge15" class="edge"><title>KW_OR_ID&#45;&gt;KW_OR_ID</title>
<path fill="none" stroke="black" d="M141.494,-881.713C154.349,-880.154 164,-872.25 164,-858 164,-847.758 159.014,-840.794 151.437,-837.108"/>
<polygon fill="black" stroke="black" points="152.07,-833.65 141.494,-834.287 150.159,-840.384 152.07,-833.65"/>
<text text-anchor="middle" x="217" y="-851.8" font-family="Times,serif" font-size="24.00">&#39;[A&#45;z_0&#45;9]&#39;</text>
</g>
<!-- DIV_OR_COMM&#45;&gt;DIVIDE_SMBL -->
<g id="edge17" class="edge"><title>DIV_OR_COMM&#45;&gt;DIVIDE_SMBL</title>
<path fill="none" stroke="black" d="M1663.02,-1287.86C1725.17,-1269.19 1810.29,-1232.65 1852,-1166 1942.21,-1021.86 1918.46,-813.709 1894.07,-695.369"/>
<polygon fill="black" stroke="black" points="1897.42,-694.318 1891.93,-685.254 1890.57,-695.761 1897.42,-694.318"/>
<text text-anchor="middle" x="1946" y="-979.8" font-family="Times,serif" font-size="24.00">&#39;ELSE&#39;</text>
</g>
<!-- LINE_COMM -->
<g id="node33" class="node"><title>LINE_COMM</title>
<ellipse fill="none" stroke="black" cx="1443" cy="-1092" rx="63.5411" ry="63.8893"/>
<text text-anchor="middle" x="1443" y="-1088.3" font-family="Times,serif" font-size="14.00">LINE_COMM</text>
</g>
<!-- DIV_OR_COMM&#45;&gt;LINE_COMM -->
<g id="edge18" class="edge"><title>DIV_OR_COMM&#45;&gt;LINE_COMM</title>
<path fill="none" stroke="black" d="M1546.18,-1242.83C1526.74,-1214.59 1503.83,-1181.32 1484.54,-1153.31"/>
<polygon fill="black" stroke="black" points="1487.23,-1151.05 1478.68,-1144.8 1481.46,-1155.02 1487.23,-1151.05"/>
<text text-anchor="middle" x="1532" y="-1192" font-family="Times,serif" font-size="25.00">&#39;/&#39;</text>
</g>
<!-- BLOCK_COMM -->
<g id="node34" class="node"><title>BLOCK_COMM</title>
<ellipse fill="none" stroke="black" cx="1684" cy="-1092" rx="73.1654" ry="73.387"/>
<text text-anchor="middle" x="1684" y="-1088.3" font-family="Times,serif" font-size="14.00">BLOCK_COMM</text>
</g>
<!-- DIV_OR_COMM&#45;&gt;BLOCK_COMM -->
<g id="edge21" class="edge"><title>DIV_OR_COMM&#45;&gt;BLOCK_COMM</title>
<path fill="none" stroke="black" d="M1619.84,-1236.17C1629.51,-1214.59 1640.24,-1190.65 1650.11,-1168.63"/>
<polygon fill="black" stroke="black" points="1653.39,-1169.88 1654.28,-1159.32 1647,-1167.01 1653.39,-1169.88"/>
<text text-anchor="middle" x="1653" y="-1192" font-family="Times,serif" font-size="25.00">&#39;*&#39;</text>
</g>
<!-- LINE_COMM&#45;&gt;S_START -->
<g id="edge20" class="edge"><title>LINE_COMM&#45;&gt;S_START</title>
<path fill="none" stroke="black" d="M1439.95,-1155.69C1434,-1226.44 1416.49,-1342.77 1365,-1428 1347.53,-1456.91 1321.24,-1482.63 1295.7,-1503.24"/>
<polygon fill="black" stroke="black" points="1293.48,-1500.53 1287.8,-1509.47 1297.82,-1506.02 1293.48,-1500.53"/>
<text text-anchor="middle" x="1444.5" y="-1300" font-family="Times,serif" font-size="25.00">&#39;\n&#39;</text>
</g>
<!-- LINE_COMM&#45;&gt;LINE_COMM -->
<g id="edge19" class="edge"><title>LINE_COMM&#45;&gt;LINE_COMM</title>
<path fill="none" stroke="black" d="M1503.76,-1110.99C1515.59,-1108.79 1524,-1102.46 1524,-1092 1524,-1084.81 1520.03,-1079.57 1513.7,-1076.29"/>
<polygon fill="black" stroke="black" points="1514.35,-1072.82 1503.76,-1073.01 1512.16,-1079.46 1514.35,-1072.82"/>
<text text-anchor="middle" x="1558" y="-1085.8" font-family="Times,serif" font-size="24.00">&#39;ELSE&#39;</text>
</g>
<!-- BLOCK_COMM&#45;&gt;BLOCK_COMM -->
<g id="edge23" class="edge"><title>BLOCK_COMM&#45;&gt;BLOCK_COMM</title>
<path fill="none" stroke="black" d="M1754.97,-1110.47C1766.82,-1107.89 1775,-1101.73 1775,-1092 1775,-1085.16 1770.96,-1080.08 1764.43,-1076.77"/>
<polygon fill="black" stroke="black" points="1765.56,-1073.46 1754.97,-1073.53 1763.29,-1080.08 1765.56,-1073.46"/>
<text text-anchor="middle" x="1809" y="-1085.8" font-family="Times,serif" font-size="24.00">&#39;ELSE&#39;</text>
</g>
<!-- END_BLOCK_COMM -->
<g id="node35" class="node"><title>END_BLOCK_COMM</title>
<ellipse fill="none" stroke="black" cx="1593" cy="-858" rx="96.2874" ry="96.3833"/>
<text text-anchor="middle" x="1593" y="-854.3" font-family="Times,serif" font-size="14.00">END_BLOCK_COMM</text>
</g>
<!-- BLOCK_COMM&#45;&gt;END_BLOCK_COMM -->
<g id="edge22" class="edge"><title>BLOCK_COMM&#45;&gt;END_BLOCK_COMM</title>
<path fill="none" stroke="black" d="M1675.07,-1019.04C1671.91,-1003.24 1667.67,-986.815 1662,-972 1658.87,-963.811 1655.13,-955.554 1651.05,-947.43"/>
<polygon fill="black" stroke="black" points="1654.03,-945.577 1646.31,-938.326 1647.83,-948.812 1654.03,-945.577"/>
<text text-anchor="middle" x="1681" y="-980" font-family="Times,serif" font-size="25.00">&#39;*&#39;</text>
</g>
<!-- END_BLOCK_COMM&#45;&gt;S_START -->
<g id="edge24" class="edge"><title>END_BLOCK_COMM&#45;&gt;S_START</title>
<path fill="none" stroke="black" d="M1506,-898.992C1457.94,-925.732 1401.72,-965.643 1370,-1018 1274.66,-1175.34 1382.98,-1257.85 1313,-1428 1304.85,-1447.81 1292.89,-1467.3 1280.18,-1484.84"/>
<polygon fill="black" stroke="black" points="1277.05,-1483.18 1273.89,-1493.29 1282.67,-1487.36 1277.05,-1483.18"/>
<text text-anchor="middle" x="1339" y="-1192" font-family="Times,serif" font-size="25.00">&#39;/&#39;</text>
</g>
<!-- END_BLOCK_COMM&#45;&gt;BLOCK_COMM -->
<g id="edge25" class="edge"><title>END_BLOCK_COMM&#45;&gt;BLOCK_COMM</title>
<path fill="none" stroke="black" d="M1580.15,-953.621C1581.02,-969.545 1583.89,-985.572 1590,-1000 1593.92,-1009.26 1606.37,-1022.99 1620.98,-1037"/>
<polygon fill="black" stroke="black" points="1618.61,-1039.58 1628.3,-1043.88 1623.41,-1034.48 1618.61,-1039.58"/>
<text text-anchor="middle" x="1624" y="-979.8" font-family="Times,serif" font-size="24.00">&#39;ELSE&#39;</text>
</g>
<!-- S_STRING&#45;&gt;ERR -->
<g id="edge27" class="edge"><title>S_STRING&#45;&gt;ERR</title>
<path fill="none" stroke="black" d="M612.836,-1058.82C640.632,-1033.63 675.43,-995.935 691,-954 720.702,-874.003 719.926,-842.281 691,-762 678.481,-727.255 651.99,-732.179 638,-698 562.974,-514.706 651.735,-445.178 600,-254 590.045,-217.212 571.822,-178.516 555.832,-148.627"/>
<polygon fill="black" stroke="black" points="558.802,-146.762 550.953,-139.646 552.651,-150.103 558.802,-146.762"/>
<text text-anchor="middle" x="672" y="-596.8" font-family="Times,serif" font-size="24.00">&#39;ELSE&#39;</text>
</g>
<!-- S_STRING&#45;&gt;E_STRING -->
<g id="edge36" class="edge"><title>S_STRING&#45;&gt;E_STRING</title>
<path fill="none" stroke="black" d="M582.925,-1040.95C589.298,-1008.8 597.677,-966.54 604.756,-930.839"/>
<polygon fill="black" stroke="black" points="608.204,-931.447 606.715,-920.957 601.337,-930.086 608.204,-931.447"/>
<text text-anchor="middle" x="606" y="-980" font-family="Times,serif" font-size="25.00">&#39;&quot;&#39;</text>
</g>
<!-- S_STRING&#45;&gt;S_STRING -->
<g id="edge26" class="edge"><title>S_STRING&#45;&gt;S_STRING</title>
<path fill="none" stroke="black" d="M620.727,-1111.64C632.878,-1110.35 642,-1103.8 642,-1092 642,-1083.7 637.49,-1078 630.589,-1074.9"/>
<polygon fill="black" stroke="black" points="631.284,-1071.47 620.727,-1072.36 629.539,-1078.25 631.284,-1071.47"/>
</g>
<!-- S_ESCAPE -->
<g id="node37" class="node"><title>S_ESCAPE</title>
<ellipse fill="none" stroke="black" cx="446" cy="-858" rx="52.4675" ry="52.7911"/>
<text text-anchor="middle" x="446" y="-854.3" font-family="Times,serif" font-size="14.00">S_ESCAPE</text>
</g>
<!-- S_STRING&#45;&gt;S_ESCAPE -->
<g id="edge28" class="edge"><title>S_STRING&#45;&gt;S_ESCAPE</title>
<path fill="none" stroke="black" d="M537.27,-1054.25C523.33,-1038.48 508.074,-1019.28 497,-1000 482.513,-974.781 470.957,-944.718 462.533,-918.843"/>
<polygon fill="black" stroke="black" points="465.818,-917.624 459.458,-909.15 459.145,-919.74 465.818,-917.624"/>
<text text-anchor="middle" x="505" y="-980" font-family="Times,serif" font-size="25.00">&#39;\&#39;</text>
</g>
<!-- S_ESCAPE&#45;&gt;ERR -->
<g id="edge30" class="edge"><title>S_ESCAPE&#45;&gt;ERR</title>
<path fill="none" stroke="black" d="M421.9,-811.057C406.817,-780.013 388.501,-737.615 379,-698 332.95,-505.999 287.584,-436.059 364,-254 386.123,-201.292 435.357,-157.325 473.595,-129.266"/>
<polygon fill="black" stroke="black" points="475.99,-131.855 482.066,-123.176 471.903,-126.172 475.99,-131.855"/>
<text text-anchor="middle" x="362" y="-469.8" font-family="Times,serif" font-size="24.00">&#39;ELSE&#39;</text>
</g>
<!-- S_ESCAPE&#45;&gt;S_STRING -->
<g id="edge29" class="edge"><title>S_ESCAPE&#45;&gt;S_STRING</title>
<path fill="none" stroke="black" d="M422.94,-905.45C412.08,-934.301 404.695,-971.235 421,-1000 440.963,-1035.22 480.581,-1058.28 514.364,-1072.37"/>
<polygon fill="black" stroke="black" points="513.132,-1075.65 523.717,-1076.11 515.731,-1069.15 513.132,-1075.65"/>
<text text-anchor="middle" x="450.5" y="-980" font-family="Times,serif" font-size="25.00">&#39;[tn\\]&#39;</text>
</g>
<!-- ESCAPE_X1 -->
<g id="node38" class="node"><title>ESCAPE_X1</title>
<ellipse fill="none" stroke="black" cx="446" cy="-603" rx="58.2422" ry="58.4896"/>
<text text-anchor="middle" x="446" y="-599.3" font-family="Times,serif" font-size="14.00">ESCAPE_X1</text>
</g>
<!-- S_ESCAPE&#45;&gt;ESCAPE_X1 -->
<g id="edge31" class="edge"><title>S_ESCAPE&#45;&gt;ESCAPE_X1</title>
<path fill="none" stroke="black" d="M446,-805.191C446,-766.727 446,-713.91 446,-672.043"/>
<polygon fill="black" stroke="black" points="449.5,-671.924 446,-661.924 442.5,-671.924 449.5,-671.924"/>
<text text-anchor="middle" x="457" y="-724" font-family="Times,serif" font-size="25.00">&#39;x&#39;</text>
</g>
<!-- ESCAPE_X1&#45;&gt;ERR -->
<g id="edge33" class="edge"><title>ESCAPE_X1&#45;&gt;ERR</title>
<path fill="none" stroke="black" d="M474.618,-551.951C484.048,-533.116 493.515,-511.134 499,-490 528.873,-374.903 530.2,-234.888 527.951,-156.567"/>
<polygon fill="black" stroke="black" points="531.443,-156.282 527.628,-146.398 524.447,-156.504 531.443,-156.282"/>
<text text-anchor="middle" x="562" y="-342.8" font-family="Times,serif" font-size="24.00">&#39;ELSE&#39;</text>
</g>
<!-- ESCAPE_X2 -->
<g id="node39" class="node"><title>ESCAPE_X2</title>
<ellipse fill="none" stroke="black" cx="431" cy="-349" rx="58.2422" ry="58.4896"/>
<text text-anchor="middle" x="431" y="-345.3" font-family="Times,serif" font-size="14.00">ESCAPE_X2</text>
</g>
<!-- ESCAPE_X1&#45;&gt;ESCAPE_X2 -->
<g id="edge32" class="edge"><title>ESCAPE_X1&#45;&gt;ESCAPE_X2</title>
<path fill="none" stroke="black" d="M440.963,-544.476C439.544,-526.992 438.091,-507.718 437,-490 435.548,-466.416 434.334,-440.575 433.386,-417.585"/>
<polygon fill="black" stroke="black" points="436.883,-417.433 432.983,-407.582 429.889,-417.715 436.883,-417.433"/>
<text text-anchor="middle" x="468" y="-469.8" font-family="Times,serif" font-size="24.00">&#39;[A&#45;z]&#39;</text>
</g>
<!-- ESCAPE_X2&#45;&gt;ERR -->
<g id="edge35" class="edge"><title>ESCAPE_X2&#45;&gt;ERR</title>
<path fill="none" stroke="black" d="M428.979,-290.255C429.819,-264.382 433.279,-233.925 443,-208 452.106,-183.715 468.049,-160.054 483.47,-140.784"/>
<polygon fill="black" stroke="black" points="486.381,-142.754 490.026,-132.806 480.973,-138.31 486.381,-142.754"/>
<text text-anchor="middle" x="477" y="-215.8" font-family="Times,serif" font-size="24.00">&#39;ELSE&#39;</text>
</g>
<!-- ESCAPE_X2&#45;&gt;S_STRING -->
<g id="edge34" class="edge"><title>ESCAPE_X2&#45;&gt;S_STRING</title>
<path fill="none" stroke="black" d="M465.975,-396.163C479.271,-415.616 493.491,-439.042 503,-462 511.006,-481.329 509.998,-487.294 513,-508 541.515,-704.708 519.402,-757.024 546,-954 549.435,-979.436 554.647,-1007.27 559.578,-1031.16"/>
<polygon fill="black" stroke="black" points="556.193,-1032.07 561.668,-1041.14 563.044,-1030.63 556.193,-1032.07"/>
<text text-anchor="middle" x="562" y="-723.8" font-family="Times,serif" font-size="24.00">&#39;[A&#45;z]&#39;</text>
</g>
<!-- EQ_OR_ASIGNMENT&#45;&gt;ASIGNMENT_SMBL -->
<g id="edge38" class="edge"><title>EQ_OR_ASIGNMENT&#45;&gt;ASIGNMENT_SMBL</title>
<path fill="none" stroke="black" d="M2406.8,-1802C2380.49,-1758.68 2347.84,-1704.92 2319.83,-1658.81"/>
<polygon fill="black" stroke="black" points="2322.66,-1656.72 2314.48,-1649.99 2316.68,-1660.36 2322.66,-1656.72"/>
<text text-anchor="middle" x="2385" y="-1691.8" font-family="Times,serif" font-size="24.00">&#39;ELSE&#39;</text>
</g>
<!-- EQ_OR_ASIGNMENT&#45;&gt;EQUAL_SMBL -->
<g id="edge39" class="edge"><title>EQ_OR_ASIGNMENT&#45;&gt;EQUAL_SMBL</title>
<path fill="none" stroke="black" d="M2459.78,-1788.27C2461.52,-1744.49 2463.59,-1692.7 2465.32,-1649.23"/>
<polygon fill="black" stroke="black" points="2468.82,-1649.37 2465.72,-1639.24 2461.82,-1649.09 2468.82,-1649.37"/>
<text text-anchor="middle" x="2475" y="-1692" font-family="Times,serif" font-size="25.00">&#39;=&#39;</text>
</g>
<!-- S_NUMBER&#45;&gt;END_NUMBER -->
<g id="edge55" class="edge"><title>S_NUMBER&#45;&gt;END_NUMBER</title>
<path fill="none" stroke="black" d="M1071.68,-1248.97C1085.88,-1174.44 1111.18,-1041.69 1128.27,-952.018"/>
<polygon fill="black" stroke="black" points="1131.72,-952.599 1130.16,-942.121 1124.85,-951.289 1131.72,-952.599"/>
<text text-anchor="middle" x="1148" y="-1085.8" font-family="Times,serif" font-size="24.00">&#39;ELSE&#39;</text>
</g>
<!-- S_NUMBER&#45;&gt;S_NUMBER -->
<g id="edge54" class="edge"><title>S_NUMBER&#45;&gt;S_NUMBER</title>
<path fill="none" stroke="black" d="M1115.27,-1325.7C1127.27,-1323.85 1136,-1317.29 1136,-1306 1136,-1298.07 1131.68,-1292.46 1124.95,-1289.19"/>
<polygon fill="black" stroke="black" points="1125.86,-1285.81 1115.27,-1286.3 1123.85,-1292.52 1125.86,-1285.81"/>
<text text-anchor="middle" x="1165" y="-1299.8" font-family="Times,serif" font-size="24.00">&#39;[0&#45;9]&#39;</text>
</g>
<!-- EXPONENT -->
<g id="node42" class="node"><title>EXPONENT</title>
<ellipse fill="none" stroke="black" cx="871" cy="-603" rx="57.2927" ry="57.3905"/>
<text text-anchor="middle" x="871" y="-599.3" font-family="Times,serif" font-size="14.00">EXPONENT</text>
</g>
<!-- S_NUMBER&#45;&gt;EXPONENT -->
<g id="edge56" class="edge"><title>S_NUMBER&#45;&gt;EXPONENT</title>
<path fill="none" stroke="black" d="M1060.63,-1248.15C1059.11,-1127.14 1051.52,-848.094 1014,-762 994.022,-716.157 955.277,-674.678 923.15,-645.733"/>
<polygon fill="black" stroke="black" points="925.372,-643.026 915.565,-639.018 920.732,-648.267 925.372,-643.026"/>
<text text-anchor="middle" x="1077" y="-979.8" font-family="Times,serif" font-size="24.00">&#39;[eE]&#39;</text>
</g>
<!-- D_NUMBER -->
<g id="node43" class="node"><title>D_NUMBER</title>
<ellipse fill="none" stroke="black" cx="853" cy="-1092" rx="59.1941" ry="59.5901"/>
<text text-anchor="middle" x="853" y="-1088.3" font-family="Times,serif" font-size="14.00">D_NUMBER</text>
</g>
<!-- S_NUMBER&#45;&gt;D_NUMBER -->
<g id="edge57" class="edge"><title>S_NUMBER&#45;&gt;D_NUMBER</title>
<path fill="none" stroke="black" d="M1020.9,-1264.12C986.808,-1229.38 937.769,-1179.4 901.484,-1142.42"/>
<polygon fill="black" stroke="black" points="903.907,-1139.89 894.405,-1135.2 898.91,-1144.79 903.907,-1139.89"/>
<text text-anchor="middle" x="977" y="-1192" font-family="Times,serif" font-size="25.00">&#39;.&#39;</text>
</g>
<!-- EXPONENT&#45;&gt;ERR -->
<g id="edge64" class="edge"><title>EXPONENT&#45;&gt;ERR</title>
<path fill="none" stroke="black" d="M839.363,-555.055C827.811,-539.356 814.101,-522.243 800,-508 767.226,-474.898 741.068,-483.882 717,-444 661.994,-352.852 731.855,-298.631 676,-208 653.225,-171.045 613.36,-142.259 580.308,-123.128"/>
<polygon fill="black" stroke="black" points="581.617,-119.849 571.186,-117.99 578.181,-125.947 581.617,-119.849"/>
<text text-anchor="middle" x="751" y="-342.8" font-family="Times,serif" font-size="24.00">&#39;ELSE&#39;</text>
</g>
<!-- FEX_NUMBER -->
<g id="node45" class="node"><title>FEX_NUMBER</title>
<ellipse fill="none" stroke="black" cx="864" cy="-349" rx="69.3156" ry="69.5877"/>
<text text-anchor="middle" x="864" y="-345.3" font-family="Times,serif" font-size="14.00">FEX_NUMBER</text>
</g>
<!-- EXPONENT&#45;&gt;FEX_NUMBER -->
<g id="edge63" class="edge"><title>EXPONENT&#45;&gt;FEX_NUMBER</title>
<path fill="none" stroke="black" d="M869.438,-545.76C868.48,-511.272 867.239,-466.601 866.184,-428.642"/>
<polygon fill="black" stroke="black" points="869.683,-428.537 865.907,-418.638 862.686,-428.732 869.683,-428.537"/>
<text text-anchor="middle" x="907" y="-469.8" font-family="Times,serif" font-size="24.00">&#39;[&#45;+0&#45;9]&#39;</text>
</g>
<!-- D_NUMBER&#45;&gt;ERR -->
<g id="edge59" class="edge"><title>D_NUMBER&#45;&gt;ERR</title>
<path fill="none" stroke="black" d="M817.052,-1044.09C799.453,-1018.74 779.604,-986.117 768,-954 699.993,-765.781 751.036,-702.995 706,-508 679.274,-392.283 664.144,-365.409 623,-254 615.337,-233.25 614.663,-227.38 604,-208 591.96,-186.117 576.511,-163.35 562.474,-144.102"/>
<polygon fill="black" stroke="black" points="565.104,-141.771 556.351,-135.803 559.472,-145.927 565.104,-141.771"/>
<text text-anchor="middle" x="762" y="-596.8" font-family="Times,serif" font-size="24.00">&#39;ELSE&#39;</text>
</g>
<!-- FRAC_NUMBER -->
<g id="node44" class="node"><title>FRAC_NUMBER</title>
<ellipse fill="none" stroke="black" cx="853" cy="-858" rx="76.0649" ry="76.0865"/>
<text text-anchor="middle" x="853" y="-854.3" font-family="Times,serif" font-size="14.00">FRAC_NUMBER</text>
</g>
<!-- D_NUMBER&#45;&gt;FRAC_NUMBER -->
<g id="edge58" class="edge"><title>D_NUMBER&#45;&gt;FRAC_NUMBER</title>
<path fill="none" stroke="black" d="M853,-1032.16C853,-1005.62 853,-973.758 853,-944.643"/>
<polygon fill="black" stroke="black" points="856.5,-944.472 853,-934.472 849.5,-944.472 856.5,-944.472"/>
<text text-anchor="middle" x="882" y="-979.8" font-family="Times,serif" font-size="24.00">&#39;[0&#45;9]&#39;</text>
</g>
<!-- FRAC_NUMBER&#45;&gt;END_DOUBLE -->
<g id="edge61" class="edge"><title>FRAC_NUMBER&#45;&gt;END_DOUBLE</title>
<path fill="none" stroke="black" d="M891.94,-792.653C900.904,-776.949 910.113,-760.046 918,-744 966.311,-645.714 1013.49,-472.96 1018,-444 1030.98,-360.559 1047.52,-333.115 1018,-254 1004.19,-217.001 977.385,-182.918 951.118,-155.954"/>
<polygon fill="black" stroke="black" points="953.271,-153.156 943.735,-148.541 948.312,-158.096 953.271,-153.156"/>
<text text-anchor="middle" x="1048" y="-469.8" font-family="Times,serif" font-size="24.00">&#39;ELSE&#39;</text>
</g>
<!-- FRAC_NUMBER&#45;&gt;EXPONENT -->
<g id="edge62" class="edge"><title>FRAC_NUMBER&#45;&gt;EXPONENT</title>
<path fill="none" stroke="black" d="M858.328,-782.119C860.845,-746.729 863.826,-704.834 866.264,-670.569"/>
<polygon fill="black" stroke="black" points="869.783,-670.419 867.002,-660.196 862.801,-669.922 869.783,-670.419"/>
<text text-anchor="middle" x="888" y="-723.8" font-family="Times,serif" font-size="24.00">&#39;[eE]&#39;</text>
</g>
<!-- FRAC_NUMBER&#45;&gt;FRAC_NUMBER -->
<g id="edge60" class="edge"><title>FRAC_NUMBER&#45;&gt;FRAC_NUMBER</title>
<path fill="none" stroke="black" d="M925.914,-880.405C938.37,-877.343 947,-869.875 947,-858 947,-849.465 942.542,-843.206 935.409,-839.224"/>
<polygon fill="black" stroke="black" points="936.505,-835.896 925.914,-835.595 934.006,-842.435 936.505,-835.896"/>
<text text-anchor="middle" x="976" y="-851.8" font-family="Times,serif" font-size="24.00">&#39;[0&#45;9]&#39;</text>
</g>
<!-- FEX_NUMBER&#45;&gt;ERR -->
<g id="edge67" class="edge"><title>FEX_NUMBER&#45;&gt;ERR</title>
<path fill="none" stroke="black" d="M819.749,-295.29C807.343,-281.413 793.535,-266.762 780,-254 719.464,-196.921 635.176,-149.551 580.356,-122.001"/>
<polygon fill="black" stroke="black" points="581.66,-118.74 571.147,-117.42 578.542,-125.008 581.66,-118.74"/>
<text text-anchor="middle" x="790" y="-215.8" font-family="Times,serif" font-size="24.00">&#39;ELSE&#39;</text>
</g>
<!-- FEX_NUMBER&#45;&gt;END_DOUBLE -->
<g id="edge66" class="edge"><title>FEX_NUMBER&#45;&gt;END_DOUBLE</title>
<path fill="none" stroke="black" d="M868.623,-279.473C870.531,-251.189 872.771,-217.988 874.817,-187.66"/>
<polygon fill="black" stroke="black" points="878.321,-187.709 875.502,-177.496 871.337,-187.238 878.321,-187.709"/>
<text text-anchor="middle" x="907" y="-215.8" font-family="Times,serif" font-size="24.00">&#39;ELSE&#39;</text>
</g>
<!-- FEX_NUMBER&#45;&gt;FEX_NUMBER -->
<g id="edge65" class="edge"><title>FEX_NUMBER&#45;&gt;FEX_NUMBER</title>
<path fill="none" stroke="black" d="M929.635,-371.495C942.15,-368.803 951,-361.305 951,-349 951,-340.156 946.428,-333.795 939.21,-329.917"/>
<polygon fill="black" stroke="black" points="940.23,-326.565 929.635,-326.505 937.88,-333.159 940.23,-326.565"/>
<text text-anchor="middle" x="980" y="-342.8" font-family="Times,serif" font-size="24.00">&#39;[0&#45;9]&#39;</text>
</g>
</g>
</svg>
